<svg width="59" height="58" viewBox="0 0 59 58" fill="none" xmlns="http://www.w3.org/2000/svg">
<g clip-path="url(#clip0)">
<path d="M29.0234 0.000173432C36.118 0.000173432 43.2127 0.00379685 50.3073 0.000173432C52.9234 0.000173432 55.0576 0.982119 56.6193 3.10906C57.3984 4.17073 57.9274 5.35921 57.9419 6.69987C57.9745 10.2617 57.9781 13.8235 57.9781 17.3853C57.9817 24.6901 57.8658 31.9986 58.0216 39.3034C58.1086 43.4631 54.8801 47.2386 50.1805 47.1698C45.2309 47.0973 40.2777 47.1372 35.3281 47.1771C34.7738 47.1807 34.1324 47.3908 33.6867 47.7206C29.4944 50.8258 25.3384 53.9782 21.1715 57.1161C20.8598 57.3516 20.5482 57.6016 20.2076 57.7864C19.1858 58.3372 18.2292 57.7792 18.2256 56.6269C18.2184 53.9094 18.2256 51.1918 18.2256 48.4742C18.2256 47.1553 18.2256 47.1553 16.8632 47.1553C13.8123 47.1553 10.765 47.1662 7.71409 47.1517C4.48563 47.1372 2.06881 45.7168 0.706409 42.7818C0.264352 41.8325 0.0397005 40.6948 0.0324536 39.6403C-0.0146508 29.0129 -0.000157115 18.3854 0.0107131 7.75791C0.0143365 3.13443 3.1812 0.00742026 7.83004 0.00379685C14.8957 -0.00344998 21.9614 0.000173432 29.0234 0.000173432ZM23.5738 48.3184C23.8637 48.1952 24.0122 48.1662 24.1173 48.0865C26.603 46.2277 29.0959 44.3762 31.5634 42.492C32.212 41.9956 32.8461 41.7129 33.6976 41.7202C39.1291 41.7564 44.5642 41.7419 49.9957 41.7383C51.9451 41.7347 52.5611 41.1187 52.5611 39.2055C52.5611 28.8244 52.5611 18.4397 52.5611 8.05865C52.5611 5.98968 52.0683 5.50414 49.9993 5.50414C36.0238 5.50414 22.0519 5.50414 8.07644 5.50414C5.90963 5.50414 5.44221 5.97519 5.44221 8.18547C5.44221 18.447 5.44221 28.7085 5.44221 38.97C5.44221 41.1767 6.00746 41.7383 8.23949 41.7419C13.0369 41.7456 17.8379 41.7564 22.6353 41.7274C23.3491 41.7238 23.6064 41.9412 23.581 42.6514C23.5412 43.887 23.5702 45.1262 23.5702 46.3618C23.5738 46.9741 23.5738 47.5901 23.5738 48.3184Z" fill="black"/>
<path d="M25.4472 19.9649C25.4472 18.2727 25.4436 16.6821 25.4472 15.0914C25.4545 12.5151 25.1755 12.7507 27.759 12.747C28.9945 12.747 30.2338 12.7796 31.4693 12.7362C32.2882 12.7072 32.6325 13.055 32.6288 13.8486C32.6252 15.5697 32.6651 17.2908 32.6288 19.0083C32.6107 19.7656 32.8788 19.9975 33.6216 19.9794C35.3102 19.9323 37.0023 19.9902 38.6908 19.954C39.4445 19.9359 39.8575 20.2221 39.8648 20.9722C39.8865 22.6897 39.901 24.4072 39.8865 26.1247C39.8793 26.9182 39.4082 27.2117 38.6401 27.2009C36.9806 27.1755 35.321 27.2298 33.6615 27.1791C32.8462 27.1537 32.6107 27.4726 32.6288 28.2371C32.6687 29.8351 32.6542 31.4366 32.6361 33.0346C32.6252 34.2049 32.3607 34.4658 31.1831 34.4767C29.7337 34.4912 28.2844 34.4912 26.8386 34.4767C25.6429 34.4658 25.4508 34.252 25.4472 33.0201C25.4436 31.4221 25.4146 29.8206 25.4617 28.2227C25.4835 27.4581 25.2805 27.1465 24.4544 27.1755C22.7659 27.2371 21.0738 27.1791 19.3852 27.2009C18.5482 27.2117 18.1895 26.8856 18.2149 26.0124C18.262 24.3528 18.2475 22.6933 18.2221 21.0338C18.2113 20.2693 18.5084 19.9395 19.2947 19.954C20.9832 19.9866 22.6753 19.9649 24.3638 19.9649C24.6827 19.9649 25.0052 19.9649 25.4472 19.9649Z" fill="black"/>
</g>
<defs>
<clipPath id="clip0">
<rect width="58.0254" height="58" fill="white"/>
</clipPath>
</defs>
</svg>
