<?xml version="1.0" encoding="UTF-8"?>
<svg width="11px" height="9px" viewBox="0 0 11 9" version="1.1" xmlns="http://www.w3.org/2000/svg" xmlns:xlink="http://www.w3.org/1999/xlink">
    <title>Email</title>
    <desc>Email icon</desc>
    <g id="Page-1" stroke="none" stroke-width="1" fill="none" fill-rule="evenodd">
        <path d="M9,2.016 L9,1.008 L4.992,3.516 L1.008,1.008 L1.008,2.016 L4.992,4.5 L9,2.016 Z M9,0 C9.141,0 9.27,0.028 9.387,0.082 C9.504,0.137 9.609,0.211 9.703,0.305 C9.797,0.399 9.871,0.504 9.926,0.621 C9.98,0.739 10.008,0.868 10.008,1.008 L10.008,7.008 C10.008,7.289 9.91,7.528 9.715,7.723 C9.52,7.918 9.281,8.016 9,8.016 L1.008,8.016 C0.727,8.016 0.488,7.918 0.293,7.723 C0.098,7.528 0,7.289 0,7.008 L0,1.008 C0,0.727 0.098,0.489 0.293,0.293 C0.488,0.098 0.727,0 1.008,0 L9,0 Z" id="Fill-12" fill="#231F20"></path>
    </g>
</svg>