<?xml version="1.0" encoding="UTF-8"?>
<svg width="11px" height="11px" viewBox="0 0 11 11" version="1.1" xmlns="http://www.w3.org/2000/svg" xmlns:xlink="http://www.w3.org/1999/xlink">
    <title>Media Library</title>
    <desc>Icon of broadcast waves</desc>
    <g id="Page-1" stroke="none" stroke-width="1" fill="none" fill-rule="evenodd">
        <path d="M10.406,4.523 C10.187,4.523 10.054,4.421 10.008,4.218 C9.883,3.687 9.601,3.132 9.164,2.554 C8.726,1.976 8.273,1.554 7.804,1.289 C7.429,1.07 7.039,0.906 6.633,0.796 C6.429,0.75 6.328,0.625 6.328,0.421 C6.328,0.39 6.336,0.351 6.351,0.304 C6.398,0.101 6.523,0 6.726,0 C6.773,0 6.812,0.007 6.843,0.023 C7.312,0.148 7.758,0.328 8.179,0.562 C8.398,0.687 8.621,0.847 8.847,1.043 C9.074,1.238 9.289,1.457 9.492,1.699 C9.695,1.941 9.883,2.191 10.054,2.449 C10.226,2.707 10.375,2.972 10.5,3.246 C10.625,3.519 10.718,3.781 10.781,4.031 L10.781,4.101 C10.781,4.32 10.679,4.453 10.476,4.5 C10.445,4.515 10.422,4.523 10.406,4.523 L10.406,4.523 Z M8.929,4.898 C8.726,4.898 8.594,4.796 8.531,4.593 C8.484,4.359 8.383,4.109 8.226,3.843 C8.07,3.578 7.886,3.332 7.676,3.105 C7.465,2.878 7.25,2.703 7.031,2.578 C6.797,2.453 6.554,2.359 6.304,2.296 C6.117,2.234 6.023,2.101 6.023,1.898 C6.023,1.789 6.062,1.695 6.14,1.617 C6.219,1.539 6.312,1.5 6.422,1.5 C6.453,1.5 6.484,1.507 6.515,1.523 C6.843,1.617 7.148,1.742 7.429,1.898 C7.851,2.132 8.246,2.496 8.613,2.988 C8.98,3.48 9.219,3.953 9.328,4.406 L9.328,4.5 C9.328,4.718 9.226,4.851 9.023,4.898 L9,4.898 L8.929,4.898 Z M7.265,5.179 C7.078,5.179 6.953,5.085 6.89,4.898 C6.828,4.695 6.699,4.496 6.504,4.3 C6.308,4.105 6.109,3.968 5.906,3.89 C5.703,3.843 5.601,3.718 5.601,3.515 C5.601,3.437 5.621,3.367 5.66,3.304 C5.699,3.242 5.75,3.195 5.812,3.164 C5.875,3.132 5.937,3.117 6,3.117 C6.062,3.117 6.117,3.125 6.164,3.14 C6.476,3.234 6.781,3.433 7.078,3.738 C7.375,4.043 7.57,4.351 7.664,4.664 L7.664,4.781 C7.664,4.984 7.57,5.117 7.383,5.179 L7.265,5.179 Z M5.906,9.281 C5.797,9.281 5.703,9.242 5.625,9.164 C5.547,9.085 5.508,8.992 5.508,8.882 C5.508,8.789 5.543,8.703 5.613,8.625 C5.683,8.546 5.758,8.5 5.836,8.484 C6.273,8.437 6.722,8.257 7.183,7.945 C7.644,7.632 7.984,7.289 8.203,6.914 C8.281,6.789 8.351,6.648 8.414,6.492 C8.476,6.335 8.601,6.257 8.789,6.257 C8.851,6.257 8.914,6.273 8.976,6.304 C9.039,6.335 9.09,6.382 9.129,6.445 C9.168,6.507 9.187,6.578 9.187,6.656 C9.187,6.703 9.172,6.75 9.14,6.796 C8.906,7.406 8.476,7.953 7.851,8.437 C7.226,8.921 6.593,9.203 5.953,9.281 L5.906,9.281 Z M5.789,10.804 C5.695,10.804 5.609,10.765 5.531,10.687 C5.453,10.609 5.414,10.515 5.414,10.406 C5.414,10.312 5.449,10.226 5.519,10.148 C5.59,10.07 5.672,10.023 5.765,10.007 C6.468,9.96 7.183,9.71 7.91,9.257 C8.636,8.804 9.172,8.281 9.515,7.687 C9.625,7.5 9.726,7.304 9.82,7.101 C9.883,6.929 10.008,6.843 10.195,6.843 C10.242,6.843 10.289,6.851 10.336,6.867 C10.508,6.945 10.593,7.07 10.593,7.242 C10.593,7.304 10.586,7.359 10.57,7.406 C10.461,7.64 10.344,7.867 10.219,8.086 C9.812,8.773 9.183,9.386 8.332,9.925 C7.48,10.464 6.648,10.757 5.836,10.804 L5.789,10.804 Z M5.719,7.617 C5.625,7.617 5.547,7.578 5.484,7.5 C5.422,7.421 5.39,7.328 5.39,7.218 C5.39,7.031 5.484,6.906 5.672,6.843 C5.89,6.812 6.113,6.714 6.34,6.55 C6.566,6.386 6.726,6.203 6.82,6 C6.883,5.843 7,5.765 7.172,5.765 C7.234,5.765 7.297,5.781 7.359,5.812 C7.5,5.875 7.57,5.992 7.57,6.164 C7.57,6.226 7.562,6.281 7.547,6.328 C7.39,6.64 7.14,6.921 6.797,7.171 C6.453,7.421 6.109,7.57 5.765,7.617 L5.719,7.617 Z M3.562,5.343 L3.492,5.343 C3.273,5.296 3.164,5.164 3.164,4.945 C3.164,4.929 3.172,4.906 3.187,4.875 C3.219,4.671 3.297,4.461 3.422,4.242 C3.547,4.023 3.699,3.824 3.879,3.644 C4.058,3.464 4.242,3.328 4.429,3.234 C4.492,3.218 4.554,3.211 4.617,3.211 C4.726,3.211 4.82,3.25 4.898,3.328 C4.976,3.406 5.015,3.5 5.015,3.609 C5.015,3.765 4.937,3.882 4.781,3.961 C4.594,4.054 4.422,4.203 4.265,4.406 C4.109,4.609 4.008,4.804 3.961,4.992 C3.945,5.085 3.898,5.168 3.82,5.238 C3.742,5.308 3.656,5.343 3.562,5.343 L3.562,5.343 Z M1.898,5.132 L1.828,5.132 C1.75,5.117 1.676,5.074 1.605,5.003 C1.535,4.933 1.5,4.851 1.5,4.757 L1.5,4.687 C1.578,4.203 1.742,3.757 1.992,3.351 C2.195,2.992 2.508,2.64 2.929,2.296 C3.351,1.953 3.758,1.71 4.148,1.57 C4.195,1.554 4.234,1.546 4.265,1.546 C4.39,1.546 4.492,1.589 4.57,1.675 C4.648,1.761 4.687,1.859 4.687,1.968 C4.687,2.156 4.594,2.281 4.406,2.343 C4.094,2.453 3.769,2.644 3.433,2.918 C3.097,3.191 2.844,3.468 2.672,3.75 C2.484,4.093 2.359,4.453 2.297,4.828 C2.281,4.906 2.234,4.976 2.156,5.039 C2.078,5.101 1.992,5.132 1.898,5.132 L1.898,5.132 Z M5.414,5.25 L3.633,9.679 L3.281,7.382 L0.961,7.054 L5.414,5.25 Z M0.398,4.921 L0.328,4.921 C0.234,4.906 0.156,4.863 0.093,4.793 C0.031,4.722 0,4.64 0,4.546 L0,4.476 C0.14,3.601 0.551,2.746 1.23,1.91 C1.91,1.074 2.664,0.507 3.492,0.211 C3.539,0.179 3.586,0.164 3.633,0.164 C3.742,0.164 3.836,0.203 3.914,0.281 C3.992,0.359 4.031,0.461 4.031,0.585 C4.031,0.757 3.953,0.882 3.797,0.96 C3.359,1.117 2.906,1.394 2.437,1.793 C1.968,2.191 1.617,2.593 1.383,3 C1.101,3.484 0.914,4.015 0.82,4.593 C0.804,4.687 0.758,4.765 0.679,4.828 C0.601,4.89 0.515,4.921 0.422,4.921 L0.398,4.921 Z" id="Fill-11" fill="#231F20"></path>
    </g>
</svg>