<?xml version="1.0" encoding="UTF-8"?>
<svg width="11px" height="8px" viewBox="0 0 11 8" version="1.1" xmlns="http://www.w3.org/2000/svg" xmlns:xlink="http://www.w3.org/1999/xlink">
    <title>Youtube</title>
    <desc>Youtube icon</desc>
    <g id="Page-1" stroke="none" stroke-width="1" fill="none" fill-rule="evenodd">
        <path d="M4.289,5.391 L7.125,3.797 L4.289,2.18 L4.289,5.391 Z M10.57,1.172 C10.633,1.422 10.684,1.766 10.723,2.203 C10.762,2.641 10.789,3.024 10.805,3.352 L10.805,3.821 C10.805,4.993 10.726,5.86 10.57,6.422 C10.523,6.625 10.406,6.821 10.219,7.008 C10.031,7.196 9.828,7.321 9.609,7.383 C9.375,7.446 8.902,7.496 8.191,7.536 C7.48,7.575 6.836,7.594 6.258,7.594 L5.391,7.594 C3.141,7.594 1.734,7.524 1.172,7.383 C0.969,7.321 0.773,7.196 0.586,7.008 C0.398,6.821 0.281,6.625 0.234,6.422 C0.156,6.157 0.102,5.809 0.07,5.379 C0.039,4.95 0.016,4.579 0,4.266 L0,3.797 C0,2.61 0.078,1.735 0.234,1.172 C0.281,0.969 0.398,0.774 0.586,0.586 C0.773,0.399 0.969,0.274 1.172,0.211 C1.422,0.149 1.898,0.098 2.602,0.059 C3.305,0.02 3.945,0 4.523,0 L5.391,0 C7.656,0 9.062,0.071 9.609,0.211 C9.828,0.274 10.031,0.399 10.219,0.586 C10.406,0.774 10.523,0.969 10.57,1.172 L10.57,1.172 Z" id="Fill-13" fill="#dcdee0"></path>
    </g>
</svg>