<?xml version="1.0" encoding="UTF-8"?>
<svg width="12px" height="11px" viewBox="0 0 12 11" version="1.1" xmlns="http://www.w3.org/2000/svg" xmlns:xlink="http://www.w3.org/1999/xlink">
    <title>Browser</title>
    <desc>Desktop comptuer icon</desc>
    <g id="Page-1" stroke="none" stroke-width="1" fill="none" fill-rule="evenodd">
        <path d="M1.196,7.734 L10.805,7.734 L10.805,1.078 L1.196,1.078 L1.196,7.734 Z M10.805,0 C11.133,0 11.414,0.117 11.648,0.351 C11.883,0.585 12,0.867 12,1.195 L12,7.804 C11.984,8.117 11.863,8.414 11.637,8.695 C11.41,8.976 11.141,9.156 10.828,9.234 L8.203,9.75 L9.211,10.195 C9.648,10.429 9.578,10.546 9,10.546 L3,10.546 C2.219,10.546 2.344,10.336 3.375,9.914 L3.797,9.75 L1.172,9.234 C0.859,9.156 0.59,8.976 0.363,8.695 C0.137,8.414 0.016,8.117 0,7.804 L0,1.195 C0,0.867 0.117,0.585 0.352,0.351 C0.586,0.117 0.867,0 1.195,0 L10.805,0 Z" id="Fill-7" fill="#f0f0f0"></path>
    </g>
</svg>