<?xml version="1.0" encoding="UTF-8"?>
<svg width="12px" height="12px" viewBox="0 0 12 12" version="1.1" xmlns="http://www.w3.org/2000/svg" xmlns:xlink="http://www.w3.org/1999/xlink">
    <title>Available Hours</title>
    <desc>Clockface icon</desc>
    <defs>
        <polygon id="path-1" points="0.0004 0 12.0004 0 12.0004 11.9997 0.0004 11.9997"></polygon>
    </defs>
    <g id="Page-1" stroke="none" stroke-width="1" fill="none" fill-rule="evenodd">
        <g id="Group-6">
            <mask id="mask-2" fill="white">
                <use xlink:href="#path-1"></use>
            </mask>
            <g id="Clip-5"></g>
            <path d="M7.3594,6.3047 L7.3594,6.3277 C7.3904,6.3127 7.4144,6.3047 7.4294,6.3047 C7.5544,6.3047 7.6644,6.3517 7.7574,6.4457 C7.8514,6.5387 7.8984,6.6487 7.8984,6.7737 C7.8984,6.8987 7.8514,7.0037 7.7574,7.0897 C7.6644,7.1757 7.5544,7.2187 7.4294,7.2187 L7.3594,7.2187 L5.5314,7.2187 C5.4064,7.2187 5.3004,7.1757 5.2144,7.0897 C5.1294,7.0037 5.0864,6.8987 5.0864,6.7737 L5.0864,3.9847 C5.0704,3.9527 5.0624,3.9297 5.0624,3.9137 C5.0624,3.7887 5.1094,3.6797 5.2034,3.5857 C5.2964,3.4917 5.4064,3.4457 5.5314,3.4457 C5.6564,3.4457 5.7614,3.4917 5.8474,3.5857 C5.9334,3.6797 5.9764,3.7887 5.9764,3.9137 L5.9764,3.9847 L5.9764,6.3047 L7.3594,6.3047 Z M5.9534,10.8517 L5.9534,10.8747 C7.2974,10.8747 8.4414,10.4027 9.3864,9.4567 C10.3324,8.5117 10.8044,7.3667 10.8044,6.0237 C10.8044,4.6797 10.3324,3.5347 9.3864,2.5897 C8.4414,1.6447 7.2974,1.1717 5.9534,1.1717 C4.6094,1.1717 3.4644,1.6447 2.5194,2.5897 C1.5744,3.5347 1.1014,4.6757 1.1014,6.0117 C1.1014,7.3477 1.5744,8.4887 2.5194,9.4337 C3.4644,10.3787 4.6094,10.8517 5.9534,10.8517 L5.9534,10.8517 Z M1.7574,1.7577 C2.9294,0.5857 4.3434,-0.0003 6.0004,-0.0003 C7.6564,-0.0003 9.0704,0.5857 10.2424,1.7577 C11.4144,2.9297 12.0004,4.3437 12.0004,5.9997 C12.0004,7.6567 11.4144,9.0707 10.2424,10.2427 C9.0704,11.4137 7.6564,11.9997 6.0004,11.9997 C4.3434,11.9997 2.9294,11.4137 1.7574,10.2427 C0.5864,9.0707 0.0004,7.6567 0.0004,5.9997 C0.0004,4.3437 0.5864,2.9297 1.7574,1.7577 L1.7574,1.7577 Z" id="Fill-4" fill="#231F20" mask="url(#mask-2)"></path>
        </g>
    </g>
</svg>