<?xml version="1.0" encoding="UTF-8"?>
<svg width="9px" height="10px" viewBox="0 0 9 10" version="1.1" xmlns="http://www.w3.org/2000/svg" xmlns:xlink="http://www.w3.org/1999/xlink">
    <title>Phone</title>
    <desc>Phone icon</desc>
    <defs>
        <polygon id="path-1" points="0 0.4996 8.9997 0.4996 8.9997 9.4996 0 9.4996"></polygon>
    </defs>
    <g id="Page-1" stroke="none" stroke-width="1" fill="none" fill-rule="evenodd">
        <g id="Group-3">
            <mask id="mask-2" fill="white">
                <use xlink:href="#path-1"></use>
            </mask>
            <g id="Clip-2"></g>
            <path d="M1.8047,4.3906 C2.5547,5.8436 3.6567,6.9456 5.1097,7.6956 L6.2107,6.5936 C6.3517,6.4536 6.5157,6.4136 6.7027,6.4766 C7.2967,6.6636 7.8987,6.7576 8.5077,6.7576 C8.6487,6.7576 8.7657,6.8046 8.8597,6.8986 C8.9527,6.9926 8.9997,7.1096 8.9997,7.2496 L8.9997,9.0076 C8.9997,9.1326 8.9527,9.2456 8.8597,9.3476 C8.7657,9.4496 8.6487,9.4996 8.5077,9.4996 C6.9607,9.4996 5.5347,9.1206 4.2307,8.3636 C2.9257,7.6056 1.8947,6.5746 1.1367,5.2696 C0.3787,3.9646 -0.0003,2.5386 -0.0003,0.9926 C-0.0003,0.8516 0.0467,0.7346 0.1407,0.6406 C0.2347,0.5466 0.3517,0.4996 0.4927,0.4996 L2.2497,0.4996 C2.3907,0.4996 2.5077,0.5466 2.6017,0.6406 C2.6957,0.7346 2.7417,0.8516 2.7417,0.9926 C2.7417,1.6016 2.8357,2.1956 3.0237,2.7736 C3.0857,2.9766 3.0467,3.1486 2.9067,3.2886 L1.8047,4.3906 Z" id="Fill-1" fill="#f0f0f0" mask="url(#mask-2)"></path>
        </g>
    </g>
</svg>