<?xml version="1.0" encoding="UTF-8"?>
<svg width="12px" height="9px" viewBox="0 0 12 9" version="1.1" xmlns="http://www.w3.org/2000/svg" xmlns:xlink="http://www.w3.org/1999/xlink">
    <title>CDC TV</title>
    <desc>An icon of TV with "CDC" tet</desc>
    <g id="Page-1" stroke="none" stroke-width="1" fill="none" fill-rule="evenodd">
        <path d="M9.773,5.344 C9.195,5.344 8.726,5.176 8.367,4.84 C8.007,4.504 7.828,4.055 7.828,3.492 L7.828,3.446 C7.828,2.93 8.011,2.492 8.378,2.133 C8.746,1.774 9.187,1.594 9.703,1.594 L9.773,1.594 L9.796,1.594 C10.093,1.594 10.375,1.649 10.64,1.758 L10.64,2.321 C10.546,2.196 10.418,2.09 10.253,2.004 C10.089,1.918 9.937,1.875 9.796,1.875 L9.773,1.875 C9.445,1.875 9.183,2.016 8.988,2.297 C8.793,2.578 8.695,2.953 8.695,3.422 C8.695,3.922 8.793,4.321 8.988,4.617 C9.183,4.914 9.476,5.063 9.867,5.063 C10.148,5.047 10.406,4.946 10.64,4.758 L10.757,5.063 C10.492,5.25 10.195,5.344 9.867,5.344 L9.773,5.344 Z M6.562,3.469 C6.562,3.235 6.543,3.028 6.503,2.848 C6.464,2.668 6.402,2.528 6.316,2.426 C6.23,2.324 6.144,2.239 6.058,2.168 C5.972,2.098 5.863,2.047 5.73,2.016 C5.597,1.985 5.48,1.961 5.378,1.946 C5.277,1.93 5.156,1.922 5.015,1.922 L5.015,4.992 C5.234,4.992 5.418,4.977 5.566,4.946 C5.714,4.914 5.875,4.852 6.046,4.758 C6.218,4.664 6.347,4.512 6.433,4.301 C6.519,4.09 6.562,3.813 6.562,3.469 L6.562,3.469 Z M5.671,5.274 L4.265,5.274 L4.265,1.664 L5.578,1.664 C6.078,1.664 6.511,1.797 6.878,2.063 C7.246,2.328 7.429,2.789 7.429,3.446 L7.429,3.563 C7.429,4.032 7.265,4.434 6.937,4.77 C6.609,5.106 6.203,5.274 5.718,5.274 L5.671,5.274 Z M8.578,8.086 L9.304,8.508 L9.304,8.625 L2.414,8.625 L2.414,8.508 L3.117,8.086 L5.343,8.086 C5.375,8.024 5.39,7.961 5.39,7.899 L5.39,7.875 L5.39,7.242 L6.304,7.242 L6.304,7.852 L6.304,7.875 C6.304,7.953 6.32,8.024 6.351,8.086 L8.578,8.086 Z M2.836,5.344 C2.445,5.344 2.105,5.27 1.816,5.121 C1.527,4.973 1.3,4.758 1.136,4.477 C0.972,4.196 0.89,3.867 0.89,3.492 L0.89,3.446 C0.89,2.93 1.074,2.492 1.441,2.133 C1.808,1.774 2.25,1.594 2.765,1.594 L2.836,1.594 L2.859,1.594 C3.156,1.594 3.437,1.649 3.703,1.758 L3.703,2.321 C3.625,2.196 3.503,2.09 3.339,2.004 C3.175,1.918 3.015,1.875 2.859,1.875 C2.515,1.875 2.25,2.016 2.062,2.297 C1.875,2.578 1.781,2.953 1.781,3.422 C1.781,3.922 1.878,4.321 2.074,4.617 C2.269,4.914 2.554,5.063 2.929,5.063 C3.226,5.047 3.484,4.946 3.703,4.758 L3.843,5.063 C3.578,5.25 3.281,5.344 2.953,5.344 L2.836,5.344 Z M0.562,6.821 L11.132,6.821 L11.132,0.516 L0.562,0.516 L0.562,6.821 Z M11.601,0 C11.664,0 11.695,0.039 11.695,0.117 L11.695,7.196 C11.695,7.274 11.664,7.313 11.601,7.313 L0.093,7.313 C0.031,7.313 0,7.274 0,7.196 L0,0.117 C0,0.039 0.031,0 0.093,0 L11.601,0 Z" id="Fill-9" fill="#f0f0f0"></path>
    </g>
</svg>