<?xml version="1.0" encoding="UTF-8"?>
<svg width="11px" height="11px" viewBox="0 0 11 11" version="1.1" xmlns="http://www.w3.org/2000/svg" xmlns:xlink="http://www.w3.org/1999/xlink">
    <title>Instagram</title>
    <desc>Instagram icon</desc>
    <g id="Page-1" stroke="none" stroke-width="1" fill="none" fill-rule="evenodd">
        <path d="M7.828,2.988 C7.703,2.855 7.641,2.699 7.641,2.519 C7.641,2.34 7.703,2.187 7.828,2.062 C7.953,1.937 8.105,1.875 8.285,1.875 C8.465,1.875 8.617,1.937 8.742,2.062 C8.867,2.187 8.93,2.34 8.93,2.519 C8.93,2.699 8.867,2.855 8.742,2.988 C8.617,3.121 8.465,3.187 8.285,3.187 C8.105,3.187 7.953,3.121 7.828,2.988 M5.39,7.218 C5.891,7.218 6.316,7.043 6.668,6.691 C7.019,6.34 7.195,5.914 7.195,5.414 C7.195,4.914 7.019,4.488 6.668,4.136 C6.316,3.785 5.894,3.609 5.402,3.609 C4.91,3.609 4.488,3.785 4.137,4.136 C3.785,4.488 3.609,4.914 3.609,5.414 C3.609,5.914 3.785,6.34 4.137,6.691 C4.488,7.043 4.906,7.218 5.39,7.218 M3.433,3.457 C3.973,2.918 4.625,2.648 5.39,2.648 C6.156,2.648 6.812,2.918 7.359,3.457 C7.906,3.996 8.18,4.648 8.18,5.414 C8.18,5.789 8.105,6.148 7.957,6.492 C7.808,6.836 7.609,7.133 7.359,7.383 C7.109,7.633 6.812,7.832 6.469,7.98 C6.125,8.129 5.765,8.203 5.39,8.203 C4.625,8.203 3.973,7.929 3.433,7.383 C2.894,6.836 2.625,6.179 2.625,5.414 C2.625,4.648 2.894,3.996 3.433,3.457 M5.39,0.984 C4.406,0.984 3.68,0.992 3.211,1.008 C2.867,1.023 2.531,1.086 2.203,1.195 C1.969,1.289 1.766,1.429 1.594,1.617 C1.422,1.789 1.289,1.992 1.195,2.226 C1.086,2.554 1.023,2.89 1.008,3.234 C0.992,3.609 0.984,4.336 0.984,5.414 C0.984,6.398 0.992,7.125 1.008,7.593 C1.008,7.937 1.07,8.273 1.195,8.601 C1.273,8.836 1.406,9.039 1.594,9.211 C1.766,9.398 1.969,9.539 2.203,9.633 C2.531,9.742 2.867,9.797 3.211,9.797 C3.586,9.828 4.312,9.843 5.39,9.843 C6.422,9.843 7.148,9.828 7.57,9.797 C7.914,9.797 8.25,9.742 8.578,9.633 C8.812,9.539 9.015,9.398 9.187,9.211 C9.375,9.039 9.515,8.836 9.609,8.601 C9.719,8.273 9.781,7.945 9.797,7.617 C9.812,7.226 9.82,6.5 9.82,5.437 C9.82,4.437 9.812,3.703 9.797,3.234 C9.797,2.89 9.734,2.554 9.609,2.226 C9.515,1.992 9.383,1.789 9.211,1.617 C9.039,1.429 8.828,1.289 8.578,1.195 C8.265,1.086 7.93,1.023 7.57,1.008 C7.195,0.992 6.469,0.984 5.39,0.984 M5.39,0.023 L5.39,0 C6.406,0 7.148,0.015 7.617,0.047 C8.07,0.047 8.508,0.125 8.93,0.281 C9.242,0.406 9.555,0.625 9.867,0.937 C10.18,1.25 10.398,1.562 10.523,1.875 C10.68,2.297 10.758,2.734 10.758,3.187 C10.789,3.562 10.805,4.304 10.805,5.414 C10.805,6.429 10.789,7.172 10.758,7.64 C10.758,8.093 10.68,8.531 10.523,8.953 C10.398,9.265 10.18,9.574 9.867,9.879 C9.555,10.183 9.242,10.398 8.93,10.523 C8.508,10.679 8.07,10.765 7.617,10.781 C7.242,10.797 6.5,10.804 5.39,10.804 C4.375,10.804 3.633,10.797 3.164,10.781 C2.726,10.765 2.289,10.679 1.851,10.523 C1.539,10.398 1.23,10.183 0.926,9.879 C0.621,9.574 0.406,9.265 0.281,8.953 C0.25,8.859 0.219,8.758 0.187,8.648 C0.156,8.539 0.129,8.425 0.105,8.308 C0.082,8.191 0.066,8.074 0.058,7.957 C0.051,7.84 0.039,7.734 0.023,7.64 C0.008,7.25 0,6.508 0,5.414 C0,4.32 0.008,3.578 0.023,3.187 C0.039,2.734 0.125,2.297 0.281,1.875 C0.422,1.515 0.625,1.195 0.891,0.914 C1.172,0.633 1.492,0.429 1.851,0.304 C2.289,0.133 2.726,0.047 3.164,0.047 C3.555,0.031 4.297,0.023 5.39,0.023" id="Fill-15" fill="#dcdee0"></path>
    </g>
</svg>