<?xml version="1.0" encoding="UTF-8"?>
<svg width="11px" height="9px" viewBox="0 0 11 9" version="1.1" xmlns="http://www.w3.org/2000/svg" xmlns:xlink="http://www.w3.org/1999/xlink">
    <title>Twitter</title>
    <desc>Twitter icon</desc>
    <g id="Page-1" stroke="none" stroke-width="1" fill="none" fill-rule="evenodd">
        <path d="M3.398,8.766 C3.07,8.766 2.695,8.723 2.273,8.637 C1.851,8.551 1.437,8.43 1.031,8.274 C0.625,8.118 0.281,7.954 0,7.782 C0.171,7.797 0.343,7.805 0.515,7.805 C0.796,7.805 1.109,7.762 1.453,7.676 C1.796,7.59 2.132,7.477 2.461,7.336 C2.789,7.196 3.062,7.039 3.281,6.868 C2.843,6.852 2.421,6.696 2.015,6.399 C1.609,6.102 1.335,5.743 1.195,5.321 C1.335,5.352 1.476,5.368 1.617,5.368 L1.64,5.368 C1.828,5.368 2.015,5.336 2.203,5.274 C1.718,5.18 1.304,4.922 0.96,4.5 C0.617,4.079 0.445,3.618 0.445,3.118 L0.445,3.094 C0.757,3.266 1.085,3.36 1.429,3.375 C1.164,3.188 0.933,2.914 0.738,2.555 C0.543,2.196 0.445,1.852 0.445,1.524 C0.445,1.133 0.546,0.766 0.75,0.422 C1.234,1.016 1.925,1.539 2.824,1.993 C3.722,2.446 4.554,2.688 5.32,2.719 C5.289,2.563 5.273,2.399 5.273,2.227 L5.273,2.204 C5.273,1.594 5.488,1.075 5.918,0.645 C6.347,0.215 6.867,5.68434189e-14 7.476,5.68434189e-14 C7.742,5.68434189e-14 8.031,0.067 8.343,0.2 C8.656,0.332 8.906,0.5 9.093,0.703 C9.593,0.594 10.062,0.414 10.5,0.164 C10.453,0.305 10.378,0.453 10.277,0.61 C10.175,0.766 10.058,0.914 9.925,1.055 C9.793,1.196 9.664,1.305 9.539,1.383 C9.976,1.336 10.398,1.219 10.804,1.032 C10.507,1.485 10.14,1.868 9.703,2.18 L9.703,2.461 C9.703,3.211 9.562,3.954 9.281,4.688 C9,5.422 8.601,6.098 8.085,6.715 C7.57,7.332 6.902,7.829 6.082,8.204 C5.261,8.579 4.367,8.766 3.398,8.766" id="Fill-14" fill="#dcdee0"></path>
    </g>
</svg>