<?xml version="1.0" encoding="UTF-8"?>
<svg width="11px" height="11px" viewBox="0 0 11 11" version="1.1" xmlns="http://www.w3.org/2000/svg" xmlns:xlink="http://www.w3.org/1999/xlink">
    <title>Facebook</title>
    <desc>Facebook icon</desc>
    <g id="Page-1" stroke="none" stroke-width="1" fill="none" fill-rule="evenodd">
        <path d="M8.742,0 C9.226,0 9.64,0.172 9.984,0.516 C10.328,0.859 10.5,1.273 10.5,1.758 L10.5,8.742 C10.5,9.227 10.328,9.641 9.984,9.984 C9.64,10.328 9.226,10.5 8.742,10.5 L7.172,10.5 L7.172,6.633 L8.508,6.633 L8.719,5.086 L7.172,5.086 L7.172,4.102 C7.172,3.93 7.191,3.793 7.23,3.691 C7.269,3.59 7.347,3.508 7.465,3.445 C7.582,3.383 7.742,3.352 7.945,3.352 L8.765,3.352 L8.765,1.969 C8.39,1.922 8.015,1.898 7.64,1.898 L7.57,1.898 C6.976,1.898 6.496,2.078 6.129,2.438 C5.762,2.797 5.578,3.297 5.578,3.938 L5.578,5.086 L4.242,5.086 L4.242,6.633 L5.578,6.633 L5.578,10.5 L1.758,10.5 C1.273,10.5 0.859,10.328 0.515,9.984 C0.172,9.641 0,9.227 0,8.742 L0,1.758 C0,1.273 0.172,0.859 0.515,0.516 C0.859,0.172 1.273,0 1.758,0 L8.742,0 Z" id="Fill-16" fill="#dcdee0"></path>
    </g>
</svg>