<?xml version="1.0" encoding="UTF-8"?>
<svg width="10px" height="10px" viewBox="0 0 10 10" version="1.1" xmlns="http://www.w3.org/2000/svg" xmlns:xlink="http://www.w3.org/1999/xlink">
    <title>RSS</title>
    <desc>RSS icon</desc>
    <g id="Page-1" stroke="none" stroke-width="1" fill="none" fill-rule="evenodd">
        <path d="M2.238,9.223 C1.98,9.481 1.672,9.61 1.312,9.61 C0.953,9.61 0.644,9.481 0.386,9.223 C0.129,8.965 0,8.657 0,8.297 C0,7.938 0.129,7.629 0.386,7.371 C0.644,7.114 0.953,6.985 1.312,6.985 C1.547,6.985 1.765,7.043 1.968,7.16 C2.172,7.278 2.332,7.438 2.449,7.641 C2.566,7.844 2.625,8.063 2.625,8.297 C2.625,8.657 2.496,8.965 2.238,9.223 L2.238,9.223 Z M5.976,9.469 C5.898,9.563 5.797,9.61 5.672,9.61 L4.758,9.61 C4.648,9.61 4.551,9.571 4.465,9.493 C4.379,9.414 4.336,9.321 4.336,9.211 C4.242,8.227 3.808,7.348 3.035,6.575 C2.261,5.801 1.383,5.368 0.398,5.274 C0.351,5.274 0.308,5.266 0.269,5.25 C0.23,5.235 0.195,5.211 0.164,5.18 C0.133,5.149 0.105,5.118 0.082,5.086 C0.058,5.055 0.039,5.02 0.023,4.981 C0.008,4.942 0,4.899 0,4.852 L0,3.938 L0,3.914 C0,3.789 0.047,3.688 0.14,3.61 C0.218,3.532 0.32,3.493 0.445,3.493 L0.468,3.493 C1.093,3.539 1.781,3.739 2.531,4.09 C3.281,4.442 3.875,4.844 4.312,5.297 C4.765,5.735 5.164,6.328 5.508,7.078 C5.851,7.828 6.054,8.516 6.117,9.141 L6.117,9.164 C6.117,9.274 6.078,9.375 6,9.469 L5.976,9.469 Z M9.468,9.469 C9.39,9.563 9.289,9.61 9.164,9.61 L8.179,9.61 C8.07,9.61 7.972,9.567 7.886,9.481 C7.8,9.395 7.758,9.297 7.758,9.188 C7.648,7.266 6.875,5.59 5.437,4.161 C4,2.731 2.328,1.961 0.422,1.852 C0.297,1.836 0.195,1.789 0.117,1.711 C0.039,1.633 0,1.532 0,1.407 L0,0.446 C0,0.368 0.019,0.293 0.058,0.223 C0.097,0.153 0.152,0.098 0.222,0.059 C0.293,0.02 0.367,0 0.445,0 L0.468,0 C1.484,0.063 2.609,0.368 3.843,0.914 C5.078,1.461 6.054,2.102 6.773,2.836 C7.492,3.555 8.129,4.532 8.683,5.766 C9.238,7 9.547,8.125 9.609,9.141 L9.609,9.164 C9.609,9.289 9.562,9.391 9.468,9.469 L9.468,9.469 Z" id="Fill-10" fill="#f0f0f0"></path>
    </g>
</svg>