<svg width="24" height="24" viewBox="0 0 24 24" fill="none" xmlns="http://www.w3.org/2000/svg">
<g clip-path="url(#clip0)">
<path d="M0.00402968 9.65951C0.00669619 8.41692 1.09997 7.4943 2.31857 7.69429C2.41723 7.71029 2.56255 7.66896 2.63188 7.60096C3.96514 6.2797 5.29174 4.95311 6.613 3.61985C6.67433 3.55852 6.70632 3.42786 6.69299 3.3372C6.52233 2.17859 7.28229 1.14532 8.41023 1.01466C9.54883 0.882667 10.5888 1.68662 10.6261 2.83989C10.6408 3.2852 10.8328 3.47852 11.1207 3.70384C12.214 4.5598 13.3006 5.42108 14.3846 6.2877C14.5352 6.40769 14.6619 6.43836 14.8605 6.40769C15.1712 6.36103 15.4952 6.40636 15.8125 6.39436C15.9511 6.38903 16.1205 6.37969 16.2218 6.30103C17.4217 5.36642 18.6083 4.4158 19.8069 3.47852C19.9656 3.35453 20.0096 3.23187 20.0083 3.03455C19.9976 1.82528 20.9535 0.925331 22.1455 1.00399C23.2854 1.07999 24.12 2.11593 23.9694 3.2692C23.82 4.41847 22.7388 5.17576 21.5668 4.93711C21.3468 4.89178 21.1949 4.93844 21.0255 5.07443C19.8909 5.98372 18.751 6.88633 17.6071 7.78495C17.4097 7.93961 17.3071 8.0716 17.3097 8.37159C17.3191 9.16887 16.9138 9.76884 16.1925 10.1208C15.4952 10.4621 14.8099 10.3915 14.1739 9.95417C13.6006 9.55952 13.3286 8.99555 13.3406 8.30492C13.3446 8.1076 13.2953 7.98227 13.138 7.85961C11.9394 6.92233 10.7501 5.97438 9.5555 5.03444C9.48084 4.97577 9.38618 4.90644 9.29951 4.90511C8.9382 4.90111 8.57689 4.91311 8.21691 4.93711C8.14224 4.94244 8.06225 5.01577 8.00359 5.07443C6.69032 6.3837 5.37706 7.69429 4.07314 9.01288C3.99714 9.09021 3.95048 9.24754 3.96648 9.35553C4.13847 10.4968 3.31851 11.5594 2.17991 11.6514C0.985309 11.7514 0.00269642 10.8488 0.00402968 9.65951Z" fill="#007C91"/>
<path d="M6.66757 15.6672C6.66757 13.746 6.66757 11.8261 6.66757 9.90483C6.66757 9.1862 6.85689 8.99821 7.57552 8.99821C8.31948 8.99821 9.06343 8.99688 9.80739 8.99821C10.4327 8.99955 10.6647 9.21953 10.666 9.83283C10.6687 13.7193 10.6687 17.6044 10.666 21.4909C10.666 22.1055 10.434 22.3281 9.81406 22.3308C9.05943 22.3335 8.30348 22.3321 7.54885 22.3308C6.87022 22.3295 6.6689 22.1335 6.6689 21.4629C6.66624 19.531 6.66757 17.5991 6.66757 15.6672Z" fill="#007C91"/>
<path d="M24 15.6912C24 17.5897 24 19.4883 24 21.3869C24 22.1362 23.804 22.3308 23.0507 22.3308C22.3067 22.3308 21.5628 22.3335 20.8188 22.3295C20.2255 22.3268 20.0029 22.1148 20.0029 21.5322C20.0002 17.6244 20.0002 13.7166 20.0029 9.80751C20.0029 9.21821 20.2228 9.00089 20.8068 8.99822C21.5841 8.99422 22.3614 8.99555 23.1387 8.99822C23.7786 8.99955 24 9.21954 24 9.86217C24.0013 11.8047 24 13.7486 24 15.6912Z" fill="#007C91"/>
<path d="M13.334 18.3324C13.334 17.2778 13.3313 16.2232 13.3353 15.1685C13.3366 14.5419 13.5486 14.3326 14.1779 14.3313C14.9432 14.3286 15.7098 14.3286 16.4751 14.3313C17.0991 14.3326 17.3311 14.5539 17.3324 15.1659C17.3364 17.2751 17.3364 19.383 17.3324 21.4922C17.3311 22.1055 17.1004 22.3282 16.4778 22.3295C15.7005 22.3322 14.9245 22.3322 14.1472 22.3295C13.5579 22.3268 13.338 22.1135 13.3353 21.5282C13.33 20.4629 13.334 19.3976 13.334 18.3324Z" fill="#007C91"/>
<path d="M0.00135898 18.9857C0.00135898 18.1537 -0.00130754 17.3204 0.00269224 16.4885C0.00535876 15.8778 0.217347 15.6672 0.825313 15.6645C1.61327 15.6618 2.40123 15.6605 3.18918 15.6645C3.76248 15.6685 3.99714 15.8978 3.9998 16.4778C4.00514 18.1537 4.00514 19.8296 3.9998 21.5055C3.99847 22.1028 3.76648 22.3268 3.16652 22.3295C2.38923 22.3321 1.61327 22.3321 0.835979 22.3295C0.213347 22.3268 0.00535876 22.1162 0.00269224 21.4815C-0.00130754 20.6509 0.00135898 19.8176 0.00135898 18.9857Z" fill="#007C91"/>
</g>
<defs>
<clipPath id="clip0">
<rect y="1" width="24" height="21.3321" fill="white"/>
</clipPath>
</defs>
</svg>
