<svg width="64" height="65" viewBox="0 0 64 65" fill="none" xmlns="http://www.w3.org/2000/svg">
<g clip-path="url(#clip0)">
<path d="M33.0236 4.42193C40.1183 4.42193 47.2129 4.42555 54.3076 4.42193C56.9237 4.42193 59.0579 5.40387 60.6196 7.53082C61.3986 8.59248 61.9276 9.78096 61.9421 11.1216C61.9747 14.6834 61.9783 18.2453 61.9783 21.8071C61.982 29.1119 61.866 36.4203 62.0218 43.7251C62.1088 47.8848 58.8803 51.6604 54.1808 51.5916C49.2312 51.5191 44.278 51.5589 39.3284 51.5988C38.774 51.6024 38.1327 51.8126 37.687 52.1423C33.4947 55.2476 29.3386 58.4 25.1717 61.5378C24.8601 61.7734 24.5485 62.0234 24.2079 62.2082C23.1861 62.7589 22.2295 62.2009 22.2259 61.0487C22.2186 58.3311 22.2259 55.6135 22.2259 52.896C22.2259 51.5771 22.2259 51.5771 20.8635 51.5771C17.8125 51.5771 14.7653 51.5879 11.7143 51.5734C8.48588 51.5589 6.06906 50.1386 4.70665 47.2036C4.2646 46.2543 4.03994 45.1165 4.0327 44.0621C3.98559 33.4346 4.00009 22.8071 4.01096 12.1797C4.01458 7.55618 7.18145 4.42917 11.8303 4.42555C18.8959 4.4183 25.9616 4.42193 33.0236 4.42193ZM27.574 52.7402C27.8639 52.617 28.0125 52.588 28.1175 52.5083C30.6032 50.6495 33.0961 48.7979 35.5637 46.9137C36.2122 46.4173 36.8463 46.1347 37.6978 46.1419C43.1293 46.1782 48.5645 46.1637 53.996 46.1601C55.9454 46.1564 56.5613 45.5405 56.5613 43.6273C56.5613 33.2462 56.5613 22.8615 56.5613 12.4804C56.5613 10.4114 56.0686 9.9259 53.9996 9.9259C40.0241 9.9259 26.0522 9.9259 12.0767 9.9259C9.90988 9.9259 9.44246 10.3969 9.44246 12.6072C9.44246 22.8687 9.44246 33.1303 9.44246 43.3918C9.44246 45.5984 10.0077 46.1601 12.2397 46.1637C17.0371 46.1673 21.8382 46.1782 26.6356 46.1492C27.3494 46.1456 27.6066 46.363 27.5813 47.0732C27.5414 48.3087 27.5704 49.548 27.5704 50.7835C27.574 51.3959 27.574 52.0119 27.574 52.7402Z" fill="black"/>
<path d="M29.447 24.3868C29.447 22.6946 29.4434 21.1039 29.447 19.5133C29.4542 16.937 29.1752 17.1725 31.7587 17.1689C32.9943 17.1689 34.2335 17.2015 35.4691 17.158C36.288 17.1291 36.6322 17.4769 36.6286 18.2704C36.625 19.9916 36.6648 21.7127 36.6286 23.4302C36.6105 24.1875 36.8786 24.4194 37.6214 24.4013C39.3099 24.3541 41.0021 24.4121 42.6906 24.3759C43.4442 24.3578 43.8573 24.644 43.8646 25.3941C43.8863 27.1116 43.9008 28.8291 43.8863 30.5466C43.879 31.3401 43.408 31.6336 42.6398 31.6227C40.9803 31.5974 39.3208 31.6517 37.6613 31.601C36.846 31.5756 36.6105 31.8945 36.6286 32.659C36.6684 34.257 36.654 35.8585 36.6358 37.4564C36.625 38.6268 36.3605 38.8877 35.1828 38.8986C33.7335 38.913 32.2841 38.913 30.8384 38.8986C29.6426 38.8877 29.4506 38.6739 29.447 37.4419C29.4434 35.844 29.4144 34.2425 29.4615 32.6445C29.4832 31.88 29.2803 31.5684 28.4542 31.5974C26.7656 31.659 25.0735 31.601 23.385 31.6227C22.548 31.6336 22.1893 31.3075 22.2146 30.4342C22.2617 28.7747 22.2472 27.1152 22.2219 25.4557C22.211 24.6911 22.5081 24.3614 23.2944 24.3759C24.9829 24.4085 26.6751 24.3868 28.3636 24.3868C28.6824 24.3868 29.0049 24.3868 29.447 24.3868Z" fill="black"/>
</g>
<defs>
<clipPath id="clip0">
<rect x="4" y="4.42181" width="58.0254" height="58" fill="white"/>
</clipPath>
</defs>
</svg>
