<svg width="24" height="24" viewBox="0 0 24 24" fill="none" xmlns="http://www.w3.org/2000/svg">
<g clip-path="url(#clip0)">
<path d="M0.0014463 12.0031C-0.103668 5.45664 5.36844 -0.0123759 11.9875 -9.5868e-06C18.6561 0.0123568 23.9953 5.47829 23.9767 12.0649C23.9582 18.6036 18.4799 24.0665 11.8299 24C5.41327 23.9351 -0.119126 18.5263 0.0014463 12.0031ZM11.7433 2.29704C11.7309 2.34341 11.7186 2.39133 11.7062 2.43771C11.7464 2.48563 11.7835 2.53664 11.8268 2.58147C12.2086 2.96482 12.6012 3.33736 12.9707 3.73154C13.3262 4.11026 13.3246 4.41169 12.9861 4.78268C12.813 4.97281 12.6213 5.14594 12.442 5.32989C12.1174 5.66069 11.9953 5.86473 12.3956 6.22954C12.6522 6.46296 12.6213 6.70874 12.3786 6.96534C12.1267 7.23122 11.8701 7.39043 11.4759 7.37807C10.8467 7.35797 10.4155 8.05822 10.6798 8.60079C10.8777 9.00579 11.0848 9.40615 11.261 9.82042C11.4233 10.2022 11.2347 10.4944 10.8282 10.4372C10.5731 10.4016 10.349 10.1883 10.1001 10.077C9.85279 9.96727 9.57146 9.77405 9.34113 9.81578C8.81402 9.91008 8.29927 10.0987 7.80307 10.3073C7.62376 10.3831 7.4058 10.6165 7.39807 10.7881C7.3888 10.9813 7.54956 11.2503 7.71805 11.3709C8.22662 11.7326 8.80938 11.9212 9.43852 11.9907C9.67193 12.017 9.93008 12.1484 10.1017 12.3122C10.4062 12.6044 10.6288 12.98 10.9333 13.2722C11.0894 13.4221 11.3445 13.5365 11.5593 13.5442C12.3446 13.5767 13.133 13.5983 13.9167 13.5458C14.8442 13.4855 15.4748 13.889 16.0932 14.5444C16.8661 15.3652 16.6388 16.6188 16.0483 17.166C15.4269 17.7426 15.0637 18.4212 14.8364 19.2219C14.6355 19.9315 14.348 20.6162 14.0975 21.3119C14.1656 21.3366 14.1903 21.352 14.2135 21.3505C14.2645 21.349 14.3155 21.3428 14.365 21.3304C15.5939 21.0305 16.7115 20.4864 17.7193 19.7321C19.6129 18.3146 20.8357 16.4441 21.3921 14.1425C21.6024 13.2768 21.5916 13.2536 20.7321 13.0249C20.6332 12.9986 20.5203 13.0001 20.4338 12.9507C20.1045 12.7667 19.7165 12.6276 19.4754 12.3586C19.109 11.9521 18.8122 11.4698 18.5587 10.9813C18.435 10.7448 18.3531 10.3506 18.466 10.1512C18.9652 9.2763 19.2806 8.23289 20.3565 7.8078C20.4338 7.77688 20.5157 7.52646 20.4724 7.46154C20.0179 6.7783 19.6006 6.05332 19.0503 5.45201C17.639 3.91394 15.8907 2.91227 13.827 2.52273C13.1422 2.39906 12.4374 2.37124 11.7433 2.29704ZM3.18424 8.07522C2.68185 9.20519 2.39897 10.2981 2.34178 11.4481C2.26603 12.9599 2.46235 14.4253 3.07294 15.8196C3.96022 17.8462 5.39936 19.3781 7.29914 20.4818C8.62698 21.2531 10.0831 21.5855 11.6057 21.6643C11.816 21.6751 11.9721 21.6535 11.9906 21.369C12.0741 20.0891 11.8422 18.9097 10.9379 17.9358C10.5453 17.5138 10.4139 17.0068 10.4216 16.4472C10.4263 16.1257 10.4124 15.8026 10.4247 15.4811C10.4557 14.6989 10.1697 14.1131 9.43852 13.7622C8.96396 13.535 8.51104 13.2629 8.04267 13.0218C7.07964 12.5271 6.10733 12.0294 5.39936 11.1869C4.85524 10.5408 4.39305 9.82506 3.89994 9.13409C3.66498 8.80793 3.44702 8.46785 3.18424 8.07522ZM8.29309 3.02975C8.29309 3.07767 8.29309 3.12713 8.29309 3.17505C8.62389 3.33891 8.95778 3.49812 9.28549 3.66816C9.58846 3.82429 9.87134 3.82119 10.1419 3.59705C10.4386 3.35127 10.4247 3.0112 10.4108 2.6804C10.4077 2.6232 10.2856 2.51654 10.2423 2.52582C9.59001 2.68349 8.94232 2.85971 8.29309 3.02975Z" fill="white"/>
</g>
<defs>
<clipPath id="clip0">
<rect width="23.9768" height="24" fill="white"/>
</clipPath>
</defs>
</svg>
