<svg width="24" height="24" viewBox="0 0 24 24" fill="none" xmlns="http://www.w3.org/2000/svg">
<g clip-path="url(#clip0)">
<path d="M7.18382 20.8042C5.44339 20.8042 3.70415 20.8054 1.96372 20.8042C0.746614 20.803 -0.0167765 20.0648 2.77209e-05 18.8453C0.0120307 17.9691 -0.0131756 17.0713 0.16927 16.2238C0.531761 14.5458 1.94571 13.2699 3.79418 13.1763C4.37872 13.1463 4.95246 13.1775 5.513 13.3491C6.76252 13.732 7.98922 13.5832 9.23633 13.2795C10.3898 12.9986 11.5409 13.1115 12.5408 13.8088C13.627 14.5662 14.274 15.6249 14.3724 16.9644C14.4204 17.621 14.4 18.2836 14.394 18.9437C14.382 20.0624 13.6426 20.7958 12.524 20.8018C11.6045 20.8078 10.6839 20.803 9.76447 20.803C8.90385 20.8042 8.04444 20.8042 7.18382 20.8042ZM12.5828 18.9881C12.5828 18.3448 12.5996 17.717 12.5792 17.0905C12.5372 15.7845 11.0908 14.433 9.59042 14.9899C8.00843 15.5769 6.39763 15.5301 4.79763 15.0019C4.59117 14.9335 4.37272 14.8675 4.15787 14.8615C3.29365 14.8375 2.6863 15.2936 2.22178 15.9694C1.57722 16.9068 1.85809 17.9679 1.78847 18.9893C5.41578 18.9881 8.99147 18.9881 12.5828 18.9881Z" fill="#eaf1fb"/>
<path d="M11.3934 8.20106C11.3934 10.5188 9.52088 12.3973 7.20791 12.4021C4.99935 12.4069 3.01286 10.6221 3.00686 8.20346C2.99965 5.81366 4.99815 3.9928 7.20431 4.00001C9.51608 4.00721 11.3934 5.88568 11.3934 8.20106ZM9.5917 8.22506C9.60611 6.91553 8.52223 5.81126 7.21271 5.80166C5.94519 5.79325 4.82891 6.89153 4.7989 8.17825C4.7689 9.44697 5.90558 10.5945 7.1971 10.5993C8.49703 10.6041 9.5773 9.53339 9.5917 8.22506Z" fill="#eaf1fb"/>
<path d="M15.5798 19.5919C15.5798 19.0014 15.5798 18.4252 15.5798 17.8119C17.8004 17.8119 19.9837 17.8119 22.1683 17.8119C22.1683 17.2885 22.2391 16.7892 22.1526 16.3187C21.9822 15.3873 21.1384 14.8867 20.1854 15.0692C19.686 15.1652 19.1891 15.2816 18.6862 15.3536C17.8532 15.4725 17.0334 15.3476 16.2184 15.164C15.9099 15.0944 15.587 15.0932 15.2737 15.0452C15.1921 15.0332 15.0889 14.9816 15.0457 14.9155C14.7456 14.4594 14.4587 13.9937 14.1562 13.5124C14.7192 13.2507 15.3505 13.1691 16.0011 13.2723C16.474 13.3479 16.9385 13.474 17.4103 13.5532C18.1881 13.6852 18.937 13.4968 19.692 13.3395C20.9007 13.0875 22.0254 13.2603 22.9448 14.1605C23.5978 14.8015 23.9675 15.5841 23.9879 16.5095C23.9999 17.0797 24.0071 17.6498 23.9855 18.2188C23.9567 18.9353 23.449 19.4731 22.7408 19.5763C22.6328 19.5919 22.5223 19.6015 22.4119 19.6015C20.1914 19.6027 17.9708 19.6027 15.7502 19.6015C15.6818 19.6039 15.6134 19.5943 15.5798 19.5919Z" fill="#eaf1fb"/>
<path d="M21.5957 8.80239C21.6557 10.6641 20.0749 12.4093 18.0068 12.4021C16.0203 12.3961 14.3975 10.7817 14.3999 8.79879C14.4023 6.8123 16.0239 5.20269 18.0092 5.19789C20.0785 5.19549 21.6581 6.94073 21.5957 8.80239ZM19.7953 8.80479C19.7965 7.79414 19.0019 6.99834 17.996 7.00314C17.0154 7.00675 16.2076 7.81575 16.204 8.79879C16.1992 9.77704 17.0094 10.5932 17.99 10.6004C18.9959 10.6076 19.7941 9.81545 19.7953 8.80479Z" fill="#eaf1fb"/>
</g>
<defs>
<clipPath id="clip0">
<rect y="4" width="24" height="16.8066" fill="white"/>
</clipPath>
</defs>
</svg>
