<svg height='33' width='33'  fill="white" xmlns="http://www.w3.org/2000/svg" xmlns:xlink="http://www.w3.org/1999/xlink" version="1.1" x="0px" y="0px" viewBox="0 0 100 100" enable-background="new 0 0 100 100" xml:space="preserve"><path d="M84.2,30.4c2-2,2-5.1,0-7.1c-1.9-2-5.1-2-7.1,0l-4.3,4.4c-5.6-4.2-12.3-7-19.5-7.7v-8.3h3.5c1.8,0,3.1-1.6,3.1-3.4  c0-1.8-1.4-3.4-3.1-3.4H43.3c-1.8,0-3.4,1.6-3.4,3.4c0,1.8,1.6,3.4,3.4,3.4h3.3V20c-19.2,1.8-34.2,17.9-34.2,37.6  c0,20.7,16.8,37.5,37.5,37.5c20.8,0,37.6-16.8,37.6-37.5c0-8.6-3-16.4-7.7-22.9L84.2,30.4z M49.9,87.4c-16.5,0-29.8-13.4-29.8-29.8  c0-16.6,13.3-30.1,29.8-30.1C66.6,27.5,80,41,80,57.6C80,74,66.6,87.4,49.9,87.4L49.9,87.4z M49.5,48.5c1.5,0.1,2.9,0.4,3.7,1.2  c0.5,0.3,1.2,0.8,1.2,1.8c0,1.6,1.3,2.9,2.9,2.9c1.6,0,3-1.4,3-2.9c0-2.4-1.3-4.9-3.4-6.5c-1.3-1-2.7-1.6-4.4-1.9v-3.3  c0-1.7-1.4-3.1-2.9-3.1c-1.7,0-3,1.4-3,3V43c-4.5,0.9-7.9,4.3-7.9,8.3c0,2.2,0.9,4.2,2.5,5.8c2,2,5,3.2,8.3,3.3  c1.6,0,3.3,0.5,4.2,1.4c0.2,0.4,0.8,0.9,0.8,1.5c-0.1,1.4-2.1,2.9-5,2.9c-1.6,0-3.2-0.6-4.1-1.6c-0.4-0.3-0.8-0.8-0.8-1.5  c0-1.5-1.3-2.9-2.9-2.9c-1.7,0-3,1.2-3,2.9c0,2.1,0.8,4.1,2.5,5.7c1.5,1.4,3.3,2.4,5.3,2.9v3.4c-0.1,1.6,1.3,2.9,2.9,2.9  c1.7,0,3-1.3,3-2.9v-3.4c4.6-0.9,7.8-4.3,7.8-8.4c0-2.1-0.9-4.1-2.4-5.6c-1.9-2.1-5-3.3-8.3-3.3c-1.7,0-3.3-0.5-4.2-1.5  c-0.4-0.4-0.8-0.9-0.8-1.6C44.6,50.1,46.6,48.5,49.5,48.5z"></path></svg>
