<svg width="24" height="24" viewBox="0 0 24 24" fill="none" xmlns="http://www.w3.org/2000/svg">
<g clip-path="url(#clip0)">
<path d="M7.85652 15.0098C7.48335 15.0098 7.15016 14.9964 6.81964 15.0178C6.71969 15.0244 6.59841 15.1071 6.53444 15.191C6.1746 15.6562 5.82009 16.1266 5.48024 16.6064C5.28299 16.8849 5.03377 17.0142 4.69259 17.0115C3.39317 17.0049 2.09374 17.0115 0.79299 17.0076C0.175931 17.0049 -0.123936 16.6051 0.0493202 16.0147C0.441146 14.6739 0.847632 13.3358 1.23013 11.9924C1.2861 11.7952 1.28477 11.5526 1.2288 11.3554C0.855629 10.044 0.458472 8.73789 0.0719768 7.43047C-0.135931 6.72679 0.143945 6.34429 0.864958 6.34296C2.1204 6.34162 3.37584 6.34962 4.63128 6.33763C5.00978 6.33363 5.28699 6.45891 5.50556 6.77477C5.82809 7.23989 6.16793 7.69436 6.52378 8.13416C6.6104 8.24211 6.78499 8.31941 6.9276 8.33407C7.22347 8.36472 7.52467 8.3434 7.86185 8.3434C7.62995 7.51444 7.40872 6.71479 7.18348 5.91648C6.80499 4.57041 6.42382 3.22301 6.04399 1.87694C5.91738 1.42648 6.11063 1.10662 6.56509 1.02799C6.68504 1.00799 6.80898 1.00933 6.93026 1.00933C8.11507 1.00799 9.30387 1.02532 10.4913 0.999998C10.9538 0.990669 11.235 1.16792 11.4563 1.55708C12.6757 3.71079 13.9138 5.85517 15.128 8.01288C15.2772 8.27676 15.4385 8.34873 15.7264 8.34873C17.0364 8.35273 18.3532 8.30075 19.6539 8.42337C21.0573 8.55531 22.3194 9.16037 23.3003 10.1852C24.3092 11.2394 24.2172 12.4349 23.0991 13.3758C21.8836 14.398 20.4749 14.9858 18.865 15.0058C17.7761 15.0191 16.6873 15.0138 15.5997 15.0031C15.3932 15.0004 15.2865 15.0711 15.1853 15.2483C13.9525 17.4207 12.705 19.5851 11.4762 21.7601C11.243 22.1719 10.9538 22.3638 10.4647 22.3518C9.25456 22.3239 8.0431 22.3452 6.83297 22.3425C6.13728 22.3412 5.88673 22.0093 6.07464 21.339C6.63439 19.3518 7.19681 17.3661 7.75789 15.3789C7.78721 15.2723 7.81387 15.1657 7.85652 15.0098ZM2.44959 8.3434C2.60285 8.87516 2.69881 9.39627 2.90139 9.87072C3.42116 11.0888 3.41049 12.279 2.89605 13.4958C2.69614 13.9676 2.60152 14.4847 2.45092 15.0098C2.97069 15.0098 3.44781 15.0231 3.9236 15.0004C4.05421 14.9938 4.2208 14.9138 4.30076 14.8125C4.71525 14.2914 5.09774 13.745 5.51356 13.2252C5.60019 13.1159 5.77611 13.02 5.91338 13.0187C7.3674 13.004 8.82275 13.0093 10.2768 13.0107C10.3501 13.0107 10.422 13.0227 10.5207 13.032C9.81698 15.4736 9.11996 17.8912 8.4136 20.3434C8.8654 20.3434 9.27455 20.3314 9.68371 20.3487C9.91027 20.3581 10.0342 20.2861 10.1502 20.0809C11.4283 17.8085 12.7224 15.5455 14.0045 13.2745C14.1164 13.076 14.239 13.0027 14.4696 13.004C15.9236 13.0147 17.379 13.016 18.8343 13.008C19.9098 13.0013 20.8401 12.5855 21.6837 11.9498C21.777 11.8792 21.8476 11.7792 21.9263 11.6952C21.8943 11.6419 21.8823 11.6113 21.861 11.5873C21.8077 11.53 21.7557 11.4713 21.6944 11.4247C20.8547 10.7823 19.9258 10.3585 18.853 10.3478C17.4203 10.3332 15.9876 10.3358 14.5562 10.3518C14.263 10.3558 14.1111 10.2679 13.9658 10.0093C12.701 7.75566 11.4189 5.50999 10.1355 3.26566C10.0769 3.16304 9.96358 3.0271 9.87029 3.02177C9.3985 2.99644 8.92538 3.00977 8.41494 3.00977C9.12529 5.47401 9.82231 7.8916 10.5193 10.3092C10.4727 10.3239 10.4527 10.3372 10.4314 10.3372C8.89872 10.3398 7.36607 10.3452 5.83475 10.3345C5.72946 10.3332 5.59752 10.2346 5.52555 10.1439C5.1164 9.61883 4.72458 9.07907 4.31809 8.55131C4.25012 8.46335 4.1395 8.3554 4.04488 8.35273C3.52244 8.33274 3.00267 8.3434 2.44959 8.3434Z" fill="#eaf1fb"/>
</g>
<defs>
<clipPath id="clip0">
<rect y="1" width="24" height="21.3532" fill="white"/>
</clipPath>
</defs>
</svg>
