<svg width="25" height="24" viewBox="0 0 25 24" fill="none" xmlns="http://www.w3.org/2000/svg">
<g clip-path="url(#clip0)">
<path d="M13.0702 23.9984C6.43079 24.0974 0.987432 18.5875 0.996716 12.01C1.006 5.40304 6.48959 -0.0140209 13.0408 -9.52814e-05C19.5951 0.0138303 25.0663 5.51909 24.9998 12.0425C24.9333 18.6912 19.6709 24.0092 13.0702 23.9984ZM13.0099 21.6712C18.3434 21.8136 22.7098 17.1547 22.6882 11.962C22.6665 6.86058 18.2443 2.27287 12.9139 2.34095C7.62685 2.40903 3.31455 6.7956 3.32693 12.0471C3.33776 17.2738 7.76301 21.8213 13.0099 21.6712Z" fill="#075290"/>
<path d="M14.5387 15.0025C14.5387 15.852 14.5449 16.703 14.5372 17.5524C14.5325 18.0847 14.401 18.2038 13.8657 18.2054C13.273 18.2069 12.6804 18.2085 12.0878 18.2054C11.6329 18.2038 11.4968 18.1033 11.4797 17.6484C11.4519 16.8886 11.4627 16.1289 11.4612 15.3692C11.4596 14.4037 11.4488 13.4366 11.4674 12.4711C11.4736 12.1292 11.3838 11.9899 11.014 12.0008C10.1645 12.0255 9.31354 12.0069 8.46408 12.01C8.1376 12.0116 7.84207 11.9652 7.70281 11.6155C7.5651 11.2704 7.78172 11.0569 7.9937 10.8434C9.476 9.35798 10.9568 7.87104 12.4406 6.38719C12.9063 5.92145 13.1075 5.91836 13.5639 6.37481C15.0555 7.86794 16.544 9.36572 18.0372 10.8589C18.26 11.0817 18.4333 11.3184 18.3017 11.6433C18.1702 11.9714 17.8747 12.0131 17.5621 12.0116C16.6987 12.0085 15.8354 12.024 14.9735 12.0038C14.6269 11.9961 14.5294 12.1245 14.5356 12.4541C14.5527 13.3036 14.5418 14.1546 14.5418 15.004C14.5403 15.0025 14.5387 15.0025 14.5387 15.0025Z" fill="#075290"/>
</g>
<defs>
<clipPath id="clip0">
<rect x="0.996826" width="24.0031" height="24" fill="white"/>
</clipPath>
</defs>
</svg>
