<svg width="22" height="22" viewBox="0 0 22 22" fill="none" xmlns="http://www.w3.org/2000/svg">
<path d="M12.3753 4.81579C12.3753 5.85726 12.3808 6.9001 12.374 7.94157C12.3671 9.07509 12.1926 10.1729 11.6128 11.1718C10.717 12.712 9.45015 13.7823 7.69972 14.2124C7.34386 14.2989 7.20784 14.413 7.20646 14.8114C7.19547 17.0565 8.27816 18.6022 10.2622 19.5049C11.4136 20.0284 12.6488 20.0669 13.8853 19.7069C15.3156 19.2906 16.3557 18.414 17.051 17.1114C17.3752 16.5042 17.4947 15.8419 17.5002 15.1645C17.5112 13.8249 17.4989 12.4853 17.5085 11.1457C17.5099 10.9203 17.4508 10.7981 17.2268 10.7129C15.7196 10.144 14.8141 8.42795 15.1879 6.87262C15.7141 4.68526 17.8011 3.56685 19.8786 4.41871C21.1564 4.94219 22.103 6.25433 21.9519 7.84677C21.8255 9.18639 21.1289 10.1413 19.8923 10.6854C19.6807 10.7788 19.5859 10.8874 19.5873 11.1415C19.5928 12.6062 19.6024 14.0722 19.5584 15.5355C19.465 18.6008 16.9616 21.0094 14.4555 21.7046C11.1566 22.6211 7.92093 21.3831 6.0853 18.4895C5.39832 17.4069 5.13726 16.1978 5.15513 14.9227C5.16337 14.3374 5.15513 14.3456 4.59867 14.2014C3.60529 13.9444 2.74381 13.4567 1.99637 12.7463C1.33961 12.1226 0.816129 11.415 0.46714 10.581C0.149754 9.82253 0.00823463 9.02426 0.00548669 8.20675C-0.00275713 5.91634 0.00136478 3.6273 0.00273875 1.33689C0.00273875 0.897222 0.0989166 0.773565 0.526221 0.673265C1.42755 0.461673 2.32887 0.251456 3.23157 0.0467341C3.74543 -0.0700534 3.88283 0.0151327 4.02572 0.522128C4.10266 0.796922 4.17548 1.07446 4.23044 1.35475C4.31288 1.7642 4.18098 1.96342 3.78116 2.05273C3.32362 2.1544 2.86747 2.25883 2.40581 2.33714C2.153 2.37974 2.06232 2.4924 2.06369 2.74796C2.07056 4.6248 2.04583 6.50302 2.07331 8.37987C2.10354 10.4394 3.82512 12.139 5.78303 12.3355C8.02947 12.5609 9.78815 10.9272 10.2058 9.09708C10.291 8.72061 10.324 8.32628 10.3267 7.93882C10.3391 6.23372 10.3267 4.52725 10.3377 2.82078C10.3391 2.51438 10.2526 2.37012 9.92692 2.32753C9.47488 2.26844 9.02972 2.15303 8.58455 2.04998C8.1916 1.95793 8.06382 1.74221 8.15175 1.34239C8.21496 1.05248 8.27816 0.762573 8.35373 0.475413C8.46914 0.0412382 8.6244 -0.0590616 9.08193 0.0302464C9.50786 0.114059 9.92967 0.221228 10.3529 0.31878C10.8434 0.431446 11.3352 0.535868 11.8216 0.663647C12.3025 0.788678 12.3753 0.891726 12.3753 1.38223C12.3767 2.52538 12.3753 3.66989 12.3753 4.81579ZM19.9129 7.52388C19.9116 6.89186 19.2397 6.198 18.6228 6.19113C17.8602 6.18151 17.1732 6.84651 17.1801 7.58434C17.187 8.29193 17.8492 8.92945 18.5637 8.91709C19.3194 8.90472 19.9157 8.28918 19.9129 7.52388Z" fill="#1a4480"/>
</svg>
