<svg class="logo logo--cdc" role="img" aria-label="CDC: Center for Disease Control" focusable="false" height="80" width="80"
	xmlns="http://www.w3.org/2000/svg" viewBox="0 0 65.46 40">
	<title>CDC: Center for Disease Control</title>
	<path d="M0,0H65.46V40H0Z" fill="#fff"/>
	<path d="M.64.65H64.81V39.33H.64Z" fill="#105eab"/>
	<path d="M27,39.32,64.8,1V.63h-.19L26.42,39.32Zm-23.85,0L5.7.63H5.3L2.74,39.32Zm2.05,0L10.71.63H10.3L4.78,39.32Zm2.19,0L16,.63h-.4L7,39.32Zm2.4,0L22.1.63h-.41L9.36,39.32Zm2.27,0L27.88.63h-.43L11.61,39.32Zm2.6,0L34.46.63H34L14.2,39.32ZM44.36.63h-.48L18.23,39.32h.48Zm9.14,0H53L21.82,39.32h.51ZM64.8,15.27v-.46L33.89,39.32h.63Zm0,10.64v-.47L42.59,39.32h.76Zm0,10v-.4l-8.17,3.81h.95Z" fill="#fff"/>
	<path d="M19.8,23.89a7.35,7.35,0,0,1-4.26,1.57c-4.26,0-6.25-3.63-6.29-9.16,0-5.24,2.18-8.57,5.87-8.58a5.48,5.48,0,0,1,4.63,2.45l.77,1V6.44l-.25-.12a12.93,12.93,0,0,0-5.21-1c-6.63,0-11.69,4.77-11.7,11.47C3.36,23.67,8.15,28,15,28h0a9.39,9.39,0,0,0,6.07-1.73l.27-.2-1.13-2.55ZM38.37,7.75A12.46,12.46,0,0,0,31,5.64H22.9V27.57h8.62c4.19,0,10.65-2.66,10.66-11C42.2,12.17,40.6,9.38,38.37,7.75ZM28.24,25V8.12c3.91.1,8.08.58,8.15,8.52C36.33,24.34,32.06,24.92,28.24,25Zm32.42-1.55-.44.41A7.23,7.23,0,0,1,56,25.46c-4.26,0-6.26-3.63-6.29-9.16,0-5.24,2.18-8.57,5.88-8.58a5.45,5.45,0,0,1,4.61,2.45l.77,1V6.44l-.24-.12a12.81,12.81,0,0,0-5.22-1c-6.63,0-11.67,4.76-11.68,11.47,0,6.88,4.78,11.2,11.63,11.21h0a9.34,9.34,0,0,0,6-1.73l.27-.2Z" fill="#fff"/>
</svg>
