<svg width="56" height="33" viewBox="0 0 56 33" fill="none" xmlns="http://www.w3.org/2000/svg">
<g clip-path="url(#clip0)">
<path d="M55.2249 0.0510254H0.984375V32.949H55.2249V0.0510254ZM54.2393 1.03013V31.9699H1.96997V1.03013H54.2393Z" fill="#15223B"/>
<path fill-rule="evenodd" clip-rule="evenodd" d="M23.3286 32.4594L54.7318 0.817056V0.540588H54.5451L22.8643 32.4594H23.3286Z" fill="#15223B"/>
<path fill-rule="evenodd" clip-rule="evenodd" d="M3.53187 32.4594L5.68211 0.540588H5.30813L3.25098 32.4594H3.53187Z" fill="#15223B"/>
<path fill-rule="evenodd" clip-rule="evenodd" d="M5.20752 32.4594L9.85473 0.540588H9.48275L4.92676 32.4594H5.20752Z" fill="#15223B"/>
<path fill-rule="evenodd" clip-rule="evenodd" d="M7.07347 32.4594L14.224 0.540588H13.9457L6.70068 32.4594H7.07347Z" fill="#15223B"/>
<path fill-rule="evenodd" clip-rule="evenodd" d="M9.01807 32.4594L19.3165 0.540588H18.946L8.73779 32.4594H9.01807Z" fill="#15223B"/>
<path fill-rule="evenodd" clip-rule="evenodd" d="M10.9824 32.4594L24.0801 0.540588H23.7084L10.6104 32.4594H10.9824Z" fill="#15223B"/>
<path fill-rule="evenodd" clip-rule="evenodd" d="M13.0848 32.4594L29.5337 0.540588H29.1618L12.7129 32.4594H13.0848Z" fill="#15223B"/>
<path fill-rule="evenodd" clip-rule="evenodd" d="M37.7142 0.540588H37.3412L16.064 32.4594H16.4358L37.7142 0.540588Z" fill="#15223B"/>
<path fill-rule="evenodd" clip-rule="evenodd" d="M45.3362 0.540588H44.9648L19.0537 32.4594H19.5179L45.3362 0.540588Z" fill="#15223B"/>
<path fill-rule="evenodd" clip-rule="evenodd" d="M54.732 12.6213V12.1593L29.0737 32.4594H29.6321L54.732 12.6213Z" fill="#15223B"/>
<path fill-rule="evenodd" clip-rule="evenodd" d="M54.7322 21.3733V21.0039L36.3345 32.4594H36.8925L54.7322 21.3733Z" fill="#15223B"/>
<path fill-rule="evenodd" clip-rule="evenodd" d="M54.7321 29.6958V29.3263L47.9644 32.4594H48.799L54.7321 29.6958Z" fill="#15223B"/>
<path fill-rule="evenodd" clip-rule="evenodd" d="M13.3665 22.6683H12.344L11.4149 22.5765L10.4858 22.3922L9.55558 22.1158L8.81274 21.7468L7.97513 21.3774L7.32542 20.9168L6.67489 20.3632L6.02435 19.7185L5.55789 19.072L5.09361 18.3349L4.72137 17.5047L4.4439 16.6749L4.25682 15.752L4.07275 14.8301V13.8156L4.16424 12.8011L4.25682 11.8792L4.4439 11.0492L4.81587 10.1274L5.18701 9.38817L5.65156 8.55818L6.11584 7.91354L6.76747 7.26808L7.418 6.71339L8.16221 6.16088L8.90423 5.79181L9.74184 5.42356L10.5781 5.14635L11.5083 4.86996L12.4374 4.77701L13.4599 4.68542L14.4824 4.77701L15.5975 4.96263L16.6202 5.14635L17.6416 5.5165V8.19102L17.0845 7.54365L16.6202 7.1754L16.248 6.80742L15.69 6.52913L15.0403 6.25274L14.2964 6.06793H12.9019L12.2514 6.16088L11.7868 6.3465L11.2286 6.52913L10.7632 6.89901L10.3924 7.1754L9.92755 7.63633L9.64926 8.09726L9.27702 8.65194L8.99873 9.20446L8.62649 10.4027L8.34819 11.8792L8.25479 13.4476L8.34819 15.1065L8.62649 16.6749L8.99873 17.9659L9.27702 18.6113L9.64926 19.1649L10.0212 19.6258L10.3924 20.0865L10.8577 20.4558L11.3223 20.732L11.8791 21.0086L12.5297 21.1932L13.1802 21.2856L13.8318 21.3774L14.389 21.2856L14.8535 21.1932L15.9705 20.9168L16.8996 20.4558L17.6416 19.9946L18.1996 21.3774L17.5491 21.8386L16.5266 22.2077L15.9705 22.3922L15.2255 22.5765L14.389 22.6683H13.3665Z" fill="#15223B"/>
<path fill-rule="evenodd" clip-rule="evenodd" d="M13.3665 22.6683H12.344L11.4149 22.5765L10.4858 22.3922L9.55558 22.1158L8.81274 21.7468L7.97513 21.3774L7.32542 20.9168L6.67489 20.3632L6.02435 19.7185L5.55789 19.072L5.09361 18.3349L4.72137 17.5047L4.4439 16.6749L4.25682 15.752L4.07275 14.8301V13.8156L4.16424 12.8011L4.25682 11.8792L4.4439 11.0492L4.81587 10.1274L5.18701 9.38817L5.65156 8.55818L6.11584 7.91354L6.76747 7.26808L7.418 6.71339L8.16221 6.16088L8.90423 5.79181L9.74184 5.42356L10.5781 5.14635L11.5083 4.86996L12.4374 4.77701L13.4599 4.68542L14.4824 4.77701L15.5975 4.96263L16.6202 5.14635L17.6416 5.5165V8.19102L17.0845 7.54366L16.6202 7.1754L16.248 6.80742L15.69 6.52913L15.0403 6.25274L14.2964 6.06793H12.9019L12.2514 6.16088L11.7868 6.3465L11.2286 6.52913L10.7632 6.89901L10.3924 7.1754L9.92755 7.63633L9.64926 8.09726L9.27702 8.65194L8.99873 9.20446L8.62649 10.4027L8.34819 11.8792L8.25479 13.4476L8.34819 15.1065L8.62649 16.6749L8.99873 17.9659L9.27702 18.6113L9.64926 19.1649L10.0212 19.6258L10.3924 20.0865L10.8577 20.4558L11.3223 20.732L11.8791 21.0086L12.5297 21.1932L13.1802 21.2856L13.8318 21.3774L14.389 21.2856L14.8535 21.1932L15.9705 20.9168L16.8996 20.4558L17.6416 19.9946L18.1996 21.3774L17.5491 21.8386L16.5266 22.2077L15.9705 22.3922L15.2255 22.5765L14.389 22.6683H13.3665Z" stroke="#15223B" stroke-width="0.123367" stroke-linecap="square"/>
<path fill-rule="evenodd" clip-rule="evenodd" d="M27.1211 22.4072L28.4218 22.3152L29.1661 22.1304L29.8166 21.9454L30.5594 21.7619L31.3036 21.391L31.9542 21.0216L32.6047 20.56L33.2552 20.0062L33.8132 19.3601L34.7423 17.8814L35.1143 16.9582L35.3939 15.9422L35.5788 14.8342V12.4316L35.3939 11.2327L35.1143 10.2167L34.7423 9.29348L33.8132 7.81481L33.2552 7.16841L32.6047 6.70573L31.8616 6.24441L31.2111 5.87481L30.4671 5.59883L29.7229 5.41295L28.8875 5.23032L28.1436 5.13751L26.6562 5.04443H20.335V22.4072H27.1211ZM31.4896 13.7262V14.9262L31.3036 16.0353L31.1185 16.9582L30.7457 17.6977L30.4671 18.4358L30.0026 18.9905L29.538 19.5438L28.9801 19.9145L28.4218 20.2833L27.865 20.4681L27.2145 20.6526L26.5639 20.8387L25.2629 21.0216H24.0533V6.33722H25.2629L26.5639 6.52311L27.2145 6.61483L27.865 6.79881L28.4218 7.07669L28.9801 7.44629L29.538 7.81481L30.4671 8.92388L30.8391 9.66118L31.1185 10.4924L31.3036 11.4164L31.4896 12.5254V13.7262Z" fill="#15223B"/>
<path fill-rule="evenodd" clip-rule="evenodd" d="M46.9129 22.6683H45.8901L44.9599 22.5765L44.0303 22.3922L43.1935 22.1158L42.3571 21.7468L41.6137 21.3774L40.8693 20.9168L40.2186 20.3632L39.6594 19.7185L39.1024 19.072L38.6366 18.3349L38.359 17.5047L37.9878 16.6749L37.8009 15.752L37.7072 14.8301L37.6157 13.8156L37.7072 12.8011L37.8009 11.8792L38.0804 11.0492L38.359 10.1274L38.73 9.38817L39.195 8.55818L39.7542 7.91354L40.3123 7.26808L40.963 6.71339L41.7063 6.16088L42.4486 5.79181L43.2873 5.42356L44.1229 5.14635L45.0534 4.86996L45.9825 4.77701L47.0055 4.68542L48.1228 4.77701L49.1437 4.96263L50.2591 5.14635L51.1893 5.5165V8.19102L50.6312 7.54365L50.2591 7.1754L49.7944 6.80742L49.2371 6.52913L48.5864 6.25274L47.8423 6.06793H46.4471L45.8901 6.16088L45.3317 6.3465L44.8673 6.52913L44.3081 6.89901L43.938 7.1754L43.1935 8.09726L42.8215 8.65194L42.5428 9.20446L42.1708 10.4027L41.8921 11.8792L41.7998 13.4476L41.8921 15.1065L42.1708 16.6749L42.5428 17.9659L42.8215 18.6113L43.1935 19.1649L43.5659 19.6258L43.938 20.0865L44.4026 20.4558L44.9599 20.732L45.4254 21.0086L46.0762 21.1932L46.7269 21.2856L47.3776 21.3774L47.9346 21.2856L48.493 21.1932L49.5169 20.9168L50.4463 20.4558L51.1893 19.9946L51.8411 21.3774L51.0959 21.8386L50.1665 22.2077L49.5169 22.3922L48.7716 22.5765L47.9346 22.6683H46.9129Z" fill="#15223B"/>
</g>
<defs>
<clipPath id="clip0">
<rect x="0.984375" y="0.0510254" width="54.2405" height="32.8979" fill="white"/>
</clipPath>
</defs>
</svg>