<svg width="89" height="33" viewBox="0 0 89 33" fill="none" xmlns="http://www.w3.org/2000/svg">
<g clip-path="url(#clip0)">
<path fill-rule="evenodd" clip-rule="evenodd" d="M36.8731 10.1618V11.4018H38.4987V22.2857H36.8267V23.6634H42.6325V22.2857H40.4495V17.3719H43.7938V19.0711H45.2337V14.6623H43.7938V16.3156H40.4495V11.3558H44.8621V13.2387H46.3948V10.2077L36.8731 10.1618ZM47.556 10.1619V11.4936H49.2282V22.3775H47.6025V23.8471H57.0314V20.7243H55.5915V22.3775H51.0395V17.2801H54.5231V18.9333H55.963V14.6165H54.5231V16.2697H51.0395V11.4936H55.5915V13.2388H57.0314V10.2078L47.556 10.1619ZM58.1925 10.2078V11.4936H59.7254V22.5153H58.1925V23.7553H62.7909V22.4694H60.933V13.7898L65.9493 23.3419L71.2908 13.3306V22.3775H69.5258V23.7553H75.146V22.3775H73.4274V11.31H75.146V10.07H71.6624L66.5531 19.9436L61.5833 10.2078H58.1925ZM81.6951 9.98835L76.7488 22.4537H75.6372L75.6876 23.7393H79.5159V22.5013H78.2631L79.725 18.8376H84.6231L85.9826 22.4537H84.6661V23.7393H88.9896V22.4537H87.9759L83.1309 9.98499L81.6951 9.98835H81.6951ZM82.2705 12.4123L84.2193 17.4092H80.23L82.2705 12.4123Z" fill="#15223B"/>
<path d="M23.8533 13.7498C24.0565 13.7884 24.48 13.9217 24.9023 13.8831C25.162 14.7424 25.2936 15.6346 25.2931 16.5315C25.2931 16.6542 25.2893 16.7757 25.2863 16.8985L25.6192 16.5439L25.431 16.5231L26.1153 16.0958L25.7299 16.7974L25.6947 16.6156L25.2777 17.0722C25.2648 17.2675 25.248 17.4616 25.224 17.6544L25.5616 17.3749L25.3808 17.3282L26.1153 16.9948L25.6385 17.6391L25.6287 17.4548L25.2052 17.8047C25.1833 17.9627 25.1553 18.119 25.1265 18.2748L25.3971 18.1054L25.2223 18.0348L25.9951 17.7996L25.4373 18.3777L25.4524 18.193L25.0988 18.4147C25.0844 18.4833 25.0691 18.552 25.053 18.6205L24.401 18.838L24.5767 18.9034L22.9436 19.9597L22.7797 20.0872L22.6163 20.2153C22.7718 20.138 22.9505 20.0488 23.1317 19.9584L24.6342 18.9892L24.6244 19.1752L25.0244 18.7377C25.0057 18.8123 24.9861 18.8867 24.9656 18.9604L25.3377 18.7587L25.1633 18.6865L25.9369 18.455L25.375 19.0318L25.3914 18.8453L24.9271 19.0997C24.9162 19.1368 24.9051 19.1738 24.8937 19.2109L24.2873 19.3385L24.456 19.4232L22.1962 20.5418L22.1834 20.5519C22.1501 20.5783 22.1227 20.5997 22.1051 20.6136C22.1211 20.6259 22.1335 20.6399 22.1442 20.6556C22.149 20.6624 22.1519 20.6692 22.1554 20.6755L24.5016 19.5152L24.4698 19.6982L24.841 19.3772C24.8173 19.4496 24.7928 19.5216 24.7677 19.5928L25.0937 19.4599L24.927 19.3749L25.7191 19.2127L25.1074 19.736L25.1396 19.5525L24.7157 19.7343C23.3991 23.2521 19.9756 25.7612 15.9589 25.7612C13.1308 25.7612 10.5961 24.5169 8.88526 22.5511C8.89421 22.541 8.90355 22.5302 8.91331 22.5188C9.41836 21.926 8.98888 21.4422 8.95317 20.9521C8.94974 20.9602 8.94586 20.9686 8.94375 20.9772C8.93407 21.3812 9.17995 21.8285 8.79423 22.4449C8.72893 22.5476 8.65491 22.6446 8.57287 22.7348C8.37959 22.5191 8.30447 22.1955 8.34739 21.8736C8.30526 21.8149 8.26488 21.7576 8.22494 21.699C8.10811 21.7835 7.96762 21.8489 7.79669 21.8889C7.73397 21.6077 7.77136 21.3546 7.87877 21.1529C7.8354 21.0802 7.7937 21.0072 7.75332 20.932C7.55011 20.9893 7.34611 21.0029 7.1472 21.0518C7.22963 20.7626 7.36106 20.5774 7.51228 20.4628C7.51008 20.4564 7.5063 20.4504 7.50454 20.4441C7.24599 20.4704 6.95991 20.4242 6.68113 20.3371C6.81168 20.2105 7.04533 20.075 7.30995 20.0058C7.29192 19.9625 7.27467 19.9192 7.25752 19.875C6.92296 19.9102 6.57161 19.7943 6.21418 19.4902C6.46507 19.3645 6.7786 19.322 7.06856 19.3449C7.0668 19.342 7.06557 19.3398 7.06469 19.3368C6.59386 19.2668 6.29881 19.0702 6.08618 18.7436C6.39373 18.6594 6.66477 18.6603 6.88989 18.7185C6.87449 18.654 6.85857 18.5894 6.84397 18.524C6.42135 18.4573 6.10562 18.4042 5.88525 17.6937C6.24778 17.6895 6.52313 17.7702 6.72802 17.8997C6.70954 17.7765 6.69327 17.6538 6.68078 17.5298C6.40376 17.3731 6.23573 17.1234 6.19667 16.6868C6.17521 16.4446 6.14899 16.3376 6.12234 16.1414C6.26705 16.2833 6.41484 16.3248 6.62659 16.4892C6.62959 15.6066 6.7608 14.729 7.01621 13.8833C7.44015 13.9219 7.80822 13.8391 8.01143 13.7992C7.6614 14.0175 7.40153 14.4239 7.30485 14.841C7.7052 14.895 8.23655 14.7574 8.58492 14.5021C8.28854 14.8342 8.11673 15.2454 8.06606 15.6255C8.47029 15.6042 8.84399 15.4258 9.19491 15.177C9.05653 15.4454 8.81901 15.9036 8.79024 16.2387C9.16351 16.1993 9.65711 16.0022 9.89419 15.7143C9.69784 16.1458 9.60336 16.4958 9.62615 16.8822C9.99686 16.813 10.2782 16.7094 10.609 16.3959C10.4504 16.79 10.4161 17.2199 10.4522 17.5447C10.8809 17.3952 11.1382 17.1931 11.3787 16.7951C11.252 17.1468 11.1987 17.6153 11.2872 17.8837C11.6502 17.7766 11.8628 17.5384 12.0522 17.1723C11.9199 17.532 11.8705 17.9962 11.974 18.2451C12.1956 18.1661 12.3322 18.093 12.3984 18.0204C12.403 18.088 12.4074 18.1538 12.4117 18.2179C12.4301 18.4804 12.4835 18.7293 12.5698 18.9548C12.5414 18.9875 12.4701 19.0669 12.468 19.0703C12.2768 19.2725 12.0973 19.3591 11.8262 19.5077C11.9151 19.5213 12.0225 19.6173 12.1436 19.6313C12.0083 19.7834 11.7321 19.8174 11.5594 19.9902C11.6934 20.0059 11.7248 20.101 11.8859 20.0832C11.5788 20.3189 11.1136 20.4017 11.0504 20.4089C10.9877 20.4161 10.7806 20.4361 10.65 20.4162C10.4635 20.3876 10.2707 20.4785 10.1977 20.5231C10.0972 20.5791 10.09 20.7039 10.1035 20.7865C10.099 20.7621 10.0971 20.7374 10.0977 20.7126C9.99501 20.6892 9.79444 20.7232 9.75661 20.7793C9.70893 20.8515 9.72142 20.8884 9.7596 21.0159C9.79743 21.1386 9.82663 21.1823 9.90695 21.1943C9.92886 21.1972 9.97223 21.2028 10.0203 21.185C9.99501 21.2007 9.97821 21.2147 9.9658 21.247C9.95164 21.2792 9.9293 21.334 10.0281 21.4508C10.1127 21.5524 10.1965 21.591 10.266 21.5532C10.306 21.5311 10.321 21.5069 10.3395 21.4878C10.3272 21.5154 10.3175 21.5441 10.3107 21.5736C10.2921 21.6728 10.3677 21.712 10.4635 21.7481C10.6439 21.8189 10.7345 21.7927 10.7809 21.7289C10.8771 21.5947 10.8306 21.4147 10.7697 21.384C10.7834 21.4388 10.7809 21.4962 10.7679 21.5616C10.7581 21.6142 10.7305 21.7013 10.6309 21.6899C10.5776 21.6835 10.4792 21.6576 10.4212 21.619C10.38 21.5905 10.38 21.5196 10.4036 21.4589C10.4148 21.4304 10.4281 21.3871 10.465 21.3569C10.4036 21.3714 10.3667 21.4027 10.3181 21.4401C10.27 21.4771 10.1988 21.4843 10.1575 21.441C10.1068 21.3849 10.0746 21.3425 10.0574 21.3055C10.0157 21.2091 10.1416 21.1369 10.215 21.0991C10.0879 21.1004 10.066 21.148 9.96501 21.1309C9.86103 21.114 9.8349 20.9509 9.83525 20.897C9.83525 20.8575 9.88469 20.8192 9.94346 20.8048C10.0006 20.7924 10.0689 20.7976 10.1063 20.8009C10.1076 20.8082 10.1092 20.815 10.111 20.8213C10.1247 20.868 10.1466 20.9249 10.2317 20.9682C10.2811 20.9814 10.3116 20.986 10.2622 20.9508C10.2166 20.9173 10.1664 20.7121 10.2725 20.6366C10.3467 20.5796 10.446 20.5376 10.5903 20.5405C10.7337 20.5431 10.9257 20.5516 11.025 20.535C11.0919 20.5249 11.2526 20.5364 11.2805 20.5644C11.3459 20.6293 11.3574 20.9228 11.5572 20.882C11.7372 20.8438 12.144 20.744 12.4417 20.6C12.3892 20.7092 12.4107 20.8043 12.3575 20.9266C12.6766 20.8484 12.7591 20.6871 13.0636 20.5809C13.0134 20.6908 13.0267 20.7771 12.9584 20.8807C13.217 20.8365 13.4562 20.6072 13.8137 20.5129C13.8262 20.5163 13.836 20.521 13.8463 20.523C13.9558 20.5561 14.0564 20.5858 14.1504 20.6156C13.9588 20.814 13.674 21.2561 13.5731 21.6859C13.5731 21.6859 13.7514 21.691 14.0172 21.6001C13.9365 21.8393 13.8932 22.0892 13.8888 22.3412C13.8888 22.3412 14.0911 22.3047 14.3656 22.1357C14.3396 22.3953 14.3523 22.6573 14.4034 22.9133C14.4034 22.9133 14.6354 22.8186 14.909 22.5421C14.9411 22.8105 15.0117 23.0731 15.1186 23.3218C15.1186 23.3218 15.3175 23.1889 15.5263 22.8784C15.6831 23.3626 15.9142 23.603 15.9142 23.603C16.0789 23.3707 16.2094 23.1164 16.3016 22.8478C16.5185 23.1795 16.7312 23.3218 16.7312 23.3218C16.8432 23.0619 16.9081 22.8015 16.9399 22.5433C17.2139 22.8185 17.4459 22.9132 17.4459 22.9132C17.4967 22.6572 17.509 22.3952 17.4824 22.1356C17.7578 22.3046 17.9584 22.3412 17.9584 22.3412C17.954 22.0893 17.9114 21.8394 17.832 21.6C18.0962 21.6909 18.2749 21.6858 18.2749 21.6858C18.177 21.2645 17.9673 20.9163 17.7139 20.6326C17.8225 20.5981 17.9424 20.5616 18.0725 20.523C18.0833 20.5209 18.0931 20.5162 18.1047 20.5128C18.4626 20.6071 18.7027 20.8364 18.96 20.8806C18.8908 20.777 18.9059 20.6908 18.8548 20.5808C19.1607 20.687 19.2419 20.8484 19.5627 20.9265C19.5077 20.8042 19.5292 20.7091 19.4785 20.5999C19.8385 20.744 20.1516 20.7333 20.3719 20.8582C20.551 20.9333 20.5897 20.7817 20.6232 20.659C20.6365 20.6072 20.6958 20.4844 20.7899 20.495C20.893 20.5043 21.1056 20.4929 21.2448 20.4865C21.3702 20.4801 21.4768 20.5251 21.5523 20.5795C21.6554 20.6567 21.6146 20.8538 21.5699 20.8861C21.52 20.9226 21.5522 20.9184 21.6012 20.9039C21.6871 20.8602 21.7073 20.8041 21.7211 20.7574C21.7241 20.7469 21.7268 20.7352 21.7289 20.7224C21.7672 20.7203 21.8197 20.7204 21.8651 20.7321C21.9244 20.7483 21.972 20.7869 21.9703 20.826C21.9703 20.8804 21.9398 21.043 21.8359 21.0579C21.7336 21.0714 21.7134 21.0239 21.5863 21.0188C21.6572 21.0587 21.783 21.133 21.7362 21.2286C21.7186 21.2668 21.6864 21.3076 21.6331 21.362C21.5918 21.4044 21.5201 21.3955 21.4733 21.3565C21.4265 21.3183 21.39 21.2856 21.329 21.2694C21.3659 21.3004 21.3775 21.3437 21.3874 21.3734C21.4088 21.4329 21.4075 21.5047 21.3659 21.5318C21.3057 21.5684 21.2074 21.5917 21.1537 21.5968C21.0549 21.6061 21.0287 21.5178 21.0201 21.4655C21.0094 21.4001 21.0089 21.3415 21.0244 21.2876C20.9617 21.3178 20.9101 21.4949 21.0038 21.6325C21.0468 21.697 21.1361 21.7242 21.3187 21.6613C21.4158 21.6269 21.4939 21.5904 21.4768 21.4897C21.472 21.4588 21.4613 21.4302 21.451 21.4027C21.4699 21.423 21.482 21.4473 21.521 21.4706C21.5919 21.5096 21.6752 21.4731 21.7637 21.3742C21.8634 21.2608 21.8436 21.2043 21.8316 21.1721C21.8195 21.1398 21.8028 21.1254 21.7783 21.1101C21.8256 21.1296 21.8668 21.1245 21.8901 21.1211C21.9721 21.1122 22.0018 21.0693 22.0429 20.9483C22.0859 20.8217 22.0984 20.7848 22.0524 20.7117C22.033 20.6807 21.9677 20.6556 21.8943 20.6416L24.6064 18.5266L24.6129 18.7131L25.1004 18.0748L24.3606 18.3963L24.542 18.4464L21.8088 20.5805H21.8092L21.7448 20.6319L21.7414 20.6323C21.7388 20.6326 21.7359 20.6329 21.7336 20.634C21.7341 20.6412 21.7344 20.6484 21.7344 20.6556C21.7337 20.5821 21.7106 20.5002 21.6356 20.4567C21.6338 20.4557 21.6319 20.4546 21.63 20.4535L21.6356 20.4565C21.6554 20.468 21.6721 20.4824 21.6859 20.4982L23.3809 17.1031L23.4681 17.268L23.6322 16.4857L23.1034 17.0895L23.2881 17.0572L21.6008 20.4378L21.6053 20.4403C21.517 20.3947 21.3481 20.3261 21.1836 20.3509C21.0522 20.3714 20.8448 20.3518 20.7807 20.345C20.6231 20.3263 20.3404 20.3186 20.032 20.0829C20.194 20.1008 20.2253 20.0057 20.358 19.99C20.1871 19.8171 19.9104 19.7831 19.7747 19.6311C19.8971 19.6171 20.0186 19.5418 20.1076 19.5291C19.9023 19.4646 19.6415 19.2722 19.4512 19.0701C19.4173 19.0299 19.3827 18.9904 19.3472 18.9516C19.434 18.7261 19.486 18.4802 19.5053 18.2177C19.5087 18.1492 19.5135 18.0808 19.5199 18.0126C19.6235 18.1277 19.8218 18.2317 19.974 18.261C20.0358 18.0274 20.0594 17.5764 19.8734 17.1882C20.0611 17.5539 20.3009 17.7696 20.6629 17.8771C20.7514 17.6074 20.6681 17.1466 20.5397 16.795C20.7806 17.1929 21.0651 17.3623 21.4924 17.5118C21.5285 17.1865 21.4696 16.7898 21.3099 16.3957C21.6415 16.7092 21.9224 16.8128 22.2923 16.882C22.3163 16.4955 22.2222 16.1456 22.0242 15.7141C22.2635 16.0021 22.7008 16.2437 23.0741 16.2832C23.1316 15.8971 22.8859 15.3548 22.6917 15.1403C22.9945 15.441 23.4065 15.6474 23.8528 15.6253C23.8391 15.1908 23.6436 14.7695 23.3335 14.5019C23.6505 14.747 24.2291 14.8872 24.6617 14.7916C24.5814 14.4021 24.3941 14.0632 23.8533 13.7498ZM20.953 21.7387L20.5488 22.5672L20.5509 22.5685L20.4035 22.617L19.9246 23.5237L20.157 23.4545L20.2403 23.6792L20.6935 22.7597L20.6402 22.6119L21.0424 21.7888L21.0284 21.784C21.0007 21.7735 20.9752 21.7582 20.953 21.7387ZM11.0442 21.1607C11.0133 21.2083 10.9811 21.2778 10.9584 21.379C11.5108 21.8169 11.8626 22.3566 11.9613 23.0239C12.0713 23.0035 12.2509 23.0753 12.3462 23.1445C12.2363 22.5125 11.8046 21.7268 11.0442 21.1607ZM20.8461 21.4316L20.31 22.0105L20.1515 22.0232L20.1378 22.0363V22.0372L19.3917 22.7748L19.4269 22.7727L19.4234 22.7748L19.4333 22.7727L19.6167 22.7642L19.6493 22.9447L20.2679 22.1408L20.3872 22.1153L20.8582 21.5676L20.8536 21.5485C20.8454 21.5101 20.8429 21.4708 20.8461 21.4316ZM20.749 21.3781L19.5222 22.1791L19.5231 22.18L19.3693 22.1486L19.2799 22.2043L18.493 22.6901L18.7138 22.7352L18.7409 22.9L19.375 22.3577L19.4874 22.363L20.4698 21.6788L20.4823 21.6652C20.5909 21.5469 20.7076 21.4235 20.749 21.3781ZM20.6965 21.2842L19.5231 21.8626L19.3732 21.8168L18.4389 22.2559L18.6495 22.3324L18.6743 22.4521L19.0678 22.2097L19.4342 21.9629L19.5596 21.9863C19.5806 21.9735 20.4569 21.4393 20.6717 21.3004C20.6834 21.2923 20.6898 21.288 20.6898 21.288C20.6923 21.2872 20.6941 21.2855 20.6966 21.2842L20.6965 21.2842ZM8.94463 20.9484C8.8849 20.9743 8.69673 21.2511 8.62028 21.4329C8.5112 21.698 8.42314 22.1018 8.52404 22.3533C8.51296 22.1095 8.73588 21.266 8.94463 20.9484ZM8.56627 20.7768C8.72004 20.6171 8.61606 20.6722 8.43264 20.8226C8.1689 21.0375 7.98935 21.3565 7.94765 21.624C8.06193 21.4087 8.33297 21.0175 8.56627 20.7768ZM10.6654 21.1212C10.6556 21.1787 10.6332 21.2334 10.5996 21.2813C10.5725 21.3195 10.5344 21.342 10.5064 21.3671C10.5549 21.4027 10.6237 21.4235 10.6812 21.421C10.7375 21.4176 10.7409 21.4104 10.7375 21.3883C10.7246 21.2932 10.6868 21.1585 10.6654 21.1212ZM21.1708 21.0567C21.1489 21.0945 21.1124 21.2287 21.0987 21.3238C21.0957 21.3459 21.0969 21.3544 21.155 21.3565C21.2129 21.359 21.2816 21.3395 21.3293 21.3034C21.301 21.2792 21.2636 21.2558 21.2361 21.2155C21.203 21.1678 21.1807 21.1136 21.1708 21.0567ZM10.5786 20.9394C10.5077 20.8948 10.3823 20.9029 10.3311 20.967C10.3415 21.0558 10.3737 21.2252 10.5524 21.2525C10.5257 21.179 10.5305 21.0294 10.5786 20.9394ZM21.5059 20.903C21.4535 20.8383 21.3289 20.8311 21.2576 20.8749C21.3066 20.9645 21.3101 21.1157 21.2834 21.1879C21.4638 21.1599 21.4947 20.9913 21.5059 20.903ZM9.50906 20.7895C9.48762 20.6862 9.38612 20.6191 9.28139 20.6391C9.17751 20.6603 9.1105 20.7605 9.13148 20.8633C9.15207 20.9669 9.2535 21.0332 9.35915 21.0133C9.46294 20.9922 9.52997 20.8922 9.50906 20.7895ZM10.8518 20.8417C10.85 20.7657 10.7938 20.7968 10.7749 20.846C10.7565 20.897 10.7169 20.9492 10.6117 20.9568C10.6868 21.001 10.765 20.995 10.8093 20.973C10.8526 20.9525 10.8522 20.9182 10.8518 20.8417ZM21.0617 20.7835C21.0424 20.733 20.9861 20.7012 20.9857 20.7784C20.9848 20.8544 20.9839 20.888 21.0274 20.9084C21.0711 20.9305 21.1489 20.936 21.2249 20.8927C21.1201 20.8846 21.0805 20.8332 21.0617 20.7835ZM8.63759 20.2276C8.60062 20.2035 8.5554 20.1951 8.51208 20.2042C8.42314 20.2204 8.36385 20.3074 8.38153 20.3961C8.3781 20.3961 8.37555 20.3948 8.36992 20.3941C8.10363 20.3851 7.65946 20.4543 7.3871 20.7737C7.66632 20.6111 8.11093 20.4437 8.3781 20.4076C8.37986 20.4085 8.38285 20.4076 8.3854 20.4076C8.4082 20.4911 8.49237 20.543 8.57823 20.5265C8.66804 20.5079 8.72615 20.4216 8.70878 20.3325C8.70021 20.2895 8.67457 20.2517 8.63759 20.2276ZM9.95921 20.4701C9.94148 20.3903 9.86248 20.3391 9.78142 20.355C9.7009 20.3716 9.64857 20.4488 9.66371 20.5287C9.68218 20.6094 9.75995 20.6612 9.84115 20.6451C9.92211 20.6282 9.97458 20.5505 9.95921 20.4701ZM9.1306 20.4429C9.11562 20.3691 9.04294 20.3212 8.96826 20.336C8.89357 20.3508 8.84516 20.4227 8.8601 20.4965C8.87505 20.5704 8.94771 20.6183 9.0224 20.6035C9.09674 20.5891 9.14477 20.516 9.1306 20.4429ZM9.576 20.2127C9.5541 20.1082 9.45399 20.0415 9.34965 20.0628C9.29925 20.0726 9.25492 20.102 9.22653 20.1444C9.19813 20.1867 9.18802 20.2385 9.19843 20.2883C9.21946 20.3911 9.32212 20.4565 9.4261 20.4356C9.53052 20.4141 9.59756 20.3151 9.576 20.2127ZM25.1712 16.8275L24.4934 17.2615L24.6802 17.2819L21.9204 20.2671L21.8964 20.3163C21.8802 20.349 21.8637 20.3816 21.8469 20.4141L21.847 20.414L21.8595 20.4043C21.9199 20.3575 22.0023 20.2929 22.0995 20.2169L22.1205 20.2004L24.7576 17.3515L24.7936 17.5338L25.1712 16.8275ZM8.28656 20.0375C8.25907 20.0181 8.22488 20.0104 8.1916 20.016C8.14691 20.0228 8.11172 20.0508 8.0958 20.0882C7.73538 20.0415 7.34364 20.0908 7.01375 20.2721C7.38314 20.1876 7.76978 20.109 8.08594 20.1082H8.08806L8.08567 20.1184C8.08309 20.1323 8.08285 20.1466 8.08418 20.1612C8.09791 20.2291 8.16406 20.2772 8.23321 20.2648C8.2668 20.2596 8.29686 20.2412 8.31659 20.2139C8.33632 20.1865 8.34406 20.1524 8.33807 20.1193C8.3326 20.0863 8.31406 20.0569 8.28656 20.0375ZM9.22253 18.2455C8.69374 18.6278 8.51296 19.2975 8.73245 19.7651C8.70966 19.7617 8.68732 19.7604 8.66374 19.7664C8.56398 19.7865 8.49956 19.8827 8.51982 19.9813C8.53961 20.0786 8.63709 20.1427 8.73764 20.1228C8.78545 20.1133 8.82749 20.0854 8.85448 20.0452C8.88148 20.0051 8.89122 19.956 8.88156 19.9087C8.86995 19.8586 8.84118 19.817 8.8008 19.7919C8.71318 19.3778 8.78532 18.8601 9.00481 18.6422C8.93698 18.9013 8.81197 19.4445 8.89229 19.9452C8.97903 19.8475 9.04395 19.7536 9.09207 19.6593C9.10237 19.7392 9.12084 19.8203 9.15436 19.9061C9.16641 19.5073 9.30083 19.1132 9.71966 18.838C9.41299 19.2224 9.23767 19.6713 9.20116 20.0098C9.42364 19.7299 9.92965 19.6467 9.96616 18.551C9.70963 18.6278 9.40252 18.8121 9.2264 19.0855C9.23283 18.823 9.19201 18.5521 9.22253 18.2455ZM8.07002 19.8059C8.05067 19.7074 7.95276 19.6437 7.85308 19.6627C7.75362 19.6832 7.68942 19.7791 7.70916 19.8777C7.71867 19.9251 7.74701 19.9669 7.78786 19.9935C7.82871 20.0202 7.87866 20.0295 7.92654 20.0195C8.02621 20.0004 8.08982 19.9027 8.07002 19.8059ZM23.9062 17.1239L23.3048 17.659L23.4934 17.6493L22.4346 19.2406L22.408 19.2938C22.2929 19.5239 22.1817 19.7467 22.0828 19.9431C22.0883 19.9372 22.0935 19.9316 22.0983 19.9252L23.581 17.707L23.6454 17.8812L23.9062 17.1239ZM25.2283 17.4237L24.5183 17.8038L24.7026 17.8391L23.0926 19.3132L23.0389 19.3721C22.9138 19.509 22.7907 19.6423 22.6738 19.7694C22.8353 19.6424 23.0032 19.5111 23.1686 19.3812L24.7725 17.9139L24.7962 18.099L25.2283 17.4237ZM8.39393 17.978C8.0022 18.3012 7.89267 18.7068 7.93516 19.0635C7.91989 19.0616 7.90442 19.0618 7.88924 19.0643C7.85018 19.0719 7.81575 19.0944 7.79358 19.1271C7.77141 19.1598 7.76332 19.1999 7.77109 19.2385C7.78781 19.3183 7.8669 19.3709 7.94677 19.354C7.96569 19.3506 7.98196 19.3429 7.99657 19.3344C8.0316 19.4333 8.07953 19.5272 8.13917 19.6139C8.1033 19.4871 8.07872 19.3575 8.06571 19.2265C8.06659 19.2112 8.06782 19.1951 8.06395 19.1807C8.06395 19.1764 8.06184 19.1739 8.06096 19.1705C8.04038 18.8678 8.0885 18.5539 8.25766 18.3275C8.20523 18.6592 8.12624 19.2975 8.20136 19.6951C8.31617 19.272 8.93258 19.0856 8.39393 17.978ZM7.76547 19.6551C7.48325 19.4997 7.28391 19.4457 6.89648 19.4975C7.25989 19.5238 7.51466 19.574 7.77409 19.6627C7.79854 19.6661 7.79256 19.6636 7.76547 19.6551ZM6.57776 18.8677C6.70919 18.9139 7.18213 19.0486 7.48325 19.2592C7.4704 19.2829 7.466 19.3101 7.47076 19.3366C7.48227 19.4057 7.54816 19.4526 7.61811 19.4415C7.65177 19.4357 7.68172 19.4169 7.70133 19.3893C7.72093 19.3616 7.72856 19.3274 7.72253 19.2941C7.71045 19.2256 7.64456 19.1796 7.57518 19.1913C7.54243 19.1966 7.51318 19.2146 7.49399 19.2414C7.08078 18.8796 6.79593 18.8774 6.57776 18.8677ZM25.2031 16.0889L24.5587 16.5718L24.7481 16.579L23.0032 18.7645L22.8645 18.9734C22.7718 19.1126 22.6789 19.2516 22.5857 19.3905L22.5883 19.393L22.746 19.223L22.9032 19.0525L24.8289 16.6414L24.88 16.8211L25.2031 16.0889ZM7.60319 18.7334C7.56405 18.7076 7.51608 18.6983 7.46997 18.7076C7.42371 18.7165 7.38297 18.7433 7.35682 18.7821C7.33068 18.8209 7.32131 18.8684 7.3308 18.914C7.35027 19.0089 7.44335 19.0707 7.53955 19.0525C7.58591 19.0435 7.62668 19.0165 7.65275 18.9775C7.67883 18.9386 7.68802 18.8909 7.67829 18.8452C7.66937 18.7995 7.64233 18.7593 7.60319 18.7334ZM6.18005 17.8769C6.43516 17.9949 6.81837 18.2281 7.08378 18.4647C7.0199 18.4814 6.97935 18.5434 6.99017 18.6079C7.00307 18.6767 7.06936 18.7226 7.1392 18.7111C7.2082 18.6984 7.25411 18.6333 7.2423 18.5649C7.23161 18.5055 7.17966 18.462 7.11861 18.4613C6.92446 18.2014 6.64524 17.9236 6.18005 17.8769ZM8.02885 17.1018C7.42871 17.3613 7.14914 18.1011 7.45713 18.6443C7.73846 18.2489 8.26769 18.1636 8.02885 17.1018ZM6.37209 16.5302C6.6053 16.8275 6.87634 17.2594 7.02844 17.5784C6.95709 17.6075 6.91643 17.6823 6.93132 17.7572C6.93978 17.7988 6.96464 17.8354 7.00042 17.8589C7.03619 17.8824 7.07995 17.8909 7.12204 17.8825C7.2093 17.8642 7.26555 17.78 7.24837 17.6935C7.23983 17.652 7.21487 17.6156 7.17906 17.5924C7.14324 17.5692 7.09953 17.5611 7.05765 17.5699C7.05466 17.5703 7.05079 17.5707 7.04692 17.5728C6.94082 17.1647 6.83948 16.8478 6.37209 16.5302ZM7.41798 15.99C7.2255 16.0685 6.95367 16.3323 6.83121 16.6802C7.0331 16.9107 7.11861 17.194 7.10955 17.4514C7.47683 17.1188 7.60439 16.545 7.41798 15.99Z" fill="#15223B"/>
<path d="M25.5485 10.9152C25.3764 10.9733 25.2012 11.0218 25.0236 11.0605C26.0064 12.6514 26.5717 14.5205 26.5717 16.5213C26.5717 22.3155 21.8205 27.0127 15.9615 27.0127C10.1003 27.0127 5.35038 22.3155 5.35038 16.5213C5.35038 14.4326 5.96679 12.487 7.03036 10.8519C6.85876 10.8027 6.69164 10.7394 6.53078 10.6625C5.45005 12.3592 4.82422 14.3684 4.82422 16.5212C4.82422 22.6016 9.81123 27.5324 15.9616 27.5324C22.1109 27.5324 27.0976 22.6017 27.0976 16.5212C27.0976 14.4738 26.533 12.5571 25.5485 10.9152ZM9.79099 7.98398C11.5303 6.75358 13.6599 6.0287 15.9615 6.0287C18.5306 6.0287 20.888 6.93293 22.7243 8.43636C22.9285 8.37905 23.1336 8.32468 23.3394 8.27327C21.3742 6.55405 18.7909 5.51013 15.9615 5.51013C13.4237 5.51013 11.084 6.34974 9.21153 7.76271C9.30003 7.79454 9.38932 7.82637 9.48002 7.86082C9.58655 7.90152 9.69132 7.94232 9.79099 7.98398Z" fill="#15223B"/>
<path d="M15.9586 31.1606C7.78266 31.1606 1.15385 24.6054 1.15385 16.5216C1.15385 8.437 7.78266 1.88342 15.9586 1.88342C24.1355 1.88342 30.7643 8.437 30.7643 16.5216C30.7643 24.6053 24.1355 31.1606 15.9586 31.1606ZM15.9586 0.915955C7.24226 0.915955 0.175781 7.90356 0.175781 16.5216C0.175781 25.14 7.24226 32.1268 15.9586 32.1268C24.6759 32.1268 31.7424 25.14 31.7424 16.5216C31.7424 7.90356 24.6759 0.915955 15.9586 0.915955Z" fill="#15223B"/>
<path d="M12.1502 13.393C11.9264 13.2791 11.7302 13.1471 11.5188 12.9568C10.8418 12.3461 10.6812 11.7051 10.8822 10.9688C11.0008 10.5287 11.182 10.3088 11.1202 9.85057C11.0845 9.58894 10.8964 9.37749 10.7091 9.19953C10.2564 8.76977 9.71939 8.50431 8.92642 8.23929C8.43589 8.07664 7.01146 7.63922 6.38352 7.0769C6.24004 7.49058 6.54372 8.04011 6.90713 8.11317C6.58586 8.14544 6.31262 8.3107 6.18506 8.49031C6.42733 8.7676 6.91012 9.05602 7.30872 9.06411C7.12486 9.18553 6.89895 9.4442 6.82461 9.58946C7.16955 9.77124 7.72025 9.92372 8.1433 9.89354C7.96507 10.0345 7.81086 10.2138 7.71075 10.3777C7.99595 10.5067 8.55307 10.6932 9.08275 10.7323C8.88727 10.8274 8.60893 11.157 8.4651 11.36C8.76323 11.4912 9.40842 11.5707 9.80869 11.611C9.52216 11.7597 9.22236 12.0565 9.05741 12.3254C9.3478 12.463 9.89375 12.6168 10.3396 12.6019C10.1192 12.8112 9.97451 13.0643 9.89155 13.309C10.2287 13.3778 10.5831 13.3791 10.9951 13.3243C10.7455 13.6374 10.6454 14.0509 10.6106 14.3453C10.9448 14.3368 11.3886 14.2607 11.7017 14.0756C11.6338 14.3282 11.6484 14.6706 11.7592 14.9118C11.8906 14.882 12.0432 14.8281 12.2093 14.7397C12.1863 14.2691 12.1648 13.7888 12.1502 13.393ZM25.7518 7.83536C25.1226 8.39855 24.117 8.54928 23.0616 8.89415C22.2665 9.15283 21.773 9.30486 21.0612 9.86588C20.858 10.026 20.6643 10.2613 20.6862 10.6656C20.7102 11.1145 20.7836 11.3082 20.7966 11.9358C20.8048 12.3838 20.6483 12.7449 20.4576 12.9568C20.257 13.1823 19.9963 13.3776 19.7618 13.4986C19.7485 13.88 19.7308 14.2644 19.7093 14.7103C19.8747 14.7995 20.086 14.8819 20.2179 14.9116C20.327 14.6704 20.3425 14.3281 20.2742 14.0754C20.5877 14.2606 21.0323 14.3366 21.3661 14.3451C21.3305 14.0508 21.2308 13.6371 20.9812 13.3242C21.3919 13.3789 21.7471 13.3776 22.0847 13.3088C22.0005 13.0642 21.8554 12.8111 21.6355 12.6017C22.0826 12.6166 22.6273 12.4628 22.9181 12.3252C22.7531 12.0563 22.4542 11.7595 22.1677 11.6108C22.5676 11.5705 23.2308 11.4936 23.5285 11.362C23.3846 11.1599 23.0869 10.8273 22.8936 10.7322C23.4229 10.6931 23.9787 10.5066 24.2661 10.3776C24.1652 10.2136 24.0105 10.0344 23.8344 9.89345C24.3306 9.86161 24.8065 9.77116 25.151 9.58937C25.0762 9.44412 24.8516 9.18544 24.6677 9.06402C25.7321 8.77055 25.7497 8.24555 25.7518 7.83536Z" fill="#15223B"/>
<path d="M21.2771 8.94629C19.7685 7.9109 17.9357 7.30231 15.9584 7.30231C14.1577 7.30231 12.474 7.80896 11.0479 8.68257C11.4177 8.96708 11.6372 9.2682 11.6917 9.58037C11.7376 9.85348 11.7695 10.1835 11.6101 10.6646C11.4408 11.1751 11.3477 11.6996 11.7295 12.2322C12.1083 12.7627 12.6014 12.9911 13.0091 13.0684C13.5782 12.9708 14.1515 12.8991 14.7273 12.8535C14.8033 12.6058 15.0305 12.3913 15.2599 12.2164C15.5911 11.9608 15.5185 11.7382 15.4403 11.565C15.3781 11.429 15.2599 11.3195 15.089 11.232C14.94 11.156 14.3931 11.0987 14.4086 11.4452C14.3188 11.3195 14.2467 11.1504 14.2995 10.9343C14.3726 10.6323 14.8713 10.5563 14.9954 10.5648C14.8991 10.4845 14.9584 10.3554 15.1767 10.2951C15.4422 10.2224 15.693 10.2114 15.9366 10.2177C16.4362 10.2297 16.5143 10.3511 16.7682 10.5732C17.0736 10.8421 17.4786 10.9355 17.6376 10.7733C17.5229 11.0306 17.1599 11.1674 16.9267 11.1279C17.0405 11.4838 17.0814 11.7929 17.1217 12.1671C17.1407 12.337 17.1767 12.6224 17.2231 12.8556C17.8919 12.9103 18.5654 13.0012 19.1513 13.1125C19.394 13.0428 19.6462 12.9023 19.8708 12.644C20.086 12.3993 20.2833 12.0881 20.2016 11.3062C20.1784 11.0858 20.0676 10.523 20.083 10.2589C20.1177 9.65769 20.5687 9.26611 21.2771 8.94629Z" fill="#15223B"/>
<path d="M15.6987 17.8833L15.5127 17.7911L15.3929 17.4815L15.121 17.3638L14.8143 17.0933L14.6322 17.2916L14.3603 17.3549L14.2155 17.5813L13.9969 17.8111L13.6992 17.9679L13.4934 18.3123L13.3766 18.4648L13.176 18.6198L13.0647 18.5034L12.9457 18.6155L12.7971 18.8877C12.7189 18.6843 12.6717 18.5268 12.6481 18.2014C12.6043 17.5983 12.56 16.8415 12.5171 16.0664C13.5231 15.8519 14.8036 15.7101 15.8431 15.7003V18.0493C15.7953 18.0209 15.7477 17.9984 15.6987 17.8833Z" fill="#15223B"/>
<path d="M15.8434 19.0147H12.8516C12.8947 19.1048 12.9459 19.1909 13.0045 19.2721C13.2196 19.5711 13.5264 19.7919 13.9155 19.91C14.2863 20.022 14.6564 20.1362 15.0259 20.2523L15.3188 20.3428C15.5581 20.4158 15.7256 20.5228 15.8433 20.6401V19.0147" fill="#15223B"/>
<path d="M19.0024 17.8714C19.0845 17.8068 19.1785 17.7317 19.3026 17.6871C19.3202 17.4106 19.3383 17.1154 19.3572 16.8096C19.3241 16.8317 19.2897 16.8597 19.2472 16.8929C19.1046 17.0071 18.9264 17.1507 18.6123 17.1507C18.3185 17.1507 18.1278 17.0343 17.9749 16.9409C17.8508 16.8649 17.7506 16.8054 17.6042 16.8054C17.4427 16.8054 17.3039 16.8869 17.1561 16.9748C16.9967 17.0682 16.8168 17.1748 16.5965 17.1748C16.3705 17.1748 16.2073 17.106 16.0737 17.0343V17.8646C16.1038 17.8815 16.1335 17.8994 16.1622 17.9169C16.2962 17.9984 16.4122 18.0689 16.5965 18.0689C16.7104 18.0689 16.8233 18.0018 16.9565 17.9223C17.134 17.8179 17.3359 17.699 17.6043 17.699C17.8594 17.699 18.0282 17.8005 18.179 17.8914C18.3122 17.9737 18.4285 18.043 18.6124 18.043C18.788 18.043 18.8838 17.9678 19.0024 17.8714ZM16.5965 19.7643C16.3705 19.7643 16.2073 19.6964 16.0737 19.6229V20.6396C16.191 20.5227 16.3581 20.4158 16.5987 20.3427L16.8903 20.2522C17.136 20.1749 17.4714 20.07 18.0011 19.9099C18.1553 19.8627 18.297 19.8003 18.4255 19.7218C18.233 19.687 18.093 19.602 17.9749 19.5302C17.8508 19.4542 17.7506 19.3943 17.6042 19.3943C17.4427 19.3943 17.3039 19.4771 17.1561 19.5641C16.9968 19.6573 16.8168 19.7643 16.5965 19.7643Z" fill="#15223B"/>
<path d="M19.0024 16.5944C19.1003 16.5166 19.2189 16.4232 19.3817 16.3862C19.3881 16.2805 19.3942 16.1735 19.4002 16.0664C18.3941 15.8519 17.115 15.7101 16.0737 15.7003V16.5875C16.1038 16.6053 16.1335 16.6219 16.1622 16.6401C16.2962 16.7208 16.4122 16.7926 16.5965 16.7926C16.7104 16.7926 16.8233 16.7238 16.9565 16.6457C17.134 16.5395 17.3359 16.421 17.6043 16.421C17.8594 16.421 18.0282 16.525 18.179 16.6143C18.3122 16.6962 18.4285 16.7663 18.6124 16.7663C18.788 16.7663 18.8838 16.6907 19.0024 16.5944ZM16.0737 18.3114V19.1765C16.1038 19.193 16.1335 19.2117 16.1622 19.2288C16.2962 19.3104 16.4122 19.3813 16.5965 19.3813C16.7104 19.3813 16.8233 19.3133 16.9565 19.2351C17.134 19.1302 17.3359 19.0109 17.6043 19.0109C17.8594 19.0109 18.0282 19.1133 18.179 19.2033C18.3122 19.2857 18.4285 19.3558 18.6124 19.3558C18.7554 19.3558 18.8448 19.3052 18.938 19.2356C19.13 18.9545 19.2417 18.6062 19.2688 18.2014C19.2692 18.1836 19.2709 18.1669 19.2722 18.1509C19.264 18.1563 19.2558 18.1636 19.2473 18.17C19.1047 18.2842 18.9265 18.4261 18.6124 18.4261C18.3186 18.4261 18.1279 18.3114 17.975 18.2188C17.8508 18.1415 17.7507 18.0816 17.6043 18.0816C17.4427 18.0816 17.304 18.1636 17.1562 18.2524C16.9968 18.3458 16.8169 18.452 16.5965 18.452C16.3705 18.452 16.2073 18.384 16.0737 18.3114Z" fill="#15223B"/>
<path d="M15.9582 13.0243C17.0621 13.0243 18.4689 13.1815 19.5277 13.4201C19.5037 14.106 19.4611 14.9763 19.4125 15.8401C18.4134 15.6316 17.0921 15.4757 15.9581 15.4757C14.8249 15.4756 13.5032 15.6315 12.5037 15.8401C12.456 14.9762 12.4143 14.106 12.3882 13.4201C13.4496 13.1815 14.8542 13.0243 15.9582 13.0243ZM18.5796 14.9265L18.5023 15.0989L18.3163 15.062L18.458 15.189L18.3627 15.3546L18.5276 15.2578L18.6561 15.3992L18.6157 15.2128L18.7897 15.1338L18.5994 15.1147L18.5796 14.9265ZM13.4053 14.9159L13.383 15.1049L13.1939 15.1227L13.3666 15.2026L13.3275 15.3882L13.4542 15.2472L13.6188 15.3444L13.526 15.1792L13.6673 15.0535L13.4818 15.0905L13.4053 14.9159ZM17.7193 14.8153L17.6509 14.9924L17.4624 14.9635L17.6105 15.0837L17.5225 15.2536L17.6832 15.1491L17.8172 15.2841L17.769 15.1002L17.9396 15.0136L17.7485 15.0038L17.7193 14.8153ZM14.2643 14.8081L14.2344 14.9958L14.0444 15.0059L14.2132 15.0939L14.1643 15.2769L14.2996 15.1422L14.4598 15.2472L14.3726 15.0769L14.5212 14.9571L14.3336 14.9868L14.2643 14.8081ZM16.8585 14.7434L16.7987 14.9236L16.6093 14.9028L16.7609 15.0157L16.6836 15.1894L16.8382 15.0781L16.9783 15.2068L16.9212 15.0251L17.0887 14.9329L16.8971 14.929L16.8585 14.7434ZM15.1252 14.7397L15.087 14.9265L14.8967 14.927L15.0616 15.0217L15.0037 15.2038L15.1436 15.0747L15.2996 15.1868L15.221 15.0127L15.3752 14.8989L15.1844 14.9202L15.1252 14.7397ZM15.9911 14.7145L15.9413 14.8985L15.7519 14.8883L15.9121 14.9924L15.8434 15.1715L15.9911 15.0514L16.1398 15.1715L16.071 14.9924L16.2304 14.8883L16.0401 14.8985L15.9911 14.7145ZM18.9877 14.2266L18.907 14.3999L18.7222 14.3574L18.8597 14.4882L18.7605 14.65L18.9289 14.5575L19.0525 14.7027L19.0165 14.5146L19.193 14.4407L19.0032 14.416L18.9877 14.2266ZM12.9796 14.2202L12.9607 14.4093L12.7717 14.4305L12.9474 14.5074L12.9087 14.6946L13.035 14.5515L13.2004 14.6475L13.1042 14.4819L13.2455 14.3549L13.0586 14.3926L12.9796 14.2202ZM18.1308 14.0975L18.0569 14.2733L17.8692 14.2406L18.0156 14.3633L17.9241 14.5329L18.0878 14.4305L18.2184 14.5685L18.1742 14.3833L18.3446 14.301L18.1552 14.2869L18.1308 14.0975ZM13.8331 14.0915L13.8078 14.2805L13.6171 14.2945L13.7884 14.3782L13.7437 14.5634L13.8756 14.4258L14.038 14.526L13.9474 14.3578L14.0913 14.2351L13.9045 14.2674L13.8331 14.0915ZM17.2733 14.0075L17.2098 14.1862L17.0203 14.1612L17.1707 14.2784L17.0887 14.45L17.245 14.3425L17.3825 14.4742L17.3301 14.2907L17.4984 14.202L17.3073 14.1939L17.2733 14.0075ZM14.6888 14.0037L14.6557 14.1918L14.4641 14.1964L14.6329 14.2869L14.578 14.4708L14.7171 14.3378L14.8739 14.447L14.7915 14.2746L14.9422 14.1578L14.7532 14.1833L14.6888 14.0037ZM16.4147 13.9561L16.3597 14.1379L16.1703 14.123L16.3258 14.2322L16.2519 14.4075L16.4031 14.2924L16.5478 14.4181L16.4855 14.2372L16.6488 14.1379L16.4581 14.1421L16.4147 13.9561ZM15.5479 13.9557L15.5036 14.1408L15.3142 14.137L15.4774 14.2363L15.4148 14.416L15.5586 14.2907L15.7107 14.4071L15.6359 14.2322L15.7927 14.123L15.6028 14.137L15.5479 13.9557ZM18.6505 13.5178L18.5719 13.6932L18.3855 13.6541L18.5268 13.7811L18.4318 13.9463L18.5968 13.8508L18.7248 13.9922L18.6845 13.8066L18.8597 13.7276L18.669 13.7072L18.6505 13.5178ZM13.2742 13.5174L13.255 13.7059L13.0647 13.7259L13.239 13.8045L13.2004 13.9905L13.3275 13.8486L13.4934 13.945L13.3971 13.7798L13.5381 13.6528L13.3524 13.6911L13.2742 13.5174ZM17.7574 13.401L17.6866 13.579L17.4989 13.5479L17.6471 13.669L17.5591 13.8388L17.7193 13.7344L17.855 13.8711L17.806 13.6868L17.9766 13.6002L17.7858 13.5887L17.7574 13.401ZM14.1656 13.401L14.1364 13.5887L13.9474 13.601L14.1171 13.6868L14.069 13.8711L14.2034 13.7344L14.3645 13.838L14.2764 13.669L14.4233 13.5475L14.2347 13.5777L14.1656 13.401ZM16.8628 13.3245L16.803 13.5059L16.6135 13.4842L16.7661 13.5977L16.6879 13.7709L16.843 13.6597L16.9835 13.7901L16.9254 13.6083L17.0921 13.5131L16.9018 13.5122L16.8628 13.3245ZM15.063 13.3241L15.0238 13.511L14.834 13.5131L14.9998 13.6074L14.9422 13.7887L15.0827 13.6597L15.2378 13.7709L15.1583 13.5968L15.3121 13.4842L15.123 13.505L15.063 13.3241ZM15.9624 13.2961L15.913 13.48L15.7219 13.4698L15.8825 13.5747L15.815 13.7522L15.9624 13.6329L16.1106 13.7522L16.0431 13.5747L16.2017 13.4698L16.0109 13.48L15.9624 13.2961Z" fill="#15223B"/>
<path d="M15.0795 10.5933C15.1714 10.6626 15.2255 10.6719 15.256 10.6647C15.259 10.6821 15.2908 10.7028 15.2968 10.7101C15.3166 10.727 15.3278 10.7432 15.3325 10.7619C15.3742 10.7445 15.4858 10.6995 15.588 10.6647C15.6902 10.6265 15.8324 10.5861 15.8324 10.5861C15.3913 10.4935 15.3243 10.6265 15.0795 10.5933ZM28.313 12.3932C28.8632 12.155 29.1119 11.5472 28.8795 11.0231C28.6475 10.4986 28.0281 10.2722 27.4783 10.5109C26.928 10.7487 26.6746 11.3539 26.907 11.8789C27.1386 12.4025 27.7632 12.6314 28.313 12.3932ZM27.6571 10.9123C28.0917 10.7233 28.5897 10.8099 28.7155 11.0945C28.8434 11.3825 28.5706 11.803 28.1347 11.9911C27.6978 12.1805 27.1979 12.0951 27.0702 11.8072C26.9453 11.523 27.2176 11.1021 27.6571 10.9123ZM27.5441 13.8109L27.3345 12.9903L27.462 12.9572L27.5213 13.187L29.2773 12.7466L29.2172 12.5172L29.346 12.4854L29.6647 13.7276L29.7503 13.7055L29.7914 13.8691L29.3061 13.9905L29.2653 13.8308L29.4852 13.7756L29.3241 13.1491L28.6046 13.33L28.7296 13.8121L28.9367 13.7599L28.9805 13.9217L28.3808 14.0721L28.3361 13.9098L28.5492 13.8567L28.4255 13.3747L27.621 13.5768L27.6721 13.7777L27.5441 13.8109ZM2.99158 11.6092L2.91601 11.8598L4.04917 12.1936C4.39067 12.2946 4.56934 12.4747 4.61359 12.7627C4.63418 12.9109 4.62265 13.0676 4.57753 13.2222C4.43105 13.7042 4.06852 13.9378 3.65224 13.8163L2.43578 13.457L2.36663 13.6834L2.23951 13.6456L2.49164 12.8123L2.61752 12.8493L2.55093 13.0731L3.67459 13.4048C3.97958 13.4939 4.1338 13.4812 4.2618 13.3534C4.32266 13.287 4.36745 13.2079 4.39279 13.1219C4.50143 12.7648 4.35065 12.4937 3.9817 12.3846L2.86059 12.0533L2.78625 12.3013L2.65614 12.2639L2.86534 11.5725L2.99158 11.6092ZM4.98466 12.0946C4.93809 12.1998 4.81521 12.2491 4.70763 12.2058C4.60064 12.1608 4.55041 12.0389 4.59512 11.9327C4.64025 11.8265 4.76482 11.776 4.87091 11.8202C4.97863 11.8652 5.02942 11.9878 4.98466 12.0946ZM5.37551 11.2065L5.29176 11.3552L4.79825 11.0804L4.88331 10.9322L5.08565 11.0452C5.25314 10.9773 5.3412 10.9059 5.41765 10.773C5.51257 10.6047 5.47994 10.4264 5.33865 10.347C5.21409 10.2782 5.08354 10.3088 4.77511 10.4693C4.4534 10.6401 4.40783 10.6574 4.28546 10.6825C4.16732 10.7055 4.038 10.6804 3.91695 10.6133C3.61494 10.4443 3.53938 10.1138 3.72834 9.78383C3.78886 9.67763 3.85291 9.60248 3.95425 9.52438L3.87305 9.47854L3.95592 9.33285L4.42454 9.59274L4.34123 9.7393L4.15139 9.63397C4.01389 9.70747 3.94475 9.76478 3.88853 9.86542C3.80822 10.006 3.84728 10.1704 3.97527 10.2421C4.08612 10.3037 4.18878 10.2791 4.5053 10.1117C4.6582 10.0323 4.75188 9.9818 4.79094 9.96484C4.87082 9.92578 4.96231 9.90325 5.06286 9.89812C5.17758 9.89342 5.28103 9.92022 5.38801 9.9784C5.70074 10.1521 5.79223 10.4995 5.61224 10.8168C5.52243 10.9735 5.42495 11.0699 5.27936 11.1531L5.37551 11.2065ZM6.20068 9.79784C6.20106 9.85206 6.17947 9.90418 6.14073 9.94256C6.10199 9.98095 6.04932 10.0024 5.99448 10.0022C5.87976 10.0022 5.78959 9.91169 5.78959 9.79784C5.78919 9.74395 5.81064 9.69215 5.84913 9.65401C5.88763 9.61586 5.93998 9.59455 5.99448 9.59482C6.04912 9.5945 6.10162 9.61576 6.14034 9.65388C6.17906 9.69199 6.20078 9.74382 6.20068 9.79784ZM11.0662 5.79847L9.73458 6.47673L9.67529 6.35948L9.88756 6.25206L9.05764 4.66026L8.84545 4.76812L8.78528 4.65174L9.93735 4.06524L9.89698 3.98835L10.0469 3.91146L10.2767 4.35019L10.1285 4.42542L10.025 4.22702L9.44339 4.52266L9.7827 5.17544L10.2307 4.94738L10.1315 4.75959L10.2823 4.68018L10.5657 5.22554L10.4163 5.30408L10.3158 5.11081L9.86777 5.33852L10.2239 6.02139L10.8308 5.71218L10.7247 5.50796L10.8737 5.43194L11.0662 5.79847ZM12.3475 5.34061L11.4824 5.62512L11.4399 5.50065L11.6671 5.42637L11.0963 3.72629L10.8699 3.80057L10.8282 3.6761L11.7333 3.38055C12.1027 3.25825 12.4193 3.4009 12.5327 3.74073C12.6418 4.0622 12.4433 4.42194 12.0937 4.5358C12.043 4.55319 12.0091 4.56085 11.9267 4.57233L11.8785 4.42664C11.9198 4.42281 11.9356 4.41733 11.9618 4.41011C12.1651 4.3434 12.2303 4.1604 12.1414 3.89833C12.0495 3.62061 11.8897 3.51145 11.6744 3.58277L11.4953 3.64183L12.0524 5.30069L12.305 5.21745L12.3475 5.34061ZM14.9033 4.65044L14.7723 4.67209L13.6602 2.84676L13.472 2.87946L13.0158 4.97452L12.823 5.00722L12.8462 5.13552L13.4875 5.02549L13.4647 4.89685L13.2169 4.93973L13.3316 4.40924L14.0847 4.28017L14.3643 4.74307L14.1462 4.7796L14.169 4.90868L14.9254 4.77916L14.9033 4.65044ZM13.3733 4.20919L13.5516 3.38907L13.9803 4.10508L13.3733 4.20919ZM17.0755 4.65174H16.945C16.8827 4.65174 16.8449 4.62373 16.7714 4.51457L16.3281 3.83501C16.6236 3.74499 16.7684 3.56659 16.7693 3.28591C16.7693 3.12074 16.7203 2.98732 16.6168 2.88329C16.5043 2.77204 16.3522 2.73082 16.0829 2.72951L15.1547 2.72864V2.85859L15.3931 2.85989L15.3901 4.65044L15.1496 4.65L15.1482 4.77951L16.0305 4.7816V4.65165H15.7939L15.796 3.86719L15.8815 3.86928L16.3514 4.60016C16.4584 4.76455 16.4893 4.78317 16.6749 4.7836L17.0739 4.7849L17.0755 4.65174ZM15.7994 2.90451H15.9957C16.2199 2.90495 16.35 3.04768 16.3492 3.29774C16.3492 3.54198 16.1989 3.7135 15.982 3.7135L15.7969 3.71141L15.7994 2.90451ZM18.4982 5.0314L17.4987 4.86449L17.5215 4.73672L17.8213 4.78551L18.1146 3.07229L17.579 2.98314L17.5347 3.23747L17.3638 3.20859L17.4531 2.6875L17.6246 2.71551L17.61 2.80179L19.0781 3.04724L19.0945 2.96183L19.2641 2.98949L19.1752 3.51058L19.0034 3.48301L19.0485 3.22903L18.5146 3.13901L18.2216 4.85266L18.5193 4.90233L18.4982 5.0314ZM21.4372 6.01296L20.5648 5.67826L20.6125 5.55675L20.8594 5.65321L21.3508 4.3995L20.1558 5.5551L19.9896 3.90729L19.5077 5.13421L19.755 5.22763L19.707 5.35035L19.0288 5.0909L19.0769 4.9686L19.3225 5.06245L19.9785 3.3929L19.7323 3.29861L19.7796 3.17589L20.2984 3.37594L20.4647 4.98983L21.6077 3.87711L22.1859 4.09882L22.1391 4.22198L21.8925 4.12769L21.2383 5.79716L21.4857 5.89101L21.4372 6.01296ZM22.9681 7.00373L21.7065 6.20657L21.7783 6.09654L21.9784 6.22397L22.9544 4.71332L22.7534 4.58807L22.823 4.47674L23.9156 5.16648L23.9621 5.09298L24.1056 5.18309L23.8375 5.60094L23.6966 5.51179L23.8186 5.32365L23.2675 4.97452L22.868 5.59329L23.292 5.8617L23.4066 5.68331L23.5519 5.77037L23.2177 6.28729L23.0738 6.19935L23.191 6.01504L22.768 5.74837L22.35 6.39514L22.9239 6.75828L23.0497 6.56501L23.194 6.65503L22.9681 7.00373ZM8.61391 7.08993L8.40859 7.2377L7.38715 5.86301L7.60154 5.70584C7.89879 5.49091 8.38589 5.62216 8.65948 5.99078C8.95287 6.38453 8.93351 6.85804 8.61391 7.08993ZM9.01726 5.73089C8.67277 5.26755 8.03277 5.17753 7.55333 5.52579L6.76256 6.09959L6.84032 6.20535L7.03316 6.0648L8.10359 7.50577C8.15426 7.52569 8.20537 7.54361 8.25525 7.56222L8.77886 7.18126C9.02711 7.00121 9.15775 6.80281 9.20499 6.5357C9.25478 6.2465 9.18819 5.96155 9.01726 5.73089ZM25.6459 6.57736L25.5574 6.6746L25.7412 6.83856L24.8525 7.80307L25.0767 6.0648L24.6149 5.6473L24.5256 5.74411L24.6935 5.89484L24.6587 6.07871L23.5462 7.28485L23.3541 7.11072L23.264 7.20709L23.7893 7.68104L23.8787 7.58423L23.6957 7.41862L24.6214 6.41462L24.4224 8.00981C24.6149 7.95971 24.821 7.90657 25.0414 7.84543C25.0612 7.83995 25.077 7.83438 25.0955 7.83055L25.8863 6.97138L26.083 7.14681L26.1719 7.05122L25.6459 6.57736ZM27.7632 8.83846L27.6936 8.89074L26.7885 7.71983L26.8586 7.66634L26.7538 7.53004L26.3285 7.85195L26.4333 7.98824L26.6412 7.83107L26.9711 8.25875L25.5742 9.31502L25.5025 9.22073C25.4617 9.24283 25.4217 9.26274 25.38 9.27936L25.8985 9.94909L26.0042 9.86968L25.8212 9.63353L27.2176 8.57648L27.5462 9.00285L27.3388 9.15959L27.4432 9.29466L27.868 8.97397L27.7632 8.83846ZM18.5687 30.1898L18.3998 30.2264L18.2783 29.6802L18.4475 29.6432L18.4965 29.8679C18.6594 29.946 18.7723 29.9639 18.9243 29.9312C19.1142 29.89 19.2271 29.7482 19.1919 29.5902C19.1619 29.4539 19.051 29.3748 18.725 29.2538C18.3822 29.132 18.3384 29.1095 18.2383 29.0351C18.1416 28.9638 18.0747 28.8521 18.0451 28.7179C17.9712 28.3836 18.1714 28.1076 18.5468 28.0261C18.6658 28.0001 18.7658 27.9988 18.8934 28.0209L18.8728 27.9296L19.0386 27.8944L19.1538 28.4142L18.9879 28.4503L18.9411 28.2418C18.7933 28.1862 18.7048 28.1739 18.5911 28.1981C18.4317 28.2333 18.3325 28.3731 18.3639 28.515C18.3918 28.636 18.479 28.6967 18.8149 28.8199C18.9773 28.8785 19.0778 28.9138 19.1169 28.9307C19.2037 28.9672 19.2821 29.0207 19.3476 29.0879C19.4279 29.1703 19.4773 29.2637 19.5039 29.3831C19.5799 29.7292 19.3789 30.0269 19.0185 30.1051C18.841 30.1429 18.7036 30.1344 18.5451 30.083L18.5687 30.1898ZM21.7658 29.1952L20.3723 29.7367L20.3242 29.6148L20.5463 29.5277L19.8844 27.8608L19.6614 27.9483L19.6142 27.8268L20.8208 27.3575L20.7877 27.2759L20.9458 27.2148L21.1288 27.6752L20.9733 27.7355L20.8916 27.5274L20.28 27.764L20.5528 28.4473L21.021 28.2647L20.9436 28.0685L21.1021 28.004L21.3268 28.5738L21.1704 28.6397L21.0884 28.4362L20.621 28.6172L20.905 29.3324L21.5395 29.0856L21.4548 28.8724L21.6137 28.8113L21.7658 29.1952ZM23.862 27.9334C23.6845 28.153 23.56 28.2681 23.3555 28.39C22.789 28.7297 22.1528 28.5951 21.8285 28.0663C21.5068 27.5423 21.6718 26.9099 22.2121 26.585C22.3856 26.4801 22.5205 26.4312 22.7185 26.4036L22.6498 26.2928L22.7981 26.2037L23.0893 26.6802L22.942 26.769L22.8372 26.5983C22.6182 26.5852 22.5137 26.6073 22.3725 26.6917C21.9988 26.9164 21.9266 27.381 22.1981 27.8227C22.4623 28.2529 22.9546 28.4164 23.3261 28.1939C23.46 28.1123 23.5396 28.0257 23.6186 27.8724L23.494 27.6712L23.6448 27.5812L23.862 27.9334ZM24.8087 24.7243L24.6128 24.9001L25.4097 25.764C25.6497 26.0239 25.709 26.2681 25.5965 26.5374C25.5349 26.6804 25.4426 26.8083 25.3259 26.9125C24.9497 27.2535 24.5171 27.2675 24.2242 26.9524L23.3677 26.024L23.1911 26.1824L23.1031 26.0863L23.7525 25.4998L23.8419 25.5962L23.6676 25.7525L24.4588 26.6104C24.6723 26.8418 24.8119 26.9098 24.9871 26.8657C25.0743 26.8405 25.1543 26.7955 25.2208 26.7344C25.5 26.4838 25.5116 26.173 25.2521 25.8926L24.4639 25.0386L24.2714 25.2127L24.1808 25.1133L24.7181 24.6274L24.8087 24.7243ZM28.3404 22.9105L27.9217 23.6758L27.8048 23.6134L27.919 23.4049L26.3259 22.5525L26.2107 22.7605L26.0973 22.6977L26.5153 21.9324L26.6313 21.9953L26.5178 22.1991L28.1123 23.0523L28.224 22.848L28.3404 22.9105ZM29.1446 21.0491L28.7871 21.9863L28.6643 21.9396L28.7713 21.6576L27.1262 21.0452L26.9332 21.5481L27.1789 21.6389L27.1171 21.7999L26.6171 21.613L26.6768 21.4533L26.761 21.4835L27.2859 20.1049L27.2034 20.0744L27.2645 19.9134L27.7648 20.1002L27.7039 20.2608L27.4595 20.169L27.2688 20.6693L28.9144 21.2822L29.0204 21.0031L29.1446 21.0491ZM29.7013 18.7612L29.5324 19.6156L29.4019 19.5906L29.4478 19.3621L28.5969 19.1969L27.5501 19.6224L27.5123 19.8153L27.3826 19.7885L27.5518 18.9344L27.6811 18.9603L27.636 19.1863L28.3972 18.8848L27.8027 18.3466L27.7507 18.6057L27.6218 18.5811L27.7623 17.8693L27.8907 17.8948L27.8482 18.1147L28.5934 18.7871L29.5256 18.968L29.5715 18.7366L29.7013 18.7612ZM25.4036 24.0075L25.5213 23.8499C25.654 23.6715 25.8482 23.6558 26.0497 23.804C26.2486 23.9509 26.3005 24.1692 26.1704 24.3417L26.0604 24.4886L25.4036 24.0075ZM27.5845 24.0304L27.5067 24.1337C27.4689 24.1833 27.4239 24.1978 27.2915 24.1893L26.4746 24.1392C26.5785 23.8517 26.5175 23.6283 26.2911 23.4614C26.1567 23.3637 26.018 23.3234 25.8727 23.3446C25.7138 23.368 25.5923 23.4635 25.4303 23.6793L24.878 24.4157L24.9827 24.4931L25.1267 24.3036L26.5807 25.3709L26.4385 25.5604L26.5441 25.6385L27.0695 24.939L26.963 24.8617L26.8225 25.0498L26.1867 24.5809L26.2365 24.5142L27.111 24.5758C27.3082 24.5889 27.3426 24.5745 27.4538 24.4276L27.6913 24.1099L27.5845 24.0304ZM2.66081 20.6846L2.45029 19.8382L2.57917 19.8076L2.63635 20.0344L3.43874 19.8403L3.19558 18.8593L2.39276 19.0525L2.44906 19.2793L2.3215 19.3095L2.1123 18.4647L2.23942 18.4337L2.2974 18.6635L4.05726 18.2383L4.00096 18.0082L4.12817 17.978L4.33648 18.8232L4.20805 18.8537L4.15218 18.6278L3.37689 18.8147L3.6204 19.7966L4.39622 19.6089L4.33859 19.3821L4.46879 19.3519L4.67711 20.1971L4.54911 20.2285L4.49202 19.9996L2.73215 20.4239L2.79012 20.6544L2.66081 20.6846ZM4.5375 22.6294C5.08521 22.3835 5.32484 21.7736 5.08521 21.2525C4.84425 20.7314 4.22186 20.5127 3.67547 20.7594C3.12996 21.0062 2.88381 21.6143 3.12389 22.1354C3.36308 22.6565 3.99111 22.876 4.5375 22.6294ZM3.85968 21.1578C4.29223 20.9629 4.79094 21.0418 4.92105 21.3256C5.05292 21.6109 4.78575 22.0357 4.35408 22.231C3.91809 22.4264 3.41806 22.3474 3.28707 22.062C3.15652 21.7779 3.42369 21.3543 3.85968 21.1578ZM5.33645 25.584L4.78839 24.8361L4.89449 24.7597L5.04993 24.9711L6.14957 24.182L4.51172 24.5112L5.27505 23.0388L4.19775 23.8105L4.35408 24.0223L4.24667 24.0992L3.8193 23.5182L3.92627 23.4413L4.08216 23.6524L5.54741 22.5992L5.39232 22.3885L5.49973 22.3125L5.82575 22.7567L5.08134 24.2037L6.65092 23.8793L7.01767 24.3778L6.90991 24.4543L6.75482 24.2432L5.28833 25.2956L5.44431 25.5071L5.33645 25.584ZM6.97307 27.1744L5.87123 26.1713L5.96149 26.0762L6.13761 26.2346L7.36525 24.9185L7.18957 24.7575L7.27842 24.6624L8.23291 25.5305L8.29044 25.4659L8.41765 25.5801L8.07826 25.9433L7.95501 25.832L8.1079 25.6685L7.62723 25.2289L7.12421 25.7683L7.49404 26.105L7.63972 25.9496L7.76596 26.0617L7.3459 26.5124L7.22001 26.4011L7.3678 26.2401L6.99841 25.9038L6.47137 26.4677L6.97351 26.9256L7.13116 26.7566L7.25572 26.8699L6.97307 27.1744ZM8.84545 28.4439L7.61306 27.6242L7.68784 27.5164L7.88621 27.6489L8.89701 26.1616L8.69898 26.0303L8.77288 25.9216L9.50348 26.407L9.42923 26.5162L9.23464 26.3858L8.2527 27.8285L8.80851 28.1993L8.93818 28.0077L9.07911 28.102L8.84545 28.4439ZM11.1126 29.3965L10.9923 29.3426L11.1151 27.2148L10.9408 27.1363L9.3695 28.6126L9.19206 28.5327L9.13752 28.6512L9.72948 28.9178L9.78534 28.7994L9.55512 28.6961L9.95328 28.3211L10.6483 28.6337L10.6143 29.1726L10.415 29.083L10.3591 29.201L11.0575 29.5153L11.1126 29.3965ZM10.1002 28.1793L10.7157 27.6021L10.6616 28.432L10.1002 28.1793ZM13.2887 30.1313L13.0748 30.0803L12.3691 28.3454L12.0495 29.6671L12.2909 29.7248L12.2603 29.8514L11.5692 29.6887L11.5997 29.5604L11.8531 29.6207L12.2384 28.0332L12.177 27.8561L11.9566 27.8043L11.9872 27.6765L12.5971 27.8209L13.2496 29.4496L13.5571 28.1827L13.3153 28.1249L13.3458 27.998L14.0382 28.1615L14.006 28.2889L13.7483 28.2278L13.2887 30.1313ZM15.2526 30.2841C15.5606 30.2952 15.7865 30.22 15.9914 30.0403C16.2126 29.842 16.3393 29.5799 16.35 29.2937C16.3706 28.7187 15.9248 28.2553 15.3303 28.234L14.3496 28.1979L14.3458 28.3296L14.5846 28.3373L14.5189 30.1269L14.2801 30.1188L14.2757 30.2497L15.2526 30.2841ZM15.0124 28.466L15.2783 28.4766C15.6468 28.4902 15.9467 28.8928 15.9312 29.3489C15.9123 29.8369 15.5995 30.1957 15.2053 30.1822L14.9497 30.1729L15.0124 28.466Z" fill="#15223B"/>
</g>
<defs>
<clipPath id="clip0">
<rect x="0.175781" y="0.873474" width="88.8245" height="31.2531" fill="white"/>
</clipPath>
</defs>
</svg>
