<?xml version="1.0" encoding="UTF-8" standalone="no"?>
<!DOCTYPE svg PUBLIC "-//W3C//DTD SVG 1.1//EN" "http://www.w3.org/Graphics/SVG/1.1/DTD/svg11.dtd">
<svg width="100%" height="100%" viewBox="0 0 400 143" version="1.1" xmlns="http://www.w3.org/2000/svg" xmlns:xlink="http://www.w3.org/1999/xlink" xml:space="preserve" xmlns:serif="http://www.serif.com/" style="fill-rule:evenodd;clip-rule:evenodd;stroke-linejoin:round;stroke-miterlimit:2;">
    <g>
        <g>
            <path d="M268.854,48.726L262.215,48.726L262.215,43.203L277.085,43.203C284.441,57.769 291.865,72.465 299.459,87.503C307.225,72.336 314.84,57.465 322.455,42.594L337.826,42.594L337.826,47.753L330.284,47.753L330.284,98.372L337.818,98.372L337.818,104.225L313.042,104.225L313.042,98.453L320.838,98.453L320.838,57.447C320.735,57.394 320.632,57.341 320.526,57.288C312.645,72.213 304.763,87.139 296.746,102.32C289.237,87.867 281.851,73.655 274.465,59.442C274.359,59.48 274.256,59.518 274.15,59.556L274.15,98.863L282.276,98.863L282.276,104.241L262.175,104.241L262.175,99.074L268.854,99.074L268.854,48.726Z" style="fill:#fff;fill-rule:nonzero;"/>
            <path d="M256.345,56.448L250.357,56.448L250.357,48.8L229.665,48.8L229.665,70.53L245.531,70.53L245.531,63.273L251.554,63.273L251.554,82.302L245.587,82.302L245.587,75.05L229.68,75.05L229.68,98.318L250.29,98.318L250.29,91.004L256.355,91.004L256.355,104.7L214.496,104.7L214.496,98.445L221.573,98.445L221.573,48.765L214.33,48.765L214.33,43.028L256.345,43.028L256.345,56.448Z" style="fill:#fff;fill-rule:nonzero;"/>
            <path d="M370.295,53.041C370.172,53.047 370.051,53.052 369.928,53.058C366.9,60.565 363.869,68.073 360.801,75.683L379.031,75.683C376.076,68.023 373.187,60.532 370.295,53.041ZM367.619,42.14L373.909,42.14C381.151,60.98 388.392,79.819 395.682,98.784L400,98.784L400,104.2L381.176,104.2L381.176,98.8L387.021,98.8C384.888,93.053 382.871,87.625 380.824,82.108L358.553,82.108C356.378,87.624 354.192,93.164 351.916,98.935L357.464,98.935L357.464,104.175L340.68,104.175L340.68,98.85L345.355,98.85C352.819,79.838 360.223,60.98 367.619,42.14Z" style="fill:#fff;fill-rule:nonzero;"/>
            <path d="M197.271,70.737L197.271,63.51L203.315,63.51L203.315,82.997L197.291,82.997L197.291,75.497L182.099,75.497L182.099,97.943L191.725,97.943L191.725,103.899L166.147,103.899L166.147,98.022L173.372,98.022L173.372,48.232L166.322,48.232L166.322,43.046L208.569,43.046L208.569,56.438L202.094,56.438L202.094,48.086L182.125,48.086L182.125,70.737L197.271,70.737Z" style="fill:#fff;fill-rule:nonzero;"/>
            <path d="M114.614,45.688C113.813,45.962 113.016,46.181 112.243,46.351C116.68,53.62 119.236,62.161 119.236,71.3C119.236,97.773 97.772,119.233 71.307,119.233C44.832,119.233 23.375,97.773 23.375,71.3C23.375,61.759 26.16,52.87 30.964,45.4C30.203,45.183 29.455,44.892 28.706,44.533C23.825,52.285 20.997,61.465 20.997,71.3C20.997,99.08 43.524,121.608 71.307,121.608C99.085,121.608 121.611,99.08 121.611,71.3C121.611,61.947 119.059,53.19 114.614,45.688Z" style="fill:#fff;fill-rule:nonzero;"/>
            <path d="M43.434,32.297C51.29,26.676 60.91,23.365 71.307,23.365C82.913,23.365 93.561,27.496 101.854,34.363C102.789,34.097 103.702,33.855 104.634,33.618C95.757,25.766 84.088,20.995 71.307,20.995C59.844,20.995 49.275,24.83 40.817,31.286C41.215,31.431 41.62,31.575 42.03,31.735C42.511,31.921 42.983,32.107 43.434,32.297Z" style="fill:#fff;fill-rule:nonzero;"/>
            <path d="M71.293,0.004C31.92,0.004 0,31.929 0,71.3C0,110.676 31.92,142.596 71.293,142.596C110.67,142.596 142.591,110.676 142.591,71.3C142.591,31.929 110.67,0.004 71.293,0.004ZM71.293,138.183C34.361,138.183 4.417,108.232 4.417,71.3C4.417,34.365 34.361,4.424 71.293,4.424C108.229,4.424 138.171,34.365 138.171,71.3C138.171,108.232 108.229,138.183 71.293,138.183Z" style="fill:#fff;fill-rule:nonzero;"/>
            <path d="M54.091,57.009C53.079,56.488 52.193,55.885 51.237,55.016C48.18,52.225 47.454,49.299 48.362,45.934C48.897,43.922 49.716,42.917 49.437,40.825C49.276,39.629 48.425,38.661 47.581,37.849C45.535,35.887 43.109,34.675 39.527,33.463C37.312,32.72 30.879,30.722 28.041,28.154C27.394,30.044 28.764,32.553 30.407,32.888C28.956,33.035 27.72,33.788 27.146,34.611C28.238,35.877 30.42,37.194 32.221,37.231C31.389,37.787 30.369,38.969 30.033,39.631C31.592,40.462 34.079,41.16 35.99,41.021C35.185,41.663 34.489,42.483 34.036,43.233C35.324,43.821 37.841,44.673 40.233,44.853C39.351,45.289 38.094,46.792 37.444,47.721C38.79,48.321 41.705,48.682 43.513,48.868C42.22,49.546 40.863,50.903 40.119,52.13C41.431,52.759 43.898,53.461 45.911,53.394C44.916,54.351 44.262,55.508 43.888,56.625C45.411,56.939 47.012,56.945 48.873,56.694C47.744,58.126 47.292,60.013 47.136,61.359C48.646,61.321 50.649,60.973 52.064,60.127C51.758,61.282 51.824,62.844 52.324,63.948C52.919,63.812 53.607,63.564 54.358,63.162C54.253,61.011 54.156,58.817 54.091,57.009Z" style="fill:#fff;fill-rule:nonzero;"/>
            <path d="M115.53,31.617C112.689,34.19 108.146,34.879 103.378,36.457C99.788,37.638 97.557,38.332 94.343,40.895C93.425,41.625 92.55,42.7 92.648,44.549C92.757,46.599 93.088,47.483 93.147,50.351C93.185,52.398 92.477,54.048 91.616,55.016C90.711,56.045 89.531,56.939 88.474,57.491C88.413,59.234 88.331,60.99 88.235,63.027C88.982,63.435 89.937,63.812 90.532,63.948C91.026,62.844 91.096,61.282 90.787,60.127C92.203,60.973 94.211,61.321 95.72,61.359C95.557,60.013 95.108,58.126 93.982,56.694C95.836,56.945 97.441,56.939 98.965,56.625C98.586,55.506 97.928,54.351 96.937,53.394C98.956,53.461 101.416,52.759 102.731,52.13C101.985,50.903 100.635,49.546 99.34,48.866C101.146,48.682 104.143,48.332 105.486,47.728C104.837,46.808 103.493,45.286 102.62,44.85C105.011,44.673 107.521,43.821 108.819,43.233C108.363,42.483 107.664,41.663 106.87,41.021C109.111,40.874 111.26,40.462 112.816,39.631C112.478,38.969 111.465,37.787 110.634,37.231C115.441,35.892 115.52,33.491 115.53,31.617Z" style="fill:#fff;fill-rule:nonzero;"/>
            <path d="M95.317,36.694C88.505,31.962 80.224,29.182 71.293,29.182C63.159,29.182 55.553,31.498 49.112,35.49C50.781,36.789 51.774,38.164 52.019,39.59C52.228,40.838 52.371,42.344 51.651,44.543C50.885,46.877 50.466,49.273 52.189,51.705C53.902,54.129 56.129,55.173 57.97,55.526C60.388,55.103 63.062,54.758 65.731,54.544C66.075,53.414 67.103,52.432 68.137,51.635C69.634,50.467 69.305,49.448 68.953,48.657C68.671,48.038 68.137,47.535 67.366,47.135C66.693,46.79 64.222,46.527 64.292,48.11C63.886,47.535 63.561,46.764 63.8,45.776C64.129,44.397 66.383,44.049 66.944,44.087C66.508,43.721 66.775,43.133 67.761,42.854C68.961,42.522 70.094,42.473 71.195,42.501C73.451,42.558 73.803,43.11 74.951,44.126C76.332,45.353 78.159,45.781 78.878,45.041C78.36,46.217 76.72,46.841 75.667,46.661C76.181,48.285 76.366,49.698 76.548,51.408C76.633,52.184 76.796,53.489 77.006,54.554C80.027,54.804 83.07,55.219 85.716,55.727C86.812,55.41 87.951,54.768 88.966,53.587C89.937,52.47 90.829,51.047 90.459,47.475C90.355,46.467 89.854,43.899 89.924,42.692C90.08,39.943 92.118,38.154 95.317,36.694Z" style="fill:#fff;fill-rule:nonzero;"/>
            <path d="M67.321,44.219C67.737,44.533 67.981,44.577 68.118,44.543C68.133,44.624 68.276,44.719 68.303,44.75C68.392,44.827 68.442,44.905 68.464,44.99C68.651,44.91 69.157,44.703 69.618,44.543C70.081,44.371 70.723,44.185 70.723,44.185C68.731,43.762 68.427,44.371 67.321,44.219Z" style="fill:#fff;fill-rule:nonzero;"/>
            <path d="M124.137,45.676C126.099,44.812 128.349,45.206 128.918,46.506C129.495,47.824 128.264,49.745 126.293,50.604C124.32,51.47 122.061,51.078 121.485,49.763C120.92,48.466 122.15,46.542 124.137,45.676ZM127.1,52.44C129.584,51.354 130.708,48.577 129.658,46.181C128.61,43.785 125.812,42.751 123.328,43.842C120.842,44.928 119.698,47.692 120.748,50.09C121.794,52.484 124.617,53.53 127.1,52.44Z" style="fill:#fff;fill-rule:nonzero;"/>
            <path d="M123.626,58.917L122.679,55.17L123.255,55.018L123.523,56.068L131.455,54.056L131.184,53.007L131.766,52.863L133.205,58.538L133.591,58.435L133.777,59.186L131.584,59.74L131.401,59.007L132.395,58.757L131.665,55.895L128.416,56.72L128.981,58.922L129.917,58.685L130.114,59.425L127.405,60.111L127.204,59.371L128.167,59.129L127.608,56.926L123.974,57.847L124.204,58.768L123.626,58.917Z" style="fill:#fff;fill-rule:nonzero;"/>
            <path d="M12.718,48.858L12.378,50.003L17.495,51.529C19.039,51.991 19.844,52.813 20.045,54.129C20.138,54.807 20.087,55.524 19.883,56.23C19.22,58.43 17.584,59.497 15.702,58.943L10.208,57.3L9.895,58.334L9.322,58.164L10.46,54.356L11.029,54.526L10.727,55.547L15.805,57.063C17.182,57.47 17.878,57.414 18.456,56.828C18.714,56.547 18.93,56.179 19.048,55.771C19.539,54.139 18.858,52.901 17.191,52.401L12.126,50.887L11.791,52.022L11.203,51.852L12.147,48.693L12.718,48.858Z" style="fill:#fff;fill-rule:nonzero;"/>
            <path d="M21.72,51.078C21.512,51.558 20.958,51.782 20.47,51.586C19.987,51.38 19.758,50.82 19.96,50.338C20.165,49.853 20.729,49.621 21.209,49.825C21.693,50.026 21.922,50.583 21.72,51.078Z" style="fill:#fff;fill-rule:nonzero;"/>
            <path d="M23.487,47.019L23.109,47.697L20.88,46.444L21.264,45.766L22.177,46.282C22.934,45.972 23.332,45.647 23.678,45.039C24.106,44.27 23.959,43.455 23.321,43.094C22.757,42.777 22.168,42.919 20.775,43.651C19.322,44.433 19.116,44.51 18.563,44.626C18.029,44.729 17.445,44.616 16.897,44.309C15.534,43.535 15.194,42.027 16.046,40.518C16.321,40.033 16.609,39.691 17.067,39.335L16.7,39.126L17.075,38.461L19.191,39.647L18.815,40.317L17.957,39.835C17.337,40.17 17.023,40.433 16.769,40.892C16.408,41.534 16.584,42.285 17.162,42.615C17.663,42.893 18.127,42.782 19.557,42.019C20.247,41.655 20.671,41.423 20.846,41.346C21.209,41.168 21.62,41.065 22.075,41.042C22.593,41.021 23.061,41.142 23.542,41.408C24.957,42.202 25.37,43.791 24.556,45.237C24.149,45.957 23.711,46.395 23.054,46.777L23.487,47.019Z" style="fill:#fff;fill-rule:nonzero;"/>
            <path d="M27.216,40.583C27.216,41.104 26.802,41.516 26.283,41.516C25.765,41.516 25.356,41.104 25.356,40.583C25.356,40.07 25.765,39.657 26.283,39.657C26.802,39.657 27.216,40.07 27.216,40.583Z" style="fill:#fff;fill-rule:nonzero;"/>
            <path d="M49.194,22.313L43.179,25.41L42.909,24.876L43.869,24.384L40.119,17.112L39.161,17.604L38.889,17.073L44.093,14.394L43.911,14.043L44.588,13.69L45.625,15.696L44.958,16.039L44.49,15.134L41.864,16.482L43.395,19.466L45.418,18.424L44.971,17.565L45.652,17.202L46.932,19.693L46.258,20.054L45.803,19.17L43.78,20.211L45.388,23.329L48.13,21.918L47.65,20.985L48.324,20.637L49.194,22.313Z" style="fill:#fff;fill-rule:nonzero;"/>
            <path d="M54.98,20.219L51.073,21.519L50.88,20.951L51.907,20.613L49.329,12.846L48.305,13.184L48.118,12.614L52.207,11.266C53.875,10.706 55.305,11.358 55.817,12.911C56.311,14.378 55.413,16.023 53.835,16.544C53.605,16.622 53.453,16.658 53.079,16.709L52.862,16.044C53.048,16.026 53.12,16.003 53.237,15.969C54.156,15.662 54.452,14.827 54.049,13.63C53.634,12.362 52.912,11.864 51.94,12.189L51.132,12.459L53.647,20.038L54.788,19.657L54.98,20.219Z" style="fill:#fff;fill-rule:nonzero;"/>
            <path d="M59.614,15.051L60.42,11.304L62.357,14.574L59.614,15.051ZM66.526,17.068L65.935,17.166L60.91,8.826L60.06,8.976L57.999,18.548L57.128,18.697L57.233,19.283L60.13,18.78L60.028,18.192L58.907,18.388L59.426,15.964L62.829,15.376L64.091,17.491L63.104,17.658L63.209,18.246L66.624,17.656L66.526,17.068Z" style="fill:#fff;fill-rule:nonzero;"/>
            <path d="M70.574,9.089L71.459,9.089C72.473,9.092 73.061,9.744 73.057,10.886C73.057,12.003 72.379,12.784 71.397,12.784L70.562,12.777L70.574,9.089ZM76.337,17.073L75.748,17.073C75.467,17.073 75.296,16.947 74.964,16.446L72.96,13.341C74.297,12.931 74.951,12.114 74.955,10.832C74.955,10.077 74.734,9.468 74.266,8.994C73.757,8.483 73.071,8.298 71.854,8.29L67.661,8.287L67.661,8.88L68.739,8.885L68.725,17.068L67.638,17.065L67.633,17.658L71.617,17.666L71.617,17.073L70.549,17.073L70.558,13.489L70.944,13.496L73.067,16.838C73.551,17.588 73.69,17.674 74.527,17.674L76.332,17.682L76.337,17.073Z" style="fill:#fff;fill-rule:nonzero;"/>
            <path d="M82.764,18.808L78.25,18.045L78.352,17.462L79.706,17.684L81.031,9.858L78.611,9.45L78.413,10.611L77.64,10.479L78.043,8.099L78.819,8.228L78.753,8.623L85.384,9.742L85.458,9.352L86.224,9.479L85.821,11.859L85.046,11.732L85.249,10.572L82.838,10.162L81.515,17.991L82.858,18.218L82.764,18.808Z" style="fill:#fff;fill-rule:nonzero;"/>
            <path d="M96.041,23.29L92.099,21.763L92.314,21.209L93.43,21.65L95.65,15.92L90.253,21.201L89.5,13.672L87.325,19.278L88.443,19.703L88.226,20.265L85.16,19.079L85.379,18.52L86.487,18.95L89.452,11.322L88.34,10.889L88.552,10.33L90.896,11.245L91.647,18.618L96.811,13.535L99.421,14.549L99.211,15.111L98.097,14.68L95.142,22.308L96.26,22.733L96.041,23.29Z" style="fill:#fff;fill-rule:nonzero;"/>
            <path d="M102.955,27.818L97.258,24.177L97.58,23.674L98.485,24.257L102.894,17.354L101.986,16.781L102.299,16.273L107.235,19.425L107.446,19.089L108.093,19.499L106.883,21.41L106.247,21L106.798,20.142L104.306,18.548L102.503,21.374L104.419,22.602L104.936,21.787L105.594,22.184L104.082,24.543L103.432,24.144L103.962,23.3L102.052,22.083L100.163,25.038L102.756,26.696L103.324,25.815L103.977,26.225L102.955,27.818Z" style="fill:#fff;fill-rule:nonzero;"/>
            <path d="M39.937,22.003C38.38,19.886 35.491,19.476 33.324,21.067L29.753,23.687L30.105,24.172L30.975,23.53L35.81,30.113C36.04,30.204 36.271,30.283 36.495,30.369L38.86,28.628C39.981,27.808 40.572,26.9 40.785,25.68C41.01,24.358 40.709,23.058 39.937,22.003ZM38.116,28.21L37.187,28.888L32.574,22.607L33.544,21.89C34.886,20.908 37.084,21.506 38.321,23.189C39.647,24.99 39.559,27.153 38.116,28.21Z" style="fill:#fff;fill-rule:nonzero;"/>
            <path d="M115.051,25.871L114.652,26.315L115.481,27.065L111.466,31.47L112.48,23.53L110.394,21.622L109.991,22.063L110.749,22.751L110.592,23.592L105.566,29.102L104.7,28.308L104.291,28.747L106.665,30.913L107.068,30.469L106.241,29.714L110.425,25.126L109.524,32.416C110.394,32.187 111.326,31.944 112.321,31.663C112.41,31.637 112.482,31.614 112.565,31.596L116.138,27.669L117.025,28.473L117.427,28.035L115.051,25.871Z" style="fill:#fff;fill-rule:nonzero;"/>
            <path d="M124.617,36.202L124.3,36.441L120.212,31.091L120.529,30.846L120.056,30.222L118.135,31.694L118.607,32.318L119.547,31.599L121.038,33.553L114.727,38.378L114.405,37.947C114.219,38.048 114.039,38.138 113.849,38.216L116.193,41.276L116.669,40.913L115.844,39.832L122.15,35.003L123.635,36.952L122.698,37.669L123.17,38.285L125.09,36.82L124.617,36.202Z" style="fill:#fff;fill-rule:nonzero;"/>
            <path d="M83.083,133.748L82.32,133.916L81.77,131.42L82.536,131.252L82.757,132.278C83.491,132.634 84.002,132.717 84.688,132.567C85.547,132.379 86.057,131.732 85.897,131.007C85.762,130.385 85.26,130.025 83.789,129.473C82.24,128.916 82.042,128.812 81.59,128.472C81.153,128.147 80.851,127.637 80.718,127.023C80.383,125.496 81.288,124.235 82.985,123.862C83.522,123.743 83.973,123.738 84.549,123.838L84.456,123.423L85.205,123.26L85.725,125.638L84.977,125.801L84.765,124.849C84.096,124.594 83.698,124.54 83.183,124.648C82.464,124.81 82.015,125.447 82.157,126.095C82.285,126.652 82.677,126.927 84.196,127.49C84.928,127.758 85.383,127.92 85.558,127.998C85.928,128.152 86.285,128.39 86.602,128.715C86.962,129.088 87.187,129.516 87.307,130.063C87.651,131.644 86.742,133.003 85.114,133.361C84.313,133.534 83.693,133.495 82.977,133.261L83.083,133.748Z" style="fill:#fff;fill-rule:nonzero;"/>
            <path d="M97.525,129.205L91.229,131.68L91.012,131.123L92.017,130.723L89.027,123.109L88.018,123.508L87.806,122.954L93.256,120.808L93.107,120.437L93.821,120.156L94.647,122.26L93.944,122.536L93.575,121.584L90.814,122.665L92.045,125.788L94.16,124.952L93.811,124.057L94.527,123.761L95.542,126.365L94.834,126.667L94.465,125.739L92.353,126.564L93.635,129.831L96.501,128.704L96.121,127.73L96.837,127.448L97.525,129.205Z" style="fill:#fff;fill-rule:nonzero;"/>
            <path d="M106.994,123.441C106.19,124.442 105.628,124.968 104.705,125.525C102.147,127.077 99.273,126.463 97.807,124.047C96.354,121.654 97.099,118.763 99.54,117.278C100.325,116.801 100.934,116.577 101.827,116.45L101.518,115.945L102.187,115.537L103.502,117.714L102.837,118.119L102.365,117.34C101.375,117.281 100.903,117.381 100.265,117.768C98.577,118.792 98.252,120.917 99.478,122.933C100.671,124.898 102.895,125.646 104.572,124.63C105.177,124.256 105.537,123.862 105.893,123.163L105.33,122.242L106.013,121.832L106.994,123.441Z" style="fill:#fff;fill-rule:nonzero;"/>
            <path d="M111.269,108.779L110.386,109.581L113.985,113.529C115.07,114.715 115.337,115.831 114.828,117.061C114.561,117.693 114.15,118.281 113.605,118.776C111.906,120.334 109.953,120.398 108.63,118.957L104.759,114.715L103.962,115.44L103.564,115.001L106.499,112.322L106.902,112.763L106.116,113.477L109.69,117.394C110.653,118.451 111.285,118.761 112.076,118.562C112.447,118.451 112.816,118.255 113.132,117.961C114.393,116.816 114.445,115.396 113.273,114.117L109.713,110.212L108.842,111.009L108.434,110.556L110.862,108.335L111.269,108.779Z" style="fill:#fff;fill-rule:nonzero;"/>
            <path d="M127.223,100.491L125.332,103.988L124.803,103.704L125.32,102.75L118.123,98.856L117.604,99.807L117.091,99.519L118.978,96.024L119.503,96.311L118.99,97.242L126.192,101.138L126.698,100.207L127.223,100.491Z" style="fill:#fff;fill-rule:nonzero;"/>
            <path d="M130.856,91.986L129.24,96.27L128.686,96.056L129.169,94.769L121.739,91.971L120.866,94.268L121.976,94.681L121.697,95.419L119.438,94.562L119.708,93.835L120.088,93.972L122.459,87.675L122.087,87.533L122.363,86.798L124.624,87.652L124.347,88.386L123.243,87.966L122.382,90.253L129.815,93.054L130.294,91.778L130.856,91.986Z" style="fill:#fff;fill-rule:nonzero;"/>
            <path d="M133.37,81.535L132.608,85.439L132.017,85.325L132.225,84.281L128.381,83.526L123.653,85.47L123.483,86.349L122.896,86.228L123.661,82.327L124.245,82.445L124.041,83.477L127.479,82.099L124.794,79.639L124.558,80.823L123.978,80.713L124.612,77.458L125.193,77.577L124.999,78.58L128.366,81.651L132.577,82.479L132.783,81.421L133.37,81.535Z" style="fill:#fff;fill-rule:nonzero;"/>
            <path d="M123.808,105.61L123.457,106.081C123.286,106.306 123.082,106.373 122.485,106.334L118.795,106.105C119.264,104.792 118.989,103.771 117.967,103.01C117.36,102.562 116.733,102.376 116.076,102.476C115.358,102.582 114.808,103.018 114.077,104.003L111.582,107.368L112.057,107.721L112.707,106.855L119.275,111.731L118.632,112.598L119.108,112.954L121.483,109.759L121.001,109.405L120.365,110.267L117.495,108.124L117.72,107.819L121.67,108.101C122.56,108.16 122.715,108.093 123.218,107.422L124.292,105.973L123.808,105.61ZM113.956,105.504L114.487,104.782C115.089,103.969 115.965,103.897 116.877,104.573C117.774,105.246 118.007,106.244 117.419,107.03L116.924,107.701L113.956,105.504Z" style="fill:#fff;fill-rule:nonzero;"/>
            <path d="M11.225,90.323L10.274,86.455L10.855,86.316L11.114,87.352L14.739,86.463L13.64,81.984L10.015,82.865L10.267,83.902L9.691,84.039L8.747,80.181L9.322,80.039L9.583,81.086L17.531,79.144L17.279,78.092L17.852,77.956L18.792,81.819L18.215,81.958L17.961,80.924L14.459,81.78L15.559,86.264L19.063,85.408L18.803,84.372L19.39,84.235L20.332,88.095L19.754,88.237L19.496,87.192L11.546,89.132L11.809,90.184L11.225,90.323Z" style="fill:#fff;fill-rule:nonzero;"/>
            <path d="M16.64,92.484C18.594,91.592 20.846,91.955 21.434,93.25C22.03,94.555 20.823,96.496 18.874,97.386C16.903,98.281 14.644,97.92 14.053,96.615C13.465,95.315 14.672,93.381 16.64,92.484ZM19.701,99.207C22.176,98.082 23.259,95.297 22.176,92.917C21.086,90.537 18.277,89.537 15.809,90.663C13.345,91.793 12.232,94.57 13.315,96.95C14.397,99.33 17.233,100.333 19.701,99.207Z" style="fill:#fff;fill-rule:nonzero;"/>
            <path d="M23.31,112.706L20.835,109.289L21.314,108.938L22.017,109.906L26.983,106.301L19.585,107.804L23.034,101.076L18.166,104.604L18.874,105.571L18.389,105.921L16.459,103.268L16.939,102.917L17.646,103.882L24.264,99.07L23.564,98.106L24.048,97.76L25.521,99.789L22.157,106.399L29.248,104.919L30.906,107.195L30.418,107.544L29.718,106.579L23.093,111.388L23.798,112.355L23.31,112.706Z" style="fill:#fff;fill-rule:nonzero;"/>
            <path d="M30.705,119.973L25.726,115.388L26.134,114.955L26.929,115.679L32.476,109.666L31.681,108.928L32.083,108.495L36.394,112.461L36.655,112.167L37.23,112.688L35.696,114.346L35.139,113.84L35.83,113.09L33.657,111.084L31.387,113.547L33.056,115.086L33.715,114.374L34.286,114.888L32.387,116.948L31.818,116.44L32.488,115.705L30.818,114.166L28.438,116.742L30.706,118.836L31.418,118.065L31.981,118.583L30.705,119.973Z" style="fill:#fff;fill-rule:nonzero;"/>
            <path d="M39.161,125.772L33.594,122.025L33.932,121.536L34.828,122.141L39.393,115.344L38.5,114.746L38.833,114.248L42.135,116.466L41.798,116.966L40.92,116.37L36.483,122.962L38.994,124.656L39.579,123.779L40.217,124.21L39.161,125.772Z" style="fill:#fff;fill-rule:nonzero;"/>
            <path d="M44.828,124.563L47.609,121.925L47.365,125.718L44.828,124.563ZM49.403,130.125L48.858,129.878L49.414,120.156L48.626,119.798L41.529,126.543L40.727,126.18L40.481,126.719L43.156,127.936L43.407,127.394L42.367,126.925L44.165,125.213L47.304,126.639L47.151,129.101L46.25,128.691L45.999,129.23L49.152,130.666L49.403,130.125Z" style="fill:#fff;fill-rule:nonzero;"/>
            <path d="M59.232,133.483L58.266,133.248L55.078,125.321L53.634,131.36L54.725,131.626L54.587,132.201L51.464,131.458L51.601,130.873L52.748,131.149L54.489,123.895L54.21,123.085L53.214,122.851L53.353,122.265L56.107,122.925L59.055,130.365L60.446,124.578L59.352,124.315L59.49,123.735L62.617,124.48L62.473,125.063L61.308,124.785L59.232,133.483Z" style="fill:#fff;fill-rule:nonzero;"/>
            <path d="M67.019,125.873L68.218,125.922C69.884,125.984 71.239,127.822 71.168,129.906C71.083,132.136 69.671,133.776 67.889,133.715L66.735,133.671L67.019,125.873ZM68.102,134.179C69.494,134.23 70.516,133.885 71.44,133.065C72.441,132.159 73.013,130.96 73.061,129.653C73.153,127.028 71.141,124.911 68.454,124.813L64.025,124.648L64.008,125.251L65.085,125.285L64.79,133.459L63.711,133.423L63.691,134.021L68.102,134.179Z" style="fill:#fff;fill-rule:nonzero;"/>
            <path d="M70.12,77.522L69.278,77.102L68.739,75.686L67.51,75.15L66.124,73.915L65.301,74.82L64.074,75.109L63.42,76.143L62.431,77.195L61.088,77.909L60.157,79.485L59.63,80.181L58.724,80.888L58.222,80.356L57.684,80.87L57.012,82.113C56.659,81.184 56.446,80.465 56.339,78.977C56.142,76.22 55.941,72.762 55.747,69.224C60.292,68.244 66.075,67.594 70.771,67.551L70.771,78.283C70.557,78.154 70.34,78.049 70.12,77.522Z" style="fill:#fff;fill-rule:nonzero;"/>
            <path d="M70.771,82.693L57.256,82.693C57.457,83.113 57.684,83.5 57.947,83.869C58.919,85.233 60.304,86.244 62.063,86.782C64.447,87.515 65.971,87.994 67.08,88.348L68.402,88.76C69.483,89.093 70.24,89.583 70.771,90.12L70.771,82.693Z" style="fill:#fff;fill-rule:nonzero;"/>
            <path d="M85.043,77.468C85.414,77.174 85.837,76.831 86.398,76.628C86.478,75.364 86.56,74.016 86.645,72.618C86.494,72.718 86.34,72.847 86.149,73C85.504,73.52 84.698,74.178 83.28,74.178C81.953,74.178 81.091,73.644 80.401,73.219C79.84,72.871 79.387,72.6 78.726,72.6C77.996,72.6 77.37,72.971 76.703,73.373C75.984,73.799 75.169,74.286 74.175,74.286C73.153,74.286 72.417,73.972 71.814,73.644L71.814,77.437C71.949,77.515 72.082,77.597 72.214,77.677C72.817,78.051 73.342,78.371 74.175,78.371C74.689,78.371 75.2,78.066 75.802,77.703C76.603,77.226 77.515,76.682 78.727,76.682C79.879,76.682 80.642,77.146 81.323,77.561C81.925,77.938 82.451,78.255 83.28,78.255C84.073,78.255 84.506,77.909 85.043,77.468Z" style="fill:#fff;fill-rule:nonzero;"/>
            <path d="M74.175,86.117C73.153,86.117 72.417,85.805 71.814,85.472L71.814,90.117C72.344,89.583 73.098,89.093 74.185,88.76L75.502,88.348C76.612,87.994 78.127,87.515 80.518,86.782C81.217,86.566 81.857,86.282 82.437,85.921C81.567,85.764 80.935,85.375 80.401,85.047C79.84,84.699 79.387,84.428 78.726,84.428C77.996,84.428 77.37,84.807 76.703,85.202C75.984,85.627 75.169,86.117 74.175,86.117Z" style="fill:#fff;fill-rule:nonzero;"/>
            <path d="M85.043,71.635C85.485,71.279 86.021,70.851 86.756,70.684C86.785,70.202 86.812,69.712 86.839,69.224C82.294,68.244 76.517,67.594 71.814,67.551L71.814,71.602C71.949,71.684 72.082,71.762 72.214,71.844C72.817,72.213 73.342,72.541 74.175,72.541C74.689,72.541 75.2,72.226 75.802,71.87C76.603,71.385 77.515,70.844 78.727,70.844C79.879,70.844 80.642,71.318 81.323,71.726C81.925,72.099 82.451,72.422 83.28,72.422C84.073,72.422 84.506,72.074 85.043,71.635Z" style="fill:#fff;fill-rule:nonzero;"/>
            <path d="M71.814,79.479L71.814,83.43C71.949,83.507 72.082,83.593 72.214,83.67C72.817,84.041 73.342,84.366 74.175,84.366C74.689,84.366 75.2,84.057 75.802,83.701C76.603,83.221 77.515,82.675 78.727,82.675C79.879,82.675 80.642,83.144 81.323,83.554C81.925,83.93 82.451,84.25 83.28,84.25C83.926,84.25 84.331,84.018 84.752,83.701C85.619,82.417 86.123,80.826 86.245,78.977C86.247,78.897 86.254,78.819 86.261,78.747C86.224,78.77 86.188,78.804 86.149,78.835C85.504,79.356 84.7,80.003 83.28,80.003C81.953,80.003 81.093,79.479 80.401,79.057C79.84,78.703 79.389,78.43 78.727,78.43C77.996,78.43 77.37,78.804 76.703,79.209C75.984,79.637 75.171,80.122 74.175,80.122C73.153,80.122 72.417,79.81 71.814,79.479Z" style="fill:#fff;fill-rule:nonzero;"/>
            <path d="M85.268,62.991L84.71,62.329L83.949,62.752L84.398,62.012L83.778,61.413L84.611,61.609L84.977,60.818L85.046,61.684L85.903,61.795L85.106,62.133L85.268,62.991ZM83.477,66.176L82.897,65.529L82.153,65.97L82.584,65.214L81.944,64.634L82.784,64.802L83.133,64.015L83.222,64.874L84.081,64.962L83.296,65.322L83.477,66.176ZM80.911,61.749L80.173,62.218L80.584,61.442L79.923,60.882L80.772,61.032L81.105,60.227L81.217,61.094L82.072,61.158L81.302,61.535L81.501,62.38L80.911,61.749ZM79.689,65.65L79.083,65.034L78.359,65.508L78.755,64.732L78.085,64.183L78.939,64.314L79.246,63.507L79.377,64.369L80.242,64.415L79.473,64.809L79.689,65.65ZM77.105,61.346L76.398,61.839L76.769,61.055L76.09,60.518L76.944,60.632L77.233,59.817L77.385,60.668L78.25,60.704L77.488,61.112L77.725,61.947L77.105,61.346ZM75.9,65.297L75.268,64.709L74.568,65.217L74.917,64.423L74.233,63.907L75.088,64.002L75.358,63.177L75.532,64.028L76.398,64.044L75.641,64.467L75.9,65.297ZM73.301,61.119L72.619,61.645L72.953,60.843L72.248,60.346L73.106,60.413L73.353,59.58L73.551,60.431L74.411,60.413L73.675,60.867L73.954,61.692L73.301,61.119ZM72.112,65.134L71.44,64.585L70.773,65.134L71.083,64.314L70.359,63.843L71.216,63.889L71.44,63.046L71.66,63.889L72.522,63.843L71.8,64.314L72.112,65.134ZM69.487,61.112L68.837,61.684L69.119,60.861L68.383,60.408L69.238,60.426L69.439,59.58L69.687,60.408L70.543,60.346L69.835,60.843L70.174,61.643L69.487,61.112ZM68.317,65.204L67.613,64.693L66.98,65.282L67.242,64.451L66.497,64.018L67.355,64.015L67.53,63.162L67.796,63.987L68.658,63.889L67.961,64.41L68.317,65.204ZM65.684,61.326L65.056,61.932L65.305,61.094L64.542,60.678L65.409,60.658L65.557,59.799L65.849,60.619L66.702,60.503L66.021,61.037L66.395,61.823L65.684,61.326ZM64.523,65.48L63.8,65L63.188,65.617L63.41,64.779L62.647,64.376L63.505,64.33L63.641,63.474L63.951,64.291L64.801,64.154L64.129,64.701L64.523,65.48ZM61.885,61.728L61.289,62.357L61.49,61.512L60.717,61.127L61.576,61.065L61.693,60.199L62.014,61.003L62.86,60.856L62.21,61.416L62.617,62.187L61.885,61.728ZM60.724,65.924L59.982,65.48L59.409,66.124L59.584,65.276L58.806,64.91L59.658,64.83L59.758,63.966L60.106,64.763L60.942,64.595L60.304,65.171L60.724,65.924ZM57.518,62.955L57.692,62.102L56.899,61.749L57.751,61.653L57.836,60.787L58.194,61.576L59.038,61.403L58.399,61.986L58.834,62.741L58.088,62.303L57.518,62.955ZM59.08,58.438L59.167,57.576L59.521,58.37L60.358,58.195L59.722,58.775L60.157,59.531L59.409,59.09L58.834,59.74L59.008,58.889L58.222,58.53L59.08,58.438ZM63.062,57.904L63.193,57.045L63.507,57.852L64.358,57.716L63.695,58.27L64.093,59.041L63.363,58.569L62.756,59.193L62.975,58.35L62.21,57.961L63.062,57.904ZM67.072,57.548L67.247,56.694L67.518,57.522L68.373,57.427L67.679,57.94L68.036,58.737L67.336,58.226L66.702,58.817L66.963,57.989L66.213,57.558L67.072,57.548ZM71.088,57.406L71.311,56.566L71.529,57.406L72.391,57.36L71.675,57.839L71.98,58.652L71.311,58.105L70.646,58.652L70.949,57.839L70.224,57.36L71.088,57.406ZM75.107,57.525L75.378,56.697L75.554,57.553L76.413,57.558L75.66,57.994L75.923,58.822L75.289,58.226L74.587,58.737L74.941,57.945L74.252,57.427L75.107,57.525ZM79.099,57.857L79.419,57.045L79.547,57.904L80.409,57.955L79.639,58.35L79.859,59.193L79.246,58.569L78.522,59.046L78.921,58.27L78.252,57.716L79.099,57.857ZM83.098,58.381L83.453,57.579L83.535,58.443L84.398,58.538L83.608,58.899L83.789,59.748L83.211,59.1L82.464,59.536L82.893,58.783L82.255,58.203L83.098,58.381ZM71.292,55.325C66.303,55.325 59.96,56.045 55.166,57.133C55.283,60.266 55.471,64.242 55.688,68.19C60.202,67.236 66.172,66.524 71.292,66.524C76.413,66.524 82.383,67.236 86.895,68.19C87.116,64.242 87.307,60.268 87.415,57.133C82.633,56.045 76.278,55.325 71.292,55.325Z" style="fill:#fff;fill-rule:nonzero;"/>
            <path d="M111.214,78.51L111.107,77.664L103.862,84.366C103.114,84.962 102.356,85.56 101.626,86.141C102.229,85.478 102.87,84.776 103.518,84.057L110.789,77.321L109.958,77.162L113.164,75.423L111.214,78.51ZM97.892,89.085C97.996,88.884 98.105,88.66 98.222,88.415L110.689,74.776L109.846,74.683L112.908,72.7L111.202,75.926L111.04,75.093L99.127,88.111C98.615,88.515 98.186,88.856 97.892,89.085ZM100.546,83.724L105.328,76.455L104.477,76.499L107.192,74.054L106.015,77.512L105.725,76.718L99.027,86.852C99.006,86.88 98.981,86.906 98.956,86.935C99.437,85.968 99.982,84.861 100.546,83.724ZM110.14,71.532L113.051,69.327L111.593,72.669L111.361,71.849L102.663,82.865C102.182,83.394 101.707,83.912 101.239,84.42L101.228,84.41C101.845,83.479 102.503,82.484 103.114,81.55L110.997,71.563L110.14,71.532ZM92.679,99.802L90.633,104.003L90.258,102.977L89.208,103.294L91.371,99.15L92.036,98.928L92.028,98.923L93.854,95.137C93.967,95.24 94.102,95.315 94.256,95.367L92.439,99.127L92.679,99.802ZM87.817,99.823L86.988,99.861L86.943,99.872L86.958,99.861L86.8,99.872L90.172,96.502L90.172,96.496L90.233,96.437L90.949,96.38L93.37,93.735C93.355,93.944 93.37,94.152 93.425,94.356L91.297,96.86L90.757,96.976L87.964,100.648L87.817,99.823ZM83.86,100.442L83.739,99.691L82.741,99.485L86.296,97.265L86.699,97.009L87.394,97.154L87.39,97.149L92.931,93.49C92.737,93.706 92.176,94.307 91.67,94.864L87.233,97.989L86.725,97.966L83.86,100.442ZM86.717,95.493L87.394,95.705L92.695,93.062C92.683,93.067 92.676,93.074 92.664,93.077C92.664,93.077 92.636,93.098 92.583,93.136C91.6,93.779 87.558,96.27 87.558,96.27L86.992,96.164L85.337,97.291L83.559,98.4L83.446,97.85L82.498,97.502L86.717,95.493ZM53.236,101.009C52.791,97.961 51.201,95.496 48.706,93.495C48.808,93.031 48.954,92.713 49.093,92.497C52.528,95.083 54.479,98.673 54.974,101.561C54.544,101.246 53.732,100.916 53.236,101.009ZM48.033,91.638C47.832,91.739 47.48,91.767 47.14,91.566C47.616,91.53 47.793,91.293 47.876,91.058C47.964,90.834 48.216,90.694 48.224,91.04C48.227,91.391 48.228,91.545 48.033,91.638ZM47.454,93.688C47.194,93.698 46.885,93.603 46.664,93.441C46.791,93.325 46.963,93.224 47.086,93.049C47.245,92.814 47.338,92.572 47.383,92.316C47.48,92.489 47.65,93.103 47.708,93.536C47.724,93.639 47.708,93.673 47.454,93.688ZM45.872,91.613C46.103,91.321 46.669,91.282 46.99,91.486C46.774,91.898 46.75,92.582 46.873,92.917C46.064,92.791 45.919,92.017 45.872,91.613ZM42.858,89.611C42.788,89.248 43.026,88.892 43.389,88.815C43.763,88.742 44.112,88.985 44.192,89.34C44.262,89.704 44.027,90.065 43.66,90.143C43.292,90.215 42.941,89.978 42.858,89.611ZM41.784,89.186C41.314,89.279 40.85,88.982 40.755,88.513C40.661,88.033 40.964,87.577 41.44,87.481C41.91,87.383 42.363,87.69 42.461,88.165C42.558,88.634 42.256,89.085 41.784,89.186ZM41.482,91.824C41.005,91.914 40.546,91.613 40.453,91.138C40.357,90.669 40.665,90.212 41.13,90.114C41.602,90.021 42.062,90.328 42.159,90.803C42.256,91.262 41.95,91.731 41.482,91.824ZM39.961,89.952C39.625,90.019 39.293,89.797 39.227,89.464C39.161,89.124 39.378,88.799 39.714,88.73C40.055,88.66 40.38,88.882 40.449,89.217C40.514,89.552 40.297,89.885 39.961,89.952ZM37.709,97.946C37.254,96.798 37.652,94.952 38.144,93.742C38.488,92.909 39.339,91.646 39.61,91.527C38.666,92.976 37.659,96.832 37.709,97.946ZM35.106,94.614C35.293,93.392 36.106,91.935 37.297,90.952C38.125,90.266 38.595,90.014 37.9,90.743C36.847,91.844 35.622,93.629 35.106,94.614ZM32.574,90.731C33.804,89.271 35.81,88.954 37.013,88.995C37.038,89 37.049,89.005 37.065,89.005C36.986,88.598 37.254,88.201 37.655,88.126C38.066,88.041 38.465,88.304 38.545,88.714C38.622,89.121 38.359,89.518 37.955,89.601C37.564,89.676 37.185,89.433 37.083,89.057C37.071,89.057 37.057,89.062 37.049,89.057C35.843,89.222 33.835,89.985 32.574,90.731ZM30.888,88.438C32.377,87.608 34.147,87.383 35.776,87.597C35.846,87.427 36.005,87.298 36.209,87.267C36.52,87.216 36.817,87.422 36.87,87.739C36.924,88.051 36.715,88.355 36.396,88.405C36.082,88.461 35.785,88.242 35.723,87.933C35.715,87.847 35.719,87.765 35.741,87.688L35.73,87.688C34.303,87.693 32.555,88.051 30.888,88.438ZM30.358,84.9C32.109,84.66 33.007,84.908 34.282,85.619C34.406,85.658 34.433,85.668 34.322,85.653C33.151,85.248 32,85.019 30.358,84.9ZM28.919,82.022C29.904,82.066 31.189,82.077 33.056,83.729C33.137,83.608 33.27,83.528 33.424,83.5C33.745,83.448 34.036,83.662 34.089,83.969C34.148,84.289 33.932,84.585 33.617,84.642C33.309,84.697 33.002,84.482 32.952,84.165C32.93,84.034 32.952,83.912 33.007,83.809C31.648,82.847 29.513,82.231 28.919,82.022ZM27.12,77.494C29.223,77.708 30.484,78.977 31.362,80.166C31.627,80.166 31.873,80.361 31.92,80.638C31.977,80.952 31.761,81.249 31.455,81.305C31.134,81.357 30.837,81.148 30.782,80.833C30.732,80.537 30.919,80.256 31.204,80.181C30.004,79.098 28.273,78.033 27.12,77.494ZM27.989,71.341C30.101,72.793 30.557,74.24 31.037,76.104C31.054,76.096 31.072,76.094 31.085,76.092C31.482,76.009 31.866,76.264 31.947,76.656C32.025,77.056 31.768,77.437 31.378,77.52C30.979,77.597 30.592,77.342 30.515,76.947C30.445,76.599 30.64,76.262 30.953,76.13C30.268,74.673 29.043,72.7 27.989,71.341ZM32.713,68.874C33.555,71.408 32.979,74.031 31.321,75.55C31.362,74.374 30.975,73.079 30.062,72.027C30.616,70.439 31.843,69.235 32.713,68.874ZM33.263,82.865C32.833,82.95 32.406,82.67 32.319,82.231C32.23,81.798 32.512,81.377 32.948,81.29C33.381,81.2 33.804,81.483 33.889,81.919C33.982,82.355 33.699,82.778 33.263,82.865ZM35.474,73.954C36.55,78.804 34.16,79.194 32.89,81.001C31.499,78.518 32.762,75.137 35.474,73.954ZM35.011,87.283C34.558,87.378 34.12,87.089 34.028,86.635C33.939,86.184 34.232,85.743 34.678,85.653C35.129,85.565 35.572,85.857 35.66,86.308C35.748,86.749 35.462,87.198 35.011,87.283ZM37.122,77.956C39.555,83.015 36.771,83.869 36.251,85.803C35.912,83.985 36.271,81.068 36.507,79.554C35.742,80.589 35.524,82.022 35.618,83.404C35.622,83.42 35.632,83.43 35.632,83.451C35.649,83.518 35.644,83.59 35.64,83.662C35.702,84.281 35.815,84.885 35.97,85.431C35.717,85.057 35.493,84.624 35.327,84.152C35.261,84.191 35.188,84.227 35.103,84.243C34.74,84.32 34.384,84.08 34.309,83.716C34.233,83.35 34.469,82.997 34.843,82.92C34.909,82.907 34.976,82.907 35.05,82.915C34.859,81.287 35.351,79.433 37.122,77.956ZM40.866,79.178C40.727,80.578 40.912,81.816 40.883,83.015C41.678,81.767 43.064,80.924 44.223,80.576C44.058,85.581 41.772,85.96 40.769,87.239C40.933,85.692 41.725,83.642 43.111,81.886C41.218,83.144 40.612,84.944 40.558,86.764C40.406,86.375 40.322,86.004 40.275,85.638C40.058,86.068 39.765,86.499 39.373,86.942C39.011,84.655 39.575,82.174 39.881,80.991C38.891,81.986 38.564,84.351 38.96,86.244C39.142,86.36 39.272,86.548 39.324,86.777C39.417,87.226 39.123,87.667 38.674,87.755C38.22,87.847 37.78,87.554 37.69,87.11C37.601,86.656 37.891,86.218 38.34,86.127C38.448,86.099 38.549,86.107 38.651,86.122C37.659,83.985 38.477,80.924 40.866,79.178ZM94.001,90.751C94.002,90.398 94.256,90.542 94.345,90.774C94.43,91.001 94.608,91.236 95.081,91.275C94.737,91.47 94.388,91.445 94.191,91.344C93.993,91.251 93.997,91.097 94.001,90.751ZM95.553,93.149C95.337,93.314 95.027,93.402 94.764,93.392C94.504,93.381 94.497,93.343 94.511,93.242C94.574,92.806 94.737,92.195 94.836,92.022C94.883,92.275 94.973,92.52 95.132,92.747C95.256,92.933 95.424,93.038 95.553,93.149ZM96.35,91.321C96.3,91.723 96.161,92.494 95.347,92.62C95.467,92.293 95.451,91.599 95.228,91.19C95.552,90.991 96.114,91.025 96.35,91.321ZM114.973,75.565L115.017,76.408L117.172,73.466L113.853,74.988L114.672,75.202L113.145,76.478C113.253,75.596 113.331,74.712 113.388,73.817L115.272,71.733L115.431,72.561L117.172,69.358L114.081,71.308L114.931,71.403L113.427,73.025C113.442,72.463 113.458,71.909 113.458,71.347C113.458,67.143 112.84,63.085 111.693,59.247C109.784,59.425 107.872,58.814 106.955,58.639C109.397,60.072 110.243,61.62 110.606,63.399C108.653,63.835 106.038,63.195 104.607,62.076C106.007,63.299 106.89,65.222 106.952,67.208C104.936,67.308 103.075,66.365 101.707,64.993C102.584,65.973 103.694,68.45 103.435,70.215C101.748,70.031 99.773,68.93 98.693,67.612C99.586,69.585 100.012,71.184 99.904,72.948C98.233,72.633 96.964,72.159 95.464,70.728C96.186,72.527 96.453,74.34 96.291,75.826C94.358,75.145 93.074,74.371 91.986,72.553C92.566,74.157 92.942,76.264 92.543,77.497C90.906,77.004 89.825,76.019 88.976,74.348C89.817,76.12 89.709,78.183 89.43,79.25C88.744,79.116 87.848,78.642 87.38,78.116C87.352,78.438 87.326,78.75 87.313,79.051C87.225,80.251 86.992,81.373 86.599,82.404C86.734,82.553 87.059,82.93 87.07,82.945C87.929,83.871 89.105,84.748 90.034,85.044C89.634,85.101 89.082,85.444 88.531,85.509C89.144,86.202 90.393,86.36 91.166,87.149C90.566,87.221 90.424,87.654 89.693,87.574C91.085,88.652 92.362,88.686 93.074,88.771C93.364,88.802 94.3,88.892 94.894,88.799C95.735,88.67 96.6,89.085 96.937,89.281C96.998,89.317 97.05,89.359 97.096,89.405C97.048,89.359 96.997,89.316 96.937,89.279C96.896,89.258 96.837,89.227 96.78,89.194L104.402,73.75L103.567,73.897L105.954,71.138L105.214,74.712L104.82,73.961L97.162,89.472C97.148,89.454 97.13,89.439 97.114,89.423C97.294,89.611 97.366,89.868 97.379,90.114C97.379,90.106 97.38,90.099 97.379,90.091C97.394,90.083 97.416,90.083 97.429,90.083L97.722,89.846L97.719,89.846L110.065,80.096L109.246,79.866L112.588,78.399L110.386,81.316L110.356,80.462L98.105,90.125C98.437,90.191 98.732,90.305 98.818,90.447C99.027,90.78 98.971,90.95 98.775,91.527C98.59,92.079 98.457,92.275 98.086,92.316C97.981,92.332 97.796,92.355 97.58,92.265C97.691,92.335 97.768,92.401 97.822,92.551C97.877,92.698 97.966,92.953 97.514,93.472C97.116,93.925 96.739,94.09 96.42,93.913C96.242,93.807 96.188,93.696 96.103,93.603C96.149,93.727 96.198,93.858 96.219,94C96.296,94.462 95.944,94.627 95.506,94.787C94.682,95.073 94.277,94.949 94.082,94.652C93.658,94.023 93.893,93.216 94.176,93.077C94.105,93.325 94.107,93.59 94.156,93.889C94.196,94.129 94.314,94.531 94.76,94.49C95.003,94.467 95.448,94.361 95.718,94.191C95.905,94.067 95.912,93.742 95.815,93.469C95.77,93.332 95.718,93.136 95.552,92.992C95.827,93.069 95.993,93.216 96.203,93.392C96.414,93.57 96.739,93.611 96.925,93.417C97.166,93.17 97.312,92.982 97.391,92.806C97.602,92.371 97.034,92.033 96.714,91.85C97.289,91.87 97.379,92.089 97.842,92.028C98.311,91.96 98.449,91.215 98.449,90.968C98.457,90.79 98.24,90.612 97.973,90.54C97.769,90.486 97.531,90.485 97.359,90.493C97.349,90.552 97.337,90.607 97.324,90.656C97.262,90.867 97.169,91.125 96.782,91.324C96.559,91.391 96.414,91.409 96.64,91.244C96.841,91.097 97.026,90.194 96.562,89.843C96.219,89.593 95.738,89.387 95.17,89.418C94.542,89.446 93.583,89.498 93.116,89.457C92.691,89.408 92.424,89.967 92.362,90.207C92.211,90.767 92.037,91.46 91.229,91.115C90.233,90.545 88.819,90.594 87.193,89.936C87.421,90.434 87.325,90.87 87.572,91.427C86.123,91.071 85.756,90.334 84.375,89.849C84.606,90.351 84.537,90.743 84.85,91.218C83.689,91.017 82.603,89.967 80.986,89.537C80.935,89.552 80.89,89.573 80.842,89.583C80.254,89.758 79.712,89.928 79.221,90.083C80.366,91.38 81.314,92.971 81.756,94.895C81.756,94.895 80.948,94.918 79.755,94.506C80.097,95.555 80.305,96.682 80.325,97.889C80.325,97.889 79.42,97.724 78.177,96.953C78.29,98.095 78.25,99.284 78.011,100.504C78.011,100.504 76.964,100.07 75.725,98.815C75.581,99.993 75.289,101.185 74.782,102.371C74.782,102.371 73.821,101.721 72.843,100.205C72.438,101.386 71.869,102.546 71.092,103.655C71.092,103.655 70.047,102.556 69.34,100.344C68.396,101.765 67.498,102.371 67.498,102.371C66.992,101.185 66.697,99.993 66.551,98.81C65.315,100.07 64.267,100.504 64.267,100.504C64.025,99.284 63.986,98.095 64.097,96.953C62.857,97.724 61.943,97.891 61.943,97.891C61.963,96.682 62.175,95.558 62.523,94.506C61.321,94.918 60.517,94.895 60.517,94.895C60.972,92.933 62.26,90.913 63.124,90.006C62.701,89.872 62.246,89.735 61.751,89.583C61.704,89.575 61.66,89.552 61.604,89.537C59.989,89.967 58.907,91.017 57.739,91.218C58.049,90.746 57.99,90.351 58.215,89.849C56.841,90.334 56.467,91.071 55.027,91.429C55.266,90.87 55.17,90.434 55.406,89.936C54.061,90.594 52.224,91.05 51.411,91.223C50.509,91.411 50.456,90.07 50.161,89.774C50.034,89.645 49.31,89.593 49.008,89.64C48.559,89.715 47.69,89.676 47.043,89.665C46.391,89.65 45.942,89.843 45.608,90.101C45.128,90.447 45.354,91.385 45.562,91.538C45.783,91.7 45.647,91.677 45.424,91.618C45.039,91.422 44.94,91.159 44.878,90.947C44.87,90.915 44.863,90.878 44.856,90.841C44.856,90.845 44.857,90.85 44.858,90.854C44.688,90.839 44.379,90.816 44.123,90.872C43.856,90.937 43.633,91.112 43.633,91.293C43.632,91.538 43.749,92.283 44.219,92.36C44.676,92.44 44.774,92.221 45.349,92.216C45.016,92.388 44.448,92.719 44.637,93.16C44.714,93.327 44.859,93.521 45.087,93.779C45.275,93.974 45.596,93.944 45.814,93.773C46.034,93.603 46.2,93.458 46.478,93.394C46.309,93.533 46.25,93.729 46.2,93.858C46.093,94.137 46.093,94.462 46.278,94.591C46.542,94.769 46.986,94.887 47.226,94.916C47.677,94.967 47.801,94.57 47.845,94.33C47.903,94.029 47.915,93.768 47.853,93.518C48.13,93.657 48.339,94.48 47.903,95.094C47.694,95.385 47.284,95.506 46.471,95.181C46.038,95.016 45.697,94.836 45.78,94.384C45.807,94.25 45.859,94.114 45.911,93.99C45.826,94.08 45.759,94.191 45.578,94.292C45.264,94.462 44.886,94.286 44.503,93.822C44.057,93.289 44.159,93.038 44.223,92.891C44.279,92.744 44.355,92.68 44.468,92.608C44.252,92.69 44.054,92.665 43.957,92.651C43.594,92.598 43.461,92.396 43.291,91.837C43.118,91.254 43.063,91.084 43.277,90.756C43.447,90.498 44.355,90.344 44.819,90.449C44.817,90.554 44.826,90.652 44.84,90.743C44.788,90.367 44.832,89.831 45.269,89.586C45.6,89.379 46.471,88.967 47.314,89.096C47.903,89.186 48.838,89.096 49.121,89.062C49.406,89.031 51.508,88.652 52.895,87.574C52.168,87.657 52.026,87.221 51.422,87.151C52.2,86.36 53.448,86.205 54.06,85.511C53.512,85.447 53.027,85.008 52.626,84.946C53.851,84.266 54.66,83.871 55.526,82.948C55.535,82.933 55.856,82.569 55.986,82.419C55.595,81.388 55.353,80.251 55.27,79.051C55.251,78.76 55.232,78.458 55.21,78.152C54.912,78.482 54.295,78.817 53.294,79.175C52.826,78.038 53.05,75.918 53.647,74.276C52.791,75.949 51.832,77.035 50.192,77.525C49.791,76.297 50.033,74.16 50.605,72.553C49.519,74.371 48.355,75.292 46.42,75.978C46.258,74.492 46.412,72.53 47.128,70.728C45.632,72.159 44.363,72.633 42.688,72.95C42.584,71.184 43.012,69.585 43.9,67.615C42.828,68.93 40.599,69.83 38.913,70.011C39.041,68.479 40.115,66.388 40.74,65.16C39.156,66.295 37.467,67.112 35.641,67.208C35.87,65.472 36.646,63.595 37.984,62.076C36.411,63.242 34.012,63.871 32.203,63.626C32.639,61.72 33.812,59.861 35.394,58.866C34.476,59.046 32.814,59.425 30.898,59.247C29.772,63.025 29.155,67.022 29.138,71.153C28.182,70.403 27.515,70.215 26.861,69.567C26.981,70.462 27.1,70.952 27.196,72.058C27.374,74.051 28.132,75.191 29.383,75.908C29.44,76.476 29.513,77.035 29.596,77.597C28.671,77.007 27.428,76.638 25.789,76.659C26.786,79.902 28.211,80.145 30.12,80.452C30.186,80.751 30.26,81.045 30.327,81.341C29.312,81.073 28.087,81.071 26.697,81.455C27.658,82.945 28.991,83.845 31.119,84.165C31.122,84.178 31.127,84.188 31.135,84.201C29.826,84.096 28.408,84.289 27.275,84.864C28.89,86.254 30.478,86.785 31.989,86.623C32.066,86.826 32.143,87.022 32.225,87.221C31.03,87.538 29.975,88.157 29.386,88.735C30.644,89.132 31.936,89.343 33.104,89.224C33.112,89.253 33.13,89.279 33.139,89.309C32.457,89.833 31.862,90.679 31.49,91.999C32.389,91.778 33.312,91.716 34.228,91.453C34.411,91.795 34.6,92.131 34.794,92.461C34.309,93.384 34.141,94.539 34.423,95.823C35.197,95.643 35.831,95.344 36.36,94.957C36.539,95.225 36.721,95.486 36.913,95.754C36.717,97.224 37.057,98.704 37.93,99.689C38.34,99.23 38.666,98.786 38.929,98.363L38.93,98.364C40.672,95.549 39.561,93.505 39.606,91.659C39.614,91.62 39.633,91.581 39.649,91.545C39.81,93.784 41.749,95.993 39.467,98.701C39.422,98.754 39.383,98.798 39.342,98.845C47.071,107.828 58.519,113.516 71.293,113.516C89.438,113.516 104.902,102.051 110.85,85.981L112.765,85.15L112.619,85.988L115.383,83.598L111.805,84.338L112.557,84.727L111.083,85.334C111.197,85.01 111.306,84.681 111.413,84.351L109.74,85.816L109.883,84.98L99.285,90.282C99.269,90.251 99.255,90.222 99.234,90.191C99.185,90.117 99.13,90.055 99.058,89.998C99.147,89.926 99.292,89.812 99.468,89.671L109.675,84.56L108.913,84.173L111.65,83.59C111.702,83.421 111.756,83.251 111.805,83.082L113.902,81.919L113.829,82.773L116.366,80.135L112.87,81.195L113.66,81.522L111.98,82.445C112.071,82.111 112.156,81.772 112.24,81.433L110.437,83.425L110.483,82.577L103.694,87.004C102.876,87.417 102.07,87.824 101.366,88.18C101.822,87.817 102.318,87.422 102.845,87.012L110.221,82.185L109.428,81.886L112.369,80.894C112.442,80.58 112.515,80.266 112.58,79.952L114.178,78.938L114.111,79.784L116.629,77.141L113.137,78.216L113.929,78.538L112.707,79.312C112.836,78.6 112.962,77.886 113.06,77.164L114.973,75.565Z" style="fill:#fff;fill-rule:nonzero;"/>
            <path d="M97.38,90.26C97.379,90.275 97.38,90.291 97.379,90.306C97.38,90.291 97.379,90.275 97.38,90.26Z" style="fill:#fff;fill-rule:nonzero;"/>
        </g>
    </g>
</svg>
