<svg width="38" height="39" viewBox="0 0 38 39" fill="none" xmlns="http://www.w3.org/2000/svg">
<g clip-path="url(#clip0)">
<path fill-rule="evenodd" clip-rule="evenodd" d="M33.2928 6.60199C33.3525 7.93109 32.3414 8.7531 31.5768 9.53393L23.7353 16.4138C23.0304 17.0977 22.0122 17.6632 21.6154 18.6885C21.0957 20.043 20.902 21.5483 20.6783 23.0444C20.5512 24.1231 19.5841 25.0611 18.6852 25.4573C17.9858 25.7121 17.147 25.5919 16.3843 25.6537L13.6507 25.6726C13.4203 25.7242 13.2197 25.8565 13.1002 26.0522L12.9989 26.335C12.7062 26.3801 12.8029 26.1136 12.7612 25.9263C12.7692 25.2999 12.9029 24.6452 13.3466 24.2759C13.5827 24.0249 13.9158 23.9642 14.2472 23.9081L18.2326 23.8478C18.4547 23.8383 18.634 23.6992 18.7849 23.5775L18.9464 23.2563C19.265 21.1854 19.4481 19.0413 20.4336 17.282C21.3505 16.166 22.5063 15.3978 23.5272 14.4161C25.8926 12.322 28.3441 10.1937 30.6804 8.0691C31.3424 7.41736 32.0417 6.55687 32.205 5.52542L32.2915 5.24902C32.8164 5.43498 33.2584 5.98094 33.2928 6.60199Z" fill="#15223B"/>
<path fill-rule="evenodd" clip-rule="evenodd" d="M35.5908 8.93765C35.7085 10.2288 34.7367 10.841 33.9626 11.6396L30.7634 14.5045L25.0758 19.5388C24.2691 20.4867 24.228 21.8301 24.0216 23.0445C24.0556 23.4403 24.4384 23.6015 24.3636 24.0162L23.5726 25.5025C23.6159 26.094 24.3096 25.7513 24.5337 26.1216C24.5408 26.3344 24.4047 26.5998 24.566 26.7772C24.6768 26.9808 25.1338 26.7078 24.8945 27.0339C24.8292 27.0873 24.8537 27.2193 24.8732 27.2902C24.9681 27.4202 25.1449 27.432 25.1609 27.6257C25.0758 27.8741 25.0758 28.2195 25.2178 28.4333C26.2044 29.5555 27.9029 28.166 28.932 29.2197C29.1914 29.4588 29.1838 29.9038 29.1153 30.238C28.5658 31.9168 25.3145 32.0409 26.4267 34.4224C26.6204 34.8113 27.0529 35.0749 27.4852 35.1053C27.8517 35.1665 28.133 35.0058 28.4376 34.9091C28.5324 34.9091 28.5399 35.0058 28.5792 35.0598V35.1237C27.639 35.8213 26.4267 36.8473 25.1778 36.1036C24.5567 35.6894 24.2343 34.8397 24.388 34.0153C24.7697 32.6974 26.224 32.3611 26.9512 31.2558C27.1192 30.9346 27.0885 30.5155 26.9092 30.1922C26.6775 29.7599 26.14 29.644 25.6702 29.5555C24.8888 29.5374 23.6922 30.0517 23.3449 29.0961C23.2434 28.7313 23.599 28.0879 23.0398 28.0041C22.9634 27.9018 22.7857 27.8107 22.8781 27.6451C22.9045 27.5488 23.0641 27.537 22.9817 27.4126C22.8708 27.3793 22.7233 27.4062 22.6337 27.3069C22.3164 26.9455 23.1909 26.5543 22.5988 26.3071C22.2983 26.2642 21.8923 26.4959 21.6982 26.1391C21.6039 25.805 21.8439 25.5654 21.9626 25.2924C22.1632 24.8238 22.7501 24.5137 22.5988 23.9082L22.308 23.3956C22.394 22.1956 22.5888 21.0236 22.8781 19.8929C23.2685 18.6368 24.4316 17.9362 25.3222 17.0728L30.0923 12.8688L33.4696 9.77043C34.0554 9.204 34.5659 8.56644 34.5459 7.70807C34.7249 7.64515 34.8446 7.86997 35.0006 7.9399C35.2806 8.27566 35.5223 8.51374 35.5908 8.93765Z" fill="#15223B"/>
<path fill-rule="evenodd" clip-rule="evenodd" d="M34.3101 15.2026C33.682 16.2474 32.6308 17.0339 31.6974 17.8601L28.0297 21.0645C27.3568 21.6981 27.1792 22.7968 27.4855 23.6533C27.5199 24.0875 27.1979 24.3616 27.0968 24.743C27.1071 24.856 27.1288 25 27.2399 25.0334C27.3929 25.0964 27.6232 25.0152 27.7084 25.2268C27.731 25.4509 27.633 25.6909 27.8697 25.7777C27.9632 25.8327 28.1041 25.6609 28.1136 25.8391C28.0556 25.9381 28.0146 26.0325 28.0297 26.1572C28.1497 26.3801 28.4113 26.2573 28.5199 26.4419C28.5661 26.7002 28.5661 27.033 28.8454 27.1411C29.7962 27.3068 30.5175 26.6353 31.3752 26.4419C32.7338 25.9987 34.0478 26.5534 35.2599 26.9296C35.8635 27.0418 36.535 27.0046 37.1369 26.9296L37.1799 26.9705C36.4074 27.9529 35.4566 28.9083 34.1062 28.812C32.6889 28.7574 31.7748 27.3792 30.2549 27.645C29.2264 27.8581 28.2002 28.5022 27.0968 28.0692C26.8151 27.8308 26.6974 27.4061 26.8067 26.9872C26.7534 26.7324 26.1634 26.6698 26.5303 26.335C26.4174 26.2573 26.2243 26.335 26.1634 26.1572C26.0773 25.9536 26.3157 25.6537 26.0597 25.5199C25.8313 25.4846 25.5361 25.6173 25.3652 25.4156C25.2721 25.2924 25.2888 25.1218 25.3232 24.9728C25.4861 24.5659 25.9265 24.2452 25.8313 23.7614C25.5361 23.4702 25.6341 22.9796 25.6705 22.5739C25.8389 21.6359 25.9076 20.6456 26.7451 20.0234L31.2545 16.0509C32.205 15.1059 33.3787 14.4936 34.0655 13.2483C34.4206 13.76 34.5901 14.5871 34.3101 15.2026Z" fill="#15223B"/>
<path fill-rule="evenodd" clip-rule="evenodd" d="M20.5195 29.112C21.8001 29.6781 23.1423 30.238 24.2852 31.0248C24.5669 31.263 24.823 31.6253 24.7706 32.0655C24.3785 33.7552 22.1221 33.9353 22.4538 35.9282C22.5555 36.6699 23.021 37.3183 23.7177 37.5216C24.0332 37.6163 24.4553 37.6163 24.7706 37.5216C24.823 37.6518 25.043 37.7756 24.7946 37.8634C23.8704 38.48 22.6829 39.1731 21.554 38.5811C21.0026 38.3166 20.6778 37.6939 20.5345 37.0961C20.3058 35.2888 21.9188 34.7201 22.7359 33.5112C22.859 33.2719 22.9182 32.9876 22.859 32.7053C22.7009 32.3676 22.4725 32.1595 22.1634 31.9605C19.1248 30.1853 15.8229 28.9872 12.43 28.0693C11.8679 28.0132 10.9948 27.6712 10.6207 28.3529V28.3848C10.317 28.4519 10.4336 28.0693 10.4336 27.901C10.5291 27.3258 10.8504 26.8579 11.3689 26.6244C12.2503 26.3525 13.1848 26.6786 14.0406 26.8382C16.2367 27.4828 18.4225 28.2035 20.5195 29.112Z" fill="#15223B"/>
<path fill-rule="evenodd" clip-rule="evenodd" d="M19.1958 36.6466C19.1938 36.5431 19.1761 36.5355 19.0121 36.5369C18.5296 36.5461 18.3352 36.783 18.3472 37.3469C18.3603 37.9225 18.5633 38.1364 19.0444 38.1258C19.207 38.1221 19.2241 38.1101 19.2241 38.0585L19.1958 36.6466ZM19.7906 36.5051C19.5178 36.5287 19.5074 36.5369 19.4982 36.6097C19.4871 36.6989 19.4918 36.9094 19.5002 37.3145C19.5114 37.7164 19.5131 37.9262 19.5242 38.0178C19.5366 38.0889 19.5491 38.0968 19.8211 38.1094L19.8231 38.2212L18.9633 38.2379C18.6113 38.2475 18.4443 38.1706 18.2807 38.012C18.1299 37.8736 18.0252 37.6463 18.0206 37.3521C18.0143 36.892 18.2792 36.4272 18.9644 36.4128L19.7851 36.3958L19.7906 36.5051Z" fill="#15223B"/>
<path fill-rule="evenodd" clip-rule="evenodd" d="M17.8639 36.5318C17.6274 36.5294 17.6162 36.5369 17.6022 36.6097C17.5862 36.6965 17.5642 36.9036 17.5341 37.3144C17.5034 37.7147 17.4845 37.9194 17.4878 38.012C17.4911 38.0841 17.5005 38.092 17.7322 38.1313L17.7246 38.2431L16.782 38.159C16.6389 38.1453 16.496 38.148 16.39 38.1586C16.3956 38.0301 16.3956 37.73 16.3852 37.6569L16.496 37.647C16.5363 37.9918 16.586 38.0342 16.9364 38.0619L17.161 38.0817C17.1897 38.0841 17.2058 38.0715 17.211 38.0342L17.2598 37.4389C17.2617 37.404 17.2558 37.3927 17.1814 37.3845L17.1094 37.3811C16.8404 37.3534 16.818 37.3989 16.7773 37.5797L16.6696 37.5711C16.68 37.4847 16.692 37.4016 16.7013 37.2769C16.7093 37.1709 16.7116 37.0561 16.7156 36.9805L16.8304 36.9901C16.8304 37.1829 16.8593 37.2287 17.0525 37.2454L17.227 37.2628C17.2558 37.2642 17.2725 37.2536 17.275 37.2184L17.3298 36.5533C17.3354 36.5178 17.3185 36.5014 17.2878 36.5014L16.863 36.4617C16.662 36.4422 16.6024 36.4969 16.54 36.6637L16.4683 36.8384L16.356 36.7949C16.4012 36.6548 16.4512 36.4128 16.466 36.2983L17.8719 36.4231L17.8639 36.5318Z" fill="#15223B"/>
<path fill-rule="evenodd" clip-rule="evenodd" d="M15.5278 37.1162C15.4855 37.1043 15.4511 37.0954 15.4104 37.0886C15.1627 37.0434 14.9267 37.0434 14.865 37.3873C14.807 37.7096 14.9994 37.795 15.2683 37.8483C15.3831 37.8692 15.3944 37.8555 15.4055 37.8083L15.5278 37.1162ZM16.2476 36.3886C15.992 36.3585 15.9776 36.3623 15.9559 36.4296C15.9305 36.5147 15.8912 36.7246 15.8208 37.1214C15.7511 37.5216 15.7135 37.7256 15.7079 37.8169C15.7079 37.8869 15.7184 37.8972 15.9672 37.9679L15.9479 38.076L15.0414 37.901C14.8537 37.8634 14.7182 37.7871 14.6306 37.6747C14.5533 37.5807 14.5197 37.4584 14.5409 37.3244C14.6102 36.9628 14.9357 36.8667 15.3767 36.9512C15.4427 36.9652 15.5138 36.9853 15.5504 36.9912L15.6584 36.3746C15.6715 36.3038 15.6479 36.2915 15.3671 36.2163L15.3831 36.1083L16.2653 36.2789L16.2476 36.3886Z" fill="#15223B"/>
<path fill-rule="evenodd" clip-rule="evenodd" d="M13.6994 36.4556C13.6797 36.4502 13.6703 36.4556 13.6686 36.4621C13.6657 36.4737 13.6667 36.5045 13.6667 36.5233L13.7294 37.2212L14.1438 36.6467C14.1527 36.6316 14.1638 36.6214 14.1664 36.6108C14.1687 36.5982 14.1607 36.5923 14.1438 36.5845L13.6994 36.4556ZM14.9065 36.1463C14.7096 36.1039 14.6608 36.1573 14.5244 36.3449L13.8123 37.319C13.6933 37.4816 13.6623 37.5247 13.6126 37.6108L13.4837 37.5715C13.4937 37.4909 13.4837 37.3367 13.4753 37.2479L13.3242 35.8873C13.3073 35.7037 13.2962 35.6713 13.0933 35.6152L13.1233 35.5055L13.9494 35.7505L13.9194 35.8548C13.6757 35.794 13.6486 35.8134 13.6323 35.877C13.6183 35.9286 13.6463 36.241 13.6506 36.2728C13.6553 36.2871 13.6657 36.2964 13.677 36.3032C13.7383 36.3275 13.8583 36.3688 14.0987 36.4385C14.2534 36.484 14.2631 36.4737 14.2987 36.4297C14.3995 36.2916 14.4739 36.1679 14.4815 36.145C14.5031 36.0646 14.4799 36.0414 14.2548 35.9542L14.2864 35.8469L14.9332 36.0414L14.9065 36.1463Z" fill="#15223B"/>
<path fill-rule="evenodd" clip-rule="evenodd" d="M12.1802 36.231C12.1946 36.1866 12.1946 36.1716 12.0513 36.1083C11.7089 35.9617 11.5592 36.1387 11.5065 36.2758C11.4272 36.4733 11.5177 36.6723 11.7629 36.7806C11.9246 36.8473 11.9358 36.8469 11.9609 36.784L12.1802 36.231ZM13.0355 35.5895C12.7994 35.5099 12.7851 35.5112 12.7527 35.5741C12.706 35.6514 12.6347 35.8441 12.4874 36.2187C12.3379 36.5971 12.2634 36.7888 12.241 36.8766C12.2203 36.9453 12.2326 36.959 12.4503 37.0752L12.4099 37.1777L11.5485 36.8097C11.3692 36.7317 11.2868 36.6665 11.2237 36.5598C11.1564 36.4556 11.1461 36.3243 11.2057 36.1791C11.3421 35.8226 11.7405 35.9186 11.7482 35.8981C11.7522 35.8872 11.7522 35.8653 11.7418 35.8253L11.5761 35.1462C11.5361 34.9719 11.5192 34.9412 11.4121 34.8933L11.4492 34.7908L11.8329 34.9565L12.0319 35.9292C12.0413 35.9617 12.0542 35.974 12.1506 36.0119C12.241 36.0512 12.2486 36.053 12.2586 36.0287C12.4299 35.5929 12.4554 35.5246 12.4727 35.4535C12.4939 35.3872 12.4834 35.3708 12.2634 35.258L12.3046 35.1551L13.0771 35.4856L13.0355 35.5895Z" fill="#15223B"/>
<path fill-rule="evenodd" clip-rule="evenodd" d="M11.2627 34.8014C11.015 34.6859 10.9984 34.6859 10.9567 34.745C10.9303 34.7908 10.8847 34.8704 10.8163 35.0058L10.2835 36.0745L10.539 36.215C10.6146 36.2567 10.681 36.2061 10.9043 35.986L10.9984 36.0653C10.9303 36.1456 10.8503 36.2669 10.7363 36.4795C10.695 36.447 10.6575 36.4211 10.613 36.39C10.5735 36.3626 10.5335 36.3336 10.4879 36.3137L9.71972 35.8975C9.6268 35.8479 9.53641 35.8113 9.44678 35.7785C9.54481 35.5605 9.59569 35.4224 9.62172 35.3185L9.73572 35.3499C9.69247 35.6705 9.69044 35.7566 9.76739 35.799L10.0229 35.9361L10.559 34.8667C10.6259 34.7296 10.6635 34.6448 10.6846 34.5953C10.7035 34.5262 10.695 34.5136 10.4655 34.3677L10.5139 34.2692L11.312 34.7005L11.2627 34.8014Z" fill="#15223B"/>
<path fill-rule="evenodd" clip-rule="evenodd" d="M10.1125 34.2012C9.87887 34.0559 9.86339 34.0559 9.81648 34.1065C9.7614 34.1759 9.64773 34.3502 9.42843 34.6827C9.20929 35.0163 9.09726 35.1906 9.05398 35.2689C9.02526 35.3359 9.03071 35.3492 9.24529 35.5245L9.18565 35.6151L8.62826 35.2183C8.63226 35.2019 8.64918 35.1718 8.65718 35.1462L9.01634 33.7507L9.01126 33.7469L7.82177 34.6448L7.27002 34.2535L7.33366 34.1591C7.56771 34.3054 7.58171 34.3085 7.62735 34.2535C7.68171 34.1844 7.79938 34.0098 8.01579 33.6745C8.23546 33.343 8.35185 33.1683 8.38912 33.088C8.4246 33.0261 8.4162 33.0108 8.20182 32.8347L8.25785 32.7421L8.98271 33.2589L8.92432 33.3508C8.69718 33.2124 8.67518 33.2124 8.64154 33.2657L7.85377 34.4684V34.4688L9.08398 33.5443C9.11926 33.5169 9.15329 33.4927 9.19037 33.4585L9.34532 33.5696C9.33604 33.5928 9.31932 33.6335 9.30876 33.6765L8.91196 35.2221L8.91323 35.2268L9.57482 34.2217C9.61881 34.1557 9.67009 34.0508 9.68776 34.0125C9.71684 33.9489 9.71209 33.9363 9.5217 33.777L9.58134 33.6865L10.1769 34.1065L10.1125 34.2012Z" fill="#15223B"/>
<path fill-rule="evenodd" clip-rule="evenodd" d="M8.17604 32.7853C7.99037 32.6366 7.97438 32.6366 7.9233 32.6831C7.85523 32.7422 7.72724 32.9018 7.47282 33.2074C7.21477 33.5143 7.08221 33.6718 7.03346 33.7436C6.99618 33.8044 6.9991 33.8167 7.16549 33.9924L7.09185 34.0758L6.38063 33.4247C6.27169 33.3311 6.15405 33.2426 6.06494 33.1845C6.14605 33.087 6.31336 32.8427 6.34572 32.7788L6.43899 32.8348C6.27857 33.1414 6.29733 33.2043 6.56138 33.4459L6.73105 33.6001C6.75577 33.6206 6.77216 33.6182 6.79944 33.5919L7.17477 33.1431C7.19713 33.1161 7.19988 33.1007 7.14021 33.0518L7.09185 33.0037C6.88616 32.8153 6.84308 32.8372 6.70905 32.9585L6.62374 32.8837C6.68177 32.8211 6.73505 32.7648 6.81744 32.6656C6.88616 32.5877 6.95546 32.493 6.9991 32.4366L7.08618 32.5135C6.9751 32.6677 6.97182 32.7231 7.12149 32.8577L7.2488 32.9797C7.2728 32.9975 7.29224 33.0037 7.31479 32.9743L7.73596 32.4729C7.76088 32.4486 7.75596 32.4243 7.73484 32.4008L7.40915 32.1096C7.25876 31.9694 7.18113 31.9787 7.03582 32.073L6.88616 32.1752L6.81613 32.0655C6.92943 31.9787 7.10821 31.8139 7.18713 31.7322L8.24732 32.7005L8.17604 32.7853Z" fill="#15223B"/>
<path fill-rule="evenodd" clip-rule="evenodd" d="M6.972 31.6898C6.79486 31.5183 6.77922 31.5142 6.72398 31.5552C6.65519 31.6102 6.50553 31.7521 6.21987 32.0282C5.93709 32.303 5.7867 32.4472 5.73267 32.5152C5.68579 32.5692 5.69175 32.5884 5.84306 32.7852L5.76615 32.8577L5.4117 32.464C5.42462 32.4329 5.43173 32.3843 5.44409 32.3259L5.75415 30.9079L5.75142 30.9055L5.46537 31.1816C5.18204 31.4578 5.03401 31.5982 4.97726 31.6687C4.93362 31.7227 4.93526 31.7445 5.10932 31.9605L5.03054 32.0361L4.5459 31.495L4.62517 31.4185C4.78395 31.5962 4.80995 31.6024 4.91398 31.5142C5.01765 31.4209 5.13528 31.3129 5.23603 31.2196C5.59264 30.8709 5.89145 30.5774 6.02673 30.4215L6.15111 30.5623C6.07712 30.7811 6.0302 30.9547 5.98473 31.1919L5.75667 32.2845L5.75975 32.2873L6.1302 31.9291C6.41589 31.6543 6.56228 31.5142 6.62231 31.4421C6.66431 31.385 6.66159 31.3703 6.46481 31.1228L6.54556 31.0483L7.04967 31.6157L6.972 31.6898Z" fill="#15223B"/>
<path fill-rule="evenodd" clip-rule="evenodd" d="M5.4928 29.9608C5.31421 29.7431 5.30149 29.7393 5.24182 29.7725C5.19674 29.8008 5.12307 29.8525 5.00544 29.9444L4.07761 30.6707L4.24999 30.9096C4.30094 30.9803 4.38094 30.9653 4.67811 30.8699L4.7281 30.9803C4.63299 31.0247 4.50972 31.0996 4.3193 31.2336C4.29255 31.1898 4.27091 31.1416 4.24655 31.0996C4.21963 31.0579 4.19163 31.0121 4.16255 30.9725L3.64752 30.2534C3.58041 30.1628 3.5155 30.0886 3.44678 30.0216C3.6288 29.8699 3.7348 29.7673 3.79955 29.6881L3.88594 29.7673C3.71283 30.0391 3.67919 30.1102 3.72847 30.1853L3.90122 30.4246L4.83013 29.7014C4.94669 29.6091 5.0158 29.5476 5.05416 29.5148C5.10271 29.4632 5.10271 29.4481 4.95213 29.209L5.03908 29.1434L5.57679 29.8911L5.4928 29.9608Z" fill="#15223B"/>
<path fill-rule="evenodd" clip-rule="evenodd" d="M3.86184 27.2988C3.73946 27.0516 3.40176 26.9648 2.92657 27.2287C2.45249 27.4903 2.33118 27.8259 2.45757 28.0761C2.58324 28.3214 2.91824 28.4071 3.3934 28.1455C3.86948 27.8858 3.98876 27.5461 3.86184 27.2988ZM2.35157 28.1334C2.1328 27.7038 2.2901 27.1935 2.77454 26.9296C3.25901 26.6612 3.75145 26.8105 3.97115 27.2374C4.18754 27.6681 4.02787 28.18 3.54632 28.45C3.06171 28.7134 2.56521 28.5618 2.35157 28.1334Z" fill="#15223B"/>
<path fill-rule="evenodd" clip-rule="evenodd" d="M3.38616 26.3851C3.28344 26.1667 3.27488 26.1592 3.20613 26.1777C3.12213 26.1971 2.9368 26.279 2.57838 26.4318C2.21469 26.5815 2.03067 26.6612 1.95156 26.7078C1.89061 26.7411 1.88953 26.7536 1.95864 26.9865L1.86517 27.0259L1.50856 26.1137C1.45453 25.9749 1.38545 25.8392 1.33545 25.7474C1.44345 25.6996 1.70314 25.5616 1.75986 25.5176L1.81789 25.6113C1.5422 25.8107 1.53111 25.874 1.66386 26.2122L1.74661 26.4318C1.75861 26.4602 1.77789 26.4685 1.81225 26.4553L2.34233 26.2331C2.37033 26.2194 2.38072 26.2069 2.35272 26.1375L2.32633 26.0655C2.22397 25.8058 2.17866 25.8058 2.00519 25.8505L1.96264 25.7428C2.03919 25.7121 2.11467 25.6867 2.22558 25.6386C2.32561 25.5984 2.42524 25.5548 2.48875 25.5244L2.53203 25.6317C2.36761 25.7152 2.34233 25.766 2.41236 25.9536L2.48036 26.1209C2.48875 26.1508 2.50475 26.1633 2.5413 26.1485L3.10338 25.91C3.16777 25.8858 3.16577 25.8623 3.07738 25.5829L3.17413 25.5423L3.48782 26.3408L3.38616 26.3851Z" fill="#15223B"/>
<path fill-rule="evenodd" clip-rule="evenodd" d="M2.58501 24.1906C2.51026 23.9312 2.49698 23.9217 2.42735 23.9293C2.34571 23.9392 2.14821 23.987 1.76924 24.0787C1.38913 24.1712 1.19802 24.2212 1.11402 24.2497C1.04947 24.2751 1.04307 24.2914 1.09035 24.5564L0.980354 24.5799L0.783051 23.6992L0.887965 23.6707C0.962716 23.9293 0.972715 23.943 1.04307 23.9312C1.0931 23.9293 1.24149 23.8948 1.36004 23.8675L1.52155 23.8285C1.59646 23.8091 1.60118 23.8008 1.58718 23.7329L1.4368 23.0615C1.42152 22.9962 1.4088 22.9925 1.33805 23.0091L1.17346 23.0467C1.05871 23.0793 0.912357 23.116 0.863965 23.132C0.794689 23.1596 0.793411 23.1744 0.833967 23.4391L0.732692 23.4649L0.530273 22.5848L0.637941 22.5557C0.713381 22.8116 0.722659 22.829 0.78869 22.8173C0.878326 22.8082 1.07474 22.7581 1.45207 22.6683C1.83052 22.5746 2.02563 22.528 2.10821 22.4962C2.17329 22.4707 2.17765 22.4556 2.13621 22.1913L2.23968 22.1659L2.43663 23.0501L2.33296 23.077C2.25732 22.8173 2.24896 22.8048 2.18093 22.8142C2.10821 22.8203 1.90819 22.8677 1.6201 22.9401C1.54882 22.9568 1.54046 22.9659 1.5561 23.0326L1.70649 23.7041C1.72049 23.7716 1.73085 23.7777 1.80488 23.7598C2.08926 23.6912 2.28896 23.6385 2.35696 23.6131C2.42259 23.5881 2.42735 23.5699 2.38427 23.3049L2.49171 23.2802L2.68868 24.1678L2.58501 24.1906Z" fill="#15223B"/>
<path fill-rule="evenodd" clip-rule="evenodd" d="M2.13478 22.1053C2.08714 21.8649 2.07914 21.8558 2.00875 21.8558C1.92111 21.8585 1.72305 21.8801 1.33736 21.9267C0.95128 21.9775 0.750501 21.9999 0.667783 22.0234C0.601228 22.039 0.592867 22.0503 0.606113 22.2964L0.497199 22.3097L0.383728 21.3315C0.36845 21.1817 0.335172 21.0323 0.310059 20.9315C0.428447 20.911 0.712502 20.85 0.7785 20.8264L0.81017 20.9315C0.494117 21.0471 0.465725 21.1017 0.509756 21.4657L0.534837 21.7023C0.538837 21.7345 0.558115 21.747 0.592867 21.744L1.16134 21.6708C1.1973 21.6663 1.20425 21.6602 1.1973 21.5825L1.18822 21.5112C1.15586 21.2295 1.10895 21.2128 0.928559 21.2098L0.917281 21.0994C1.00056 21.0881 1.07659 21.085 1.20058 21.0683C1.30061 21.057 1.41428 21.0376 1.48303 21.024L1.49339 21.1408C1.31425 21.1817 1.27625 21.2234 1.29936 21.4228L1.32064 21.603C1.32461 21.6359 1.33589 21.6484 1.37136 21.6469L2.00403 21.5658C2.0375 21.562 2.05278 21.5465 2.05078 21.5134L2.00075 21.0683C1.97511 20.8605 1.91547 20.8147 1.74305 20.7798L1.56539 20.7472L1.58394 20.6213C1.72305 20.6376 1.96147 20.6414 2.07347 20.6308L2.23953 22.0875L2.13478 22.1053Z" fill="#15223B"/>
<path fill-rule="evenodd" clip-rule="evenodd" d="M1.30867 19.3886C1.30867 19.3656 1.30231 19.3565 1.29667 19.3565C1.28139 19.3565 1.25539 19.3673 1.23903 19.3732L0.616926 19.6331L1.26303 19.8841C1.27995 19.8912 1.29667 19.895 1.30595 19.895C1.31431 19.895 1.31742 19.8813 1.31742 19.8646L1.30867 19.3886ZM1.94153 20.4985C1.92406 20.2956 1.86442 20.2607 1.64672 20.1769L0.552535 19.7469C0.36687 19.6739 0.319232 19.6519 0.225203 19.6284L0.224121 19.49C0.299758 19.4792 0.438146 19.4257 0.518897 19.3886L1.72711 18.847C1.88753 18.7785 1.91678 18.7594 1.91206 18.5391L2.01753 18.5383L2.03117 19.4324H1.92406C1.91206 19.1696 1.88642 19.1505 1.82242 19.1505C1.77003 19.1505 1.49345 19.2682 1.46634 19.2864C1.4527 19.2953 1.44598 19.304 1.44234 19.3198C1.4387 19.3841 1.4367 19.5171 1.4387 19.7827C1.44234 19.9471 1.45506 19.9543 1.50869 19.9763C1.66275 20.0389 1.79914 20.0757 1.82242 20.0757C1.89806 20.0723 1.91678 20.0454 1.93117 19.7966L2.03517 19.7945L2.0492 20.4958L1.94153 20.4985Z" fill="#15223B"/>
<path fill-rule="evenodd" clip-rule="evenodd" d="M1.92323 18.4758C1.92323 18.225 1.92015 18.2083 1.8496 18.1988C1.76721 18.1822 1.56646 18.1655 1.18002 18.1266C0.794326 18.0915 0.593023 18.0741 0.504272 18.0762C0.435881 18.0762 0.427881 18.0915 0.389325 18.3368L0.279297 18.3272L0.352245 17.4894L0.45588 17.4968C0.454962 17.7492 0.460241 17.7626 0.530271 17.7763C0.583908 17.7871 0.731935 17.8026 0.850324 17.8163L1.84852 17.9055C1.93691 17.9118 1.95563 17.8881 1.96526 17.8106L1.98654 17.5107C2.0089 17.258 1.93818 17.2108 1.6021 17.0339L1.64557 16.9188C1.73085 16.9581 2.02562 17.0223 2.14893 17.0384L2.02966 18.4821L1.92323 18.4758Z" fill="#15223B"/>
<path fill-rule="evenodd" clip-rule="evenodd" d="M2.08709 16.7499C2.11509 16.4676 2.11234 16.4545 2.04306 16.4326C1.9947 16.4166 1.90799 16.3962 1.76301 16.3691L0.619739 16.1639L0.576069 16.4617C0.558069 16.5522 0.622821 16.5998 0.893204 16.7554L0.850484 16.8726C0.756095 16.8325 0.6181 16.7909 0.394043 16.7399C0.407682 16.6894 0.422042 16.6415 0.433123 16.589C0.447123 16.5406 0.45568 16.4906 0.466073 16.4413L0.611182 15.5526C0.630821 15.4428 0.639181 15.3406 0.639181 15.2468C0.863763 15.278 1.0109 15.2843 1.11018 15.2811L1.11818 15.4036C0.812125 15.4595 0.733735 15.4786 0.718096 15.5671L0.66918 15.8661L1.81264 16.0726C1.95543 16.0976 2.04542 16.1076 2.09545 16.1093C2.16401 16.1143 2.17673 16.1006 2.23948 15.8261L2.34479 15.8445L2.18804 16.767L2.08709 16.7499Z" fill="#15223B"/>
<path fill-rule="evenodd" clip-rule="evenodd" d="M2.28108 15.4984C2.33307 15.2373 2.33111 15.218 2.26744 15.1909C2.18577 15.156 1.99302 15.0992 1.62022 14.9865C1.24453 14.8791 1.05211 14.8218 0.968111 14.8057C0.897196 14.7947 0.887196 14.8072 0.798445 15.0605L0.696777 15.0282L0.933555 14.1583L1.03647 14.1875C0.98411 14.4495 0.988864 14.4679 1.05211 14.4936C1.10086 14.5153 1.24453 14.5621 1.36055 14.5972L1.52166 14.6455C1.58894 14.6654 1.6013 14.6612 1.62169 14.5955L1.80172 13.9331C1.81624 13.8656 1.81296 13.8555 1.74024 13.8351L1.5753 13.7871C1.46567 13.7513 1.31856 13.7162 1.26689 13.7029C1.19813 13.6912 1.18417 13.7067 1.09814 13.9591L0.99611 13.9272L1.23325 13.0555L1.33616 13.0848C1.28489 13.3505 1.28725 13.3651 1.35092 13.3922C1.43419 13.4256 1.62569 13.4827 1.99902 13.5949C2.37383 13.7029 2.56441 13.76 2.65241 13.7767C2.71952 13.7871 2.72916 13.7767 2.81883 13.5236L2.92118 13.5511L2.68588 14.4277L2.57949 14.3964C2.63385 14.1357 2.62913 14.1162 2.56546 14.0908C2.5011 14.0607 2.30308 13.9998 2.02102 13.916C1.94938 13.8965 1.9383 13.9039 1.91935 13.9627L1.73861 14.6292C1.72061 14.6934 1.72825 14.705 1.80172 14.7276C2.08305 14.8089 2.28108 14.8641 2.35183 14.8791C2.41874 14.8906 2.43038 14.8756 2.51949 14.6254L2.61877 14.6546L2.38183 15.5276L2.28108 15.4984Z" fill="#15223B"/>
<path fill-rule="evenodd" clip-rule="evenodd" d="M3.41712 11.9804C3.4584 11.8987 3.46404 11.7865 3.44076 11.6572C3.22706 11.7163 2.7899 11.7527 2.5886 11.7535C2.59296 11.9454 2.64695 12.0667 2.80665 12.1455C2.98429 12.2345 3.31273 12.2157 3.41712 11.9804ZM2.48732 11.4974C2.49985 11.3601 2.3989 11.2475 2.30654 11.2037C2.21979 11.16 2.08976 11.155 2.03776 11.2672C2.00413 11.3465 2.02449 11.4449 2.14488 11.5025C2.21018 11.5383 2.32893 11.5512 2.48732 11.4974ZM3.92484 10.9448C3.94848 11.1096 3.94084 11.261 3.88556 11.3761C3.83209 11.4936 3.73918 11.5558 3.55204 11.6234C3.59915 11.8001 3.60551 11.985 3.5164 12.1814C3.36876 12.5084 3.05796 12.5751 2.82334 12.4563C2.60424 12.3471 2.49588 12.1455 2.48585 11.7668C2.21782 11.7893 2.12615 11.7819 2.04321 11.741C1.89374 11.6652 1.80118 11.4974 1.91974 11.2339C2.02177 11.0083 2.18523 10.9031 2.37582 10.9994C2.56024 11.0928 2.59496 11.2864 2.5886 11.48C2.85829 11.4633 3.11307 11.439 3.36876 11.3994C3.31273 11.2475 3.2047 11.09 3.12507 11.0521C3.05796 11.0178 3.01029 11.0411 2.95229 11.1404L2.85829 11.0917L3.10395 10.5448L3.2047 10.5916C3.14631 10.7171 3.15231 10.831 3.26634 10.9819C3.32401 11.0566 3.41001 11.198 3.48276 11.3702C3.69206 11.3222 3.74881 11.2951 3.79517 11.1947C3.83081 11.12 3.83209 11.022 3.81881 10.8885L3.92484 10.9448Z" fill="#15223B"/>
<path fill-rule="evenodd" clip-rule="evenodd" d="M4.34892 10.1625C4.48422 9.93268 4.48531 9.91638 4.43295 9.86597C4.36856 9.80722 4.20489 9.68872 3.88408 9.45686C3.5695 9.22237 3.40236 9.1035 3.32873 9.06105C3.26634 9.02465 3.24942 9.03261 3.09031 9.24205L3.00195 9.17688L3.50111 8.43508L3.58714 8.49708C3.45439 8.72911 3.45203 8.7473 3.50311 8.79412C3.54639 8.83127 3.6655 8.92454 3.76645 8.99679L3.90012 9.09478C3.95615 9.13685 3.97283 9.13685 4.01214 9.08436L4.39219 8.52056C4.42731 8.46218 4.42655 8.45176 4.3622 8.40627L4.22361 8.30483C4.12889 8.23183 4.00323 8.15014 3.95483 8.11962C3.8952 8.08965 3.88048 8.09628 3.71806 8.30274L3.63278 8.24057L4.12889 7.49878L4.21925 7.55924C4.0865 7.78898 4.0865 7.80737 4.1345 7.85327C4.19925 7.91582 4.3622 8.03414 4.68497 8.26693C5.00066 8.50046 5.16505 8.61971 5.24108 8.66311C5.30308 8.69992 5.31783 8.691 5.47841 8.48002L5.56785 8.54424L5.06977 9.28795L4.97902 9.2237C5.11233 8.99601 5.11705 8.97516 5.06505 8.93042C5.0083 8.88452 4.84172 8.75659 4.59894 8.58105C4.54094 8.53461 4.5273 8.53556 4.49094 8.59185L4.11086 9.15698C4.07358 9.21194 4.07722 9.2237 4.14014 9.26823C4.37967 9.44644 4.55058 9.56568 4.61133 9.60191C4.67169 9.63489 4.68897 9.62823 4.85231 9.418L4.93503 9.48434L4.43567 10.2267L4.34892 10.1625Z" fill="#15223B"/>
<path fill-rule="evenodd" clip-rule="evenodd" d="M4.3208 7.24998L4.90563 6.57853L4.98402 6.65112C4.82488 6.86213 4.81996 6.87803 4.86324 6.93644C4.92363 7.00069 5.07002 7.14249 5.54246 7.58458C5.69212 7.72543 5.96254 7.89605 6.22515 7.59921C6.51993 7.25549 6.3959 7.0591 6.0131 6.6949C5.70704 6.40678 5.55738 6.26915 5.48646 6.21453C5.4321 6.17567 5.41646 6.17738 5.22041 6.37794L5.14201 6.30005L5.62649 5.74438L5.70704 5.8138C5.54738 6.02649 5.54246 6.04467 5.5881 6.10059C5.64741 6.16412 5.79615 6.30497 6.19948 6.68831C6.49265 6.96145 6.72923 7.26041 6.30023 7.75387C6.03746 8.05911 5.69104 8.13133 5.34243 7.80356C4.87688 7.36677 4.72833 7.22667 4.65757 7.17585C4.59954 7.13282 4.58682 7.13795 4.39988 7.32391L4.3208 7.24998Z" fill="#15223B"/>
<path fill-rule="evenodd" clip-rule="evenodd" d="M6.81548 6.90803C7.01351 6.70952 7.01515 6.69326 6.97875 6.63447C6.92948 6.55692 6.80145 6.39714 6.5467 6.09398C6.29101 5.78536 6.16173 5.62691 6.0957 5.56641C6.04407 5.51675 6.03007 5.51976 5.81293 5.69079L5.74365 5.60681L6.25737 5.14384C6.27009 5.15768 6.29265 5.17723 6.31665 5.19278L7.51631 5.9154L7.5229 5.91089L6.99751 4.47997L7.50086 4.02954L7.57162 4.11331C7.37759 4.31182 7.36795 4.3302 7.40995 4.38895C7.45831 4.46251 7.58834 4.62007 7.84039 4.92965C8.09697 5.23523 8.227 5.3958 8.29375 5.45626C8.34175 5.50671 8.35647 5.50383 8.57705 5.32908L8.6458 5.41419L7.98242 6.00984L7.91039 5.92641C8.09897 5.73286 8.10337 5.71105 8.06445 5.66273L7.15517 4.55636L7.14881 4.56299L7.69292 6.03352C7.70764 6.07655 7.72164 6.12283 7.74492 6.16415L7.60125 6.2942C7.58234 6.27506 7.54526 6.25325 7.50959 6.23086L6.18137 5.43086L6.1741 5.43579L6.93584 6.35466C6.98915 6.4197 7.0719 6.49855 7.10081 6.52565C7.15517 6.5723 7.16553 6.56871 7.36231 6.4197L7.43231 6.50025L6.88823 6.98992L6.81548 6.90803Z" fill="#15223B"/>
<path fill-rule="evenodd" clip-rule="evenodd" d="M9.25779 4.1133C9.27615 4.09966 9.2789 4.08869 9.27415 4.08127C9.26851 4.07163 9.24287 4.05492 9.23251 4.04337L8.68932 3.62992L8.82646 4.33644C8.83282 4.35483 8.8341 4.36734 8.84046 4.37739C8.84538 4.38689 8.8621 4.38193 8.87138 4.3723L9.25779 4.1133ZM8.68932 5.25986C8.84538 5.13644 8.84046 5.06385 8.79574 4.83028L8.56132 3.63255C8.52401 3.43104 8.51237 3.37967 8.48438 3.27956L8.59204 3.21039C8.64932 3.27122 8.76279 3.36299 8.83374 3.41265L9.91593 4.19218C10.0596 4.29816 10.0903 4.31276 10.266 4.19047L10.324 4.28395L9.60587 4.7719L9.54496 4.67521C9.75423 4.52507 9.75823 4.49493 9.71987 4.43901C9.69623 4.39369 9.45021 4.21173 9.42185 4.19218C9.40785 4.18801 9.39781 4.18801 9.38293 4.19426C9.32946 4.22632 9.21743 4.29153 9.00445 4.43542C8.87138 4.52336 8.87334 4.54175 8.88134 4.60163C8.9181 4.7719 8.95173 4.90745 8.97009 4.93076C9.0114 4.99789 9.04376 4.99789 9.25287 4.87368L9.3109 4.97287L8.74607 5.352L8.68932 5.25986Z" fill="#15223B"/>
<path fill-rule="evenodd" clip-rule="evenodd" d="M10.3414 4.14915C10.5522 4.01986 10.5622 4.00451 10.5342 3.93739C10.5065 3.85362 10.4165 3.66595 10.2428 3.30178C10.0724 2.93967 9.98204 2.75296 9.9324 2.67616C9.89677 2.61495 9.87877 2.61495 9.65727 2.71085L9.61035 2.61153L10.0754 2.37211C10.1013 2.38876 10.1433 2.41343 10.1901 2.44433L11.4063 3.15373L11.412 3.15294L11.2383 2.78802C11.0655 2.42591 10.9759 2.23899 10.9266 2.16185C10.893 2.09985 10.8758 2.09985 10.6221 2.20984L10.5745 2.11144L11.2123 1.78156L11.259 1.87995C11.0486 1.98878 11.0375 2.01437 11.091 2.14651C11.1446 2.2703 11.2083 2.42136 11.2683 2.54724C11.4867 3.0028 11.6697 3.3848 11.778 3.56584L11.612 3.64923C11.4343 3.50897 11.285 3.41645 11.0799 3.30633L10.1397 2.76376L10.1348 2.76926L10.3618 3.24262C10.5342 3.60337 10.6249 3.79312 10.6705 3.86934C10.7082 3.92942 10.7245 3.92942 11.0059 3.80509L11.0526 3.90403L10.3869 4.24772L10.3414 4.14915Z" fill="#15223B"/>
<path fill-rule="evenodd" clip-rule="evenodd" d="M12.9758 2.38634C13.1411 2.66027 13.3308 2.82084 13.5872 2.73837C13.8529 2.6546 13.9376 2.45138 13.8916 2.2946C13.8433 2.12816 13.7049 2.11148 13.5156 2.10556L13.3092 2.09989C12.8371 2.09309 12.7418 1.95091 12.6838 1.75528C12.5887 1.43052 12.7811 1.13269 13.1508 1.01382C13.3345 0.951654 13.5008 0.932104 13.6389 0.923218C13.6465 0.951654 13.6565 0.99752 13.6696 1.03505C13.7059 1.15395 13.746 1.27279 13.7956 1.39337L13.6825 1.43052C13.55 1.1344 13.3745 1.07336 13.1424 1.14729C12.9368 1.21516 12.8198 1.40283 12.8638 1.56094C12.8975 1.67185 12.9735 1.72985 13.1704 1.73993L13.6129 1.75733C13.8976 1.76908 14.0386 1.87336 14.1086 2.11148C14.209 2.44816 14.0057 2.73837 13.6152 2.8652C13.4392 2.92153 13.2344 2.90481 13.0628 2.9581C13.0218 2.83089 12.9368 2.60606 12.8695 2.44816L12.9758 2.38634Z" fill="#15223B"/>
<path fill-rule="evenodd" clip-rule="evenodd" d="M14.3657 2.46215C14.5897 2.39544 14.5974 2.38385 14.595 2.31505C14.5877 2.22233 14.5413 2.01856 14.4653 1.62138C14.3877 1.2244 14.3453 1.02005 14.3173 0.934952C14.2949 0.865742 14.2817 0.861197 14.0522 0.890419L14.0312 0.785185L14.9554 0.582887C15.0947 0.552571 15.2358 0.505747 15.3299 0.469177C15.3559 0.593345 15.4428 0.877875 15.4744 0.945752L15.3739 0.983656C15.2358 0.6684 15.1787 0.646389 14.8343 0.722264L14.6123 0.768882C14.5837 0.777222 14.5694 0.793901 14.5783 0.831052L14.6957 1.41211C14.7014 1.44871 14.7094 1.45664 14.7797 1.44509L14.8531 1.4305C15.1214 1.37362 15.1275 1.32622 15.1151 1.13646L15.2227 1.11428C15.2375 1.19693 15.2504 1.28148 15.2731 1.40339C15.2975 1.50917 15.3235 1.62138 15.3391 1.69151L15.2318 1.71732C15.1787 1.53628 15.1387 1.49759 14.9423 1.54216L14.7734 1.57438C14.7437 1.58385 14.7314 1.59807 14.739 1.63276L14.8678 2.28491C14.875 2.3196 14.8931 2.33135 14.9247 2.32302L15.3431 2.23542C15.5439 2.18955 15.5812 2.12526 15.5975 1.94593L15.6135 1.7573L15.7359 1.76414C15.7359 1.91128 15.7492 2.16036 15.7679 2.27127L14.3877 2.57268L14.3657 2.46215Z" fill="#15223B"/>
<path fill-rule="evenodd" clip-rule="evenodd" d="M16.4457 1.12679C16.451 1.17512 16.4593 1.18514 16.6217 1.16979C17.0102 1.13264 17.0635 0.902861 17.0502 0.756922C17.0271 0.540815 16.8547 0.411487 16.579 0.437838C16.3961 0.456054 16.3841 0.466069 16.3906 0.530357L16.4457 1.12679ZM15.9573 2.11443C16.2093 2.07102 16.2233 2.05927 16.2233 1.98725C16.2249 1.89966 16.208 1.68902 16.1673 1.28603C16.13 0.882422 16.1106 0.67633 16.0926 0.585896C16.0769 0.515763 16.0636 0.509509 15.8049 0.517472L15.7939 0.40865L16.761 0.30762C16.9611 0.287695 17.0671 0.304408 17.1775 0.367705C17.2835 0.426867 17.3555 0.534903 17.3715 0.692633C17.4072 1.07331 16.9998 1.18308 16.9998 1.20564C17.0011 1.22229 17.0102 1.23387 17.0411 1.27065L17.5075 1.78649C17.6219 1.91709 17.6532 1.93927 17.7783 1.92755L17.7868 2.03674L17.3588 2.08145L16.7227 1.31785C16.701 1.29433 16.6827 1.29225 16.5734 1.30021C16.4754 1.31272 16.465 1.3173 16.4661 1.34437C16.5117 1.81206 16.523 1.88657 16.535 1.9567C16.5501 2.02799 16.565 2.03462 16.8234 2.02382L16.8321 2.13682L15.9673 2.22363L15.9573 2.11443Z" fill="#15223B"/>
<path fill-rule="evenodd" clip-rule="evenodd" d="M17.4521 0.236351L18.312 0.221757L18.3143 0.332664L18.1959 0.333621C18.0792 0.33779 18.0559 0.375318 18.0559 0.416468C18.0586 0.471255 18.1876 0.810572 18.32 1.16014L18.5116 1.65401L18.7033 1.12395C18.8093 0.823081 18.9361 0.471255 18.9361 0.398627C18.9361 0.326785 18.8961 0.3247 18.6727 0.326785L18.6693 0.214169L19.3471 0.203369L19.3505 0.315233H19.277C19.1621 0.320155 19.1165 0.369439 19.001 0.682986C18.6144 1.7399 18.5723 1.86157 18.534 2.08944H18.3687C18.3443 1.90915 17.9031 0.856473 17.7731 0.57495C17.6695 0.351803 17.6538 0.349343 17.4538 0.346506L17.4521 0.236351Z" fill="#15223B"/>
<path fill-rule="evenodd" clip-rule="evenodd" d="M19.4032 1.95428C19.6754 1.95674 19.6914 1.9509 19.7046 1.8809C19.7195 1.79166 19.7371 1.58386 19.7662 1.18142C19.7992 0.777231 19.8159 0.569294 19.8123 0.476945C19.8103 0.408692 19.7952 0.397721 19.524 0.354486L19.5353 0.243408L20.4341 0.31942L20.4228 0.430327C20.1523 0.426157 20.1349 0.432035 20.125 0.501963C20.1046 0.593355 20.0878 0.799037 20.0589 1.20473C20.0285 1.6085 20.0101 1.81781 20.0148 1.90424C20.0148 1.97762 20.0318 1.9873 20.3 2.02804L20.2944 2.1399L19.3936 2.06594L19.4032 1.95428Z" fill="#15223B"/>
<path fill-rule="evenodd" clip-rule="evenodd" d="M22.0898 2.0047C21.8329 2.26462 21.6005 2.38288 21.2533 2.32754C20.8556 2.25871 20.4706 1.90042 20.5735 1.24773C20.6466 0.770576 21.0067 0.346498 21.6214 0.45115C21.7825 0.478629 21.9909 0.55464 22.1342 0.622517C22.1178 0.764697 22.1142 1.00582 22.1195 1.12681L21.9954 1.13436C21.9554 0.814357 21.8294 0.61722 21.5474 0.569268C21.2347 0.515404 20.9747 0.793885 20.8987 1.28943C20.8179 1.81416 21.044 2.12699 21.3337 2.17398C21.5988 2.21701 21.8161 2.11181 21.9909 1.91502L22.0898 2.0047Z" fill="#15223B"/>
<path fill-rule="evenodd" clip-rule="evenodd" d="M22.1095 2.32302C22.3399 2.37039 22.3527 2.36547 22.3783 2.29834C22.4071 2.21458 22.4651 2.0144 22.5631 1.62139C22.6664 1.2282 22.716 1.02956 22.7311 0.938376C22.7404 0.86691 22.7311 0.856076 22.508 0.774391L22.5367 0.664612L23.4482 0.923201C23.5869 0.963394 23.7339 0.988412 23.8353 0.999964C23.8066 1.12396 23.7569 1.4195 23.7529 1.49247L23.6469 1.48208C23.6618 1.13439 23.6206 1.08585 23.2838 0.991625L23.0652 0.932087C23.0337 0.923201 23.0141 0.934958 23.0057 0.970025L22.8571 1.54558C22.8497 1.57648 22.8504 1.59391 22.9208 1.61305L22.9932 1.63277C23.2538 1.7069 23.2838 1.66766 23.3521 1.49383L23.4609 1.52548C23.4358 1.6085 23.4089 1.68359 23.3798 1.80906C23.3521 1.91128 23.3272 2.02424 23.3125 2.09817L23.2017 2.06973C23.2361 1.87997 23.2172 1.82577 23.0252 1.7757L22.8571 1.72395C22.8308 1.71732 22.8097 1.72395 22.8001 1.7611L22.634 2.40549C22.6276 2.43882 22.634 2.45515 22.6664 2.46479L23.0812 2.58065C23.2769 2.63732 23.3409 2.59145 23.4338 2.44223L23.5272 2.28129L23.6309 2.34879C23.5673 2.47563 23.4752 2.70745 23.4418 2.81515L22.0786 2.43184L22.1095 2.32302Z" fill="#15223B"/>
<path fill-rule="evenodd" clip-rule="evenodd" d="M24.0151 2.37245C23.9828 2.69359 24.0397 2.941 24.2917 3.04111C24.5505 3.14402 24.7362 3.03615 24.7909 2.88262C24.8526 2.72072 24.7509 2.61853 24.6062 2.49474L24.4428 2.35789C24.076 2.05094 24.0837 1.88087 24.1528 1.68732C24.2701 1.36906 24.5985 1.25607 24.9593 1.39825C25.1393 1.46459 25.285 1.55673 25.395 1.63274C25.3866 1.66555 25.3683 1.71067 25.3546 1.74403C25.3123 1.86252 25.281 1.98136 25.243 2.10689L25.1306 2.06516C25.201 1.74573 25.097 1.58725 24.8733 1.50136C24.6678 1.41947 24.4645 1.49039 24.4092 1.65017C24.3712 1.75903 24.3988 1.85244 24.5492 1.98136L24.8882 2.27785C25.105 2.47047 25.1553 2.64071 25.071 2.87675C24.9518 3.21131 24.6212 3.30838 24.2391 3.15864C24.0668 3.0936 23.9144 2.94346 23.7471 2.88054C23.7903 2.752 23.8556 2.52318 23.8947 2.35297L24.0151 2.37245Z" fill="#15223B"/>
<path fill-rule="evenodd" clip-rule="evenodd" d="M26.0458 2.73834C26.1355 2.78119 26.1695 2.89094 26.1264 2.98346C26.0831 3.07485 25.9806 3.11275 25.8937 3.06614C25.8052 3.02365 25.7685 2.91733 25.8141 2.82669C25.8502 2.73246 25.9583 2.69455 26.0458 2.73834Z" fill="#15223B"/>
<path fill-rule="evenodd" clip-rule="evenodd" d="M26.857 2.29285L27.6083 2.74782L27.5522 2.84164C27.3198 2.72585 27.3094 2.72585 27.2637 2.78326C27.2127 2.85681 27.1127 3.03693 26.789 3.60661C26.6926 3.78553 26.5826 4.09966 26.9214 4.30476C27.2987 4.53378 27.4611 4.37151 27.723 3.90402C27.9312 3.53531 28.0306 3.35215 28.0689 3.27122C28.0929 3.20621 28.0873 3.18954 27.8588 3.03102L27.9129 2.93395L28.542 3.31845L28.4856 3.4119C28.2551 3.29378 28.2397 3.29132 28.1968 3.35048C28.144 3.42345 28.043 3.60069 27.7673 4.09207C27.5696 4.44526 27.3367 4.74688 26.789 4.41395C26.4473 4.20755 26.3093 3.86933 26.5442 3.44771C26.8617 2.88337 26.9614 2.70158 26.995 2.61777C27.0263 2.5514 27.0146 2.53889 26.8053 2.38704L26.857 2.29285Z" fill="#15223B"/>
<path fill-rule="evenodd" clip-rule="evenodd" d="M28.2175 4.58046C28.1014 4.87958 28.0939 5.13513 28.306 5.30233C28.5329 5.47089 28.7384 5.42595 28.8325 5.29286C28.9325 5.15352 28.8597 5.02631 28.7515 4.86536L28.6342 4.69058C28.3611 4.28564 28.4115 4.12887 28.5329 3.96075C28.7243 3.68927 29.0705 3.67051 29.3833 3.9103C29.5354 4.0303 29.6535 4.15542 29.7407 4.26312C29.7223 4.28981 29.6922 4.32641 29.6725 4.35485C29.6007 4.45779 29.5354 4.56378 29.4686 4.67465L29.3731 4.60165C29.5243 4.31391 29.4663 4.13003 29.2735 3.98498C29.0951 3.84984 28.882 3.86235 28.7876 3.99373C28.7233 4.08871 28.7233 4.19049 28.8325 4.35485L29.081 4.73819C29.2414 4.98423 29.244 5.16435 29.102 5.36491C28.9037 5.64605 28.5565 5.65115 28.2289 5.40093C28.0781 5.28319 27.9732 5.10386 27.8276 4.99298C27.8998 4.87958 28.026 4.67882 28.1043 4.52338L28.2175 4.58046Z" fill="#15223B"/>
<path fill-rule="evenodd" clip-rule="evenodd" d="M30.1838 6.05302C30.2008 6.07028 30.2097 6.06857 30.2165 6.06553C30.2274 6.05302 30.2372 6.02383 30.2418 6.0119L30.486 5.35825L29.87 5.6773C29.8533 5.68602 29.8402 5.69285 29.833 5.69948C29.828 5.70953 29.831 5.72412 29.8451 5.73284L30.1838 6.05302ZM28.9776 5.77149C29.1297 5.89874 29.1959 5.87464 29.4015 5.77149L30.4526 5.23446C30.6319 5.1389 30.6769 5.11767 30.7598 5.06384L30.8559 5.15636C30.8119 5.22479 30.7552 5.36413 30.7264 5.45132L30.2756 6.74211C30.2146 6.91389 30.2097 6.94137 30.3667 7.09113L30.2969 7.17073L29.6618 6.57228L29.7313 6.48848C29.9261 6.65776 29.9585 6.65776 30.0002 6.60564C30.0326 6.56698 30.1411 6.27504 30.1513 6.24243C30.1539 6.22497 30.15 6.21529 30.1411 6.20166C30.0972 6.152 30.0054 6.05852 29.8208 5.88261C29.7028 5.77149 29.6897 5.77454 29.6385 5.80167C29.4874 5.87786 29.371 5.95144 29.3536 5.97133C29.3025 6.03066 29.3113 6.06269 29.4753 6.2466L29.4015 6.32753L28.9038 5.85417L28.9776 5.77149Z" fill="#15223B"/>
</g>
<defs>
<clipPath id="clip0">
<rect x="0.208984" y="0.172485" width="36.9822" height="38.6551" fill="white"/>
</clipPath>
</defs>
</svg>