<?xml version="1.0" encoding="UTF-8"?>
<svg width="267px" height="208px" viewBox="0 0 267 208" version="1.1" xmlns="http://www.w3.org/2000/svg" xmlns:xlink="http://www.w3.org/1999/xlink">
    <!-- Generator: Sketch 56.3 (81716) - https://sketch.com -->
    <title>SBA-Logo-Horizontal-1Color-White</title>
    <desc>Created with Sketch.</desc>
    <g id="Page-1" stroke="none" stroke-width="1" fill="none" fill-rule="evenodd">
        <g id="SBA-Logo-Horizontal-1Color-White" fill="#15223B" fill-rule="nonzero">
            <polygon id="Path" points="216.7 192 47 192 45.4 192 45.4 190.4 45.4 166.9 30.3 166.9 30.3 207.1 216.7 207.1"></polygon>
            <polygon id="Path" points="30.6 40.6 45.6 40.6 45.6 17.1 45.6 15.4 47.3 15.4 220.7 15.4 222.3 15.4 222.3 17.1 222.3 40.6 237.4 40.6 237.4 0.4 30.6 0.4"></polygon>
            <path d="M18.5,122.3 C18.6,127.5 21.1,137.5 37.6,137.5 C46.5,137.5 56.5,135.3 56.5,125.3 C56.5,118 49.7,116 40.1,113.7 L30.4,111.3 C15.8,107.8 1.7,104.4 1.7,83.7 C1.7,73.2 7.1,54.8 36.5,54.8 C64.2,54.8 71.6,73.6 71.8,85.1 L53.7,85.1 C53.2,80.9 51.7,71 35.2,71 C28,71 19.5,73.7 19.5,82.2 C19.5,89.5 25.3,91.1 29.1,92 L51.1,97.6 C63.4,100.7 74.8,106 74.8,122.8 C74.8,151.1 47.1,153.5 39.2,153.5 C6.2,153.5 0.5,133.8 0.5,122.1 L18.5,122.1 L18.5,122.3 Z" id="Path"></path>
            <path d="M98.6,57.3 L144.3,57.3 C167.3,57.3 173.2,71.7 173.2,81.4 C173.2,94.9 165.6,98.7 161.7,100.6 C173.2,104.9 176.2,114.1 176.2,123.4 C176.2,130.9 173.1,137.9 168.1,142.8 C162.7,148 157.6,151.3 138.4,151.3 L98.6,151.3 L98.6,57.3 L98.6,57.3 Z M117.4,94 L140.4,94 C148.1,94 154.3,91 154.3,83.5 C154.3,75.8 148.8,73.4 139.9,73.4 L117.4,73.4 L117.4,94 Z M117.4,135 L141.5,135 C151.1,135 156.5,130.8 156.5,121.3 C156.5,113.1 149.4,109.9 142.4,109.9 L117.4,109.9 L117.4,135 Z" id="Shape"></path>
            <polygon id="Path" points="237.2 57.2 222.3 57.2 192.5 151.2 211.3 151.2 229.6 89.5 248.2 151.2 267 151.2"></polygon>
            <polygon id="Path" points="237.1 192 222.2 207.1 222.2 151.4 237.1 151.4"></polygon>
        </g>
    </g>
</svg>