<?xml version="1.0" encoding="utf-8"?>
<!-- Generator: Adobe Illustrator 16.0.0, SVG Export Plug-In . SVG Version: 6.00 Build 0)  -->
<!DOCTYPE svg PUBLIC "-//W3C//DTD SVG 1.1//EN" "http://www.w3.org/Graphics/SVG/1.1/DTD/svg11.dtd">
<svg version="1.1" id="Layer_1" xmlns="http://www.w3.org/2000/svg" xmlns:xlink="http://www.w3.org/1999/xlink" x="0px" y="0px"
	 width="230.957px" height="230.957px" viewBox="0 0 230.957 230.957" enable-background="new 0 0 230.957 230.957"
	 xml:space="preserve">
<g>
	<path fill="\#15223B" d="M115.624,32.114c-46.22,0-83.823,37.603-83.823,83.822c0,46.221,37.603,83.823,83.823,83.823
		c46.22,0,83.823-37.603,83.823-83.823S161.844,32.114,115.624,32.114z M58.714,145.789l3.068-0.199l0.757-2.979l1.138,2.854
		l3.067-0.2l-2.363,1.965l1.137,2.854l-2.599-1.642l-2.364,1.965l0.758-2.979L58.714,145.789z M143.195,181.546
		c-20.207,4.82-26.823,14.011-26.887,14.103l-0.459,0.658l-0.388-0.701c-0.058-0.102-4.352-7.299-25.703-14.619
		c-1.288-0.063-14.996-1.178-27.973-20.238l0.406-0.293l11.971-8.648l41.463-29.959l41.756,30.098l12.628,9.102l0.271,0.195
		l0.137,0.098C157.835,180.829,143.79,181.525,143.195,181.546z M74.868,142.532l-2.599-1.644l-2.364,1.967l0.759-2.979
		l-2.599-1.642l3.067-0.199l0.758-2.979l1.138,2.854l3.066-0.199l-2.363,1.964L74.868,142.532z M84.301,136.096l-2.598-1.642
		l-2.364,1.964l0.758-2.979l-2.599-1.642l3.067-0.198l0.759-2.979l1.136,2.854l3.068-0.199l-2.364,1.965L84.301,136.096z
		 M93.288,129.689l-2.599-1.643l-2.364,1.965l0.759-2.979l-2.599-1.641l3.067-0.201l0.758-2.979l1.137,2.854l3.068-0.197
		l-2.364,1.964L93.288,129.689z M101.829,123.311l-2.598-1.642l-2.364,1.964l0.758-2.979l-2.598-1.641l3.067-0.201l0.758-2.979
		l1.137,2.854l3.067-0.197l-2.364,1.964L101.829,123.311z M110.371,116.932l-2.599-1.641l-2.364,1.964l0.759-2.979l-2.599-1.64
		l3.067-0.201l0.758-2.979l1.138,2.856l3.066-0.2l-2.364,1.964L110.371,116.932z M118.495,111.031l-2.599-1.642l-2.363,1.963
		l0.758-2.978l-2.599-1.641l3.067-0.2l0.758-2.979l1.137,2.855l3.066-0.2l-2.363,1.964L118.495,111.031z M126.957,117.197
		l-2.598-1.642l-2.364,1.964l0.758-2.979l-2.599-1.641l3.066-0.201l0.76-2.978l1.137,2.854l3.066-0.199l-2.363,1.963
		L126.957,117.197z M135.866,123.333l-2.599-1.642l-2.365,1.965l0.759-2.979l-2.599-1.642l3.066-0.199l0.76-2.979l1.137,2.855
		l3.066-0.2l-2.363,1.965L135.866,123.333z M144.416,130.837l-2.6-1.642l-2.363,1.965l0.759-2.979l-2.601-1.642l3.068-0.2
		l0.758-2.979l1.138,2.854l3.067-0.2l-2.365,1.965L144.416,130.837z M153.324,136.977l-2.6-1.644l-2.363,1.964l0.759-2.979
		l-2.599-1.639l3.066-0.201l0.758-2.979l1.137,2.856l3.066-0.199l-2.363,1.963L153.324,136.977z M162.232,143.113l-2.6-1.643
		l-2.363,1.965l0.758-2.979l-2.598-1.642l3.065-0.198l0.758-2.979l1.14,2.854l3.064-0.2l-2.361,1.965L162.232,143.113z
		 M171.703,151.004l-2.6-1.643l-2.363,1.966l0.759-2.978l-2.599-1.643l3.064-0.2l0.76-2.979l1.137,2.854l3.068-0.198l-2.365,1.963
		L171.703,151.004z M173.852,83.567l0.012,0.114l2.195,54.801l-60.062-44.248L54.462,138.84l4.046-50.016
		c-0.34-18.095-6.145-20.258-6.203-20.274l-1.658-0.474l26.849-16.18l0.383,0.221c5.806,3.348,11.519,5.044,16.978,5.044
		c12.532,0,19.774-9.019,19.846-9.11l0.511-0.649l0.597,0.571c7.012,6.715,14.388,10.121,21.923,10.121
		c9.442,0,15.816-5.452,15.881-5.507l0.4-0.35l27.328,15.605l-0.64,0.692C172.745,77.147,173.839,83.504,173.852,83.567z"/>
	<path fill="\#15223B" d="M119.378,210.029c0.212-0.438,0.312-0.93,0.3-1.479c-0.016-0.727-0.232-1.293-0.65-1.695
		s-0.98-0.598-1.688-0.582c-0.707,0.017-1.277,0.232-1.712,0.651c-0.435,0.419-0.646,0.901-0.633,1.448
		c0.008,0.361,0.107,0.719,0.299,1.075s0.46,0.692,0.808,1.011l1.734,1.377C118.652,211.068,119.166,210.467,119.378,210.029z"/>
	<path fill="\#15223B" d="M123.613,25.02c1.32,0.119,2.455-0.298,3.408-1.25s1.529-2.537,1.729-4.755
		c0.217-2.405-0.097-4.241-0.937-5.508c-0.674-1.008-1.684-1.572-3.023-1.693c-1.258-0.113-2.309,0.263-3.152,1.127
		c-1.052,1.076-1.679,2.733-1.88,4.972c-0.207,2.294,0.125,4.104,0.995,5.429C121.423,24.349,122.375,24.909,123.613,25.02z"/>
	<path fill="\#15223B" d="M23.815,82.347c0.131-0.255,0.231-0.477,0.3-0.666c0.25-0.677,0.202-1.358-0.141-2.042
		c-0.343-0.684-0.932-1.18-1.765-1.486c-0.573-0.211-1.148-0.29-1.727-0.236c-0.578,0.054-1.068,0.25-1.47,0.59
		c-0.402,0.34-0.704,0.784-0.905,1.331c-0.122,0.332-0.217,0.781-0.285,1.348l5.509,2.027C23.523,82.89,23.685,82.602,23.815,82.347
		z"/>
	<path fill="\#15223B" d="M116.729,213.368c-0.564,0.498-0.979,1.034-1.245,1.612c-0.264,0.578-0.389,1.199-0.375,1.865
		c0.02,0.894,0.279,1.604,0.78,2.129c0.5,0.525,1.126,0.781,1.882,0.765c0.75-0.017,1.344-0.24,1.785-0.673
		c0.44-0.434,0.654-0.95,0.641-1.553c-0.01-0.5-0.151-0.943-0.424-1.332C119.266,215.458,118.25,214.52,116.729,213.368z"/>
	<path fill="\#15223B" d="M36.029,58.641c0.061-0.075,0.11-0.138,0.148-0.188c0.811-1.075,1.188-2.061,1.134-2.957
		s-0.441-1.617-1.162-2.159c-0.704-0.531-1.442-0.742-2.214-0.633c-0.772,0.108-1.432,0.525-1.979,1.251
		c-0.242,0.321-0.518,0.796-0.826,1.424l4.688,3.533C35.897,58.807,35.967,58.717,36.029,58.641z"/>
	<path fill="\#15223B" d="M24.038,113.487c0.244-0.868,0.383-1.601,0.417-2.196c0.091-1.607-0.398-2.973-1.467-4.097
		c-1.069-1.123-2.57-1.74-4.502-1.85c-1.947-0.11-3.511,0.332-4.693,1.328c-1.182,0.997-1.82,2.326-1.915,3.988
		c-0.036,0.624,0.025,1.34,0.181,2.148L24.038,113.487z"/>
	<path fill="\#15223B" d="M128.915,207.818c-0.323-0.744-0.72-1.299-1.187-1.658c-0.467-0.361-0.965-0.51-1.494-0.443
		c-0.612,0.076-1.114,0.417-1.508,1.024c-0.393,0.606-0.521,1.454-0.387,2.541c0.18,1.45,0.626,2.548,1.34,3.291
		c0.521,0.534,1.107,0.764,1.762,0.682c0.315-0.039,0.682-0.159,1.096-0.364c0.415-0.205,0.771-0.467,1.064-0.783
		c0.015-0.908-0.014-1.631-0.08-2.168C129.439,209.271,129.236,208.564,128.915,207.818z"/>
	<path fill="\#15223B" d="M209.426,142.041c-0.031,0.091-0.057,0.167-0.074,0.229c-0.397,1.285-0.42,2.34-0.064,3.166
		c0.355,0.824,0.963,1.371,1.824,1.638c0.843,0.261,1.607,0.208,2.298-0.155s1.17-0.98,1.438-1.85
		c0.117-0.385,0.217-0.924,0.293-1.619l-5.606-1.734C209.495,141.839,209.459,141.948,209.426,142.041z"/>
	<path fill="\#15223B" d="M115.624,5.244C54.588,5.244,4.931,54.9,4.931,115.936c0,61.037,49.657,110.693,110.693,110.693
		c61.037,0,110.692-49.656,110.692-110.693C226.316,54.9,176.661,5.244,115.624,5.244z M220.236,113.462
		c0.013,0.749-0.159,1.547-0.514,2.392c-0.168,0.392-0.25,0.667-0.246,0.826c0.002,0.182,0.06,0.328,0.168,0.44
		c0.109,0.112,0.328,0.2,0.654,0.265l0.006,0.385l-4.88,0.08l-0.007-0.385c0.936-0.141,1.678-0.377,2.227-0.708
		c0.551-0.331,0.982-0.798,1.299-1.4c0.318-0.602,0.472-1.222,0.461-1.86c-0.012-0.721-0.241-1.314-0.69-1.779
		c-0.446-0.465-0.952-0.691-1.515-0.683c-0.432,0.007-0.819,0.162-1.17,0.466c-0.514,0.439-1.189,1.474-2.03,3.104
		c-0.687,1.33-1.215,2.238-1.585,2.728c-0.37,0.487-0.811,0.866-1.318,1.135c-0.51,0.269-1.046,0.407-1.607,0.417
		c-1.067,0.018-1.995-0.383-2.781-1.199c-0.787-0.815-1.191-1.876-1.213-3.182c-0.006-0.408,0.02-0.795,0.074-1.156
		c0.031-0.215,0.15-0.663,0.358-1.344c0.207-0.68,0.31-1.109,0.308-1.289c-0.004-0.174-0.058-0.311-0.162-0.409
		c-0.106-0.099-0.322-0.17-0.649-0.214l-0.007-0.385l4.84-0.078l0.006,0.385c-1.01,0.197-1.764,0.452-2.262,0.766
		s-0.908,0.787-1.23,1.42c-0.324,0.633-0.479,1.324-0.467,2.074c0.014,0.867,0.254,1.548,0.721,2.042
		c0.465,0.496,1.011,0.738,1.636,0.729c0.347-0.006,0.694-0.106,1.047-0.303c0.351-0.197,0.675-0.499,0.974-0.906
		c0.204-0.273,0.635-1.02,1.291-2.238c0.657-1.218,1.184-2.085,1.576-2.602c0.395-0.516,0.832-0.91,1.313-1.182
		c0.48-0.271,1.015-0.412,1.597-0.422c1.015-0.016,1.892,0.358,2.637,1.123C219.834,111.28,220.216,112.262,220.236,113.462z
		 M218.867,98.355l-10.782,6.761c-0.864,0.545-1.412,0.998-1.637,1.362c-0.226,0.364-0.308,0.833-0.246,1.407l-0.382,0.063
		l-0.907-5.493l0.381-0.063c0.119,0.55,0.272,0.91,0.463,1.079c0.19,0.169,0.397,0.235,0.623,0.198
		c0.302-0.051,0.754-0.266,1.358-0.647l1.863-1.173l-0.891-5.391l-2.354-0.582c-0.58-0.144-1.004-0.193-1.271-0.149
		c-0.213,0.035-0.383,0.167-0.51,0.396s-0.16,0.682-0.097,1.361l-0.381,0.063l-0.725-4.385l0.38-0.063
		c0.198,0.565,0.396,0.919,0.587,1.063c0.387,0.294,1.117,0.571,2.194,0.829l12.269,3.004L218.867,98.355z M212.45,78.5
		c0.185-0.325,0.185-0.763,0-1.316l-0.158-0.474l0.365-0.122l3.442,10.317l-2.883,1.126l-0.129-0.385
		c0.658-0.373,1.092-0.688,1.299-0.943s0.324-0.571,0.354-0.946c0.011-0.296-0.096-0.777-0.316-1.441l-1.226-3.672l-5.291,1.766
		l0.981,2.942c0.254,0.763,0.539,1.235,0.855,1.415c0.416,0.241,1.014,0.254,1.79,0.039l0.122,0.365l-4.66,1.555l-0.121-0.365
		c0.62-0.31,1.008-0.542,1.161-0.695c0.19-0.195,0.307-0.45,0.349-0.764c0.041-0.314-0.031-0.75-0.218-1.31l-0.981-2.942
		l-4.412,1.473c-0.594,0.198-0.944,0.344-1.056,0.439c-0.11,0.096-0.183,0.222-0.214,0.379c-0.031,0.157,0.014,0.419,0.137,0.788
		L202.398,88c0.252,0.757,0.488,1.289,0.709,1.596c0.22,0.307,0.535,0.567,0.951,0.78c0.543,0.271,1.299,0.484,2.264,0.638
		l0.133,0.395l-3.742-0.035l-3.441-10.317l0.364-0.122l0.158,0.474c0.104,0.316,0.281,0.59,0.526,0.823
		c0.177,0.175,0.382,0.266,0.617,0.271s0.681-0.101,1.33-0.318l8.698-2.902C211.814,78.998,212.311,78.738,212.45,78.5z
		 M205.299,62.477l-0.242-0.472l0.344-0.176l2.345,4.575c0.685,1.333,1.092,2.367,1.221,3.099c0.132,0.732,0.048,1.453-0.248,2.162
		c-0.295,0.709-0.804,1.249-1.526,1.619c-0.771,0.396-1.57,0.487-2.396,0.275s-1.627-0.786-2.403-1.721l-2.272,4.44
		c-0.522,1.017-0.812,1.808-0.864,2.373s0.059,1.209,0.336,1.933l-0.343,0.175l-1.72-3.353l3.693-7.261
		c-0.175-0.308-0.313-0.562-0.414-0.759c-0.041-0.081-0.084-0.167-0.127-0.262c-0.045-0.095-0.09-0.192-0.135-0.294l-3.648,1.871
		c-0.791,0.405-1.235,0.744-1.34,1.015c-0.15,0.374-0.105,0.795,0.135,1.265l0.252,0.491l-0.344,0.176l-2.759-5.381l0.343-0.176
		l0.242,0.472c0.272,0.531,0.641,0.822,1.104,0.874c0.258,0.031,0.744-0.136,1.462-0.503l8.112-4.16
		c0.789-0.405,1.236-0.743,1.338-1.014C205.59,63.38,205.543,62.952,205.299,62.477z M198.967,54.125l-0.992-1.376
		c-0.385-0.535-0.697-0.886-0.938-1.055c-0.317-0.215-0.703-0.318-1.158-0.307c-0.453,0.011-0.953,0.183-1.5,0.517l-0.229-0.321
		l2.781-1.8l6.735,9.347l-2.593,2.062l-0.231-0.321c0.429-0.403,0.705-0.73,0.83-0.983c0.201-0.41,0.274-0.815,0.222-1.217
		c-0.056-0.402-0.252-0.839-0.594-1.312l-1.162-1.613l-8.746,6.305c-0.703,0.507-1.089,0.899-1.152,1.177
		c-0.082,0.384,0.037,0.799,0.357,1.243l0.284,0.397l-0.313,0.225l-3.498-4.854l0.313-0.225l0.291,0.405
		c0.351,0.484,0.743,0.722,1.183,0.713c0.27-0.006,0.725-0.24,1.367-0.703L198.967,54.125z M182.093,34.74l7.968,7.402l-1.987,2.371
		l-0.298-0.276c0.397-0.643,0.627-1.126,0.687-1.45c0.06-0.324,0.013-0.657-0.144-1c-0.133-0.265-0.457-0.636-0.969-1.113
		l-2.838-2.635l-3.797,4.087l2.273,2.111c0.59,0.547,1.066,0.825,1.43,0.831c0.48,0.011,1.012-0.263,1.59-0.825l0.281,0.262
		l-3.344,3.599l-0.281-0.262c0.396-0.569,0.625-0.958,0.688-1.167c0.072-0.263,0.053-0.542-0.062-0.837
		c-0.115-0.295-0.388-0.644-0.819-1.045l-2.271-2.111l-3.166,3.409c-0.426,0.458-0.663,0.755-0.715,0.892
		c-0.051,0.137-0.055,0.282-0.006,0.435c0.047,0.153,0.213,0.362,0.498,0.626l1.754,1.629c0.584,0.543,1.047,0.896,1.388,1.061
		c0.34,0.165,0.741,0.24,1.208,0.228c0.607-0.022,1.371-0.198,2.293-0.526l0.306,0.283l-3.301,1.764l-7.97-7.402l0.263-0.282
		l0.366,0.34c0.244,0.227,0.529,0.383,0.855,0.469c0.238,0.07,0.463,0.051,0.672-0.058c0.211-0.108,0.549-0.414,1.017-0.917
		l6.239-6.718c0.609-0.656,0.918-1.121,0.929-1.396c0.006-0.374-0.205-0.758-0.632-1.155l-0.366-0.34L182.093,34.74z
		 M167.633,24.611l5.018,3.375l-0.215,0.319l-0.424-0.285c-0.275-0.186-0.582-0.296-0.92-0.33c-0.24-0.028-0.457,0.029-0.652,0.169
		c-0.194,0.141-0.485,0.499-0.873,1.075l-2.254,3.35l5.439,3.66l2.254-3.35c0.402-0.599,0.631-1.018,0.684-1.259
		c0.039-0.182,0.002-0.388-0.112-0.615c-0.154-0.305-0.369-0.55-0.646-0.736l-0.416-0.279l0.215-0.319l5.01,3.37l-0.215,0.319
		l-0.416-0.279c-0.274-0.186-0.582-0.296-0.918-0.33c-0.248-0.032-0.467,0.023-0.657,0.166c-0.192,0.143-0.481,0.502-0.869,1.077
		l-5.084,7.556c-0.397,0.593-0.625,1.01-0.679,1.25c-0.038,0.183-0.004,0.386,0.104,0.609c0.16,0.309,0.38,0.556,0.655,0.742
		l0.415,0.279l-0.216,0.32l-5.008-3.37l0.215-0.319l0.414,0.279c0.479,0.321,0.92,0.415,1.33,0.28
		c0.268-0.087,0.638-0.482,1.109-1.185l2.4-3.566l-5.44-3.66l-2.399,3.566c-0.397,0.593-0.625,1.01-0.678,1.25
		c-0.039,0.183-0.002,0.388,0.112,0.615c0.155,0.305,0.37,0.55,0.646,0.736l0.424,0.285l-0.215,0.32l-5.018-3.376l0.217-0.32
		l0.414,0.279c0.482,0.326,0.93,0.421,1.338,0.286c0.262-0.091,0.629-0.488,1.103-1.19l5.084-7.556
		c0.401-0.599,0.631-1.018,0.684-1.258c0.039-0.183,0.005-0.386-0.104-0.61c-0.16-0.309-0.379-0.556-0.655-0.742l-0.414-0.279
		L167.633,24.611z M150.913,31.825l0.453,0.21c0.542,0.251,1.002,0.266,1.38,0.044c0.23-0.137,0.516-0.564,0.848-1.282l4.539-9.78
		l-1.537-0.714c-0.6-0.277-1.045-0.431-1.337-0.459c-0.383-0.032-0.77,0.067-1.159,0.299c-0.391,0.232-0.742,0.627-1.057,1.186
		l-0.357-0.167l1.545-2.932l10.449,4.851l-1.252,3.067l-0.357-0.167c0.176-0.561,0.256-0.982,0.242-1.264
		c-0.025-0.456-0.16-0.845-0.404-1.168c-0.244-0.323-0.631-0.608-1.158-0.854l-1.805-0.837l-4.538,9.78
		c-0.365,0.787-0.509,1.317-0.429,1.591c0.117,0.375,0.424,0.679,0.92,0.909l0.443,0.206l-0.162,0.349l-5.429-2.519L150.913,31.825z
		 M131.76,25.975l0.486,0.119c0.564,0.139,1.018,0.075,1.354-0.192c0.215-0.176,0.424-0.675,0.625-1.497l2.176-8.854
		c0.17-0.694,0.24-1.163,0.207-1.407c-0.026-0.185-0.129-0.364-0.309-0.536c-0.25-0.233-0.54-0.39-0.869-0.471l-0.486-0.119
		l0.093-0.374l10.198,2.505l-0.608,3.044l-0.354-0.087c-0.019-0.683-0.105-1.203-0.266-1.561c-0.158-0.356-0.393-0.645-0.699-0.863
		c-0.307-0.218-0.816-0.415-1.531-0.591l-3.021-0.742l-1.322,5.387l2.495,0.613c0.572,0.141,1.023,0.118,1.353-0.07
		c0.328-0.187,0.627-0.644,0.898-1.371L142.552,19l-1.14,4.639l-0.374-0.092c0.124-0.534,0.149-0.941,0.08-1.223
		c-0.069-0.282-0.205-0.513-0.407-0.695c-0.202-0.182-0.531-0.329-0.99-0.442l-2.496-0.613l-1.058,4.306
		c-0.171,0.694-0.24,1.163-0.207,1.407c0.026,0.185,0.133,0.365,0.317,0.539c0.257,0.234,0.548,0.392,0.871,0.471l0.494,0.122
		l-0.092,0.374l-5.883-1.445L131.76,25.975z M117.382,17.74c0.201-2.232,1.125-3.984,2.772-5.257
		c1.43-1.104,3.063-1.574,4.902-1.408c1.823,0.164,3.342,1,4.555,2.505c1.213,1.506,1.726,3.295,1.539,5.368
		c-0.192,2.135-1.025,3.847-2.5,5.136s-3.17,1.847-5.084,1.674c-1.935-0.174-3.498-1.008-4.69-2.502
		C117.684,21.762,117.186,19.924,117.382,17.74z M108.646,11.019l0.55,3.268l-0.393,0.047c-0.146-0.569-0.298-0.97-0.459-1.203
		c-0.262-0.374-0.582-0.634-0.959-0.781c-0.377-0.146-0.855-0.186-1.434-0.116l-1.974,0.237l1.288,10.705
		c0.104,0.861,0.261,1.387,0.473,1.579c0.297,0.258,0.717,0.354,1.261,0.288l0.486-0.058l0.046,0.382l-5.941,0.715l-0.046-0.382
		l0.496-0.06c0.593-0.071,0.991-0.301,1.196-0.689c0.125-0.239,0.14-0.751,0.046-1.536l-1.288-10.705l-1.685,0.203
		c-0.654,0.079-1.113,0.183-1.377,0.313c-0.342,0.174-0.619,0.462-0.829,0.865c-0.21,0.402-0.301,0.924-0.273,1.563l-0.393,0.047
		l-0.23-3.306L108.646,11.019z M82.798,16.086l11.198,7.816l-2.23-7.827c-0.237-0.834-0.479-1.328-0.725-1.482
		c-0.327-0.209-0.757-0.239-1.291-0.086l-0.471,0.134l-0.105-0.37l4.725-1.346l0.105,0.37l-0.48,0.137
		c-0.574,0.164-0.932,0.453-1.073,0.869c-0.086,0.255-0.021,0.763,0.196,1.524l3.259,11.44l-0.36,0.103l-12.062-8.381l2.381,8.358
		c0.237,0.834,0.476,1.329,0.715,1.484c0.333,0.208,0.764,0.237,1.291,0.087l0.48-0.137l0.106,0.371l-4.725,1.346l-0.105-0.371
		l0.47-0.134c0.581-0.166,0.942-0.456,1.083-0.871c0.086-0.255,0.021-0.764-0.196-1.524l-2.689-9.438
		c-0.525-0.349-0.91-0.567-1.155-0.656c-0.245-0.089-0.583-0.141-1.013-0.155c-0.21-0.005-0.513,0.049-0.906,0.161l-0.105-0.37
		L82.798,16.086z M75.728,18.666l1.447,2.736l-0.368,0.171c-0.445-0.611-0.807-1.005-1.084-1.182
		c-0.278-0.177-0.604-0.258-0.98-0.244c-0.295,0.023-0.761,0.183-1.396,0.479l-3.509,1.635l2.356,5.056l2.811-1.31
		c0.729-0.34,1.166-0.677,1.309-1.011c0.192-0.441,0.137-1.036-0.165-1.783l0.349-0.163l2.075,4.453l-0.349,0.163
		c-0.378-0.582-0.652-0.94-0.822-1.075c-0.216-0.167-0.482-0.253-0.798-0.259c-0.316-0.005-0.742,0.116-1.276,0.365l-2.812,1.31
		l1.965,4.217c0.264,0.566,0.449,0.898,0.557,0.998c0.107,0.099,0.241,0.156,0.4,0.169c0.159,0.014,0.415-0.062,0.768-0.226
		l2.169-1.011c0.723-0.337,1.225-0.632,1.505-0.885c0.28-0.253,0.502-0.598,0.666-1.034c0.208-0.571,0.334-1.345,0.376-2.322
		l0.377-0.176l0.391,3.722l-9.858,4.594l-0.163-0.349l0.453-0.211c0.302-0.141,0.554-0.346,0.757-0.617
		c0.154-0.194,0.221-0.409,0.199-0.644c-0.021-0.235-0.177-0.664-0.467-1.286l-3.873-8.311c-0.378-0.812-0.693-1.273-0.944-1.386
		c-0.344-0.146-0.78-0.096-1.308,0.15l-0.453,0.211l-0.163-0.35L75.728,18.666z M51.227,32.876l10.541,6.087l-2.232-11.93
		l3.269-2.299l0.221,0.315l-0.4,0.281c-0.494,0.348-0.739,0.741-0.736,1.179c0.003,0.27,0.232,0.728,0.687,1.375l5.304,7.543
		c0.499,0.709,0.89,1.096,1.172,1.16c0.377,0.091,0.793-0.023,1.248-0.343l0.4-0.281l0.222,0.315l-4.903,3.448l-0.222-0.315
		l0.409-0.288c0.494-0.347,0.736-0.738,0.727-1.173c-0.003-0.27-0.231-0.728-0.687-1.375l-5.424-7.713l2.379,12.844l-0.281,0.198
		L51.628,35.33l5.424,7.713c0.499,0.709,0.887,1.098,1.164,1.167c0.377,0.09,0.793-0.024,1.247-0.343l0.409-0.287l0.222,0.315
		l-4.018,2.826l-0.222-0.315l0.409-0.288c0.488-0.343,0.73-0.734,0.727-1.173c-0.003-0.27-0.231-0.728-0.687-1.375l-5.305-7.542
		c-0.359-0.511-0.675-0.84-0.948-0.987c-0.195-0.108-0.438-0.144-0.729-0.104c-0.291,0.039-0.671,0.224-1.143,0.556l-0.221-0.315
		L51.227,32.876z M45.41,37.707l2.459,2.221l-0.279,0.281c-0.467-0.356-0.836-0.576-1.106-0.658
		c-0.438-0.131-0.85-0.137-1.237-0.018c-0.387,0.119-0.786,0.386-1.196,0.799l-1.4,1.411l7.652,7.596
		c0.616,0.611,1.066,0.926,1.35,0.944c0.393,0.018,0.782-0.167,1.168-0.556l0.344-0.347l0.273,0.271l-4.216,4.248l-0.273-0.271
		l0.352-0.354c0.42-0.423,0.591-0.851,0.51-1.282c-0.05-0.265-0.355-0.676-0.917-1.233l-7.652-7.596l-1.195,1.204
		c-0.464,0.468-0.76,0.835-0.886,1.1c-0.161,0.349-0.198,0.747-0.113,1.192c0.085,0.446,0.337,0.912,0.756,1.396l-0.279,0.281
		l-2.231-2.45L45.41,37.707z M31.017,53.887c0.902-1.197,1.654-2.014,2.257-2.45c0.603-0.437,1.287-0.676,2.054-0.72
		c0.767-0.043,1.475,0.179,2.123,0.668c0.693,0.522,1.124,1.201,1.293,2.037s0.002,1.807-0.501,2.913l4.987,0.109
		c1.144,0.028,1.981-0.058,2.513-0.256c0.532-0.198,1.063-0.58,1.593-1.145l0.308,0.231l-2.268,3.009l-8.145-0.157
		c-0.202,0.291-0.37,0.525-0.503,0.703c-0.054,0.072-0.114,0.148-0.179,0.229s-0.134,0.164-0.207,0.248l3.275,2.468
		c0.709,0.535,1.208,0.789,1.497,0.763c0.403-0.026,0.763-0.25,1.08-0.672l0.332-0.44l0.308,0.232l-3.64,4.829l-0.308-0.231
		l0.319-0.424c0.359-0.476,0.461-0.934,0.305-1.373c-0.084-0.246-0.447-0.611-1.09-1.095l-7.28-5.487
		c-0.709-0.535-1.208-0.789-1.497-0.763c-0.407,0.032-0.771,0.262-1.092,0.688l-0.319,0.424l-0.308-0.232L31.017,53.887z
		 M22.609,66.802l12.679,1.09c1.02,0.087,1.729,0.053,2.127-0.103c0.398-0.155,0.747-0.48,1.044-0.975l0.341,0.179l-2.582,4.934
		l-0.341-0.179c0.236-0.511,0.329-0.891,0.279-1.14c-0.05-0.249-0.176-0.427-0.379-0.533c-0.271-0.142-0.762-0.242-1.475-0.302
		l-2.194-0.185l-2.534,4.841l1.53,1.881c0.376,0.463,0.684,0.757,0.924,0.883c0.191,0.1,0.406,0.097,0.645-0.009
		c0.239-0.106,0.538-0.449,0.896-1.029l0.341,0.179l-2.061,3.938l-0.341-0.179c0.181-0.571,0.238-0.972,0.171-1.203
		c-0.131-0.468-0.549-1.128-1.253-1.983l-7.989-9.783L22.609,66.802z M17.245,79.741c0.436-1.185,0.902-2.075,1.397-2.668
		c0.496-0.594,1.12-1.019,1.872-1.274c0.752-0.255,1.525-0.237,2.32,0.055c1.081,0.397,1.829,1.077,2.244,2.04
		s0.383,2.094-0.096,3.396c-0.118,0.319-0.267,0.656-0.449,1.01c-0.182,0.354-0.397,0.727-0.644,1.116l3.858,1.419
		c0.833,0.307,1.385,0.406,1.654,0.298c0.377-0.142,0.658-0.463,0.843-0.965l0.187-0.508l0.361,0.133l-2.088,5.675l-0.361-0.133
		l0.183-0.499c0.206-0.56,0.171-1.027-0.105-1.402c-0.154-0.205-0.608-0.446-1.364-0.724L18.5,83.563
		c-0.833-0.307-1.383-0.409-1.65-0.308c-0.38,0.148-0.663,0.474-0.847,0.975l-0.184,0.498l-0.361-0.133L17.245,79.741z
		 M14.376,88.508l3.054,0.502l-0.086,0.396c-0.756-0.015-1.289,0.035-1.598,0.149c-0.309,0.114-0.571,0.325-0.787,0.633
		c-0.161,0.249-0.315,0.716-0.463,1.401l-0.821,3.784l5.452,1.183l0.657-3.031c0.171-0.787,0.166-1.338-0.014-1.654
		c-0.236-0.42-0.742-0.736-1.52-0.947l0.082-0.376l4.801,1.041l-0.082,0.376c-0.692-0.051-1.143-0.049-1.354,0.004
		c-0.264,0.071-0.494,0.23-0.689,0.479c-0.195,0.249-0.356,0.661-0.481,1.237l-0.657,3.031l4.546,0.986
		c0.61,0.132,0.987,0.186,1.131,0.16c0.144-0.026,0.27-0.098,0.377-0.216s0.202-0.368,0.285-0.748l0.507-2.339
		c0.169-0.779,0.238-1.357,0.206-1.734c-0.032-0.376-0.172-0.761-0.42-1.156c-0.33-0.512-0.87-1.08-1.622-1.704l0.088-0.407
		l3.2,1.94l-2.305,10.628l-0.376-0.082l0.106-0.488c0.07-0.325,0.06-0.651-0.033-0.976c-0.062-0.241-0.192-0.423-0.392-0.548
		s-0.636-0.26-1.307-0.406L14.9,97.683c-0.875-0.189-1.433-0.218-1.674-0.086c-0.324,0.185-0.548,0.563-0.672,1.132l-0.105,0.488
		l-0.376-0.082L14.376,88.508z M11.123,116.79l-0.384-0.021l0.325-5.736c0.12-2.105,0.449-3.693,0.989-4.765
		c0.54-1.072,1.387-1.909,2.54-2.515c1.153-0.605,2.46-0.866,3.922-0.783c1.96,0.111,3.565,0.799,4.813,2.065
		c1.393,1.42,2.012,3.499,1.857,6.234l-0.357,6.297l-0.384-0.021l0.03-0.529c0.034-0.597-0.133-1.029-0.5-1.301
		c-0.22-0.165-0.728-0.271-1.525-0.315l-9.103-0.516c-0.879-0.051-1.436,0.016-1.668,0.197c-0.32,0.253-0.495,0.646-0.525,1.18
		L11.123,116.79z M13.536,137.381l0.079,0.493l-0.38,0.062l-1.706-10.742l3.028-0.639l0.063,0.4c-0.71,0.26-1.188,0.5-1.435,0.719
		c-0.246,0.219-0.414,0.51-0.504,0.875c-0.059,0.291-0.034,0.781,0.076,1.475l0.607,3.822l5.509-0.875l-0.486-3.063
		c-0.126-0.795-0.331-1.307-0.613-1.536c-0.372-0.306-0.958-0.417-1.76-0.331l-0.061-0.381l4.852-0.771l0.06,0.381
		c-0.663,0.205-1.083,0.369-1.259,0.496c-0.22,0.16-0.376,0.394-0.469,0.695c-0.092,0.303-0.092,0.746,0,1.328l0.487,3.063
		l4.594-0.729c0.617-0.1,0.988-0.186,1.113-0.262c0.125-0.075,0.216-0.188,0.273-0.338c0.057-0.15,0.055-0.416-0.006-0.801
		l-0.375-2.363c-0.125-0.789-0.271-1.352-0.438-1.69c-0.166-0.338-0.436-0.646-0.811-0.925c-0.492-0.357-1.202-0.689-2.129-1
		l-0.065-0.411l3.686,0.647l1.707,10.74l-0.38,0.062l-0.079-0.494c-0.052-0.328-0.18-0.627-0.385-0.897
		c-0.145-0.201-0.333-0.324-0.564-0.367c-0.232-0.045-0.687-0.012-1.365,0.096l-9.056,1.438c-0.884,0.142-1.415,0.316-1.592,0.527
		C13.517,136.373,13.445,136.805,13.536,137.381z M18.615,154.27l0.155,0.477l-0.366,0.12l-1.877-5.748l0.366-0.12l0.158,0.484
		c0.104,0.316,0.277,0.593,0.522,0.826c0.172,0.17,0.378,0.26,0.619,0.269c0.24,0.01,0.69-0.095,1.35-0.31l3.838-1.254l-2.036-6.231
		l-3.838,1.254c-0.686,0.223-1.124,0.414-1.313,0.569c-0.143,0.121-0.24,0.306-0.29,0.556c-0.066,0.336-0.047,0.661,0.057,0.979
		l0.155,0.475l-0.366,0.119l-1.874-5.738l0.366-0.119l0.155,0.475c0.104,0.316,0.277,0.592,0.521,0.826
		c0.175,0.178,0.381,0.269,0.621,0.273c0.24,0.005,0.688-0.1,1.348-0.314l8.657-2.826c0.679-0.223,1.114-0.412,1.304-0.567
		c0.143-0.12,0.241-0.302,0.293-0.545c0.063-0.343,0.043-0.673-0.06-0.988l-0.155-0.476l0.366-0.118l1.874,5.737l-0.366,0.119
		l-0.155-0.475c-0.179-0.548-0.471-0.895-0.876-1.039c-0.265-0.096-0.799-0.014-1.604,0.25l-4.086,1.334l2.036,6.232l4.085-1.334
		c0.68-0.221,1.114-0.41,1.304-0.567c0.144-0.12,0.24-0.306,0.29-0.556c0.066-0.334,0.047-0.66-0.057-0.978l-0.158-0.483
		l0.366-0.121l1.877,5.748l-0.366,0.121l-0.155-0.477c-0.181-0.554-0.474-0.902-0.879-1.048c-0.263-0.09-0.796-0.004-1.601,0.26
		l-8.657,2.826c-0.686,0.226-1.124,0.415-1.313,0.572c-0.144,0.118-0.241,0.301-0.293,0.545
		C18.492,153.625,18.512,153.954,18.615,154.27z M36.015,159.434l-0.228-0.444c-0.272-0.531-0.626-0.825-1.061-0.884
		c-0.267-0.033-0.752,0.129-1.457,0.49l-9.595,4.918l0.774,1.51c0.301,0.588,0.558,0.981,0.771,1.185
		c0.282,0.263,0.648,0.42,1.099,0.479c0.45,0.057,0.971-0.039,1.561-0.287l0.18,0.354l-3.021,1.361l-5.256-10.252l2.874-1.649
		l0.181,0.353c-0.484,0.334-0.807,0.615-0.969,0.849c-0.26,0.375-0.393,0.765-0.4,1.17c-0.007,0.404,0.123,0.866,0.389,1.386
		l0.907,1.77l9.595-4.92c0.772-0.396,1.211-0.727,1.317-0.99c0.139-0.367,0.083-0.795-0.167-1.283l-0.223-0.436l0.343-0.176
		l2.73,5.325L36.015,159.434z M97.645,217.575c0.03,0.202,0.138,0.373,0.323,0.514c0.186,0.14,0.591,0.272,1.216,0.401l-0.069,0.378
		l-5.215-0.953l0.069-0.379c0.657,0.106,1.09,0.128,1.299,0.063c0.209-0.063,0.366-0.174,0.472-0.326
		c0.105-0.153,0.234-0.646,0.386-1.479l1.369-7.484c0.184-1.008,0.269-1.662,0.253-1.961c-0.008-0.227-0.065-0.402-0.173-0.527
		c-0.107-0.127-0.25-0.204-0.427-0.237c-0.252-0.045-0.623-0.004-1.111,0.125l-0.096-0.346l3.675-1.028l0.338,0.063l-2.141,11.707
		C97.671,216.881,97.614,217.372,97.645,217.575z M112.429,206.441l-5.784,13.578l-1.161-0.092l5.195-12.322l-3.865-0.305
		c-0.781-0.061-1.344-0.012-1.69,0.148c-0.605,0.271-1.11,0.727-1.515,1.361l-0.292-0.139l1.609-3.22l7.534,0.594L112.429,206.441z
		 M120.566,219.184c-0.739,0.721-1.723,1.094-2.948,1.121c-1.337,0.028-2.389-0.367-3.156-1.188
		c-0.611-0.659-0.925-1.388-0.942-2.185c-0.014-0.623,0.182-1.246,0.588-1.869c0.406-0.621,1.113-1.314,2.123-2.078
		c-1.136-0.891-1.872-1.608-2.206-2.155c-0.334-0.548-0.508-1.119-0.521-1.715c-0.02-0.914,0.316-1.712,1.008-2.388
		c0.692-0.678,1.625-1.028,2.794-1.055c1.135-0.025,2.057,0.264,2.764,0.864s1.068,1.297,1.084,2.087
		c0.013,0.525-0.163,1.066-0.524,1.623c-0.362,0.555-1.127,1.217-2.296,1.984c1.24,0.914,2.063,1.639,2.471,2.17
		c0.541,0.695,0.821,1.435,0.838,2.217C121.666,217.609,121.307,218.464,120.566,219.184z M130.943,214.732
		c-0.596,1.438-1.521,2.687-2.772,3.742c-1.017,0.865-2.178,1.381-3.485,1.543l-0.588,0.072l-0.047-0.383
		c0.893-0.124,1.699-0.436,2.42-0.934s1.377-1.293,1.973-2.387c0.594-1.093,0.957-2.259,1.09-3.496
		c-0.994,0.827-1.928,1.297-2.801,1.403c-0.982,0.123-1.873-0.153-2.668-0.826s-1.271-1.639-1.428-2.897
		c-0.15-1.223,0.064-2.356,0.647-3.399c0.702-1.267,1.733-1.985,3.096-2.153c1.147-0.143,2.19,0.211,3.126,1.059
		c1.15,1.052,1.832,2.439,2.045,4.167C131.743,211.797,131.541,213.293,130.943,214.732z M115.624,201.259
		c-47.047,0-85.323-38.274-85.323-85.323c0-47.047,38.275-85.322,85.323-85.322s85.323,38.275,85.323,85.322
		C200.947,162.984,162.671,201.259,115.624,201.259z M210.139,159.672l-0.346-0.168l0.137-0.281c0.143-0.293,0.203-0.597,0.187-0.91
		c-0.019-0.313-0.164-0.535-0.438-0.668c-0.226-0.109-0.724-0.117-1.494-0.021l-5.379,0.665l2.707,4.389
		c0.404,0.66,0.75,1.059,1.037,1.199c0.176,0.084,0.354,0.114,0.535,0.091c0.182-0.024,0.352-0.102,0.512-0.231
		c0.158-0.131,0.32-0.364,0.484-0.701l0.346,0.168l-2.148,4.429l-0.346-0.168l0.117-0.243c0.079-0.162,0.123-0.435,0.131-0.816
		c0.008-0.381-0.061-0.766-0.205-1.15c-0.145-0.387-0.428-0.914-0.852-1.582l-3.338-5.4l-3.184-1.545
		c-0.781-0.379-1.311-0.526-1.588-0.447c-0.377,0.111-0.689,0.423-0.938,0.935l-0.201,0.412l-0.347-0.168l2.617-5.396l0.347,0.168
		l-0.22,0.449c-0.26,0.537-0.281,0.997-0.065,1.379c0.133,0.234,0.556,0.524,1.269,0.869l3.006,1.459l7.008-0.902
		c0.824-0.109,1.35-0.2,1.576-0.271c0.228-0.07,0.563-0.285,1.006-0.641c0.123-0.094,0.242-0.26,0.356-0.498l0.347,0.169
		L210.139,159.672z M215.753,144.814c-0.442,1.433-0.874,2.455-1.293,3.069s-0.981,1.072-1.688,1.373
		c-0.707,0.302-1.446,0.331-2.223,0.091c-0.828-0.256-1.465-0.748-1.908-1.477c-0.44-0.729-0.613-1.699-0.516-2.911l-4.729,1.588
		c-1.086,0.361-1.845,0.726-2.277,1.093c-0.434,0.367-0.803,0.906-1.11,1.617l-0.368-0.113l1.113-3.6l7.717-2.613
		c0.09-0.342,0.168-0.619,0.234-0.832c0.025-0.086,0.057-0.178,0.091-0.275s0.071-0.2,0.11-0.305l-3.918-1.211
		c-0.848-0.264-1.403-0.334-1.666-0.211c-0.37,0.161-0.633,0.494-0.789,0.998l-0.162,0.526l-0.368-0.114l1.787-5.775l0.368,0.113
		l-0.157,0.508c-0.177,0.569-0.117,1.035,0.179,1.396c0.162,0.203,0.627,0.423,1.396,0.66l8.71,2.694
		c0.849,0.263,1.403,0.332,1.667,0.211c0.371-0.17,0.637-0.508,0.795-1.02l0.156-0.506l0.367,0.113L215.753,144.814z
		 M219.174,128.152l-0.381-0.051l0.072-0.537c0.078-0.578-0.049-1.015-0.379-1.312c-0.225-0.206-0.729-0.362-1.512-0.468
		l-6.095-0.829c-0.544-0.073-1.173-0.108-1.888-0.104c-0.715,0.006-1.286,0.111-1.713,0.318c-0.428,0.209-0.803,0.541-1.123,0.998
		c-0.321,0.457-0.53,1.043-0.629,1.758c-0.123,0.914-0.034,1.76,0.266,2.536c0.301,0.776,0.744,1.339,1.331,1.688
		c0.586,0.349,1.621,0.623,3.106,0.826l5.66,0.77c0.873,0.119,1.435,0.097,1.68-0.066c0.339-0.227,0.545-0.604,0.615-1.135
		l0.072-0.525l0.381,0.053l-0.672,4.949l-0.382-0.051l0.071-0.527c0.074-0.549-0.098-1.004-0.52-1.36
		c-0.193-0.174-0.679-0.313-1.455-0.419l-5.673-0.771c-1.401-0.19-2.471-0.479-3.206-0.86c-0.736-0.386-1.324-1.021-1.769-1.91
		c-0.441-0.892-0.568-2.037-0.377-3.438c0.207-1.526,0.629-2.648,1.266-3.367c0.638-0.719,1.425-1.184,2.363-1.392
		c0.644-0.137,1.805-0.092,3.489,0.138l5.466,0.744c0.858,0.116,1.438,0.073,1.739-0.127c0.301-0.199,0.486-0.564,0.56-1.095
		l0.069-0.526l0.384,0.053L219.174,128.152z"/>
	<polygon fill="\#15223B" points="25.129,68.967 29.044,73.787 31.292,69.49 	"/>
	<polygon fill="\#15223B" points="215.551,98.144 209.523,96.65 210.314,101.435 	"/>
	<path fill="\#15223B" d="M201.282,68.84c0.041,0.088,0.075,0.16,0.104,0.215c0.614,1.198,1.336,1.968,2.168,2.31
		c0.829,0.342,1.646,0.308,2.448-0.104c0.783-0.402,1.296-0.975,1.535-1.717c0.237-0.743,0.151-1.518-0.265-2.327
		c-0.184-0.358-0.489-0.813-0.922-1.364l-5.223,2.678C201.189,68.65,201.241,68.752,201.282,68.84z"/>
	<path fill="\#15223B" d="M115.478,0C51.803,0,0,51.803,0,115.478c0,63.674,51.803,115.479,115.478,115.479
		c63.674,0,115.479-51.805,115.479-115.479C230.957,51.803,179.152,0,115.478,0z M115.624,228.129
		c-61.863,0-112.193-50.33-112.193-112.193S53.761,3.744,115.624,3.744c61.864,0,112.192,50.329,112.192,112.192
		S177.488,228.129,115.624,228.129z"/>
	<path fill="\#15223B" d="M146.293,148.382c-5.723,0.017-7.23,4.136-7.494,9.998l-0.049-0.055c0,0-2.064,0.335-2.512-1.341
		c0,0-0.448,1.453-2.348,1.396l-40.79,0.04c-0.459,0.357-0.944,0.915-1.105,1.748c0,0-0.204-1.063,0.333-1.747l-18.021,0.019
		c-3.651,2.957,0.036,5.305,0.036,5.305h2.905v8.379h6.703v-6.703h-2.681l0.055,1.564h-1.508v-3.129h9.447l-0.016,3.127
		l-1.387,0.002l-0.057-1.572l-2.681-0.014l-0.032,6.703l6.736,0.076v-8.267l42.564-0.056c1.453,0.056,2.012,1.73,2.012,1.73
		c0.391-1.956,2.402-1.73,2.402-1.73c0.444,5.593,2.35,9.91,7.541,9.941c6.256,0.039,7.258-6.156,7.258-13.184
		C153.605,153.591,152.381,148.365,146.293,148.382z M74.624,159.706v-0.75h15.362v0.75H74.624z M91.087,169.314h-1.604v-0.75h0.854
		v-3.647h0.75V169.314z M132.328,159.762H99.091v-0.75h33.237V159.762z M135.344,158.828c0,0,0.336-0.67,1.006-0.782
		C136.35,158.045,136.014,158.883,135.344,158.828z M143.582,172.609c-0.102-0.063-2.482-1.569-3.404-4.971
		c-0.73-2.69-0.966-5.712-0.738-9.504c0.246-4.13,1.479-7.068,3.569-8.498l0.425,0.619c-1.893,1.294-3.015,4.033-3.246,7.924
		c-0.223,3.709,0.006,6.651,0.715,9.264c0.845,3.117,3.053,4.515,3.074,4.529L143.582,172.609z M146.777,171.436
		c-2.236,0.237-4.19-2.062-4.364-5.135c-0.119-2.119,0.64-4.055,1.854-5.129l0.209-0.203c-1.205-0.876-2.062-2.566-2.156-4.572
		c-0.146-3.074,1.554-5.732,3.791-5.934c2.24-0.199,4.175,2.133,4.32,5.207c0.101,2.122-0.676,4.044-1.899,5.098l-0.212,0.135
		c1.213,0.857,2.082,2.533,2.195,4.537C150.688,168.514,149.014,171.199,146.777,171.436z M151.505,169.4l-0.707-0.252
		c0.015-0.037,1.271-3.625,0.021-6.071l0.668-0.343C152.884,165.473,151.563,169.242,151.505,169.4z M151.604,153.641
		c1.119,2.359-0.324,5.752-0.387,5.896l-0.688-0.298c0.014-0.032,1.369-3.227,0.396-5.276L151.604,153.641z"/>
	<path fill="#15223B" d="M154.796,83.752c0.267-0.358,0.433-0.8,0.433-1.284c0-0.619-0.264-1.172-0.678-1.562l0.176-0.003
		c6.068-3.082,6.479-8.49,6.479-8.49l-3.204-0.707c-4.887,7.484-9.841,0.193-9.841,0.193l-26.804-5.867l-4.687,3.664l-1.661-12.087
		l-0.112-0.335l-1.809,12.431l-4.28-3.806l-26.85,5.652c0,0-5.011,7.251-9.838-0.272l-3.21,0.68c0,0,0.367,5.412,6.412,8.543
		l0.173,0.004c-0.383,0.387-0.62,0.922-0.62,1.514c0,0.503,0.178,0.958,0.463,1.323l-11.412,20.19c0,0,0.077,0.132,0.212,0.345
		l-0.147,0.261h0.316c2.014,3.052,11.956,16.167,25.088,0.361L78.628,83.31c0.269-0.359,0.435-0.802,0.435-1.289
		c0-0.559-0.215-1.063-0.56-1.443l0.395,0.009c0,0,4.715-0.71,5.949-5.325l27.333-0.106l0.038-0.006l-0.4,9.418
		c0.959,3.318,3.64,2.983,3.64,2.983c3.239,0.335,3.575-3.016,3.575-3.016l-1.117-9.273h27.258c1.197,4.624,5.979,5.698,5.979,5.698
		l0.513-0.008c-0.386,0.387-0.623,0.922-0.623,1.516c0,0.567,0.222,1.08,0.576,1.462l-10.931,21.083
		c13.33,16.305,23.554,2.203,25.229-0.371h0.052l-0.023-0.043c0.141-0.217,0.22-0.35,0.22-0.35L154.796,83.752z M70.416,74.938
		l-0.908-2.593l1.502-0.502l0.134,2.954L70.416,74.938z M76.57,80.532c0.136-0.047,0.278-0.079,0.428-0.079
		c0.174,0,0.339,0.039,0.493,0.101c0.542,0.218,0.929,0.778,0.929,1.44c0,0.379-0.131,0.722-0.341,0.99
		c-0.009,0.012-0.018,0.025-0.028,0.037c-0.103,0.124-0.223,0.227-0.357,0.309c-0.122,0.075-0.252,0.135-0.393,0.168
		c-0.098,0.023-0.199,0.037-0.303,0.037c-0.067,0-0.132-0.012-0.197-0.021c-0.023-0.003-0.048-0.003-0.072-0.008
		c-0.326-0.068-0.608-0.259-0.814-0.524c-0.016-0.021-0.032-0.041-0.047-0.062c-0.18-0.258-0.291-0.576-0.291-0.925
		C75.576,81.306,75.995,80.729,76.57,80.532z M65.705,103.139L75.73,85.345l0.013,17.794H65.705z M83.124,109.279
		c2.02-2.116,1.712-3.821,1.712-3.821H72.293c-0.519,0.652,0.29,2.01,0.29,2.01c-1.791-0.979-1.925-2.749-1.925-2.749l16.044,0.056
		C86.125,107.379,83.124,109.279,83.124,109.279z M87.233,103.179l-9.482,0.067l0.046-18.61L87.233,103.179z M108.735,68.303
		l-0.647-0.729l-25.046,5.771c-0.454,0.853-1.994,3.245-5.152,3.652l-0.16-1.239c3.073-0.397,4.296-3.173,4.308-3.201l0.125-0.292
		l26.367-6.076l1.141,1.282L108.735,68.303z M114.988,86.82c-0.876-0.194-2.503-1.047-2.387-2.883l0.222-8.579l1.25,0.032
		l-0.223,8.602c-0.077,1.227,1.26,1.573,1.412,1.608L114.988,86.82z M123.958,68.504l-2.382-0.396l-2.234,2.03l-0.841-0.925
		l2.683-2.438l2.979,0.496L123.958,68.504z M158.582,72.414l1.788,0.39c-2.683,5.139-7.767,2.905-7.767,2.905
		C156.348,76.603,158.582,72.414,158.582,72.414z M152.871,80.933c0.095-0.021,0.191-0.033,0.292-0.033
		c0.078,0,0.153,0.012,0.229,0.025c0.676,0.119,1.193,0.75,1.193,1.516c0,0.436-0.169,0.828-0.438,1.108
		c-0.019,0.017-0.037,0.031-0.056,0.048c-0.093,0.088-0.196,0.163-0.309,0.223c-0.002,0.001-0.005,0.002-0.007,0.003
		c-0.139,0.072-0.289,0.119-0.449,0.139c-0.018,0.002-0.033,0.004-0.049,0.005c-0.039,0.003-0.076,0.013-0.116,0.013
		c-0.116,0-0.228-0.019-0.335-0.047c-0.002,0-0.003-0.001-0.005-0.002c-0.164-0.043-0.317-0.114-0.453-0.212
		c-0.039-0.028-0.072-0.063-0.108-0.096c-0.314-0.282-0.521-0.704-0.521-1.181C151.741,81.698,152.227,81.079,152.871,80.933z
		 M142.879,103.697l9.441-17.758l-0.062,17.758H142.879z M156.124,110.186c2.101-2.725,2.29-3.992,2.29-3.992h-12.529
		c-0.539,0.839-0.199,2.336-0.199,2.336c-1.859-1.258-2.52-3.216-2.52-3.216l16.68,0.07
		C159.245,108.74,156.124,110.186,156.124,110.186z M154.346,103.641l-0.062-17.897l9.981,17.898L154.346,103.641z"/>
</g>
</svg>
