<svg width="63" height="43" viewBox="0 0 63 43" fill="none" xmlns="http://www.w3.org/2000/svg">
<path d="M31.5 2C47.7925 2 61 10.7303 61 21.4998C61 32.2696 47.7925 41 31.5 41C15.2075 41 2 32.2696 2 21.4999C2 10.7303 15.2075 2 31.5 2Z" fill="#000031"/>
<path d="M31.5002 2C47.7926 2 61 10.7303 61 21.4998C61 32.2696 47.7926 41 31.5002 41C15.2076 41 2 32.2695 2 21.4998C2 10.7303 15.2076 2 31.5002 2Z" fill="#000031"/>
<path d="M31.4999 1C48.345 1 62 10.2958 62 21.5001C62 32.7044 48.345 42 31.4999 42C14.6554 42 1 32.7044 1 21.5001C1 10.2958 14.6554 1 31.4999 1ZM31.4999 2.00488C27.4832 2.00488 23.5843 2.53913 19.9106 3.59261C16.3864 4.60349 13.2218 6.04568 10.5053 7.87866C7.82312 9.68857 5.72135 11.7826 4.25828 14.1023C2.77014 16.4619 2.01559 18.9509 2.01559 21.5002C2.01559 24.0493 2.77014 26.5385 4.25828 28.8979C5.72143 31.2176 7.82312 33.3113 10.5053 35.1215C13.2218 36.9547 16.3863 38.3968 19.9106 39.4076C23.5843 40.461 27.4832 40.9953 31.4999 40.9953C35.5166 40.9953 39.4159 40.461 43.0895 39.4076C46.6136 38.3969 49.7781 36.9547 52.4949 35.1215C55.1772 33.3114 57.2788 31.2176 58.7417 28.8979C60.2299 26.5384 60.9848 24.0493 60.9848 21.5002C60.9848 18.9509 60.2299 16.4619 58.7417 14.1023C57.2787 11.7826 55.1772 9.68865 52.4949 7.87866C49.7781 6.04568 46.6137 4.60357 43.0895 3.59261C39.4159 2.53913 35.5166 2.00488 31.4999 2.00488Z" fill="#ADAEC3"/>
<path d="M31.4999 0C48.8972 0 63 9.74922 63 21.5C63 33.2509 48.8972 42.9999 31.4999 42.9999C14.1028 43 0 33.251 0 21.5C0 9.74913 14.1028 0 31.4999 0ZM31.4999 1.04627C27.3537 1.04627 23.3289 1.60616 19.5364 2.71086C15.8984 3.77039 12.6316 5.28224 9.8268 7.20401C7.05707 9.10195 4.88628 11.2983 3.37488 13.7314C1.83628 16.2088 1.0563 18.8226 1.0563 21.5C1.0563 24.1773 1.83628 26.7911 3.37488 29.2684C4.88628 31.7016 7.05707 33.8978 9.8268 35.7959C12.6316 37.7177 15.8984 39.2294 19.5364 40.2891C23.3289 41.3936 27.3537 41.9535 31.4999 41.9535C35.6461 41.9535 39.6713 41.3936 43.4634 40.2891C47.1018 39.2294 50.3686 37.7177 53.1732 35.7959C55.9433 33.8979 58.1139 31.7017 59.6253 29.2684C61.1637 26.7911 61.9439 24.1774 61.9439 21.5C61.9439 18.8226 61.1637 16.2088 59.6253 13.7314C58.1139 11.2983 55.9433 9.10195 53.1732 7.20401C50.3686 5.28224 47.1018 3.77039 43.4634 2.71086C39.6713 1.60616 35.6461 1.04627 31.4999 1.04627Z" fill="white"/>
<path d="M31.5 8L25.4954 10.4927H23.282V11.4097L21.9164 11.9891L22.4342 12.6326H22.8817V14.8432H21.0215V13.5028H19.4202V14.8668H8.18852L8.40048 15.0314V16.7951H8L8.37687 17.2182V27.7297H8V28.7176H22.0107V29H40.8481V28.647H54.9761V27.7536H54.6703V17.1711L55 16.8186H54.6938V15.1018L54.9056 14.7726H43.5323V13.5028H41.9546V14.7018H40.1649V12.6795H40.5419L41.0171 12.0617L39.6942 11.363V10.4927H37.5281L31.5 8Z" fill="white"/>
<path fill-rule="evenodd" clip-rule="evenodd" d="M24.9869 35.1022C25.0067 35.079 25.0041 35.0144 24.9785 35.0001C24.8984 35.006 24.8158 35.0086 24.7156 35.0086C24.6297 35.0086 24.5156 35.006 24.424 35.0001C24.398 35.0145 24.3924 35.0759 24.4155 35.1022L24.4781 35.1199C24.5155 35.1284 24.5326 35.1402 24.5326 35.1606C24.5326 35.1932 24.4753 35.3595 24.4554 35.4091C24.3185 35.7661 24.1838 36.1285 24.0468 36.4678C24.0298 36.4267 23.9896 36.3451 23.9212 36.1814L23.7865 35.886C23.7666 35.839 23.7638 35.8212 23.7638 35.8127C23.7638 35.7983 23.8013 35.7133 23.8267 35.6607C23.8638 35.5847 23.9354 35.45 24.0038 35.3304C24.1041 35.1547 24.124 35.1429 24.2212 35.1226L24.3007 35.1051C24.3269 35.0846 24.321 35.0144 24.2983 35C24.2238 35.0059 24.1182 35.0085 24.007 35.0085C23.9126 35.0085 23.8092 35.0059 23.7268 35C23.701 35.0144 23.6979 35.0814 23.7182 35.1021L23.8037 35.1225C23.8495 35.1343 23.8609 35.1428 23.8609 35.1636C23.8609 35.1812 23.8349 35.2689 23.7836 35.38L23.7582 35.4387C23.7296 35.5028 23.701 35.5612 23.6721 35.6227C23.6463 35.5698 23.6179 35.5056 23.5922 35.4446L23.5066 35.2424C23.4954 35.2102 23.4808 35.1781 23.4808 35.1547C23.4808 35.1344 23.5236 35.1198 23.5583 35.1136L23.6068 35.1022C23.6263 35.0877 23.6295 35.0086 23.5954 35.0001C23.5209 35.006 23.4124 35.0086 23.2665 35.0086C23.1407 35.0086 23.0292 35.006 22.9066 35.0001C22.8752 35.0113 22.8696 35.079 22.8979 35.1022L22.9265 35.1051C23.0352 35.1198 23.0551 35.1373 23.1207 35.2835L23.3951 35.9005C23.4065 35.9298 23.4124 35.962 23.4124 35.9795C23.4124 35.9969 23.3951 36.0612 23.3753 36.1082L23.3381 36.1931C23.2807 36.3243 23.2351 36.4123 23.2008 36.4763C23.1664 36.4064 23.1379 36.3451 23.0579 36.1637L22.7751 35.5173C22.6836 35.3127 22.6266 35.1752 22.6266 35.1548C22.6266 35.1345 22.6465 35.1199 22.698 35.1109L22.7493 35.1023C22.7781 35.0847 22.7665 35.0114 22.7435 35.0002C22.6348 35.0061 22.5234 35.0087 22.3979 35.0087C22.252 35.0087 22.1323 35.0061 22.0264 35.0002C21.995 35.0146 21.9921 35.0731 22.0152 35.1023L22.0864 35.117C22.1808 35.1315 22.2007 35.1488 22.2751 35.3245L22.7435 36.3713C22.8407 36.5906 22.9548 36.8536 23.0008 36.9764C23.0266 36.9915 23.0433 37 23.0749 37C23.1178 37 23.155 36.9915 23.1696 36.9764C23.2151 36.8802 23.2437 36.7955 23.2893 36.7016L23.4237 36.4035C23.4608 36.3217 23.4952 36.2515 23.5208 36.2019C23.5466 36.2457 23.5834 36.3335 23.6236 36.4268L23.7432 36.7046C23.7808 36.7866 23.8209 36.8921 23.8524 36.9621C23.8722 36.9765 23.8978 36.9853 23.9293 36.9853C23.9666 36.9853 24.0068 36.9764 24.0236 36.9621C24.164 36.5821 24.4836 35.8536 24.6266 35.5119C24.7007 35.3273 24.7524 35.234 24.7837 35.1872C24.8039 35.1608 24.8354 35.1404 24.9009 35.1229L24.9869 35.1022Z" fill="white"/>
<path fill-rule="evenodd" clip-rule="evenodd" d="M26.0308 36.3255C26.1328 36.3255 26.1564 36.3316 26.1709 36.3782L26.2494 36.6318C26.2848 36.741 26.3051 36.8115 26.3051 36.832C26.3051 36.8497 26.2933 36.8702 26.2262 36.8821L26.1328 36.8969C26.1009 36.9203 26.1066 36.9823 26.1388 37C26.273 36.9941 26.3868 36.9908 26.5327 36.9908C26.6844 36.9908 26.8423 36.9941 26.9821 37C27.0085 36.9822 27.0024 36.9115 26.985 36.8969L26.8744 36.8791C26.7662 36.8586 26.7399 36.7938 26.6787 36.6173L26.2819 35.4626C26.2086 35.2534 26.1738 35.1445 26.1506 35.059C26.1388 35.0147 26.1214 35 26.0832 35C26.0774 35 25.9697 35.1445 25.8295 35.1769C25.8384 35.2626 25.7858 35.3656 25.7157 35.5506L25.4531 36.2693C25.3741 36.4816 25.3246 36.6231 25.2722 36.7409C25.2253 36.8556 25.1644 36.8791 25.0942 36.8879L25.0154 36.8969C24.9949 36.9203 24.9921 36.9823 25.024 37C25.1584 37 25.2253 36.9908 25.3246 36.9908C25.4474 36.9941 25.5637 36.9941 25.666 37C25.6954 36.985 25.6892 36.9174 25.6719 36.8969L25.5844 36.8821C25.5028 36.8675 25.4793 36.8497 25.4793 36.832C25.4793 36.8088 25.482 36.7849 25.4996 36.7261L25.6076 36.3844C25.625 36.3285 25.6341 36.3254 25.704 36.3254H26.0308V36.3255ZM25.7623 36.1695C25.6892 36.1695 25.6718 36.1606 25.701 36.0813L25.7741 35.86C25.8176 35.7247 25.8642 35.6011 25.8936 35.5363C25.9198 35.598 25.9576 35.7189 25.9987 35.8458L26.0746 36.0841C26.101 36.1607 26.0833 36.1695 26.0162 36.1695H25.7623Z" fill="white"/>
<path fill-rule="evenodd" clip-rule="evenodd" d="M28 36.4134C28 36.0954 27.826 35.9279 27.6895 35.8323L27.5443 35.7313C27.4338 35.656 27.3435 35.5347 27.3435 35.402C27.3435 35.2573 27.423 35.1332 27.5682 35.1332C27.7269 35.1332 27.8214 35.3441 27.8592 35.4917C27.8791 35.5204 27.9342 35.5176 27.9451 35.4828C27.9451 35.2891 27.923 35.1332 27.9055 35.0694C27.8791 35.0638 27.8592 35.0581 27.8306 35.0464C27.7422 35.0117 27.6519 35 27.5794 35C27.26 35 27.0682 35.2257 27.0682 35.5522C27.0702 35.8384 27.2422 36.0117 27.4008 36.1157C27.5332 36.2025 27.7004 36.3414 27.7004 36.5751C27.7004 36.7198 27.6257 36.8672 27.4626 36.8672C27.2753 36.8672 27.1276 36.601 27.0835 36.4135C27.0659 36.3817 27.015 36.3843 27 36.4223C27 36.6185 27.0285 36.8266 27.0702 36.8902C27.1165 36.9253 27.2422 37 27.4448 37C27.7776 36.9998 28 36.7688 28 36.4134Z" fill="white"/>
<path fill-rule="evenodd" clip-rule="evenodd" d="M29.2795 36.0389C29.3927 36.0389 29.3927 36.0418 29.3927 36.1259V36.5586C29.3927 36.8375 29.3792 36.8586 29.2551 36.8859L29.1958 36.8947C29.174 36.913 29.174 36.9821 29.1958 37C29.3251 36.9938 29.4575 36.9908 29.5925 36.9908C29.7165 36.9908 29.8489 36.9938 29.9838 37C30.0054 36.9821 30.0054 36.9129 29.9838 36.8947L29.9188 36.8828C29.7948 36.8587 29.7789 36.8376 29.7789 36.5586V35.4414C29.7789 35.1621 29.7949 35.141 29.9188 35.1139L29.9729 35.1049C29.9945 35.087 29.9945 35.018 29.9729 35C29.8488 35.006 29.7249 35.0088 29.5925 35.0088C29.4627 35.0088 29.3307 35.006 29.1821 35C29.1609 35.0181 29.1609 35.0871 29.1821 35.1049L29.2551 35.1166C29.3792 35.1409 29.3927 35.162 29.3927 35.4414V35.7896C29.3927 35.8767 29.3927 35.8797 29.2795 35.8797H28.7178C28.6072 35.8797 28.6047 35.8767 28.6047 35.7896V35.4414C28.6047 35.1621 28.6209 35.141 28.7369 35.1139L28.7935 35.1049C28.8151 35.087 28.8151 35.018 28.7935 35C28.6745 35.006 28.5396 35.0088 28.4186 35.0088C28.2886 35.0088 28.1486 35.006 28.0161 35C27.9946 35.0181 27.9946 35.0871 28.0161 35.1049L28.0807 35.1139C28.2022 35.141 28.2186 35.1621 28.2186 35.4414V36.5586C28.2186 36.8375 28.2022 36.8586 28.0807 36.8859L28.0161 36.8947C27.9946 36.913 27.9946 36.9821 28.0161 37C28.1537 36.9938 28.2886 36.9908 28.4186 36.9908C28.5395 36.9908 28.6745 36.9938 28.8284 37C28.8502 36.9821 28.8502 36.9129 28.8284 36.8947L28.7422 36.8828C28.6209 36.8587 28.6047 36.8376 28.6047 36.5586V36.1259C28.6047 36.0419 28.6072 36.0389 28.7178 36.0389H29.2795Z" fill="white"/>
<path fill-rule="evenodd" clip-rule="evenodd" d="M30.727 35.4473C30.727 35.1651 30.746 35.1438 30.892 35.1202L30.9808 35.1051C31.0064 35.087 31.0064 35.018 30.9808 35C30.8092 35.006 30.6504 35.009 30.5018 35.009C30.3492 35.009 30.1905 35.006 30.0191 35C29.9936 35.0181 29.9936 35.0871 30.0191 35.1051L30.1079 35.1202C30.2538 35.1438 30.2728 35.1651 30.2728 35.4473V36.5527C30.2728 36.8347 30.2537 36.856 30.1079 36.8798L30.0191 36.8949C29.9936 36.9128 29.9936 36.982 30.0191 37C30.1906 36.994 30.3492 36.9906 30.5018 36.9906C30.6504 36.9906 30.8061 36.994 30.9776 37C31.0029 36.9819 31.0065 36.9128 30.9808 36.8949L30.892 36.8798C30.746 36.856 30.727 36.8347 30.727 36.5527V35.4473Z" fill="white"/>
<path fill-rule="evenodd" clip-rule="evenodd" d="M33.7476 35.7505C33.7476 35.5111 33.7585 35.2896 33.7887 35.2099C33.8131 35.1476 33.8651 35.13 33.9362 35.1121L33.9856 35.1035C34.0075 35.08 34.0019 35.0178 33.9856 35.0001C33.8787 35.006 33.78 35.0089 33.6793 35.0089C33.5668 35.0089 33.46 35.006 33.3125 35.0001C33.2956 35.0179 33.2906 35.08 33.3125 35.1035L33.3863 35.115C33.46 35.1299 33.52 35.1475 33.5451 35.2098C33.575 35.2895 33.5861 35.511 33.5861 35.7504V36.1579C33.5861 36.2113 33.5861 36.2617 33.575 36.2908C33.5122 36.2229 33.4357 36.1195 33.3125 35.9658L33.0824 35.6736C32.8361 35.3575 32.6585 35.133 32.631 35C32.5734 35.0059 32.4942 35.0088 32.401 35.0088C32.2888 35.0088 32.1522 35.0059 32.0233 35C31.9961 35.0088 31.9932 35.0799 32.0122 35.1034L32.0889 35.1149C32.1849 35.1359 32.2261 35.1655 32.2452 35.2158C32.2642 35.2569 32.2642 35.3043 32.2642 35.4667V36.2171C32.2642 36.4563 32.2532 36.6778 32.2261 36.7575C32.2012 36.8196 32.1492 36.8373 32.0756 36.8551L32.0287 36.8641C32.0072 36.8876 32.0122 36.9498 32.0287 36.9675C32.1333 36.9616 32.2341 36.9583 32.3356 36.9583C32.445 36.9583 32.5545 36.9616 32.7024 36.9675C32.7187 36.9497 32.7239 36.8876 32.7024 36.8641L32.6253 36.8522C32.5545 36.8374 32.4916 36.8197 32.4671 36.7576C32.4366 36.6779 32.4259 36.4564 32.4259 36.2172V35.6442C32.4259 35.5347 32.4259 35.4845 32.4392 35.4548C32.4886 35.4994 32.582 35.6202 32.7377 35.8331L33.37 36.6778C33.4986 36.8492 33.5889 37 33.5915 37C33.657 37 33.7339 36.9675 33.7528 36.932C33.7477 36.8344 33.7477 36.6484 33.7477 36.4563V35.7505H33.7476Z" fill="white"/>
<path fill-rule="evenodd" clip-rule="evenodd" d="M35.8111 36.4656C35.8111 36.3094 35.8284 36.2836 35.9159 36.2662L35.9824 36.2547C36.0059 36.2372 36.0059 36.1709 35.9824 36.1535C35.8833 36.1593 35.7415 36.162 35.6016 36.162C35.459 36.162 35.3167 36.1593 35.1106 36.1535C35.0783 36.171 35.0783 36.2373 35.1106 36.2547L35.238 36.272C35.378 36.2921 35.3949 36.3095 35.3949 36.4657V36.6476C35.3949 36.8354 35.3606 36.8672 35.1945 36.8672C35.0868 36.8672 34.9363 36.8501 34.7964 36.7576C34.6077 36.6303 34.4651 36.3843 34.4651 35.9712C34.4651 35.515 34.6891 35.1332 35.1512 35.1332C35.4212 35.1332 35.6045 35.2689 35.6976 35.5408C35.718 35.5697 35.7965 35.5667 35.8082 35.535C35.7789 35.3587 35.776 35.1562 35.7674 35.0696C35.6741 35.0696 35.5145 35 35.1921 35C34.9446 35 34.7092 35.0462 34.5114 35.1534C34.1629 35.347 34 35.6649 34 36.0262C34 36.4426 34.2326 36.7632 34.5724 36.8989C34.7793 36.9797 34.9475 37 35.1451 37C35.3085 37 35.5584 36.9624 35.6599 36.931C35.7382 36.9049 35.8142 36.896 35.8634 36.8876C35.8807 36.8791 35.8834 36.8295 35.8721 36.8182C35.8169 36.8063 35.8112 36.7487 35.8112 36.6274V36.4656H35.8111Z" fill="white"/>
<path fill-rule="evenodd" clip-rule="evenodd" d="M35.7779 36.5728C35.7779 36.843 35.7591 36.8636 35.6173 36.8838L35.4752 36.8985C35.4506 36.9156 35.4506 36.9827 35.4752 37C35.696 36.9942 35.86 36.9915 36.0112 36.9915C36.1529 36.9915 36.3104 36.9942 36.5148 37C36.5369 36.9826 36.5369 36.9156 36.5148 36.8985L36.3886 36.8838C36.2471 36.8636 36.2283 36.843 36.2283 36.5728V35.2908C36.2283 35.2154 36.2379 35.2066 36.3133 35.2066H36.5025C36.7382 35.2066 36.7825 35.343 36.8365 35.5289C36.8521 35.5524 36.9369 35.5464 36.9524 35.5204C36.9463 35.3544 36.9685 35.1193 37 35.0206C36.9935 35.0117 36.9716 35 36.9524 35C36.9336 35 36.9246 35.0029 36.9119 35.0089C36.8831 35.07 36.8366 35.0725 36.6284 35.0725H35.4569C35.217 35.0725 35.2082 35.0614 35.1925 35.0118C35.1798 35.003 35.1639 35.0001 35.1483 35.0001C35.1322 35.0001 35.1163 35.0059 35.104 35.0145C35.0819 35.128 35.0664 35.3083 35 35.5087C35.0192 35.5465 35.0789 35.5525 35.1163 35.5352C35.2113 35.3226 35.2773 35.2068 35.5071 35.2068H35.7021C35.7779 35.2068 35.7779 35.2212 35.7779 35.291V36.5728Z" fill="white"/>
<path fill-rule="evenodd" clip-rule="evenodd" d="M38.0082 35C37.4179 35 37 35.4421 37 36.0143C37 36.6184 37.4124 37 37.9803 37C38.5876 37 39 36.6214 39 35.9915C39 35.4047 38.596 35 38.0082 35ZM38.5479 36.0291C38.5479 36.4972 38.4042 36.8669 38.0339 36.8669C37.5734 36.8669 37.4521 36.3005 37.4521 35.948C37.4521 35.4653 37.6384 35.133 37.9858 35.133C38.336 35.133 38.5479 35.5347 38.5479 36.0291Z" fill="white"/>
<path fill-rule="evenodd" clip-rule="evenodd" d="M40.7476 35.7505C40.7476 35.5111 40.7587 35.2896 40.7886 35.2099C40.8131 35.1476 40.8648 35.13 40.9363 35.1121L40.9854 35.1035C41.0075 35.08 41.002 35.0178 40.9854 35.0001C40.8786 35.006 40.7804 35.0089 40.679 35.0089C40.5666 35.0089 40.46 35.006 40.3121 35.0001C40.2961 35.0179 40.2905 35.08 40.3121 35.1035L40.3863 35.115C40.46 35.1299 40.5204 35.1475 40.5451 35.2098C40.575 35.2895 40.5861 35.511 40.5861 35.7504V36.1579C40.5861 36.2113 40.5861 36.2617 40.575 36.2908C40.5122 36.2229 40.4357 36.1195 40.3121 35.9658L40.0824 35.6736C39.8364 35.3575 39.658 35.133 39.6306 35C39.5733 35.0059 39.4941 35.0088 39.4012 35.0088C39.2887 35.0088 39.1519 35.0059 39.0233 35C38.9959 35.0088 38.9932 35.0799 39.0124 35.1034L39.0888 35.1149C39.1846 35.1359 39.226 35.1655 39.2452 35.2158C39.2643 35.2569 39.2643 35.3043 39.2643 35.4667V36.2171C39.2643 36.4563 39.2532 36.6778 39.226 36.7575C39.2011 36.8196 39.1493 36.8373 39.0754 36.8551L39.0291 36.8641C39.007 36.8876 39.0124 36.9498 39.0291 36.9675C39.1331 36.9616 39.2338 36.9583 39.3354 36.9583C39.4451 36.9583 39.5544 36.9616 39.7021 36.9675C39.7185 36.9497 39.7242 36.8876 39.7021 36.8641L39.6256 36.8522C39.5544 36.8374 39.4915 36.8197 39.4664 36.7576C39.4365 36.6779 39.4257 36.4564 39.4257 36.2172V35.6442C39.4257 35.5347 39.4257 35.4845 39.4393 35.4548C39.4884 35.4994 39.5813 35.6202 39.7378 35.8331L40.3698 36.6778C40.4983 36.8492 40.5887 37 40.5914 37C40.6572 37 40.7336 36.9675 40.7526 36.932C40.7475 36.8344 40.7475 36.6484 40.7475 36.4563V35.7505H40.7476Z" fill="white"/>
<path fill-rule="evenodd" clip-rule="evenodd" d="M12.7778 32.3591C12.7778 32.7646 12.7591 32.795 12.6173 32.8255L12.4753 32.8475C12.4502 32.8736 12.4502 32.9739 12.4753 33C12.696 32.9915 12.8598 32.9871 13.011 32.9871C13.1527 32.9871 13.3103 32.9915 13.5148 33C13.5369 32.9739 13.5369 32.8736 13.5148 32.8475L13.3889 32.8255C13.2471 32.795 13.2281 32.7647 13.2281 32.3591V30.4363C13.2281 30.3228 13.2377 30.3095 13.3131 30.3095H13.5022C13.7384 30.3095 13.7824 30.5149 13.8361 30.7936C13.8518 30.8286 13.9371 30.8202 13.9525 30.7804C13.9464 30.5318 13.9684 30.1789 14 30.0303C13.9936 30.0174 13.9713 30 13.9525 30C13.9336 30 13.9243 30.0042 13.9118 30.0133C13.8834 30.1049 13.8361 30.1089 13.6282 30.1089H12.4566C12.2173 30.1089 12.2077 30.0916 12.1921 30.0174C12.1794 30.0042 12.1636 30 12.148 30C12.1321 30 12.1167 30.0089 12.1037 30.0218C12.0818 30.192 12.0661 30.4624 12 30.7631C12.0188 30.8201 12.0787 30.8286 12.1167 30.8022C12.2109 30.4839 12.277 30.3094 12.5069 30.3094H12.702C12.7777 30.3094 12.7777 30.3314 12.7777 30.4362V32.3591H12.7778Z" fill="white"/>
<path fill-rule="evenodd" clip-rule="evenodd" d="M15.9192 31.5587C16.0891 31.5587 16.0891 31.5633 16.0891 31.6891V32.3381C16.0891 32.7567 16.0689 32.7882 15.8826 32.8288L15.7933 32.8421C15.7611 32.8692 15.7611 32.9731 15.7933 33C15.9878 32.991 16.1864 32.9864 16.3888 32.9864C16.5748 32.9864 16.7733 32.991 16.9755 33C17.0082 32.9731 17.0082 32.8692 16.9755 32.8421L16.8786 32.8242C16.6924 32.7881 16.6678 32.7567 16.6678 32.338V30.6621C16.6678 30.2433 16.6924 30.212 16.8786 30.1714L16.9597 30.1579C16.9921 30.1308 16.9921 30.0273 16.9597 30C16.7733 30.009 16.5872 30.0136 16.3888 30.0136C16.1947 30.0136 15.996 30.009 15.7734 30C15.741 30.0273 15.741 30.1308 15.7734 30.1579L15.8825 30.1758C16.0688 30.212 16.089 30.2433 16.089 30.6621V31.1845C16.089 31.3155 16.089 31.3197 15.9191 31.3197H15.0771C14.9112 31.3197 14.9072 31.3155 14.9072 31.1845V30.6621C14.9072 30.2433 14.9312 30.212 15.1053 30.1714L15.1903 30.1579C15.2228 30.1308 15.2228 30.0273 15.1903 30C15.0125 30.009 14.8097 30.0136 14.6277 30.0136C14.4332 30.0136 14.223 30.009 14.0245 30C13.9918 30.0273 13.9918 30.1308 14.0245 30.1579L14.1217 30.1714C14.3039 30.212 14.328 30.2433 14.328 30.6621V32.338C14.328 32.7566 14.3039 32.7881 14.1217 32.8287L14.0245 32.842C13.9918 32.8691 13.9918 32.973 14.0245 32.9999C14.231 32.9909 14.4332 32.9863 14.6277 32.9863C14.8097 32.9863 15.0124 32.9909 15.2433 32.9999C15.2753 32.973 15.2753 32.8691 15.2433 32.842L15.1135 32.8241C14.9312 32.788 14.9072 32.7566 14.9072 32.3379V31.6889C14.9072 31.5631 14.9112 31.5585 15.0771 31.5585H15.9192V31.5587Z" fill="white"/>
<path fill-rule="evenodd" clip-rule="evenodd" d="M18.8503 30.3965C18.8503 30.2299 18.8503 30.2209 18.9638 30.2209H19.2392C19.4081 30.2209 19.5111 30.2752 19.5767 30.3604C19.6214 30.4235 19.6696 30.5587 19.7074 30.7166C19.7416 30.757 19.8209 30.7479 19.8351 30.6984C19.8176 30.3964 19.7936 30.0721 19.7899 30C19.7453 30.009 19.5492 30.0136 19.3289 30.0136H18.599C18.4337 30.0136 18.2652 30.009 18.1034 30C18.0692 30.0273 18.0657 30.1308 18.0963 30.1579L18.1824 30.1804C18.3373 30.2165 18.3582 30.2479 18.3582 30.6579V32.3379C18.3582 32.7522 18.3373 32.7837 18.1824 32.811L18.0209 32.8425C17.993 32.865 17.993 32.9731 18.0209 33C18.2789 32.9912 18.4478 32.9866 18.6127 32.9866H19.0604C19.3426 32.9866 19.6731 32.9912 19.8555 33C19.9036 32.8788 19.9864 32.5138 20 32.2797C19.9863 32.2254 19.9002 32.2073 19.8725 32.257C19.6832 32.7657 19.5662 32.7794 19.2666 32.7794C19.0156 32.7794 18.9503 32.7435 18.9053 32.6622C18.8639 32.5859 18.8503 32.4414 18.8503 32.2344V31.6986C18.8503 31.5635 18.8537 31.5589 18.9465 31.5589H19.1841C19.3631 31.5589 19.4011 31.5947 19.4389 31.8112L19.4564 31.9237C19.4803 31.9643 19.5662 31.9598 19.5835 31.9191C19.5768 31.7752 19.5733 31.6129 19.5733 31.4416C19.5733 31.2706 19.5768 31.1085 19.5835 30.9644C19.5662 30.9238 19.4803 30.9238 19.4564 30.9596L19.4389 31.0722C19.4012 31.2884 19.3631 31.3199 19.1841 31.3199H18.9465C18.8537 31.3199 18.8503 31.3112 18.8503 31.1848V30.3965Z" fill="white"/>
<path fill-rule="evenodd" clip-rule="evenodd" d="M25.9824 30.1539C26.0092 30.1188 26.0054 30.0223 25.9709 30.0002C25.8642 30.0089 25.7537 30.0134 25.6204 30.0134C25.5064 30.0134 25.3538 30.0089 25.2318 30.0002C25.1978 30.0223 25.1899 30.1143 25.2204 30.1539L25.3039 30.1799C25.3538 30.1935 25.3765 30.2109 25.3765 30.2416C25.3765 30.29 25.3004 30.5397 25.2738 30.6144C25.0909 31.1496 24.9118 31.6933 24.7289 32.2021C24.7058 32.1407 24.6524 32.018 24.5612 31.7724L24.3822 31.3292C24.3555 31.2591 24.3516 31.2327 24.3516 31.2196C24.3516 31.1976 24.4013 31.0707 24.4357 30.9916C24.485 30.8775 24.5804 30.6758 24.6716 30.4957C24.805 30.2327 24.8317 30.2153 24.9611 30.1846L25.0678 30.158C25.1021 30.1275 25.0945 30.0223 25.0643 30.0002C24.965 30.0089 24.8242 30.0134 24.6754 30.0134C24.5498 30.0134 24.4129 30.0089 24.3021 30.0002C24.2677 30.0223 24.2639 30.1231 24.2906 30.1539L24.4049 30.1846C24.4662 30.2021 24.4811 30.2153 24.4811 30.246C24.4811 30.2724 24.4468 30.404 24.3782 30.5706L24.3439 30.6584C24.306 30.755 24.2677 30.8424 24.2297 30.9344C24.1956 30.8555 24.1573 30.7594 24.123 30.667L24.0086 30.3641C23.9936 30.3161 23.9745 30.2682 23.9745 30.2327C23.9745 30.2021 24.0314 30.18 24.0774 30.1715L24.1422 30.154C24.169 30.1319 24.1727 30.0135 24.127 30.0003C24.0279 30.009 23.8832 30.0135 23.6885 30.0135C23.5211 30.0135 23.3727 30.009 23.2087 30.0003C23.1668 30.018 23.1591 30.1189 23.1973 30.154L23.2351 30.1581C23.3801 30.18 23.4067 30.2065 23.4945 30.4256L23.8604 31.3512C23.8753 31.3947 23.8832 31.4437 23.8832 31.4698C23.8832 31.4959 23.8604 31.5923 23.8335 31.6628L23.784 31.7898C23.7079 31.9871 23.6471 32.1187 23.6011 32.215C23.5555 32.1099 23.5174 32.0179 23.4107 31.7457L23.0334 30.7762C22.9113 30.4695 22.8352 30.2633 22.8352 30.2324C22.8352 30.2018 22.8621 30.1797 22.9304 30.1669L22.9991 30.1537C23.0371 30.1273 23.0222 30.0177 22.9917 30C22.8467 30.0087 22.698 30.0132 22.5306 30.0132C22.3362 30.0132 22.1764 30.0087 22.0351 30C21.9934 30.0221 21.9895 30.1097 22.0199 30.1537L22.1151 30.1757C22.2408 30.1974 22.2678 30.2237 22.3667 30.487L22.9917 32.0569C23.1214 32.386 23.2735 32.7808 23.3343 32.9649C23.3686 32.9868 23.3915 33 23.4334 33C23.4909 33 23.5402 32.9868 23.5591 32.9649C23.6202 32.8203 23.6584 32.6927 23.7194 32.5526L23.8984 32.1054C23.9479 31.9825 23.9936 31.8772 24.0279 31.8028C24.0622 31.8683 24.1118 31.9999 24.1653 32.1404L24.3252 32.5572C24.3745 32.6796 24.4279 32.8376 24.47 32.9431C24.4967 32.9649 24.5312 32.9783 24.5726 32.9783C24.6222 32.9783 24.6756 32.9649 24.6985 32.9431C24.8851 32.373 25.3118 31.2807 25.5023 30.7676C25.6015 30.491 25.67 30.3508 25.7118 30.2809C25.7391 30.2414 25.7806 30.2107 25.8684 30.1843L25.9824 30.1539Z" fill="white"/>
<path fill-rule="evenodd" clip-rule="evenodd" d="M27.9191 31.5587C28.089 31.5587 28.089 31.5633 28.089 31.6891V32.3381C28.089 32.7567 28.0691 32.7882 27.8827 32.8288L27.7935 32.8421C27.7611 32.8692 27.7611 32.9731 27.7935 33C27.9879 32.991 28.1863 32.9864 28.3887 32.9864C28.575 32.9864 28.7734 32.991 28.9758 33C29.0081 32.9731 29.0081 32.8692 28.9758 32.8421L28.8786 32.8242C28.6925 32.7881 28.6681 32.7567 28.6681 32.338V30.6621C28.6681 30.2433 28.6925 30.212 28.8786 30.1714L28.9599 30.1579C28.9923 30.1308 28.9923 30.0273 28.9599 30C28.7734 30.009 28.5873 30.0136 28.3887 30.0136C28.1944 30.0136 27.9961 30.009 27.7735 30C27.7409 30.0273 27.7409 30.1308 27.7735 30.1579L27.8826 30.1758C28.069 30.212 28.0889 30.2433 28.0889 30.6621V31.1845C28.0889 31.3155 28.0889 31.3197 27.919 31.3197H27.0769C26.911 31.3197 26.907 31.3155 26.907 31.1845V30.6621C26.907 30.2433 26.9312 30.212 27.1053 30.1714L27.1903 30.1579C27.2227 30.1308 27.2227 30.0273 27.1903 30C27.0121 30.009 26.8093 30.0136 26.6275 30.0136C26.4333 30.0136 26.2227 30.009 26.0244 30C25.9919 30.0273 25.9919 30.1308 26.0244 30.1579L26.1214 30.1714C26.3039 30.212 26.3279 30.2433 26.3279 30.6621V32.338C26.3279 32.7566 26.3039 32.7881 26.1214 32.8287L26.0244 32.842C25.9919 32.8691 25.9919 32.973 26.0244 32.9999C26.2305 32.9909 26.4333 32.9863 26.6275 32.9863C26.8092 32.9863 27.012 32.9909 27.2429 32.9999C27.2753 32.973 27.2753 32.8691 27.2429 32.842L27.1135 32.8241C26.9312 32.788 26.907 32.7566 26.907 32.3379V31.6889C26.907 31.5631 26.9111 31.5585 27.0769 31.5585H27.9191V31.5587Z" fill="white"/>
<path fill-rule="evenodd" clip-rule="evenodd" d="M29.727 30.6714C29.727 30.2477 29.7461 30.2164 29.8921 30.1804L29.981 30.1579C30.0063 30.1306 30.0063 30.0273 29.981 30C29.8096 30.0094 29.6509 30.0136 29.5015 30.0136C29.3492 30.0136 29.1907 30.0094 29.0191 30C28.9936 30.0273 28.9936 30.1306 29.0191 30.1579L29.1079 30.1804C29.254 30.2165 29.2732 30.2477 29.2732 30.6714V32.3288C29.2732 32.7527 29.254 32.7836 29.1079 32.8198L29.0191 32.8425C28.9936 32.8694 28.9936 32.9731 29.0191 33C29.1907 32.9912 29.3492 32.9866 29.5015 32.9866C29.6509 32.9866 29.8065 32.9912 29.9777 33C30.0032 32.9731 30.0062 32.8694 29.981 32.8425L29.8921 32.8198C29.7461 32.7836 29.727 32.7527 29.727 32.3288V30.6714Z" fill="white"/>
<path fill-rule="evenodd" clip-rule="evenodd" d="M30.7779 32.3591C30.7779 32.7646 30.7591 32.795 30.6174 32.8255L30.4757 32.8475C30.4504 32.8736 30.4504 32.9739 30.4757 33C30.6963 32.9915 30.86 32.9871 31.0112 32.9871C31.1531 32.9871 31.3104 32.9915 31.5148 33C31.5372 32.9739 31.5372 32.8736 31.5148 32.8475L31.3888 32.8255C31.2471 32.795 31.2281 32.7647 31.2281 32.3591V30.4363C31.2281 30.3228 31.2377 30.3095 31.3134 30.3095H31.5024C31.7384 30.3095 31.7827 30.5149 31.836 30.7936C31.8519 30.8286 31.9371 30.8202 31.9527 30.7804C31.9467 30.5318 31.9686 30.1789 32 30.0303C31.9937 30.0174 31.9716 30 31.9527 30C31.9339 30 31.9243 30.0042 31.9118 30.0133C31.8834 30.1049 31.8361 30.1089 31.6283 30.1089H30.4567C30.2175 30.1089 30.2078 30.0916 30.1922 30.0174C30.1794 30.0042 30.164 30 30.1481 30C30.1322 30 30.1168 30.0089 30.104 30.0218C30.0818 30.192 30.0661 30.4624 30 30.7631C30.0191 30.8201 30.0788 30.8286 30.1168 30.8022C30.2109 30.4839 30.277 30.3094 30.5072 30.3094H30.7025C30.7779 30.3094 30.7779 30.3314 30.7779 30.4362V32.3591Z" fill="white"/>
<path fill-rule="evenodd" clip-rule="evenodd" d="M33.8503 30.3965C33.8503 30.2299 33.8503 30.2209 33.9639 30.2209H34.2393C34.4077 30.2209 34.511 30.2752 34.5765 30.3604C34.6215 30.4235 34.6692 30.5587 34.7075 30.7166C34.7418 30.757 34.8213 30.7479 34.8349 30.6984C34.8178 30.3964 34.7935 30.0721 34.79 30C34.7456 30.009 34.5493 30.0136 34.329 30.0136H33.5991C33.4341 30.0136 33.2653 30.009 33.1032 30C33.069 30.0273 33.0656 30.1308 33.0966 30.1579L33.1826 30.1804C33.3373 30.2165 33.3582 30.2479 33.3582 30.6579V32.3379C33.3582 32.7522 33.3373 32.7837 33.1826 32.811L33.0207 32.8425C32.9931 32.865 32.9931 32.9731 33.0207 33C33.2791 32.9912 33.4478 32.9866 33.6129 32.9866H34.0605C34.3428 32.9866 34.6731 32.9912 34.8555 33C34.9036 32.8788 34.9865 32.5138 35 32.2797C34.9864 32.2254 34.9002 32.2073 34.8726 32.257C34.6835 32.7657 34.5663 32.7794 34.267 32.7794C34.0157 32.7794 33.9504 32.7435 33.9053 32.6622C33.8644 32.5859 33.8504 32.4414 33.8504 32.2344V31.6986C33.8504 31.5635 33.8539 31.5589 33.9468 31.5589H34.1842C34.3633 31.5589 34.4013 31.5947 34.4389 31.8112L34.4561 31.9237C34.4802 31.9643 34.5664 31.9598 34.5835 31.9191C34.5766 31.7752 34.5736 31.6129 34.5736 31.4416C34.5736 31.2706 34.5766 31.1085 34.5835 30.9644C34.5664 30.9238 34.4802 30.9238 34.4561 30.9596L34.4389 31.0722C34.4013 31.2884 34.3633 31.3199 34.1842 31.3199H33.9468C33.8539 31.3199 33.8504 31.3112 33.8504 31.1848V30.3965H33.8503Z" fill="white"/>
<path fill-rule="evenodd" clip-rule="evenodd" d="M39.9191 31.5587C40.089 31.5587 40.089 31.5633 40.089 31.6891V32.3381C40.089 32.7567 40.0689 32.7882 39.8825 32.8288L39.7937 32.8421C39.761 32.8692 39.761 32.9731 39.7937 33C39.9879 32.991 40.1863 32.9864 40.3889 32.9864C40.575 32.9864 40.7734 32.991 40.9758 33C41.0081 32.9731 41.0081 32.8692 40.9758 32.8421L40.8788 32.8242C40.6922 32.7881 40.6676 32.7567 40.6676 32.338V30.6621C40.6676 30.2433 40.6922 30.212 40.8788 30.1714L40.9591 30.1579C40.9918 30.1308 40.9918 30.0273 40.9591 30C40.7734 30.009 40.587 30.0136 40.3888 30.0136C40.1943 30.0136 39.9962 30.009 39.7736 30C39.7408 30.0273 39.7408 30.1308 39.7736 30.1579L39.8824 30.1758C40.0689 30.212 40.0889 30.2433 40.0889 30.6621V31.1845C40.0889 31.3155 40.0889 31.3197 39.919 31.3197H39.0769C38.9109 31.3197 38.9069 31.3155 38.9069 31.1845V30.6621C38.9069 30.2433 38.9313 30.212 39.1054 30.1714L39.1904 30.1579C39.2229 30.1308 39.2229 30.0273 39.1904 30C39.012 30.009 38.81 30.0136 38.6274 30.0136C38.4332 30.0136 38.2224 30.009 38.0243 30C37.9919 30.0273 37.9919 30.1308 38.0243 30.1579L38.1214 30.1714C38.304 30.212 38.3282 30.2433 38.3282 30.6621V32.338C38.3282 32.7566 38.304 32.7881 38.1214 32.8287L38.0243 32.842C37.9919 32.8691 37.9919 32.973 38.0243 32.9999C38.2308 32.9909 38.4332 32.9863 38.6274 32.9863C38.8099 32.9863 39.0119 32.9909 39.2426 32.9999C39.2753 32.973 39.2753 32.8691 39.2426 32.842L39.1134 32.8241C38.9313 32.788 38.9069 32.7566 38.9069 32.3379V31.6889C38.9069 31.5631 38.911 31.5585 39.0769 31.5585H39.9191V31.5587Z" fill="white"/>
<path fill-rule="evenodd" clip-rule="evenodd" d="M42.5129 30C41.6269 30 41 30.6632 41 31.5216C41 32.4277 41.6184 33 42.4702 33C43.3814 33 44 32.4321 44 31.487C44 30.6071 43.394 30 42.5129 30ZM43.3218 31.5433C43.3218 32.2455 43.1053 32.8006 42.5508 32.8006C41.8597 32.8006 41.6778 31.9508 41.6778 31.4221C41.6778 30.698 41.9574 30.1992 42.4783 30.1992C43.0042 30.1993 43.3218 30.8021 43.3218 31.5433Z" fill="white"/>
<path fill-rule="evenodd" clip-rule="evenodd" d="M44.3477 31.754C44.3477 32.2357 44.4409 32.5624 44.6611 32.7522C44.8896 32.9466 45.1779 33 45.4994 33C45.8429 33 46.152 32.8893 46.3384 32.6815C46.5711 32.4121 46.609 32.0325 46.609 31.6168V31.1224C46.609 30.7647 46.6265 30.4285 46.6727 30.3136C46.7108 30.2208 46.7915 30.1945 46.9012 30.168L46.9776 30.1504C47.0115 30.115 47.0031 30.0268 46.9776 30C46.8166 30.0088 46.66 30.0133 46.5033 30.0133C46.33 30.0133 46.1647 30.0088 45.936 30C45.9101 30.0268 45.902 30.115 45.936 30.1504L46.0501 30.1725C46.1646 30.1945 46.2577 30.2208 46.2958 30.3136C46.3424 30.4284 46.3597 30.7647 46.3597 31.1224V31.6567C46.3597 32.262 46.1943 32.757 45.6521 32.757C45.008 32.757 44.9534 32.1868 44.9534 31.6702V30.6499C44.9534 30.2387 44.9785 30.2078 45.1694 30.1681L45.2709 30.1505C45.3048 30.1239 45.3048 30.0269 45.2709 30.0001C45.0676 30.0089 44.8606 30.0134 44.653 30.0134C44.4495 30.0134 44.2378 30.0089 44.0344 30.0001C43.9878 30.0269 43.9921 30.1239 44.026 30.1505L44.1318 30.1726C44.3223 30.2079 44.3478 30.2387 44.3478 30.6499V31.754H44.3477Z" fill="white"/>
<path fill-rule="evenodd" clip-rule="evenodd" d="M49 32.1199C49 31.6426 48.6523 31.3914 48.3787 31.2485L48.0882 31.0967C47.8678 30.9841 47.6873 30.802 47.6873 30.6024C47.6873 30.3856 47.8456 30.1992 48.1369 30.1992C48.454 30.1992 48.6432 30.5158 48.7186 30.7368C48.7579 30.7802 48.8683 30.7758 48.8901 30.7239C48.8901 30.4332 48.8458 30.1992 48.8107 30.1039C48.7579 30.0953 48.7186 30.0866 48.6611 30.0692C48.4847 30.0173 48.3042 30 48.1588 30C47.5201 30 47.1367 30.3382 47.1367 30.8278C47.141 31.2572 47.4846 31.5172 47.8021 31.6732C48.0662 31.8034 48.401 32.0113 48.401 32.3623C48.401 32.5792 48.2517 32.8004 47.9254 32.8004C47.5507 32.8004 47.2557 32.4019 47.1675 32.1199C47.1322 32.072 47.031 32.0765 47 32.1328C47 32.4275 47.0574 32.7396 47.141 32.835C47.2335 32.8869 47.4846 33 47.8901 33C48.5552 32.9999 49 32.6529 49 32.1199Z" fill="white"/>
<path fill-rule="evenodd" clip-rule="evenodd" d="M49.8498 30.3965C49.8498 30.2299 49.8498 30.2209 49.9635 30.2209H50.2388C50.4078 30.2209 50.5111 30.2752 50.5762 30.3604C50.6209 30.4235 50.669 30.5587 50.7071 30.7166C50.7416 30.757 50.8207 30.7479 50.8344 30.6984C50.8172 30.3964 50.793 30.0721 50.7897 30C50.745 30.009 50.5487 30.0136 50.3284 30.0136H49.5987C49.4337 30.0136 49.265 30.009 49.1033 30C49.0686 30.0273 49.0652 30.1308 49.0964 30.1579L49.1824 30.1804C49.3372 30.2165 49.358 30.2479 49.358 30.6579V32.3379C49.358 32.7522 49.3372 32.7837 49.1824 32.811L49.0209 32.8425C48.993 32.865 48.993 32.9731 49.0209 33C49.2787 32.9912 49.4474 32.9866 49.613 32.9866H50.06C50.3425 32.9866 50.6725 32.9912 50.8552 33C50.9033 32.8788 50.9859 32.5138 51 32.2797C50.9858 32.2254 50.8996 32.2073 50.8722 32.257C50.6828 32.7657 50.5658 32.7794 50.2668 32.7794C50.0153 32.7794 49.9501 32.7435 49.9051 32.6622C49.8639 32.5859 49.8499 32.4414 49.8499 32.2344V31.6986C49.8499 31.5635 49.8536 31.5589 49.9466 31.5589H50.184C50.3629 31.5589 50.4007 31.5947 50.4387 31.8112L50.4557 31.9237C50.4802 31.9643 50.5658 31.9598 50.5832 31.9191C50.5764 31.7752 50.573 31.6129 50.573 31.4416C50.573 31.2706 50.5764 31.1085 50.5832 30.9644C50.5658 30.9238 50.4803 30.9238 50.4557 30.9596L50.4387 31.0722C50.4008 31.2884 50.3629 31.3199 50.184 31.3199H49.9466C49.8536 31.3199 49.8499 31.3112 49.8499 31.1848V30.3965H49.8498Z" fill="white"/>
<path fill-rule="evenodd" clip-rule="evenodd" d="M39.9472 14.3061V13H23.2693V14.4628L8 14.3061L8.21648 14.515V16.1868V26.948L23.0529 27L54.7835 26.948V16.1868V14.515L55 14.3061H39.9472Z" fill="#ADAEC3"/>
<path fill-rule="evenodd" clip-rule="evenodd" d="M40 27V14H55L54.579 14.5122L54.5785 15.9258V26.9466L40 27Z" fill="white"/>
<path d="M40 27V14H55L54.579 14.5122L54.5785 15.9258V26.9466L40 27Z" stroke="white" stroke-width="0.107702" stroke-miterlimit="3.864"/>
<path fill-rule="evenodd" clip-rule="evenodd" d="M51.1999 18H52.7999V20.3571H53V21H51V20.3571H51.1999V18Z" fill="#5A5F81"/>
<path fill-rule="evenodd" clip-rule="evenodd" d="M47.1998 18H48.8001V20.3571H49V21H47V20.3571H47.1998V18Z" fill="#5A5F81"/>
<path fill-rule="evenodd" clip-rule="evenodd" d="M44.2004 18H45.8001V20.3571H46V21H44V20.3571H44.2004V18Z" fill="#5A5F81"/>
<path fill-rule="evenodd" clip-rule="evenodd" d="M40.2 18H41.7997V20.3571H42V21H40V20.3571H40.2V18Z" fill="#5A5F81"/>
<path d="M53 22H51V26H53V22Z" fill="#5A5F81"/>
<path d="M49 22H47V26H49V22Z" fill="#5A5F81"/>
<path d="M46 22H44V26H46V22Z" fill="#5A5F81"/>
<path d="M42 22H40V26H42V22Z" fill="#5A5F81"/>
<path fill-rule="evenodd" clip-rule="evenodd" d="M23 27V14H8L8.38582 14.3961V15.9258V26.9466L23 27Z" fill="white"/>
<path fill-rule="evenodd" clip-rule="evenodd" d="M14.8001 18H13.2001V20.3571H13V21H15V20.3571H14.8001V18Z" fill="#5A5F81"/>
<path fill-rule="evenodd" clip-rule="evenodd" d="M18.8001 18H17.2V20.3571H17V21H19V20.3571H18.8001V18Z" fill="#5A5F81"/>
<path fill-rule="evenodd" clip-rule="evenodd" d="M21.8001 18H20.1998V20.3571H20V21H22V20.3571H21.8001V18Z" fill="#5A5F81"/>
<path d="M11 22H9V26H11V22Z" fill="#5A5F81"/>
<path d="M11 22H9V26H11V22Z" stroke="white" stroke-width="0.107144" stroke-miterlimit="3.864"/>
<path d="M15 22H13V26H15V22Z" fill="#5A5F81"/>
<path d="M15 22H13V26H15V22Z" stroke="white" stroke-width="0.107144" stroke-miterlimit="3.864"/>
<path d="M18 22H16V26H18V22Z" fill="#5A5F81"/>
<path d="M18 22H16V26H18V22Z" stroke="white" stroke-width="0.107144" stroke-miterlimit="3.864"/>
<path d="M22 22H20V26H22V22Z" fill="#5A5F81"/>
<path fill-rule="evenodd" clip-rule="evenodd" d="M10.8001 18H9.19989V20.3571H9V21H11V20.3571H10.8001V18Z" fill="#5A5F81"/>
<path fill-rule="evenodd" clip-rule="evenodd" d="M37 10H40V11L37 10Z" fill="white"/>
<path d="M37 10H40V11L37 10Z" stroke="white" stroke-width="0.107144" stroke-miterlimit="3.864"/>
<path d="M41 8H22V12H41V8Z" fill="url(#paint0_linear)"/>
<path d="M22 14H20V15H22V14Z" fill="white"/>
<path d="M39.6273 15H42V14L39.6273 15ZM20 15H22.2647V14H20V15V15Z" stroke="#000031" stroke-width="0.107144" stroke-miterlimit="3.864"/>
<path d="M42 14H40V15H42V14Z" fill="#8E91AB"/>
<path d="M42 14H40V15H42V14Z" stroke="white" stroke-width="0.168133" stroke-miterlimit="3.864"/>
<path d="M13 19.1941L10.7195 22L8 19.8061L10.2806 17L13 19.1941Z" fill="url(#paint1_linear)"/>
<path d="M11 18H10V19.9999H11V18Z" fill="#5A5F81"/>
<path d="M11 19.5H10H11ZM11 18.9999H10H11ZM11 18.4999H10H11ZM10.4999 18V19.9999V18ZM10 20H11V18.0001H10V20Z" stroke="white" stroke-width="0.107144" stroke-miterlimit="3.864"/>
<path d="M17 19.1941L14.7193 22L12 19.8061L14.2807 17L17 19.1941Z" fill="url(#paint2_linear)"/>
<path d="M14.9999 18H14V19.9999H14.9999V18Z" fill="#5A5F81"/>
<path d="M15 19.5H14.0001H15ZM15 18.9999H14.0001H15ZM15 18.4999H14.0001H15ZM14.5 18V19.9999V18ZM14 20H14.9999V18.0001H14V20Z" stroke="white" stroke-width="0.107144" stroke-miterlimit="3.864"/>
<path d="M20 19.1941L17.7194 22L15 19.8061L17.2806 17L20 19.1941Z" fill="url(#paint3_linear)"/>
<path d="M18 18H17V19.9999H18V18Z" fill="#5A5F81"/>
<path d="M18 19.5H17H18ZM18 18.9999H17H18ZM18 18.4999H17H18ZM17.5 18V19.9999V18ZM17 20H18V18.0001H17V20Z" stroke="white" stroke-width="0.107144" stroke-miterlimit="3.864"/>
<path d="M24 19.1941L21.7194 22L19 19.8059L21.2805 17L24 19.1941Z" fill="url(#paint4_linear)"/>
<path d="M21 18H20V20H21V18Z" fill="#5A5F81"/>
<path d="M21 19.5H20H21ZM21 18.9999H20H21ZM21 18.4999H20H21ZM20.4999 18V19.9999V18ZM20 20H20.9997V18.0001H20V20Z" stroke="white" stroke-width="0.107144" stroke-miterlimit="3.864"/>
<path d="M11 22H9V26H11V22Z" fill="white"/>
<path d="M11 22H9V26H11V22Z" stroke="white" stroke-width="0.107144" stroke-miterlimit="3.864"/>
<path d="M11 23H10V26H11V23Z" fill="#5A5F81"/>
<path d="M10.3334 23V26V23ZM10.6668 23V26V23ZM10 26H11V23H10V26Z" stroke="white" stroke-width="0.107144" stroke-miterlimit="3.864"/>
<path d="M13 21.9197L11.2689 24L9 22.0804L10.7313 20L13 21.9197Z" fill="url(#paint5_linear)"/>
<path d="M11 23H10M11 24H10H11ZM11 23.4999H10H11Z" stroke="white" stroke-width="0.107144" stroke-miterlimit="3.864"/>
<path d="M15 22H13V26H15V22Z" fill="white"/>
<path d="M15 22H13V26H15V22Z" stroke="white" stroke-width="0.107144" stroke-miterlimit="3.864"/>
<path d="M14 23H13V26H14V23Z" fill="#5A5F81"/>
<path d="M13.3333 23V26V23ZM13.6665 23V26V23ZM13 26H14V23H13V26Z" stroke="white" stroke-width="0.107144" stroke-miterlimit="3.864"/>
<path d="M16 21.9197L14.269 24L12 22.0804L13.7312 20L16 21.9197Z" fill="url(#paint6_linear)"/>
<path d="M15 23H14M15 24H14H15ZM15 23.4999H14H15Z" stroke="white" stroke-width="0.107144" stroke-miterlimit="3.864"/>
<path d="M19 22H17V26H19V22Z" fill="white"/>
<path d="M19 22H17V26H19V22Z" stroke="white" stroke-width="0.107144" stroke-miterlimit="3.864"/>
<path d="M18 23H17V26H18V23Z" fill="#5A5F81"/>
<path d="M17.3332 23V26V23ZM17.6663 23V26V23ZM17 26H18V23H17V26Z" stroke="white" stroke-width="0.107144" stroke-miterlimit="3.864"/>
<path d="M20 21.9197L18.2689 24L16 22.0804L17.7312 20L20 21.9197Z" fill="url(#paint7_linear)"/>
<path d="M18 23H17M18 24H17H18ZM18 23.4999H17H18Z" stroke="white" stroke-width="0.107144" stroke-miterlimit="3.864"/>
<path d="M22 22H20V26H22V22Z" fill="white"/>
<path d="M21 23H20V26H21V23Z" fill="#5A5F81"/>
<path d="M20.3333 23V26V23ZM20.6667 23V26V23ZM20 26H21V23H20V26Z" stroke="white" stroke-width="0.107144" stroke-miterlimit="3.864"/>
<path d="M23 21.9197L21.2689 24L19 22.0804L20.7311 20L23 21.9197Z" fill="url(#paint8_linear)"/>
<path d="M22 23H21M22 24H21H22ZM22 23.4999H21H22Z" stroke="white" stroke-width="0.107144" stroke-miterlimit="3.864"/>
<path d="M22 27H21V28H22V27Z" fill="url(#paint9_linear)"/>
<path d="M22 27H21V28H22V27Z" stroke="white" stroke-width="0.107144" stroke-miterlimit="3.864"/>
<path d="M21 27H18V28H21V27Z" fill="url(#paint10_linear)"/>
<path d="M21 27H18V28H21V27Z" stroke="white" stroke-width="0.107144" stroke-miterlimit="3.864"/>
<path d="M17 27H14V28H17V27Z" fill="url(#paint11_linear)"/>
<path d="M17 27H14V28H17V27Z" stroke="white" stroke-width="0.107144" stroke-miterlimit="3.864"/>
<path d="M14 27H11V28H14V27Z" fill="url(#paint12_linear)"/>
<path d="M14 27H11V28H14V27Z" stroke="white" stroke-width="0.107144" stroke-miterlimit="3.864"/>
<path d="M10 27H8V28H10V27Z" fill="url(#paint13_linear)"/>
<path d="M10 27H8V28H10V27Z" stroke="white" stroke-width="0.107144" stroke-miterlimit="3.864"/>
<path d="M23 16H8V17H23V16Z" fill="url(#paint14_linear)"/>
<path d="M20 13H19V14H20V13Z" fill="white"/>
<path d="M20 13H19V14H20V13Z" stroke="white" stroke-width="0.107144" stroke-miterlimit="3.864"/>
<path d="M22 14H20V15H22V14Z" fill="#8E91AB"/>
<path d="M22 14H20V15H22V14Z" stroke="white" stroke-width="0.168133" stroke-miterlimit="3.864"/>
<path d="M19 14H17V15H19V14Z" fill="#8E91AB"/>
<path d="M19 14H17V15H19V14Z" stroke="white" stroke-width="0.107144" stroke-miterlimit="3.864"/>
<path d="M15 14H13V15H15V14Z" fill="#8E91AB"/>
<path d="M15 14H13V15H15V14Z" stroke="white" stroke-width="0.107144" stroke-miterlimit="3.864"/>
<path d="M12 14H10V15H12V14Z" fill="#8E91AB"/>
<path d="M10.3187 14V14.9999V14ZM10.6372 14V14.9999V14ZM10.9555 14V14.9999V14ZM11.2742 14V14.9999V14ZM11.5929 14V14.9999V14ZM11.9113 14V14.9999V14ZM13.6107 14V14.9999V14ZM13.929 14V14.9999V14ZM14.2477 14V14.9999V14ZM14.5664 14V14.9999V14ZM14.885 14V14.9999V14ZM15.2036 14V14.9999V14ZM20.4071 14V14.9999V14ZM20.7256 14V14.9999V14ZM21.0442 14V14.9999V14ZM21.3628 14V14.9999V14ZM21.6814 14V14.9999V14ZM22 14V14.9999V14ZM16.9028 14V14.9999V14ZM17.2212 14V14.9999V14ZM17.5399 14V14.9999V14ZM17.8584 14V14.9999V14ZM18.1767 14V14.9999V14ZM18.4956 14V14.9999V14ZM10 15H12.2302V14.0001H10V15Z" stroke="white" stroke-width="0.107144" stroke-miterlimit="3.864"/>
<path d="M27 22H25V26H27V22Z" fill="#ADAEC3"/>
<path d="M27 22H25V26H27V22Z" stroke="white" stroke-width="0.10575" stroke-miterlimit="3.864"/>
<path fill-rule="evenodd" clip-rule="evenodd" d="M25 22H28C28 22 27.5 21 26.3753 21C25.2501 21 25 22 25 22Z" fill="#ADAEC3"/>
<path d="M25 22H28C28 22 27.5 21 26.3753 21C25.2501 21 25 22 25 22Z" stroke="white" stroke-width="0.107144" stroke-miterlimit="3.864"/>
<path d="M37 22H35V26H37V22Z" fill="#ADAEC3"/>
<path d="M37 22H35V26H37V22Z" stroke="white" stroke-width="0.106029" stroke-miterlimit="3.864"/>
<path d="M39 13H24V17H39V13Z" fill="url(#paint15_linear)"/>
<path fill-rule="evenodd" clip-rule="evenodd" d="M51.1997 18H52.8001V20.357H53V21H51V20.357H51.1997V18Z" fill="white"/>
<path d="M52 18H51V20H52V18Z" fill="#5A5F81"/>
<path d="M51 19.5H52H51ZM51 18.9999H52H51ZM51 18.4999H52H51ZM51.5001 18V19.9999V18ZM51 20H51.9997V18.0001H51V20Z" stroke="white" stroke-width="0.107144" stroke-miterlimit="3.864"/>
<path fill-rule="evenodd" clip-rule="evenodd" d="M47.2001 18H48.8V20.357H49V21H47V20.357H47.2001V18Z" fill="white"/>
<path d="M49 18H48V20H49V18Z" fill="#5A5F81"/>
<path d="M48 19.5H49H48ZM48 18.9999H49H48ZM48 18.4999H49H48ZM48.5001 18V19.9999V18ZM48 20H49V18.0001H48V20Z" stroke="white" stroke-width="0.107144" stroke-miterlimit="3.864"/>
<path fill-rule="evenodd" clip-rule="evenodd" d="M44.2002 18H45.8001V20.357H46V21H44V20.357H44.2002V18Z" fill="white"/>
<path d="M45 18H44V20H45V18Z" fill="#5A5F81"/>
<path d="M44 19.5H44.9997H44ZM44 18.9999H44.9997H44ZM44 18.4999H44.9997H44ZM44.4996 18V19.9999V18ZM44 20H45V18.0001H44V20V20Z" stroke="white" stroke-width="0.107144" stroke-miterlimit="3.864"/>
<path fill-rule="evenodd" clip-rule="evenodd" d="M40.1999 18H41.7996V20.357H42V21H40V20.357H40.1999V18Z" fill="white"/>
<path d="M42 18H41V20H42V18Z" fill="#5A5F81"/>
<path d="M41 19.5H42H41ZM41 18.9999H42H41ZM41 18.4999H42H41ZM41.4999 18V19.9999V18ZM41 20H42V18.0001H41V20Z" stroke="white" stroke-width="0.107144" stroke-miterlimit="3.864"/>
<path d="M53 22H51V26H53V22Z" fill="white"/>
<path d="M52 23H51V26H52V23Z" fill="#5A5F81"/>
<path d="M51.6665 23V26V23ZM51.3333 23V26V23ZM51 26H52V23H51V26Z" stroke="white" stroke-width="0.107144" stroke-miterlimit="3.864"/>
<path d="M54 21.8871L52.3757 24L50 22.1132L51.6243 20L54 21.8871Z" fill="url(#paint16_linear)"/>
<path d="M51 23H52M51 24H52H51ZM51 23.4999H52H51Z" stroke="white" stroke-width="0.107144" stroke-miterlimit="3.864"/>
<path d="M49 22H47V26H49V22Z" fill="white"/>
<path d="M49 23H48V26H49V23Z" fill="#5A5F81"/>
<path d="M48.6666 23V26V23ZM48.333 23V26V23ZM48 26H49V23H48V26V26Z" stroke="white" stroke-width="0.107144" stroke-miterlimit="3.864"/>
<path d="M51 21.887L49.3759 24L47 22.1131L48.6243 20L51 21.887Z" fill="url(#paint17_linear)"/>
<path d="M48 23H49M48 24H49H48ZM48 23.4999H49H48Z" stroke="white" stroke-width="0.107144" stroke-miterlimit="3.864"/>
<path d="M46 22H44V26H46V22Z" fill="white"/>
<path d="M46 23H45V26H46V23Z" fill="#5A5F81"/>
<path d="M45.6667 23V26V23ZM45.3332 23V26V23ZM45 26H46V23H45V26V26Z" stroke="white" stroke-width="0.107144" stroke-miterlimit="3.864"/>
<path d="M47 21.887L45.376 24L43 22.1131L44.6245 20L47 21.887Z" fill="url(#paint18_linear)"/>
<path d="M44 23H45M44 24H45H44ZM44 23.4999H45H44Z" stroke="white" stroke-width="0.107144" stroke-miterlimit="3.864"/>
<path d="M42 22H40V26H42V22Z" fill="white"/>
<path d="M41 23H40V26H41V23Z" fill="#5A5F81"/>
<path d="M40.6665 23V26V23ZM40.3331 23V26V23ZM40 26H41V23H40V26Z" stroke="white" stroke-width="0.107144" stroke-miterlimit="3.864"/>
<path d="M44 21.8871L42.3757 24L40 22.1132L41.6243 20L44 21.8871Z" fill="url(#paint19_linear)"/>
<path d="M41 23H42M41 24H42H41ZM41 23.4999H42H41Z" stroke="white" stroke-width="0.107144" stroke-miterlimit="3.864"/>
<path fill-rule="evenodd" clip-rule="evenodd" d="M31.5 21L31 22H32L31.5 21Z" fill="white"/>
<path d="M31.5 21L31 22H32L31.5 21Z" stroke="white" stroke-width="0.107144" stroke-miterlimit="3.864"/>
<path fill-rule="evenodd" clip-rule="evenodd" d="M26 17H28V20H26V19.3571V17Z" fill="#ADAEC3"/>
<path d="M26 17H28V20H26V19.3571V17Z" stroke="white" stroke-width="0.107144" stroke-miterlimit="3.864"/>
<path d="M27 18H26V20H27V18Z" fill="#5A5F81"/>
<path d="M26 19.5H27H26ZM26 19.0002H27H26ZM26 18.5001H27H26ZM26.5001 18V20V18ZM26 20H27V18H26V20Z" stroke="white" stroke-width="0.107144" stroke-miterlimit="3.864"/>
<path d="M37 17H35V20H37V17Z" fill="#ADAEC3"/>
<path d="M37 17H35V20H37V17Z" stroke="white" stroke-width="0.107144" stroke-miterlimit="3.864"/>
<path d="M36 18H35V20H36V18Z" fill="#5A5F81"/>
<path d="M35 19.5H36H35ZM35 19.0002H36H35ZM35 18.5001H36H35ZM35.4999 18V20V18ZM35 20H36V18H35V20Z" stroke="white" stroke-width="0.107144" stroke-miterlimit="3.864"/>
<path fill-rule="evenodd" clip-rule="evenodd" d="M31 17H33V20H31V19.3571V17Z" fill="#ADAEC3"/>
<path d="M31 17H33V20H31V19.3571V17Z" stroke="white" stroke-width="0.107144" stroke-miterlimit="3.864"/>
<path d="M32 18H31V20H32V18Z" fill="#5A5F81"/>
<path d="M32 18H31V20H32V18Z" stroke="white" stroke-width="0.107144" stroke-miterlimit="3.864"/>
<path d="M32 18V20.0559" stroke="#000031" stroke-width="0.107144" stroke-miterlimit="3.864"/>
<path d="M31.0298 18.1869H32.0948M31.0298 19.2149H32.0948H31.0298ZM31.0298 18.7011H32.0948H31.0298Z" stroke="white" stroke-width="0.107144" stroke-miterlimit="3.864"/>
<path fill-rule="evenodd" clip-rule="evenodd" d="M24 25.9482V25.1774H24.3195V25.9999L24 25.9482Z" fill="white"/>
<path d="M24 25.9482V25.1774H24.3195V25.9999L24 25.9482Z" stroke="white" stroke-width="0.107144" stroke-miterlimit="3.864"/>
<path fill-rule="evenodd" clip-rule="evenodd" d="M24.3193 25.9998V25.4858H24.7453V25.6913H24.9586V25.9998H24.3193Z" fill="white"/>
<path d="M24.3193 25.9998V25.4858H24.7453V25.6913H24.9586V25.9998H24.3193Z" stroke="white" stroke-width="0.107144" stroke-miterlimit="3.864"/>
<path d="M25.5974 25.6915H24.9585V26H25.5974V25.6915Z" fill="white"/>
<path d="M37.4206 16.3365V25.3829V16.3365ZM38.1659 15.8223H37.8466V25.3829L38.1659 15.8223ZM38.1659 15.3085L38.3792 25.1774L38.1659 15.3085ZM38.8052 15.2058H38.2726V15L38.8052 15.2058ZM25.5979 25.6915H26.1305V26L25.5979 25.6915ZM25.4917 17.0563L25.811 25.6915L25.4917 17.0563ZM24.6395 16.5423H25.1721L25.3847 25.6915L24.6395 16.5423ZM24.6395 15.9253L24.7458 25.6915L24.6395 15.9253ZM24.0005 15.9253H24.5331V15.7198L24.0005 15.9253ZM24.959 25.6915H25.5979V26H24.959V25.6915Z" stroke="white" stroke-width="0.107144" stroke-miterlimit="3.864"/>
<path d="M38.9107 25.1774H37.9521V25.9999H38.9107V25.1774Z" fill="white"/>
<path d="M38.9107 25.1774H37.9521V25.9999H38.9107V25.1774Z" stroke="white" stroke-width="0.107144" stroke-miterlimit="3.864"/>
<path d="M37.9525 25.3829H37.207V25.9996H37.9525V25.3829Z" fill="white"/>
<path d="M37.9525 25.3829H37.207V25.9996H37.9525V25.3829Z" stroke="white" stroke-width="0.107144" stroke-miterlimit="3.864"/>
<path d="M40.0975 12.0688H22.7959V13.9853H40.0975V12.0688Z" fill="url(#paint20_linear)"/>
<path fill-rule="evenodd" clip-rule="evenodd" d="M41.0485 11.5081L31.3931 7.59784V8.2367L39.7753 11.5367L41.0485 11.5081Z" fill="white"/>
<path d="M41.0485 11.5081L31.3931 7.59784V8.2367L39.7753 11.5367L41.0485 11.5081Z" stroke="white" stroke-width="0.107144" stroke-miterlimit="3.864"/>
<path fill-rule="evenodd" clip-rule="evenodd" d="M21.7397 11.4717L31.3931 7.59766V8.23651L23.011 11.5369L21.7397 11.4717Z" fill="white"/>
<path d="M31.3931 7.59766V4.51025" stroke="white" stroke-width="0.107144" stroke-miterlimit="3.864"/>
<path fill-rule="evenodd" clip-rule="evenodd" d="M31.3932 4.72321C31.3932 4.72321 31.5003 5.149 32.2526 5.149C33.0048 5.149 32.6826 5.04263 33.3272 5.25553L33.435 6.4268C33.435 6.4268 32.8976 6.10728 32.4675 6.10728C32.038 6.10728 31.9301 6.4268 31.3931 6.21382V4.72321H31.3932Z" fill="white"/>
<path d="M31.3932 4.72321C31.3932 4.72321 31.5003 5.149 32.2526 5.149C33.0048 5.149 32.6826 5.04263 33.3272 5.25553L33.435 6.4268C33.435 6.4268 32.8976 6.10728 32.4675 6.10728C32.038 6.10728 31.9301 6.4268 31.3931 6.21382V4.72321H31.3932Z" stroke="white" stroke-width="0.107144" stroke-miterlimit="3.864"/>
<path fill-rule="evenodd" clip-rule="evenodd" d="M25.9127 10.0464H23.2261V11.1109L25.9127 10.0464Z" fill="white"/>
<path d="M33.5427 25.9091H33.1126V26.8672L33.5427 25.9091ZM29.7812 26.1219H30.2113V26.8672L29.7812 26.1219ZM29.4587 26.0156H29.7812V26.8671L29.4587 26.0156ZM25.9126 10.0464H23.2261V11.1108L25.9126 10.0464Z" stroke="white" stroke-width="0.107144" stroke-miterlimit="3.864"/>
<path d="M32.36 24.525H30.8555V26.867H32.36V24.525Z" fill="#5A5F81"/>
<path d="M29.7814 17.6053L30.1036 26.1219L29.7814 17.6053ZM29.5664 17.6053L29.674 26.0156L29.5664 17.6053ZM33.3274 17.6053L33.2201 25.909L33.3274 17.6053ZM30.8559 25.6962H32.3605H30.8559ZM31.6081 24.5251V26.8673V24.5251ZM30.8559 26.867H32.3605V24.525H30.8559V26.867Z" stroke="white" stroke-width="0.107144" stroke-miterlimit="3.864"/>
<path fill-rule="evenodd" clip-rule="evenodd" d="M30.3184 23.7797C30.3184 23.7797 30.3184 22.5024 31.6078 22.5024C32.8977 22.5024 33.0049 23.7797 33.0049 23.7797H30.3184Z" fill="white"/>
<path d="M30.3184 23.7797C30.3184 23.7797 30.3184 22.5024 31.6078 22.5024C32.8977 22.5024 33.0049 23.7797 33.0049 23.7797H30.3184Z" stroke="white" stroke-width="0.107144" stroke-miterlimit="3.864"/>
<path d="M31.6081 22.0766H31.0708V23.5669H31.6081V22.0766Z" fill="#ADAEC3"/>
<path d="M31.6081 22.0766H31.0708V23.5669H31.6081V22.0766Z" stroke="white" stroke-width="0.107144" stroke-miterlimit="3.864"/>
<path d="M32.1452 22.0766H31.6079V23.5669H32.1452V22.0766Z" fill="#5A5F81"/>
<path d="M32.1452 22.0766H31.6079V23.5669H32.1452V22.0766Z" stroke="white" stroke-width="0.107144" stroke-miterlimit="3.864"/>
<path d="M33.0049 23.7797H30.3184V24.2059H33.0049V23.7797Z" fill="white"/>
<path d="M33.0045 24.2055V25.696H33.2195L33.0045 24.2055ZM30.318 24.2055V25.696H30.103L30.318 24.2055ZM30.318 24.2059H33.0045V23.7797H30.318V24.2059Z" stroke="white" stroke-width="0.107144" stroke-miterlimit="3.864"/>
<path d="M36.7663 22.9282H35.4766V25.909H36.7663V22.9282Z" fill="#5A5F81"/>
<path d="M35.4766 25.1638H36.7663H35.4766ZM35.4766 24.4187H36.7663H35.4766ZM35.4766 23.6733H36.7663H35.4766ZM36.3362 22.9282V25.909V22.9282ZM35.9062 22.9282V25.909V22.9282ZM35.4766 25.909H36.7663V22.9282H35.4766V25.909Z" stroke="white" stroke-width="0.107144" stroke-miterlimit="3.864"/>
<path d="M27.6319 22.9282H26.3423V25.909H27.6319V22.9282Z" fill="#5A5F81"/>
<path d="M26.3423 25.1638H27.6319H26.3423ZM26.3423 24.4187H27.6319H26.3423ZM26.3423 23.6733H27.6319H26.3423ZM27.2021 22.9282V25.909V22.9282ZM26.7723 22.9282V25.909V22.9282ZM26.3423 25.909H27.6319V22.9282H26.3423V25.909Z" stroke="white" stroke-width="0.107144" stroke-miterlimit="3.864"/>
<path d="M41.7098 27.1868H40.7427V28.0384H41.7098V27.1868Z" fill="url(#paint21_linear)"/>
<path d="M41.7102 27.1871H40.7427V28.0388H41.7102V27.1871Z" stroke="white" stroke-width="0.107144" stroke-miterlimit="3.864"/>
<path d="M42.3543 27.0801H41.7095V28.1447H42.3543V27.0801Z" fill="#ADAEC3"/>
<path d="M42.3543 27.0801H41.7095V28.1447H42.3543V27.0801Z" stroke="white" stroke-width="0.107144" stroke-miterlimit="3.864"/>
<path d="M45.7937 27.0801H45.1489V28.1447H45.7937V27.0801Z" fill="#ADAEC3"/>
<path d="M45.7937 27.0801H45.1489V28.1447H45.7937V27.0801Z" stroke="white" stroke-width="0.107144" stroke-miterlimit="3.864"/>
<path d="M49.2325 27.0801H48.5879V28.1447H49.2325V27.0801Z" fill="#ADAEC3"/>
<path d="M49.2325 27.0801H48.5879V28.1447H49.2325V27.0801Z" stroke="white" stroke-width="0.107144" stroke-miterlimit="3.864"/>
<path d="M52.6712 27.0801H52.0264V28.1447H52.6712V27.0801Z" fill="#ADAEC3"/>
<path d="M52.6712 27.0801H52.0264V28.1447H52.6712V27.0801Z" stroke="white" stroke-width="0.107144" stroke-miterlimit="3.864"/>
<path d="M45.1487 27.1868H42.3545V28.0384H45.1487V27.1868Z" fill="url(#paint22_linear)"/>
<path d="M45.1492 27.1865H42.355V28.0383H45.1492V27.1865Z" stroke="white" stroke-width="0.107144" stroke-miterlimit="3.864"/>
<path d="M48.5877 27.1868H45.7935V28.0384H48.5877V27.1868Z" fill="url(#paint23_linear)"/>
<path d="M48.5877 27.1865H45.7935V28.0383H48.5877V27.1865Z" stroke="white" stroke-width="0.107144" stroke-miterlimit="3.864"/>
<path d="M52.0267 27.1868H49.2324V28.0384H52.0267V27.1868Z" fill="url(#paint24_linear)"/>
<path d="M52.0267 27.1865H49.2324V28.0383H52.0267V27.1865Z" stroke="white" stroke-width="0.107144" stroke-miterlimit="3.864"/>
<path d="M54.8205 27.1868H52.6714V28.0384H54.8205V27.1868Z" fill="url(#paint25_linear)"/>
<path d="M54.8205 27.1865H52.6714V28.0383H54.8205V27.1865Z" stroke="white" stroke-width="0.107144" stroke-miterlimit="3.864"/>
<path d="M54.9829 16.2212H39.9902V17.0729H54.9829V16.2212Z" fill="url(#paint26_linear)"/>
<path d="M43.4291 13.0275H41.9243V14.305H43.4291V13.0275Z" fill="white"/>
<path d="M43.4291 13.0275H41.9243V14.305H43.4291V13.0275Z" stroke="white" stroke-width="0.107144" stroke-miterlimit="3.864"/>
<path d="M45.9006 14.305H43.644V15.3694H45.9006V14.305Z" fill="#8E91AB"/>
<path d="M45.9006 14.305H43.644V15.3694H45.9006V14.305Z" stroke="white" stroke-width="0.107144" stroke-miterlimit="3.864"/>
<path d="M49.232 14.305H46.9751V15.3694H49.232V14.305Z" fill="#8E91AB"/>
<path d="M49.232 14.305H46.9751V15.3694H49.232V14.305Z" stroke="white" stroke-width="0.107144" stroke-miterlimit="3.864"/>
<path d="M52.5633 14.305H50.3071V15.3694H52.5633V14.305Z" fill="#8E91AB"/>
<path d="M31.6079 21.8606V15.1032V21.8606ZM52.2409 14.305V15.3694V14.305ZM51.9187 14.305V15.3694V14.305ZM51.5961 14.305V15.3694V14.305ZM51.2738 14.305V15.3694V14.305ZM50.9515 14.305V15.3694V14.305ZM50.629 14.305V15.3694V14.305ZM48.9098 14.305V15.3694V14.305ZM48.5874 14.305V15.3694V14.305ZM48.265 14.305V15.3694V14.305ZM47.9426 14.305V15.3694V14.305ZM47.62 14.305V15.3694V14.305ZM47.2978 14.305V15.3694V14.305ZM42.0322 14.305V15.3694V14.305ZM41.7095 14.305V15.3694V14.305ZM41.3871 14.305V15.3694V14.305ZM41.0648 14.305V15.3694V14.305ZM40.7423 14.305V15.3694V14.305ZM40.42 14.305V15.3694V14.305ZM45.5785 14.305V15.3694V14.305ZM45.2559 14.305V15.3694V14.305ZM44.9331 14.305V15.3694V14.305ZM44.6111 14.305V15.3694V14.305ZM44.2884 14.305V15.3694V14.305ZM43.9665 14.305V15.3694V14.305ZM50.3071 15.3695H52.5633V14.3051H50.3071V15.3695Z" stroke="white" stroke-width="0.107144" stroke-miterlimit="3.864"/>
<path fill-rule="evenodd" clip-rule="evenodd" d="M21.8223 11.5231L40.9804 11.5371L40.5079 12.1469H22.1785L21.8223 11.5231Z" fill="white"/>
<path d="M21.8223 11.5231L40.9804 11.5371L40.5079 12.1469H22.1785L21.8223 11.5231Z" stroke="white" stroke-width="0.119738" stroke-miterlimit="3.864"/>
<path fill-rule="evenodd" clip-rule="evenodd" d="M21.8335 11.5369L31.394 7.59766V8.23651L23.0118 11.5369H21.8335Z" fill="white"/>
<path d="M37.6271 15.1034C37.6271 15.1034 36.3374 19.625 31.5016 21.6227L37.6271 15.1034ZM25.376 15.1034C25.376 15.1034 26.6654 19.625 31.5016 21.6227L25.376 15.1034ZM21.8335 11.5369L31.3941 7.59778V8.23655L23.0119 11.5369H21.8335Z" stroke="white" stroke-width="0.107144" stroke-miterlimit="3.864"/>
<path fill-rule="evenodd" clip-rule="evenodd" d="M23.978 14.4112C24.3004 14.5177 24.5154 14.4112 24.5154 14.1984C24.5154 13.9856 24.3004 13.9856 24.3004 13.9856H22.6886C22.6886 13.9856 22.4736 13.9856 22.4736 14.1984C22.4736 14.4112 22.6886 14.5177 23.011 14.4112H23.978Z" fill="white"/>
<path d="M23.978 14.4112C24.3004 14.5177 24.5154 14.4112 24.5154 14.1984C24.5154 13.9856 24.3004 13.9856 24.3004 13.9856H22.6886C22.6886 13.9856 22.4736 13.9856 22.4736 14.1984C22.4736 14.4112 22.6886 14.5177 23.011 14.4112H23.978Z" stroke="white" stroke-width="0.107144" stroke-miterlimit="3.864"/>
<path fill-rule="evenodd" clip-rule="evenodd" d="M29.2438 14.4112C29.5664 14.5177 29.7812 14.4112 29.7812 14.1984C29.7812 13.9856 29.5664 13.9856 29.5664 13.9856H27.9544C27.9544 13.9856 27.7393 13.9856 27.7393 14.1984C27.7393 14.4112 27.9544 14.5177 28.2766 14.4112H29.2438Z" fill="white"/>
<path d="M29.2438 14.4112C29.5664 14.5177 29.7812 14.4112 29.7812 14.1984C29.7812 13.9856 29.5664 13.9856 29.5664 13.9856H27.9544C27.9544 13.9856 27.7393 13.9856 27.7393 14.1984C27.7393 14.4112 27.9544 14.5177 28.2766 14.4112H29.2438Z" stroke="white" stroke-width="0.107144" stroke-miterlimit="3.864"/>
<path fill-rule="evenodd" clip-rule="evenodd" d="M33.7572 14.4112C33.4349 14.5177 33.2197 14.4112 33.2197 14.1984C33.2197 13.9856 33.4349 13.9856 33.4349 13.9856H35.0468C35.0468 13.9856 35.2613 13.9856 35.2613 14.1984C35.2613 14.4112 35.0468 14.5177 34.7243 14.4112H33.7572Z" fill="white"/>
<path d="M33.7572 14.4112C33.4349 14.5177 33.2197 14.4112 33.2197 14.1984C33.2197 13.9856 33.4349 13.9856 33.4349 13.9856H35.0468C35.0468 13.9856 35.2613 13.9856 35.2613 14.1984C35.2613 14.4112 35.0468 14.5177 34.7243 14.4112H33.7572Z" stroke="white" stroke-width="0.107144" stroke-miterlimit="3.864"/>
<path fill-rule="evenodd" clip-rule="evenodd" d="M39.0232 14.4112C38.7008 14.5177 38.4858 14.4112 38.4858 14.1984C38.4858 13.9856 38.7008 13.9856 38.7008 13.9856H40.3128C40.3128 13.9856 40.5274 13.9856 40.5274 14.1984C40.5274 14.4112 40.3128 14.5177 39.9902 14.4112H39.0232Z" fill="white"/>
<path d="M39.0232 14.4112C38.7008 14.5177 38.4858 14.4112 38.4858 14.1984C38.4858 13.9856 38.7008 13.9856 38.7008 13.9856H40.3128C40.3128 13.9856 40.5274 13.9856 40.5274 14.1984C40.5274 14.4112 40.3128 14.5177 39.9902 14.4112H39.0232Z" stroke="white" stroke-width="0.107144" stroke-miterlimit="3.864"/>
<path fill-rule="evenodd" clip-rule="evenodd" d="M23.978 14.4111H23.0109L22.5811 25.6961H23.8707L23.978 14.4111Z" fill="white"/>
<path fill-rule="evenodd" clip-rule="evenodd" d="M29.244 14.4111H28.2767L28.062 25.6961H29.3516L29.244 14.4111Z" fill="white"/>
<path fill-rule="evenodd" clip-rule="evenodd" d="M33.7573 14.4111H34.7244L34.9394 25.6961H33.6494L33.7573 14.4111Z" fill="white"/>
<path d="M29.4587 25.6962H27.9541V26.8671H29.4587V25.6962Z" fill="white"/>
<path d="M29.4587 25.6962H27.9541V26.8671H29.4587V25.6962Z" stroke="white" stroke-width="0.107144" stroke-miterlimit="3.864"/>
<path d="M35.047 25.6962H33.5425V26.8671H35.047V25.6962Z" fill="white"/>
<path d="M35.047 25.6962H33.5425V26.8671H35.047V25.6962Z" stroke="white" stroke-width="0.107144" stroke-miterlimit="3.864"/>
<path d="M40.527 25.6962H39.0225V26.8671H40.527V25.6962Z" fill="white"/>
<path d="M40.527 25.6962H39.0225V26.8671H40.527V25.6962Z" stroke="white" stroke-width="0.107144" stroke-miterlimit="3.864"/>
<path d="M23.978 25.6962H22.4736V26.8671H23.978V25.6962Z" fill="white"/>
<path d="M23.978 25.6962H22.4736V26.8671H23.978V25.6962Z" stroke="white" stroke-width="0.107144" stroke-miterlimit="3.864"/>
<path d="M40.7424 26.8673H21.9365V28.3043H40.7424V26.8673Z" fill="url(#paint27_linear)"/>
<path d="M40.7419 26.867H21.936V28.3046H40.7419V26.867Z" stroke="white" stroke-width="0.107144" stroke-miterlimit="3.864"/>
<path d="M21.0769 27.0801H20.4321V28.1447H21.0769V27.0801Z" fill="#8E91AB"/>
<path d="M21.0769 27.0801H20.4321V28.1447H21.0769V27.0801Z" stroke="white" stroke-width="0.107144" stroke-miterlimit="3.864"/>
<path d="M17.6375 27.0801H16.9927V28.1447H17.6375V27.0801Z" fill="#8E91AB"/>
<path d="M17.6375 27.0801H16.9927V28.1447H17.6375V27.0801Z" stroke="white" stroke-width="0.107144" stroke-miterlimit="3.864"/>
<path d="M14.1992 27.0801H13.5542V28.1447H14.1992V27.0801Z" fill="#8E91AB"/>
<path d="M14.1992 27.0801H13.5542V28.1447H14.1992V27.0801Z" stroke="white" stroke-width="0.107144" stroke-miterlimit="3.864"/>
<path d="M10.76 27.0801H10.1152V28.1447H10.76V27.0801Z" fill="#8E91AB"/>
<path d="M10.76 27.0801H10.1152V28.1447H10.76V27.0801Z" stroke="white" stroke-width="0.107144" stroke-miterlimit="3.864"/>
<path fill-rule="evenodd" clip-rule="evenodd" d="M34.9023 22.3957H37.4818C37.4818 22.3957 37.0517 21.5441 36.0847 21.5441C35.1175 21.5441 34.9023 22.3957 34.9023 22.3957Z" fill="#ADAEC3"/>
<path d="M34.9023 22.3957H37.4818C37.4818 22.3957 37.0517 21.5441 36.0847 21.5441C35.1175 21.5441 34.9023 22.3957 34.9023 22.3957Z" stroke="white" stroke-width="0.107144" stroke-miterlimit="3.864"/>
<path d="M50.4946 21.6831L48.8724 23.5984L46.7461 21.8311L48.3683 19.9157L50.4946 21.6831Z" fill="url(#paint28_linear)"/>
<path d="M43.463 21.6832L41.8408 23.5983L39.7148 21.8311L41.337 19.916L43.463 21.6832Z" fill="url(#paint29_linear)"/>
<path d="M46.8868 21.6832L45.2647 23.5983L43.1387 21.8311L44.7608 19.916L46.8868 21.6832Z" fill="url(#paint30_linear)"/>
<path d="M53.983 21.6832L52.3609 23.5983L50.2349 21.8311L51.857 19.916L53.983 21.6832Z" fill="url(#paint31_linear)"/>
<path fill-rule="evenodd" clip-rule="evenodd" d="M39.0234 14.4111H39.9905L40.4203 25.6961H39.1309L39.0234 14.4111Z" fill="white"/>
<defs>
<linearGradient id="paint0_linear" x1="31.4998" y1="7.99982" x2="31.4998" y2="12.0004" gradientUnits="userSpaceOnUse">
<stop stop-color="#ADAEC3"/>
<stop offset="1" stop-color="white"/>
</linearGradient>
<linearGradient id="paint1_linear" x1="11.5987" y1="18.1505" x2="9.41149" y2="20.8614" gradientUnits="userSpaceOnUse">
<stop stop-color="white"/>
<stop offset="1" stop-color="white"/>
</linearGradient>
<linearGradient id="paint2_linear" x1="15.597" y1="18.1485" x2="13.4097" y2="20.8594" gradientUnits="userSpaceOnUse">
<stop stop-color="white"/>
<stop offset="1" stop-color="white"/>
</linearGradient>
<linearGradient id="paint3_linear" x1="18.5979" y1="18.148" x2="16.4108" y2="20.859" gradientUnits="userSpaceOnUse">
<stop stop-color="white"/>
<stop offset="1" stop-color="white"/>
</linearGradient>
<linearGradient id="paint4_linear" x1="22.5963" y1="18.1499" x2="20.4093" y2="20.8607" gradientUnits="userSpaceOnUse">
<stop stop-color="white"/>
<stop offset="1" stop-color="white"/>
</linearGradient>
<linearGradient id="paint5_linear" x1="11.6753" y1="21.1875" x2="10.3032" y2="22.8092" gradientUnits="userSpaceOnUse">
<stop stop-color="white"/>
<stop offset="1" stop-color="#5A5F81"/>
</linearGradient>
<linearGradient id="paint6_linear" x1="14.638" y1="21.2279" x2="13.3458" y2="22.755" gradientUnits="userSpaceOnUse">
<stop stop-color="white"/>
<stop offset="1" stop-color="#5A5F81"/>
</linearGradient>
<linearGradient id="paint7_linear" x1="18.6804" y1="21.1804" x2="17.3082" y2="22.8022" gradientUnits="userSpaceOnUse">
<stop stop-color="white"/>
<stop offset="1" stop-color="#5A5F81"/>
</linearGradient>
<linearGradient id="paint8_linear" x1="21.6376" y1="21.2287" x2="20.3461" y2="22.7552" gradientUnits="userSpaceOnUse">
<stop stop-color="white"/>
<stop offset="1" stop-color="#5A5F81"/>
</linearGradient>
<linearGradient id="paint9_linear" x1="21.5004" y1="27.0002" x2="21.5004" y2="28.0002" gradientUnits="userSpaceOnUse">
<stop stop-color="#8E91AB"/>
<stop offset="1" stop-color="white"/>
</linearGradient>
<linearGradient id="paint10_linear" x1="19.5003" y1="27.0002" x2="19.5003" y2="28.0002" gradientUnits="userSpaceOnUse">
<stop stop-color="#8E91AB"/>
<stop offset="1" stop-color="white"/>
</linearGradient>
<linearGradient id="paint11_linear" x1="15.5003" y1="27.0002" x2="15.5003" y2="28.0002" gradientUnits="userSpaceOnUse">
<stop stop-color="#8E91AB"/>
<stop offset="1" stop-color="white"/>
</linearGradient>
<linearGradient id="paint12_linear" x1="12.5003" y1="27.0002" x2="12.5003" y2="28.0002" gradientUnits="userSpaceOnUse">
<stop stop-color="#8E91AB"/>
<stop offset="1" stop-color="white"/>
</linearGradient>
<linearGradient id="paint13_linear" x1="9.00029" y1="27.0002" x2="9.00029" y2="28.0002" gradientUnits="userSpaceOnUse">
<stop stop-color="#8E91AB"/>
<stop offset="1" stop-color="white"/>
</linearGradient>
<linearGradient id="paint14_linear" x1="15.5002" y1="16.0002" x2="15.5002" y2="17.0002" gradientUnits="userSpaceOnUse">
<stop stop-color="#5A5F81"/>
<stop offset="1" stop-color="white"/>
</linearGradient>
<linearGradient id="paint15_linear" x1="31.4996" y1="12.9998" x2="31.4996" y2="17.0001" gradientUnits="userSpaceOnUse">
<stop stop-color="white"/>
<stop offset="1" stop-color="#5A5F81"/>
</linearGradient>
<linearGradient id="paint16_linear" x1="52.6196" y1="21.1907" x2="51.3503" y2="22.7889" gradientUnits="userSpaceOnUse">
<stop stop-color="#8E91AB"/>
<stop offset="1" stop-color="white"/>
</linearGradient>
<linearGradient id="paint17_linear" x1="49.5911" y1="21.234" x2="48.3895" y2="22.7469" gradientUnits="userSpaceOnUse">
<stop stop-color="#8E91AB"/>
<stop offset="1" stop-color="white"/>
</linearGradient>
<linearGradient id="paint18_linear" x1="45.6223" y1="21.1937" x2="44.3534" y2="22.7914" gradientUnits="userSpaceOnUse">
<stop stop-color="#8E91AB"/>
<stop offset="1" stop-color="white"/>
</linearGradient>
<linearGradient id="paint19_linear" x1="42.5915" y1="21.2343" x2="41.3898" y2="22.7473" gradientUnits="userSpaceOnUse">
<stop stop-color="#8E91AB"/>
<stop offset="1" stop-color="white"/>
</linearGradient>
<linearGradient id="paint20_linear" x1="31.4492" y1="12.0691" x2="31.4492" y2="13.9855" gradientUnits="userSpaceOnUse">
<stop stop-color="#ADAEC3"/>
<stop offset="1" stop-color="white"/>
</linearGradient>
<linearGradient id="paint21_linear" x1="41.2266" y1="27.187" x2="41.2266" y2="28.0386" gradientUnits="userSpaceOnUse">
<stop stop-color="#8E91AB"/>
<stop offset="1" stop-color="white"/>
</linearGradient>
<linearGradient id="paint22_linear" x1="43.752" y1="27.187" x2="43.752" y2="28.0386" gradientUnits="userSpaceOnUse">
<stop stop-color="#8E91AB"/>
<stop offset="1" stop-color="white"/>
</linearGradient>
<linearGradient id="paint23_linear" x1="47.1907" y1="27.187" x2="47.1907" y2="28.0386" gradientUnits="userSpaceOnUse">
<stop stop-color="#8E91AB"/>
<stop offset="1" stop-color="white"/>
</linearGradient>
<linearGradient id="paint24_linear" x1="50.6299" y1="27.187" x2="50.6299" y2="28.0386" gradientUnits="userSpaceOnUse">
<stop stop-color="#8E91AB"/>
<stop offset="1" stop-color="white"/>
</linearGradient>
<linearGradient id="paint25_linear" x1="53.7463" y1="27.187" x2="53.7463" y2="28.0386" gradientUnits="userSpaceOnUse">
<stop stop-color="#8E91AB"/>
<stop offset="1" stop-color="white"/>
</linearGradient>
<linearGradient id="paint26_linear" x1="47.4869" y1="16.2213" x2="47.4869" y2="17.0731" gradientUnits="userSpaceOnUse">
<stop stop-color="#5A5F81"/>
<stop offset="1" stop-color="white"/>
</linearGradient>
<linearGradient id="paint27_linear" x1="31.337" y1="26.8674" x2="31.337" y2="28.3045" gradientUnits="userSpaceOnUse">
<stop stop-color="#8E91AB"/>
<stop offset="1" stop-color="white"/>
</linearGradient>
<linearGradient id="paint28_linear" x1="49.218" y1="21.0471" x2="48.032" y2="22.4738" gradientUnits="userSpaceOnUse">
<stop stop-color="white"/>
<stop offset="1" stop-color="#5A5F81"/>
</linearGradient>
<linearGradient id="paint29_linear" x1="42.1866" y1="21.0476" x2="41.0009" y2="22.4739" gradientUnits="userSpaceOnUse">
<stop stop-color="white"/>
<stop offset="1" stop-color="#5A5F81"/>
</linearGradient>
<linearGradient id="paint30_linear" x1="45.6501" y1="21.0072" x2="44.3901" y2="22.5229" gradientUnits="userSpaceOnUse">
<stop stop-color="white"/>
<stop offset="1" stop-color="#5A5F81"/>
</linearGradient>
<linearGradient id="paint31_linear" x1="52.7455" y1="21.004" x2="51.4861" y2="22.5191" gradientUnits="userSpaceOnUse">
<stop stop-color="white"/>
<stop offset="1" stop-color="#5A5F81"/>
</linearGradient>
</defs>
</svg>