<svg width="470" height="47" class="d-none d-lg-block logo-large masthead-subpage" xmlns="http://www.w3.org/2000/svg" xmlns:xlink="http://www.w3.org/1999/xlink"><svg viewBox="62.585 302.859 470 47" width="100%" height="100%"> <path fill="#FFF" d="M65.205 305.092h69.562v42.534H65.205v-42.534z"></path> <path fill="#105EAB" d="M65.888 305.786h68.196v41.103H65.888v-41.103z"></path> <path fill="#FFF" d="M93.884 346.88l40.184-40.711v-.407h-.201L93.282 346.88zM68.546 346.88l2.716-41.118h-.428l-2.716 41.118zM70.719 346.88l5.867-41.118h-.434l-5.864 41.118zM73.044 346.88l9.178-41.118h-.435l-9.182 41.118zM75.598 346.88l13.099-41.118h-.442L75.152 346.88zM78.006 346.88l16.829-41.118h-.463l-16.83 41.118zM80.776 346.88l21.05-41.118h-.471L80.294 346.88zM112.343 305.762h-.511L84.58 346.88h.51zM122.061 305.762h-.538l-33.13 41.118h.546zM134.068 321.321v-.54l-32.851 26.099h.677zM134.068 332.631v-.502l-23.601 14.751h.808zM134.068 343.304v-.476l-8.684 4.052h1.008z"></path> <path fill="#FFF" d="M86.244 330.483c-.844.808-2.965 1.68-4.522 1.664-4.53-.004-6.647-3.854-6.686-9.735.031-5.567 2.315-9.109 6.239-9.116 2.806.005 4.17 1.631 4.915 2.601l.821 1.095v-5.061l-.262-.121c-1.617-.752-3.671-1.104-5.543-1.108-7.044.016-12.421 5.065-12.431 12.194.01 7.312 5.092 11.902 12.37 11.914h.037c3.614 0 5.467-1.09 6.445-1.839l.29-.22-1.206-2.707-.467.439zm19.739-17.152c-2.358-1.729-5.31-2.24-7.828-2.24h-8.604v23.305h9.164c4.444-.01 11.312-2.83 11.323-11.717.008-4.652-1.69-7.618-4.055-9.348zm-10.773 18.36v-17.969c4.162.111 8.59.618 8.669 9.051-.067 8.191-4.598 8.806-8.669 8.918zm34.455-1.645l-.467.438c-.845.81-2.959 1.679-4.515 1.663-4.531 0-6.65-3.854-6.688-9.733.031-5.569 2.318-9.11 6.247-9.117 2.802.003 4.169 1.631 4.899 2.601l.825 1.108v-5.072l-.261-.123c-1.609-.755-3.662-1.103-5.542-1.107-7.042.015-12.405 5.064-12.417 12.194.012 7.313 5.081 11.9 12.363 11.914h.057c3.601 0 5.447-1.091 6.426-1.838l.29-.222-1.217-2.706z"></path> <path fill="#0033A0" d="M135.297 345.739h.822v.122h-.344v.883h-.13v-.883h-.348v-.122zM137.075 346.743v-.603-.246l-.286.849h-.134l-.283-.849h-.003c0 .095.003.225.003.246v.603h-.134v-1.004h.191l.293.851h.004l.281-.851h.196v1.004h-.128z"></path> <g> <path d="M141.047 318.988a6.58 6.58 0 0 1 1.273-3.356c.705-.968 1.582-1.72 2.696-2.2a7.482 7.482 0 0 1 3.365-.781c.618 0 1.256.104 1.886.23a8.33 8.33 0 0 1 1.755.694c.563.331 1.093.704 1.547 1.224.517.476.905 1.026 1.283 1.729h-1.56a6.14 6.14 0 0 0-1.438-1.389 6.18 6.18 0 0 0-1.661-.834 7.145 7.145 0 0 0-1.766-.225c-.756 0-1.512.143-2.26.395a6.108 6.108 0 0 0-1.899 1.237c-.571.493-1.044 1.17-1.356 1.903a5.793 5.793 0 0 0-.531 2.401c.015 1.132.334 2.193.897 3.064.563.908 1.299 1.597 2.208 2.142.909.465 1.891.767 2.942.776.571-.01 1.165-.146 1.771-.356a5.36 5.36 0 0 0 1.699-.811 6.324 6.324 0 0 0 1.443-1.486h1.558a8.827 8.827 0 0 1-1.781 2.252 8.357 8.357 0 0 1-2.229 1.279c-.792.251-1.637.438-2.461.438-.941 0-1.89-.19-2.778-.557-.873-.351-1.689-.81-2.384-1.51-.696-.618-1.263-1.411-1.671-2.296a7.195 7.195 0 0 1-.629-3.001c.001-.368.028-.666.081-.962zM156.218 321.771c.029-.867.186-1.623.524-2.267.292-.693.719-1.254 1.225-1.741a5.056 5.056 0 0 1 1.747-1.063 5.555 5.555 0 0 1 1.941-.386c.915 0 1.757.229 2.625.62a5.672 5.672 0 0 1 2.058 1.985c.524.868.801 1.921.801 3.111v.272h-9.471c.023.783.275 1.43.704 1.994.427.56.91.947 1.509 1.244.6.268 1.186.417 1.758.417.49 0 .986-.135 1.527-.346.526-.195.95-.451 1.353-.797.405-.347.717-.744.875-1.192h1.439a4.765 4.765 0 0 1-1.273 2.015 5.58 5.58 0 0 1-1.893 1.271c-.687.229-1.429.405-2.126.405a5.997 5.997 0 0 1-2.612-.752c-.833-.478-1.451-1.13-1.98-1.94a5.828 5.828 0 0 1-.731-2.85zm9.539-.694a4.297 4.297 0 0 0-.744-1.705c-.38-.548-.891-.931-1.468-1.254a3.989 3.989 0 0 0-1.866-.433c-.884 0-1.628.187-2.235.628-.605.44-1.002.886-1.313 1.444-.255.529-.44.951-.46 1.319h8.086v.001zM168.963 327.095v-10.546h1.352v1.592c.336-.563.789-1.028 1.388-1.318.611-.29 1.273-.474 1.924-.474.598 0 1.168.117 1.712.317.543.238 1.056.524 1.462.94.452.414.788.882 1.068 1.519a5.49 5.49 0 0 1 .388 1.998v5.972h-1.401v-5.972c0-.714-.145-1.33-.462-1.845a3.927 3.927 0 0 0-1.222-1.162 3.488 3.488 0 0 0-1.608-.387c-.571 0-1.101.131-1.558.365a3.067 3.067 0 0 0-1.186 1.104 3.7 3.7 0 0 0-.47 1.775v6.12h-1.387zM181.308 327.095v-9.234h-2.225v-1.312h2.225v-3.676h1.411v3.676h2.428v1.312h-2.428v9.234h-1.411zM185.469 321.771c.029-.867.189-1.623.532-2.267.284-.693.71-1.254 1.217-1.741a5.131 5.131 0 0 1 1.747-1.063 5.743 5.743 0 0 1 1.976-.386c.879 0 1.723.229 2.59.62a5.56 5.56 0 0 1 2.059 1.985c.524.868.818 1.921.818 3.111v.272h-9.489c.058.783.276 1.43.704 1.994.428.56.91.947 1.509 1.244.601.268 1.187.417 1.76.417.489 0 .998-.135 1.549-.346.501-.195.96-.451 1.338-.797.396-.347.709-.744.867-1.192h1.439a4.767 4.767 0 0 1-1.274 2.015 5.566 5.566 0 0 1-1.892 1.271c-.679.229-1.407.405-2.126.405a5.997 5.997 0 0 1-2.612-.752c-.826-.478-1.451-1.13-1.96-1.94a5.606 5.606 0 0 1-.752-2.85zm9.538-.694c-.097-.636-.364-1.173-.745-1.705-.378-.548-.861-.931-1.424-1.254a4.198 4.198 0 0 0-1.89-.433c-.903 0-1.649.187-2.255.628-.583.44-1.002.886-1.313 1.444-.249.529-.405.951-.46 1.319h8.087v.001zM198.225 327.095v-10.551h1.327v1.547c.588-1.161 1.601-1.775 3.081-1.775v1.413c-.347 0-.709.094-1.058.237-.349.105-.659.328-.992.592a3.42 3.42 0 0 0-.7.916c-.175.336-.242.708-.242 1.12v6.499h-1.416v.002zM203.5 319.636a2.515 2.515 0 0 1-.025-.435c0-.585.139-1.133.479-1.518.278-.448.659-.76 1.144-1.007a3.06 3.06 0 0 1 1.343-.328c.345 0 .688.051 1.029.195.341.09.671.282.962.512.28.244.51.537.687.89.176.355.308.771.333 1.25h-1.476c-.021-.54-.186-.905-.458-1.14-.319-.222-.691-.368-1.076-.368-.378 0-.755.155-1.088.368-.308.273-.475.631-.504 1.14.004.002.028.042.072.192.009.18.011.235.021.295.128.335.442.641 1.002.861.561.229 1.126.481 1.696.686.57.233 1.068.535 1.446.962.379.399.575.966.575 1.736 0 .173-.012.349-.012.564-.087.688-.309 1.19-.647 1.62-.339.433-.759.71-1.243.914-.459.166-.941.288-1.372.288a3.449 3.449 0 0 1-1.702-.454 2.972 2.972 0 0 1-1.174-1.207c-.288-.463-.427-1.036-.427-1.645l1.456-.057c.009.598.195 1.103.573 1.467.384.39.848.581 1.327.583.534-.004.94-.21 1.317-.581.343-.334.515-.756.515-1.238 0-.446-.136-.836-.439-1.187-.26-.344-.706-.593-1.298-.743-.815-.206-1.476-.482-2.043-.872-.566-.383-.888-.98-.993-1.743zM217.104 327.095v-9.227h-1.59v-1.267h1.59c0-2.454 1.356-3.68 4.071-3.68v1.319c-.815 0-1.478.136-1.93.44-.515.351-.721.917-.742 1.796.033.064.034.066.034.124h2.637v1.267h-2.637v9.227h-1.433v.001zM221.432 321.64a4.877 4.877 0 0 1 .455-2.003c.25-.63.646-1.195 1.186-1.686a5.904 5.904 0 0 1 1.769-1.183 6.394 6.394 0 0 1 2.243-.42c.773 0 1.568.195 2.389.646.779.462 1.469 1.061 2.013 1.816s.842 1.596.922 2.524c0 .062.003.129.012.192.008.111.013.163.013.217 0 .78-.131 1.497-.455 2.162a4.86 4.86 0 0 1-1.177 1.771c-.548.51-1.118.913-1.802 1.205-.639.249-1.381.435-2.108.435a5.273 5.273 0 0 1-2.581-.678c-.86-.464-1.54-1.082-2.063-1.976-.523-.85-.816-1.866-.816-3.022zm1.401.079c0 .865.186 1.595.558 2.19.372.625.853 1.144 1.504 1.495a4.78 4.78 0 0 0 2.055.596c.639 0 1.223-.189 1.852-.529.638-.321 1.132-.808 1.547-1.46.415-.664.623-1.42.623-2.292 0-.51-.142-1.01-.339-1.479-.192-.48-.508-.921-.881-1.301s-.822-.688-1.289-.884a3.572 3.572 0 0 0-1.512-.368 4.124 4.124 0 0 0-1.987.563 4.263 4.263 0 0 0-1.518 1.427 3.937 3.937 0 0 0-.613 2.042zM234.281 327.095v-10.551h1.326v1.547c.589-1.161 1.634-1.775 3.082-1.775v1.413c-.316 0-.691.094-1.058.237-.348.107-.66.328-.953.592a2.944 2.944 0 0 0-.74.916c-.175.336-.23.708-.23 1.12v6.499h-1.426v.002zM245.208 327.095v-14.222h3.885c1.331 0 2.507.207 3.505.584 1.046.374 1.869.863 2.593 1.575.662.648 1.156 1.42 1.522 2.268.349.885.51 1.831.51 2.821-.013 1.028-.228 2.016-.645 2.857a7.324 7.324 0 0 1-1.656 2.264c-.688.569-1.49 1.058-2.369 1.35a7.637 7.637 0 0 1-2.722.503h-4.623zm1.451-12.958v11.638h2.161c1.997 0 3.591-.491 4.87-1.392 1.298-.938 1.98-2.352 2.083-4.262 0-.802-.118-1.553-.396-2.261-.258-.744-.682-1.342-1.232-1.914a5.557 5.557 0 0 0-2.117-1.296c-.819-.374-1.82-.515-2.935-.515l-2.434.002zM259.283 315.321v-2.448h1.388v2.448h-1.388zm0 11.774v-10.546h1.388v10.546h-1.388zM262.761 319.636v-.435c0-.585.158-1.133.437-1.518.319-.448.697-.76 1.145-1.007.48-.21.891-.328 1.342-.328.345 0 .689.051 1.031.195.377.09.701.282.962.512.322.244.549.537.747.89.177.355.247.771.271 1.25h-1.413c-.033-.54-.193-.905-.521-1.14a1.657 1.657 0 0 0-1.074-.368c-.377 0-.72.155-1.038.368-.358.273-.526.631-.555 1.14.004.002.028.042.072.192.043.18.072.235.084.295.066.335.399.641.952.861.581.229 1.134.481 1.715.686.553.233 1.057.535 1.455.962.398.399.598.966.598 1.736 0 .173-.019.349-.057.564-.102.688-.31 1.19-.663 1.62-.338.433-.76.71-1.201.914-.502.166-.931.288-1.415.288-.607 0-1.188-.187-1.701-.454a3.37 3.37 0 0 1-1.172-1.207c-.245-.463-.38-1.036-.38-1.645l1.407-.057c.024.598.233 1.103.626 1.467.394.39.795.581 1.332.583.478-.004.918-.21 1.26-.581a1.67 1.67 0 0 0 .514-1.238c0-.446-.125-.836-.428-1.187-.261-.344-.715-.593-1.307-.743-.76-.206-1.477-.482-2.045-.872-.569-.387-.881-.98-.98-1.743zM270.167 321.771c.028-.867.185-1.623.529-2.267.287-.693.713-1.254 1.22-1.741a5.07 5.07 0 0 1 1.746-1.063 5.514 5.514 0 0 1 1.949-.386c.908 0 1.752.229 2.62.62a5.662 5.662 0 0 1 2.057 1.985c.526.868.789 1.921.789 3.111v.272h-9.459a3.34 3.34 0 0 0 .704 1.994c.427.56.91.947 1.51 1.244.599.268 1.186.417 1.757.417.491 0 .985-.135 1.534-.346a4.356 4.356 0 0 0 1.345-.797c.406-.347.716-.744.875-1.192h1.44a4.784 4.784 0 0 1-1.273 2.015 5.583 5.583 0 0 1-1.894 1.271c-.696.229-1.428.405-2.126.405a5.998 5.998 0 0 1-2.613-.752c-.833-.478-1.45-1.13-1.979-1.94a5.82 5.82 0 0 1-.731-2.85zm9.538-.694a4.474 4.474 0 0 0-.744-1.705c-.381-.548-.891-.931-1.46-1.254a4.1 4.1 0 0 0-1.874-.433c-.883 0-1.63.187-2.235.628-.605.44-1.01.886-1.313 1.444-.251.529-.451.951-.46 1.319h8.086v.001zM282.404 321.871a6.29 6.29 0 0 1 .467-2.304 5.19 5.19 0 0 1 1.267-1.745 4.636 4.636 0 0 1 1.842-1.112 5.375 5.375 0 0 1 2.026-.393c1.93.031 3.273.791 4.116 2.299v-2.067h1.402v10.546h-1.402v-2.028a4.083 4.083 0 0 1-1.712 1.684c-.744.376-1.573.568-2.532.568-.734-.024-1.398-.192-2.064-.426a5.749 5.749 0 0 1-1.751-1.088 6.503 6.503 0 0 1-1.255-1.702 6.134 6.134 0 0 1-.404-2.232zm1.439-.311c0 .853.188 1.618.57 2.294.378.637.858 1.186 1.497 1.533.639.349 1.266.555 1.969.575.792 0 1.513-.215 2.178-.604.668-.387 1.159-.87 1.523-1.52.363-.626.544-1.248.544-1.97 0-.74-.174-1.4-.522-2.028-.349-.644-.873-1.129-1.458-1.504-.636-.376-1.306-.608-2.062-.649-.799 0-1.521.217-2.195.628-.653.41-1.161.884-1.514 1.513-.354.6-.53 1.203-.53 1.732zM295.586 319.636a2.442 2.442 0 0 1-.024-.435c0-.585.139-1.133.457-1.518.3-.448.683-.76 1.134-1.007.454-.21.923-.328 1.314-.328.372 0 .747.051 1.089.195.34.09.642.282.964.512.258.244.507.537.686.89.176.355.279.771.28 1.25h-1.422c-.033-.54-.186-.905-.47-1.14a1.92 1.92 0 0 0-1.124-.368c-.378 0-.722.155-1.027.368-.309.273-.493.631-.505 1.14.005.002.012.042.013.192.04.18.068.235.081.295.121.335.442.641 1.004.861.559.229 1.125.481 1.696.686a3.894 3.894 0 0 1 1.422.962c.396.399.597.966.597 1.736 0 .173-.019.349-.056.564-.042.688-.263 1.19-.603 1.62-.363.433-.759.71-1.262.914-.44.166-.932.288-1.369.288a3.45 3.45 0 0 1-1.688-.454c-.537-.294-.929-.686-1.172-1.207-.305-.463-.428-1.036-.428-1.645l1.399-.057c.02.598.228 1.103.621 1.467.393.39.857.581 1.332.583.517-.004.917-.21 1.274-.581.377-.334.551-.756.551-1.238 0-.446-.173-.836-.428-1.187-.313-.344-.708-.593-1.299-.743-.813-.206-1.476-.482-2.053-.872-.558-.383-.927-.98-.984-1.743zM302.996 321.771c0-.867.197-1.623.483-2.267.283-.693.71-1.254 1.232-1.741.55-.464 1.131-.832 1.731-1.063a5.826 5.826 0 0 1 1.976-.386c.881 0 1.759.229 2.591.62.867.455 1.533 1.12 2.058 1.985.525.868.819 1.921.819 3.111v.272h-9.49c.084.783.315 1.43.705 1.994a4.2 4.2 0 0 0 1.51 1.244c.599.268 1.187.417 1.758.417.501 0 1.046-.135 1.55-.346.501-.195.987-.451 1.39-.797.381-.347.656-.744.814-1.192h1.456a4.967 4.967 0 0 1-1.291 2.015c-.563.574-1.155.997-1.893 1.271-.678.229-1.366.405-2.107.405a6.06 6.06 0 0 1-2.63-.752c-.774-.478-1.452-1.13-1.92-1.94-.527-.853-.742-1.79-.742-2.85zm9.488-.694c-.094-.636-.363-1.173-.743-1.705-.381-.548-.83-.931-1.407-1.254a4.253 4.253 0 0 0-1.866-.433c-.937 0-1.689.187-2.246.628-.594.44-1.052.886-1.337 1.444-.276.529-.429.951-.487 1.319h8.086v.001zM320.455 318.988c.13-1.301.569-2.406 1.273-3.356.746-.968 1.644-1.72 2.696-2.2a7.658 7.658 0 0 1 3.366-.781c.668 0 1.284.104 1.887.23a8.129 8.129 0 0 1 1.783.694 7.66 7.66 0 0 1 1.581 1.224 7.228 7.228 0 0 1 1.252 1.729H332.7a6.087 6.087 0 0 0-1.375-1.389 7.089 7.089 0 0 0-1.671-.834 7.039 7.039 0 0 0-1.76-.225c-.789 0-1.541.143-2.257.395a6.306 6.306 0 0 0-1.961 1.237c-.571.493-1.027 1.17-1.357 1.903a6.134 6.134 0 0 0-.47 2.401c.018 1.132.274 2.193.837 3.064.562.908 1.3 1.597 2.23 2.142.947.465 1.89.767 2.922.776.613-.01 1.225-.146 1.816-.356a6.173 6.173 0 0 0 1.687-.811c.553-.387 1.004-.9 1.434-1.486h1.587c-.549.907-1.132 1.636-1.835 2.252a7.05 7.05 0 0 1-2.213 1.279c-.809.251-1.619.438-2.475.438-.938 0-1.844-.19-2.722-.557-.931-.351-1.713-.81-2.442-1.51-.696-.618-1.253-1.411-1.672-2.296-.417-.927-.622-1.921-.622-3.001.001-.368.02-.666.074-.962zM335.675 321.64a5.619 5.619 0 0 1 .405-2.003 6.014 6.014 0 0 1 1.184-1.686 5.642 5.642 0 0 1 1.819-1.183 6.25 6.25 0 0 1 2.243-.42c.773 0 1.556.195 2.34.646a6.32 6.32 0 0 1 2.035 1.816c.571.756.858 1.596.948 2.524 0 .062.004.129.01.192l.002.217c0 .78-.179 1.497-.44 2.162-.308.678-.693 1.299-1.238 1.771a5.811 5.811 0 0 1-1.739 1.205c-.688.249-1.392.435-2.118.435-.889 0-1.76-.213-2.604-.678a5.439 5.439 0 0 1-2.064-1.976c-.554-.85-.783-1.866-.783-3.022zm1.339.079c0 .865.2 1.595.577 2.19a4.151 4.151 0 0 0 1.512 1.495 4.728 4.728 0 0 0 2.064.596c.611 0 1.238-.189 1.864-.529a4.017 4.017 0 0 0 1.536-1.46c.381-.664.6-1.42.6-2.292 0-.51-.095-1.01-.314-1.479-.218-.48-.485-.921-.86-1.301a3.863 3.863 0 0 0-1.313-.884c-.49-.229-.985-.368-1.512-.368-.728.014-1.364.211-2.005.563a4.321 4.321 0 0 0-1.529 1.427c-.393.636-.604 1.291-.62 2.042zM348.513 327.095v-10.546h1.329v1.592c.336-.563.8-1.028 1.433-1.318.588-.29 1.226-.474 1.892-.474.607 0 1.153.117 1.721.317a4.895 4.895 0 0 1 1.463.94c.453.414.789.882 1.04 1.519.277.602.389 1.251.389 1.998v5.972h-1.371v-5.972c0-.714-.171-1.33-.495-1.845-.288-.479-.706-.865-1.214-1.162a3.475 3.475 0 0 0-3.143-.022c-.519.282-.912.645-1.186 1.104a3.422 3.422 0 0 0-.471 1.775v6.12h-1.387zM360.82 327.095v-9.234h-2.189v-1.312h2.189v-3.676h1.416v3.676h2.459v1.312h-2.459v9.234h-1.416zM365.984 327.095v-10.551h1.289v1.547c.63-1.161 1.639-1.775 3.084-1.775v1.413c-.316 0-.648.094-1.018.237-.351.107-.664.328-1.012.592-.294.254-.5.578-.707.916a2.69 2.69 0 0 0-.247 1.12v6.499h-1.389v.002zM370.604 321.64c.012-.685.184-1.322.433-2.003.27-.63.669-1.195 1.192-1.686a6.222 6.222 0 0 1 1.78-1.183c.715-.256 1.472-.42 2.242-.42.771 0 1.566.195 2.372.646.818.462 1.471 1.061 2.064 1.816.505.756.839 1.596.882 2.524 0 .062.004.129.012.192.01.111.014.163.014.217 0 .78-.092 1.497-.454 2.162a5.449 5.449 0 0 1-1.14 1.771c-.551.51-1.14.913-1.837 1.205-.65.249-1.333.435-2.059.435a5.138 5.138 0 0 1-2.598-.678c-.856-.464-1.527-1.082-2.106-1.976a6.055 6.055 0 0 1-.797-3.022zm1.422.079c0 .865.143 1.595.515 2.19a4.363 4.363 0 0 0 1.507 1.495c.675.343 1.358.558 2.099.596.591 0 1.206-.189 1.867-.529a4.228 4.228 0 0 0 1.535-1.46c.415-.664.574-1.42.574-2.292 0-.51-.107-1.01-.299-1.479-.206-.48-.535-.921-.91-1.301a4.087 4.087 0 0 0-1.254-.884c-.513-.229-1.041-.368-1.513-.368a4.267 4.267 0 0 0-2.021.563c-.603.363-1.136.827-1.528 1.427-.393.636-.555 1.291-.572 2.042zM383.463 327.095v-14.222h1.45v14.222h-1.45zM391.787 321.871c.013-.792.225-1.554.526-2.304a4.776 4.776 0 0 1 1.306-1.745c.486-.52 1.12-.889 1.802-1.112a5.135 5.135 0 0 1 1.977-.393c1.919.031 3.373.791 4.143 2.299v-2.067h1.424v10.546h-1.424v-2.028c-.363.73-.945 1.29-1.688 1.684-.745.376-1.617.568-2.497.568a7.226 7.226 0 0 1-2.123-.426c-.627-.262-1.249-.623-1.729-1.088-.565-.504-.981-1.056-1.255-1.702-.269-.707-.462-1.428-.462-2.232zm1.442-.311c0 .853.245 1.618.626 2.294.379.637.885 1.186 1.496 1.533.577.35 1.292.555 2.006.575.798 0 1.529-.215 2.142-.604.609-.387 1.158-.87 1.522-1.52a3.766 3.766 0 0 0 .521-1.97c0-.74-.15-1.4-.498-2.028-.35-.644-.876-1.129-1.455-1.504-.678-.376-1.361-.608-2.101-.649-.826 0-1.546.217-2.161.628-.615.41-1.161.884-1.513 1.513-.353.6-.585 1.203-.585 1.732zM405.32 327.095v-10.546h1.388v1.592a3.613 3.613 0 0 1 1.39-1.318c.639-.29 1.271-.474 1.922-.474.592 0 1.169.117 1.74.317.515.238 1.045.524 1.498.94.377.414.77.882 1.006 1.519.219.602.389 1.251.389 1.998v5.972h-1.381v-5.972c0-.714-.164-1.33-.452-1.845a3.322 3.322 0 0 0-1.251-1.162c-.547-.254-1.013-.387-1.647-.387-.494 0-1.063.131-1.577.365a4.656 4.656 0 0 0-1.119 1.104c-.343.51-.418 1.118-.418 1.775v6.12h-1.488zM416.408 321.334c.111-1.004.395-1.827.974-2.583.454-.755 1.181-1.366 1.937-1.797.76-.41 1.596-.605 2.464-.639.921 0 1.679.184 2.435.511.766.329 1.472.859 1.904 1.615v-5.568h1.469v14.222h-1.412v-2.029a4.833 4.833 0 0 1-1.765 1.69c-.681.37-1.565.561-2.532.561a5.686 5.686 0 0 1-2.563-.762c-.847-.499-1.52-1.136-2.11-1.97a5.007 5.007 0 0 1-.824-2.783 3.41 3.41 0 0 1 .023-.468zm1.438-.105c-.032.127-.039.301-.039.599 0 .673.229 1.324.586 1.942.357.675.892 1.151 1.479 1.552a3.895 3.895 0 0 0 2.077.643c.754 0 1.404-.188 2.026-.545a4.616 4.616 0 0 0 1.628-1.51c.423-.63.573-1.389.573-2.27 0-.463-.073-.977-.448-1.638a3.7 3.7 0 0 0-1.38-1.574c-.6-.482-1.412-.74-2.399-.74-.482 0-1.085.149-1.598.368-.638.234-1.072.613-1.558 1.142-.482.546-.756 1.193-.947 2.031zM435.191 327.095v-14.222h3.711c1.112 0 2.019.114 2.842.347a4.529 4.529 0 0 1 1.968 1.252c.529.563.776 1.383.868 2.443.017.039.025.189.025.383 0 .758-.277 1.484-.707 2.074a3.925 3.925 0 0 1-1.696 1.446 6.222 6.222 0 0 1-2.504.518h-3.112v5.759h-1.395zm1.395-12.958v5.934h2.907c1.287 0 2.132-.3 2.783-.873.525-.579.837-1.337.837-2.282 0-1.049-.379-1.743-1.119-2.164-.756-.421-1.716-.614-2.985-.614h-2.423zM446.005 327.095v-10.551h1.28v1.547c.636-1.161 1.623-1.775 3.066-1.775v1.413c-.313 0-.646.094-.997.237-.348.107-.658.328-.95.592-.363.254-.569.578-.756.916-.16.336-.278.708-.278 1.12v6.499h-1.365v.002zM450.672 321.771c0-.867.193-1.623.478-2.267a4.49 4.49 0 0 1 1.279-1.741 5.497 5.497 0 0 1 1.684-1.063c.722-.247 1.337-.372 1.979-.386.94 0 1.776.229 2.59.62.868.455 1.532 1.12 2.12 1.985.463.868.817 1.921.817 3.111v.272h-9.488c.054.783.275 1.43.703 1.994.427.56.862.947 1.51 1.244a4.051 4.051 0 0 0 1.696.417c.552 0 1.072-.135 1.551-.346.563-.195 1.033-.451 1.396-.797.393-.347.711-.744.808-1.192h1.46a5.662 5.662 0 0 1-1.232 2.015c-.625.574-1.216.997-1.894 1.271-.679.229-1.409.405-2.165.405a6.212 6.212 0 0 1-2.631-.752c-.756-.478-1.455-1.13-1.904-1.94a5.66 5.66 0 0 1-.757-2.85zm9.483-.694c-.034-.636-.363-1.173-.743-1.705-.381-.548-.789-.931-1.406-1.254-.531-.284-1.223-.433-1.864-.433-.935 0-1.69.187-2.235.628-.574.44-1.003.886-1.33 1.444a3.527 3.527 0 0 0-.443 1.319h8.021v.001zM466.182 327.095l-4.412-10.546h1.538l3.63 8.697 3.674-8.697h1.543l-4.461 10.546h-1.512zM472.34 321.771a6.043 6.043 0 0 1 .532-2.267c.285-.693.71-1.254 1.231-1.741.492-.464 1.135-.832 1.732-1.063.596-.247 1.291-.372 1.977-.386.826 0 1.723.229 2.59.62a4.85 4.85 0 0 1 2.016 1.985c.567.868.799 1.921.799 3.111v.272h-9.477c.07.783.363 1.43.756 1.994.363.56.907.947 1.512 1.244.595.268 1.119.417 1.753.417.515 0 .986-.135 1.552-.346a4.867 4.867 0 0 0 1.329-.797c.404-.347.659-.744.874-1.192h1.44a4.644 4.644 0 0 1-1.294 2.015c-.543.574-1.135.997-1.875 1.271-.739.229-1.427.405-2.125.405a6.123 6.123 0 0 1-2.612-.752c-.831-.478-1.451-1.13-1.979-1.94a5.693 5.693 0 0 1-.731-2.85zm9.538-.694c-.157-.636-.364-1.173-.744-1.705-.38-.548-.891-.931-1.407-1.254-.64-.286-1.222-.433-1.864-.433-.945 0-1.691.187-2.247.628-.655.44-1.112.886-1.362 1.444-.251.529-.466.951-.513 1.319h8.137v.001zM485.078 327.095v-10.546h1.357v1.592a3.627 3.627 0 0 1 1.39-1.318c.64-.29 1.272-.474 1.923-.474.621 0 1.169.117 1.74.317.515.238 1.045.524 1.498.94.406.414.768.882 1.006 1.519.218.602.388 1.251.388 1.998v5.972H493v-5.972c0-.714-.164-1.33-.453-1.845a3.322 3.322 0 0 0-1.251-1.162c-.546-.254-1.012-.387-1.646-.387-.495 0-1.063.131-1.548.365a4.256 4.256 0 0 0-1.148 1.104c-.343.51-.418 1.118-.418 1.775v6.12h-1.458zM497.452 327.095v-9.234h-2.189v-1.312h2.189v-3.676h1.389v3.676h2.471v1.312h-2.471v9.234h-1.389zM502.512 315.321v-2.448h1.465v2.448h-1.465zm0 11.774v-10.546h1.465v10.546h-1.465zM505.848 321.64c0-.685.129-1.322.398-2.003.35-.63.748-1.195 1.17-1.686.547-.488 1.103-.884 1.855-1.183a6.554 6.554 0 0 1 2.266-.42c.758 0 1.514.195 2.276.646a6.683 6.683 0 0 1 2.074 1.816c.541.756.893 1.596.942 2.524V321.743c0 .78-.127 1.497-.403 2.162-.351.678-.754 1.299-1.224 1.771-.564.51-1.104.913-1.798 1.205-.703.249-1.385.435-2.112.435-.911 0-1.707-.213-2.58-.678-.875-.464-1.542-1.082-2.11-1.976-.477-.85-.754-1.866-.754-3.022zm1.385.079c0 .865.126 1.595.526 2.19a3.955 3.955 0 0 0 1.512 1.495c.675.343 1.338.558 2.078.596.576 0 1.275-.189 1.852-.529.605-.321 1.132-.808 1.548-1.46.415-.664.573-1.42.573-2.292 0-.51-.031-1.01-.312-1.479a3.146 3.146 0 0 0-.85-1.301 3.341 3.341 0 0 0-1.3-.884c-.526-.229-.97-.368-1.512-.368-.69.014-1.328.211-2.037.563-.584.363-1.136.827-1.528 1.427-.39.636-.533 1.291-.55 2.042zM518.694 327.095v-10.546h1.326v1.592a3.62 3.62 0 0 1 1.39-1.318c.673-.29 1.271-.474 1.924-.474.651 0 1.169.117 1.773.317.481.238 1.011.524 1.463.94.438.414.789.882 1.006 1.519.219.602.39 1.251.39 1.998v5.972h-1.339v-5.972c0-.714-.206-1.33-.493-1.845-.289-.479-.707-.865-1.251-1.162a3.47 3.47 0 0 0-1.646-.387c-.498 0-1.065.131-1.518.365-.462.282-.857.645-1.13 1.104-.382.51-.47 1.118-.47 1.775v6.12h-1.425z"></path> </g> <g> <path d="M142.921 339.253c.103-.824.391-1.567.867-2.199a4.492 4.492 0 0 1 1.77-1.472 5.249 5.249 0 0 1 2.247-.52c.421 0 .835.058 1.237.168.422.115.805.24 1.167.472.384.188.718.476 1.046.781.313.307.591.721.832 1.154h-1.03a3.386 3.386 0 0 0-.934-.899 3.216 3.216 0 0 0-1.123-.547 3.555 3.555 0 0 0-1.161-.191c-.5 0-1.001.104-1.482.292-.484.175-.909.457-1.299.805a3.69 3.69 0 0 0-.89 1.248c-.218.491-.317 1.034-.317 1.631.001.729.198 1.425.563 1.989.375.614.857 1.081 1.478 1.402.601.363 1.24.509 1.933.521.4-.012.791-.087 1.178-.182.413-.136.777-.343 1.145-.575.346-.277.67-.582.951-.961h1.033a5.191 5.191 0 0 1-1.203 1.469c-.456.381-.95.652-1.461.858-.53.204-1.082.264-1.642.264-.629 0-1.225-.081-1.83-.334-.579-.209-1.117-.57-1.587-1a4.91 4.91 0 0 1-1.107-1.528 4.904 4.904 0 0 1-.4-1.994c-.002-.237.011-.423.019-.652zM153.575 344.639v-9.411h2.556c.875 0 1.664.132 2.336.366a4.595 4.595 0 0 1 1.702 1.048c.451.438.78.95 1.003 1.526.226.555.345 1.185.345 1.86-.007.677-.136 1.331-.41 1.88a4.452 4.452 0 0 1-1.119 1.471c-.466.4-.975.735-1.568.916a4.83 4.83 0 0 1-1.795.344h-3.05zm.941-8.583v7.721h1.452c1.296 0 2.384-.333 3.219-.932.836-.614 1.297-1.554 1.39-2.814 0-.528-.099-1.031-.274-1.506-.174-.476-.45-.891-.809-1.293-.38-.362-.846-.636-1.396-.868a6.193 6.193 0 0 0-1.967-.308h-1.615zM162.662 339.253c.103-.824.372-1.567.845-2.199a4.57 4.57 0 0 1 1.792-1.472c.71-.333 1.46-.52 2.226-.52.421 0 .857.058 1.259.168.401.115.798.24 1.168.472.362.188.717.476 1.034.781.317.307.605.721.844 1.154h-1.052a2.977 2.977 0 0 0-.934-.899 3.118 3.118 0 0 0-1.102-.547 3.637 3.637 0 0 0-1.159-.191c-.523 0-1.023.104-1.506.292a3.753 3.753 0 0 0-1.277.805c-.37.34-.673.753-.889 1.248a3.96 3.96 0 0 0-.338 1.631c.008.729.196 1.425.583 1.989a3.726 3.726 0 0 0 1.457 1.402c.623.363 1.262.509 1.94.521a5.897 5.897 0 0 0 1.195-.182 5.028 5.028 0 0 0 1.12-.575c.368-.277.669-.582.953-.961h1.052c-.352.596-.745 1.086-1.202 1.469-.456.381-.95.652-1.481.858-.532.204-1.063.264-1.637.264-.614 0-1.234-.081-1.815-.334-.599-.209-1.115-.57-1.587-1a4.787 4.787 0 0 1-1.118-1.528 5.106 5.106 0 0 1-.371-2.646zM176.132 338.258c.005-.684.163-1.284.452-1.763.266-.48.651-.822 1.111-1.077a3.755 3.755 0 0 1 1.485-.356c.383 0 .733.079 1.091.238.339.114.652.334.926.571.273.282.485.569.635.908.149.384.236.748.236 1.144 0 .942-.44 1.822-1.314 2.643l-3.375 3.209h4.688v.864h-5.976v-.86l4.192-4.08c.574-.596.871-1.159.871-1.773 0-.341-.096-.688-.264-.965-.169-.274-.398-.527-.692-.676a1.83 1.83 0 0 0-.913-.311 2.38 2.38 0 0 0-1.559.563c-.431.363-.659.951-.659 1.721h-.935zM187.168 335.228h1.171v6.81h.853v.829h-.853v1.771h-.941v-1.771h-4.724v-.829l4.494-6.81zm.229 1.273l-3.667 5.536h3.667v-5.536zM189.634 346.229l3.667-11.001h.857l-3.723 11.001h-.801zM195.92 344.639l3.87-8.583h-4.45v-.827h5.444v.827l-3.853 8.583h-1.011zM201.932 338.162h.939v1.563h-.939v-1.563zm0 4.841h.939v1.635h-.939v-1.635zM208.723 341.979c.021.403.135.778.318 1.047.184.276.427.492.729.647.282.109.606.188.944.188.291 0 .593-.083.881-.225.289-.179.518-.377.684-.681a1.68 1.68 0 0 0 .261-.89 2.01 2.01 0 0 0-.301-1.054c-.18-.276-.541-.52-1.035-.686-.515-.193-1.02-.335-1.513-.517-.493-.18-.89-.408-1.21-.729-.313-.359-.472-.848-.472-1.459 0-.03.002-.071.008-.125.006-.052.008-.103.008-.154.029-.445.156-.839.402-1.175.248-.354.576-.634.962-.808a2.842 2.842 0 0 1 1.242-.298c.512 0 .963.135 1.354.36.396.271.707.565.919.934.215.392.334.767.334 1.112v.138h-.942c-.076-.528-.258-.908-.562-1.188a2.06 2.06 0 0 0-1.079-.444 1.67 1.67 0 0 0-.831.21 1.31 1.31 0 0 0-.603.528c-.15.196-.242.454-.258.688 0 .597.146 1.003.459 1.217.315.237.805.466 1.474.636.667.213 1.215.431 1.625.743.409.267.714.748.888 1.428.039.247.059.465.059.584 0 .349-.067.656-.179.971-.131.321-.303.641-.538.89-.232.294-.534.488-.881.665-.368.178-.766.228-1.213.228-.437 0-.847-.05-1.213-.19-.356-.158-.679-.339-.945-.616a2.338 2.338 0 0 1-.591-.885c-.15-.325-.206-.706-.206-1.091h1.021v.001zM214.404 341.189c.007-.562.105-1.074.314-1.534.229-.459.494-.847.86-1.154.345-.333.76-.578 1.199-.768a4.298 4.298 0 0 1 1.348-.237c1.271.033 2.191.547 2.727 1.538v-1.349h.913v6.953h-.913V343.3a2.516 2.516 0 0 1-1.13 1.084c-.497.279-1.044.376-1.682.376-.477-.013-.931-.068-1.365-.257-.434-.188-.817-.405-1.172-.725a3.642 3.642 0 0 1-.8-1.134c-.21-.439-.299-.924-.299-1.455zm.967-.214c0 .562.116 1.07.369 1.505.253.438.594.809 1 1.021.406.257.839.351 1.3.361.537 0 1.018-.099 1.442-.377.426-.234.77-.6 1.015-1.012.244-.408.355-.835.355-1.282 0-.495-.107-.945-.343-1.357a3.003 3.003 0 0 0-.976-1.002 3.082 3.082 0 0 0-1.354-.404c-.542 0-1.027.145-1.453.392-.425.281-.771.616-1.009 1.009-.238.394-.346.768-.346 1.146zM225.622 344.639l-2.935-6.953h1.021l2.414 5.733 2.4-5.733h1.021l-2.956 6.953h-.965zM230.473 336.816v-1.588h.939v1.588h-.939zm0 7.823v-6.953h.939v6.953h-.939zM233.107 344.639v-6.953h.888v1.015c.229-.376.549-.655.939-.882.39-.181.832-.295 1.277-.295.385 0 .754.075 1.131.188.354.151.688.377.979.628.272.28.5.617.688 1.01.163.398.257.843.257 1.341v3.949h-.921v-3.949c0-.478-.104-.883-.309-1.209a1.906 1.906 0 0 0-.819-.793 2.641 2.641 0 0 0-1.06-.234 2.63 2.63 0 0 0-1.045.225c-.308.175-.57.424-.762.753-.214.309-.303.687-.303 1.137v4.073h-.939v-.004zM240.58 341.122c0-.709.164-1.36.514-1.916a3.21 3.21 0 0 1 1.298-1.252c.537-.278 1.085-.445 1.627-.458.42 0 .837.068 1.211.189.375.112.722.31 1.02.527.278.259.516.514.661.85v-1.398h.886v6.361c0 .539-.095 1.014-.281 1.42a3.239 3.239 0 0 1-.75 1.029c-.322.254-.698.479-1.108.581a3.595 3.595 0 0 1-1.271.226c-.412 0-.794-.059-1.167-.179-.394-.071-.732-.249-1.062-.479-.307-.184-.585-.472-.816-.776a2.757 2.757 0 0 1-.504-1.087h.913c.228.54.568.943 1.037 1.247.472.262.986.416 1.544.416.456 0 .874-.106 1.264-.314.407-.16.708-.457.948-.824.24-.356.37-.785.37-1.287v-.742c-.557.989-1.457 1.504-2.72 1.504-.43 0-.858-.047-1.284-.219-.424-.171-.819-.387-1.167-.729-.358-.303-.622-.678-.827-1.139-.23-.458-.33-.975-.336-1.551zm.94-.151c0 .552.108 1.066.35 1.501.24.441.568.81.965 1.024.418.261.863.353 1.352.363a2.73 2.73 0 0 0 1.193-.282 2.815 2.815 0 0 0 1.095-.941c.292-.428.438-.968.438-1.625 0-.316-.081-.619-.216-.963a3.626 3.626 0 0 0-.612-.835 3.282 3.282 0 0 0-.898-.592 3.24 3.24 0 0 0-1.081-.196c-.66.019-1.189.194-1.566.527-.397.314-.663.665-.8 1.084-.141.392-.22.69-.22.935zM253.779 343.778l3.9-.002v.862h-4.839v-9.411h.939v8.551zM258.617 336.816v-1.588h.939v1.588h-.939zm0 7.823v-6.953h.939v6.953h-.939zM263.379 344.639l-2.913-6.953h1.018l2.394 5.733 2.421-5.733h1.025l-2.98 6.953h-.965zM267.591 341.093a4.033 4.033 0 0 1 .334-1.512c.203-.445.481-.813.832-1.111a4.008 4.008 0 0 1 1.149-.74 4.3 4.3 0 0 1 1.289-.233c.585 0 1.168.158 1.733.431.542.271.998.7 1.364 1.291.343.587.539 1.275.539 2.087v.146h-6.299c.043.521.216.956.474 1.356.28.353.622.605 1.007.802a2.9 2.9 0 0 0 1.155.251c.347 0 .675-.075 1.028-.178.333-.15.643-.347.908-.56.266-.259.451-.5.551-.769h.965a4.292 4.292 0 0 1-.843 1.35c-.366.362-.802.617-1.263.808-.463.193-.93.247-1.401.247-.611-.026-1.2-.162-1.722-.498-.548-.29-.975-.71-1.312-1.271a3.766 3.766 0 0 1-.488-1.897zm6.311-.471a2.718 2.718 0 0 0-.484-1.084c-.252-.372-.577-.625-.952-.849a2.951 2.951 0 0 0-1.244-.29c-.595 0-1.085.153-1.496.417-.388.285-.682.612-.866.948-.18.337-.298.652-.329.859h5.372v-.001zM275.851 339.698a2.023 2.023 0 0 1-.014-.263c0-.399.107-.775.307-1.047.197-.277.449-.511.761-.671a2.36 2.36 0 0 1 .882-.194c.231 0 .465.042.697.131.233.041.442.167.63.338.186.17.358.341.466.602.13.215.18.506.193.797h-.953c-.02-.319-.113-.586-.309-.758a1.32 1.32 0 0 0-.722-.208c-.251 0-.485.09-.7.226a1.02 1.02 0 0 0-.355.74l.041.165c.024.067.039.141.045.17.072.251.287.414.65.585.385.169.752.285 1.122.443.391.151.695.337.958.639.262.257.407.642.407 1.156 0 .093-.013.234-.033.37-.056.427-.193.812-.419 1.07-.241.26-.506.479-.825.616a2.78 2.78 0 0 1-.922.155c-.415 0-.804-.062-1.122-.272-.341-.211-.601-.455-.779-.774a2.47 2.47 0 0 1-.278-1.122l.943-.03c.013.393.161.738.404.972.255.245.552.372.892.386.316-.031.604-.143.835-.374.233-.243.361-.503.361-.816 0-.311-.102-.551-.284-.805-.183-.212-.477-.389-.869-.496a4.357 4.357 0 0 1-1.365-.568c-.367-.284-.582-.653-.645-1.163zM282.233 343.003h.942l-1.14 2.463h-.916l1.114-2.463zM287.69 344.639v-9.411h2.479c.743 0 1.373.087 1.916.213.529.173.967.428 1.281.852.333.39.515.93.564 1.579.009.065.013.157.013.279 0 .479-.15.951-.409 1.393-.28.408-.679.71-1.17.95a4.142 4.142 0 0 1-1.67.337h-2.063v3.808h-.941zm.942-8.583v3.948h1.95c.837 0 1.438-.209 1.817-.58.4-.375.591-.893.591-1.553-.041-.644-.298-1.122-.771-1.412-.475-.254-1.118-.403-1.943-.403h-1.644zM294.998 344.639v-6.975h.889v1.01c.385-.782 1.061-1.178 2.033-1.178v.956a1.76 1.76 0 0 0-.68.149c-.237.063-.453.203-.667.394-.197.141-.347.359-.467.57-.116.25-.181.478-.181.77v4.303l-.927.001zM298.225 341.011c.001-.455.096-.896.276-1.313a3.37 3.37 0 0 1 .79-1.104c.337-.357.731-.597 1.19-.804a4.455 4.455 0 0 1 1.486-.268c.501 0 1.027.16 1.566.436a3.77 3.77 0 0 1 1.342 1.175 3.13 3.13 0 0 1 .606 1.697c0 .033.003.082.008.143a.95.95 0 0 1 .006.105c0 .519-.084 1-.272 1.446a4.41 4.41 0 0 1-.814 1.201 4.49 4.49 0 0 1-1.177.772c-.44.203-.904.262-1.391.262a3.395 3.395 0 0 1-1.728-.437c-.546-.28-1.003-.708-1.369-1.285-.341-.581-.519-1.223-.519-2.026zm.917.053c0 .564.114 1.053.364 1.466.248.411.589.768 1.003.976.412.255.867.354 1.361.382.406 0 .813-.109 1.239-.318a2.984 2.984 0 0 0 1.006-.979c.27-.427.409-.937.409-1.526 0-.323-.067-.642-.217-.99a3.198 3.198 0 0 0-.576-.849 3.818 3.818 0 0 0-.854-.604 3.023 3.023 0 0 0-1.005-.196c-.467.012-.91.141-1.321.347a2.949 2.949 0 0 0-1.017.95c-.259.392-.383.84-.392 1.341zM307.281 344.639v-6.107h-1.469v-.846h1.469v-2.458h.938v2.458h1.611v.846h-1.611v6.107h-.938zM310.171 341.093a3.977 3.977 0 0 1 .336-1.512c.201-.445.479-.813.819-1.111.35-.304.725-.559 1.152-.74a4.385 4.385 0 0 1 1.297-.233c.583 0 1.168.158 1.733.431.544.271.998.7 1.365 1.291.344.587.531 1.275.531 2.087v.146h-6.293c.047.521.212.956.477 1.356.278.353.623.605 1.007.802.385.169.783.251 1.155.251.344 0 .675-.075 1.028-.178.331-.15.642-.347.909-.56.266-.259.448-.5.547-.769h.967a4.26 4.26 0 0 1-.844 1.35c-.365.362-.8.617-1.261.808-.46.193-.928.247-1.401.247-.609-.026-1.198-.162-1.723-.498a3.311 3.311 0 0 1-1.308-1.271 3.699 3.699 0 0 1-.493-1.897zm6.304-.471c-.065-.392-.244-.756-.477-1.084-.253-.372-.574-.625-.95-.849a2.96 2.96 0 0 0-1.246-.29c-.606 0-1.084.153-1.494.417-.388.285-.686.612-.868.948-.184.337-.298.652-.331.859h5.365v-.001zM318.399 341.122a3.795 3.795 0 0 1 .321-1.505c.203-.44.481-.814.814-1.11a3.771 3.771 0 0 1 1.148-.746c.434-.14.86-.243 1.294-.265.792 0 1.511.189 2.184.569.655.367 1.136.941 1.426 1.688h-1.061a2.636 2.636 0 0 0-1.039-.996 3.42 3.42 0 0 0-1.51-.333 3.01 3.01 0 0 0-1.38.43 2.633 2.633 0 0 0-.91.99 2.82 2.82 0 0 0-.346 1.278c0 .498.129.953.367 1.358.237.41.551.771.973.996.433.27.896.369 1.399.385.529 0 1.018-.09 1.458-.354a2.665 2.665 0 0 0 1.023-.915h1.027c-.743 1.462-1.896 2.169-3.465 2.169-.469 0-.924-.053-1.369-.242a4.433 4.433 0 0 1-1.209-.743 4.15 4.15 0 0 1-.842-1.167 3.442 3.442 0 0 1-.331-1.431.09.09 0 0 0 .022-.031c.004-.013.006-.019.006-.025zM327.499 344.639v-6.107h-1.456v-.846h1.456v-2.458h.942v2.458h1.61v.846h-1.61v6.107h-.942zM331.004 336.816v-1.588h.94v1.588h-.94zm0 7.823v-6.953h.94v6.953h-.94zM333.641 344.639v-6.953h.886v1.015c.229-.376.549-.655.94-.882a3.106 3.106 0 0 1 1.278-.295c.385 0 .772.075 1.13.188.356.151.688.377.982.628.285.28.522.617.685 1.01.166.398.26.843.26 1.341v3.949h-.914v-3.949c0-.478-.112-.883-.318-1.209a1.867 1.867 0 0 0-.818-.793 2.61 2.61 0 0 0-1.058-.234c-.364 0-.719.087-1.042.225a2.045 2.045 0 0 0-.768.753c-.194.309-.302.687-.302 1.137v4.073h-.94v-.004zM341.111 341.122c0-.709.165-1.36.515-1.916.33-.555.782-.975 1.297-1.252.536-.278 1.083-.445 1.627-.458.44 0 .836.068 1.211.189.392.112.72.31 1.019.527.298.259.519.514.663.85v-1.398h.886v6.361c0 .539-.082 1.014-.281 1.42a3.375 3.375 0 0 1-.742 1.029c-.329.254-.686.479-1.117.581a3.602 3.602 0 0 1-1.27.226 3.83 3.83 0 0 1-1.168-.179c-.393-.071-.733-.249-1.063-.479-.308-.184-.586-.472-.819-.776-.231-.3-.394-.678-.501-1.087h.912c.229.54.588.943 1.058 1.247.472.262.964.416 1.521.416.456 0 .875-.106 1.284-.314a2.09 2.09 0 0 0 .947-.824c.244-.356.353-.785.353-1.287v-.742c-.558.989-1.458 1.504-2.7 1.504-.449 0-.879-.047-1.303-.219a3.553 3.553 0 0 1-1.168-.729 3.278 3.278 0 0 1-.827-1.139 3.828 3.828 0 0 1-.334-1.551zm.94-.151c0 .552.13 1.066.364 1.501.246.441.553.81.952 1.024.42.261.861.353 1.35.363.375 0 .773-.081 1.217-.282a2.928 2.928 0 0 0 1.071-.941c.298-.428.439-.968.439-1.625 0-.316-.08-.619-.215-.963-.142-.301-.351-.565-.604-.835a3.284 3.284 0 0 0-.909-.592 3.256 3.256 0 0 0-1.082-.196c-.661.019-1.189.194-1.566.527-.396.314-.654.665-.8 1.084-.137.392-.217.69-.217.935zM353.372 344.639v-9.411h2.456c.745 0 1.376.087 1.917.213.542.173.97.428 1.293.852.323.39.505.93.554 1.579.01.065.014.157.014.279 0 .479-.128.951-.411 1.393-.279.408-.657.71-1.153.95a4.282 4.282 0 0 1-1.686.337h-2.042v3.808h-.942zm.941-8.583v3.948h1.931c.84 0 1.438-.209 1.839-.58.379-.375.568-.893.568-1.553-.038-.644-.296-1.122-.77-1.412-.478-.254-1.117-.403-1.927-.403h-1.641zM360.221 341.093a3.959 3.959 0 0 1 .338-1.512 3.21 3.21 0 0 1 .818-1.111 4.393 4.393 0 0 1 1.151-.74 4.433 4.433 0 0 1 1.299-.233c.584 0 1.168.158 1.736.431.542.271.997.7 1.361 1.291.344.587.532 1.275.532 2.087v.146h-6.291c.045.521.209.956.474 1.356.28.353.622.605 1.007.802a2.89 2.89 0 0 0 1.153.251c.349 0 .677-.075 1.03-.178.333-.15.641-.347.908-.56.267-.259.451-.5.548-.769h.968c-.192.497-.48.949-.845 1.35-.364.362-.8.617-1.261.808-.462.193-.929.247-1.399.247-.613-.026-1.202-.162-1.726-.498-.543-.29-.971-.71-1.309-1.271a3.748 3.748 0 0 1-.492-1.897zm6.305-.471c-.064-.392-.244-.756-.475-1.084-.252-.372-.576-.625-.952-.849a2.957 2.957 0 0 0-1.246-.29c-.604 0-1.083.153-1.494.417-.388.285-.683.612-.867.948-.181.337-.299.652-.329.859h5.363v-.001zM368.444 341.011a3.44 3.44 0 0 1 .294-1.313c.183-.422.445-.786.788-1.104.321-.357.733-.597 1.189-.804a4.436 4.436 0 0 1 1.478-.268c.514 0 1.039.16 1.562.436.535.275.98.667 1.357 1.175a3.426 3.426 0 0 1 .612 1.84c.004.03.007.077.007.105 0 .519-.104 1-.295 1.446a4.29 4.29 0 0 1-.791 1.201c-.353.323-.74.567-1.179.772-.438.203-.904.262-1.391.262-.598 0-1.161-.115-1.73-.437a3.382 3.382 0 0 1-1.366-1.285c-.361-.581-.535-1.223-.535-2.026zm.914.053c0 .564.135 1.053.383 1.466.25.411.568.768.992.976.424.255.881.354 1.372.382.408 0 .814-.109 1.218-.318a2.86 2.86 0 0 0 1.028-.979c.271-.427.399-.937.399-1.526 0-.323-.059-.642-.211-.99a2.998 2.998 0 0 0-.571-.849 3.527 3.527 0 0 0-.874-.604 2.822 2.822 0 0 0-.988-.196c-.465.012-.907.141-1.339.347-.41.252-.752.552-.995.95-.26.392-.405.84-.414 1.341zM377.078 347.04v-9.378h.897v1.231c.229-.288.459-.567.735-.743.281-.226.587-.396.912-.467a3.485 3.485 0 0 1 1.021-.188c.471 0 .933.092 1.383.232.45.187.865.438 1.214.739.351.294.647.652.855 1.09.217.467.33.934.343 1.417a3.93 3.93 0 0 1-.279 1.513 4.035 4.035 0 0 1-.797 1.225 4.239 4.239 0 0 1-1.186.771c-.457.201-.931.265-1.426.276-.618 0-1.151-.098-1.641-.384a2.256 2.256 0 0 1-1.078-1.075v3.74h-.953v.001zm.887-5.851c.001.407.108.813.302 1.208.194.443.51.771.928 1.029.425.302.939.418 1.568.434.47 0 .914-.086 1.327-.341a2.58 2.58 0 0 0 1.005-.978 2.59 2.59 0 0 0 .374-1.393c0-.486-.116-.933-.367-1.35-.241-.414-.581-.737-1.014-1.009-.424-.23-.9-.366-1.42-.366a3.01 3.01 0 0 0-1.432.414 2.82 2.82 0 0 0-.952 1.027 2.879 2.879 0 0 0-.319 1.325zM385.776 344.639v-9.411h.94v9.411h-.94zM388.092 341.093c.018-.564.118-1.055.328-1.512.192-.445.478-.813.813-1.111a4.408 4.408 0 0 1 1.16-.74 4.372 4.372 0 0 1 1.295-.233c.597 0 1.156.158 1.714.431.563.271 1.019.7 1.367 1.291.376.587.531 1.275.531 2.087v.146h-6.265c.045.521.184.956.478 1.356.267.353.597.605.981.802.409.169.796.251 1.166.251.333 0 .689-.075 1.029-.178.333-.15.627-.347.909-.56.251-.259.451-.5.564-.769h.967a4.105 4.105 0 0 1-.877 1.35 3.826 3.826 0 0 1-1.244.808c-.462.193-.928.247-1.4.247-.625-.026-1.188-.162-1.725-.498a3.224 3.224 0 0 1-1.298-1.271c-.335-.558-.493-1.159-.493-1.897zm6.295-.471a2.425 2.425 0 0 0-.497-1.084c-.235-.372-.572-.625-.952-.849a2.788 2.788 0 0 0-1.223-.29c-.61 0-1.107.153-1.496.417a3.072 3.072 0 0 0-.867.948 2.613 2.613 0 0 0-.319.859h5.354v-.001zM397.508 335.974h-1.729v-.746h4.346v.746h-1.677v4.593h-.94v-4.593zm3.574 4.592v-5.339h1.354l1.55 3.776 1.563-3.776h1.354v5.339h-.827v-4.593l-1.853 4.593h-.499l-1.812-4.593v4.593h-.83z"></path></g></svg></svg>