<svg xmlns="http://www.w3.org/2000/svg" height="37" width="64" viewBox="0 0 64 37">
  <title>United States of America</title>
  <rect x="0" y="0" width="64" height="37" fill="#fff"></rect>
  <rect x="0" y="0" width="64" height="2.846" fill="#dc1f2b"></rect>
  <rect x="0" y="5.692" width="64" height="2.846" fill="#dc1f2b"></rect>
  <rect x="0" y="11.384" width="64" height="2.846" fill="#dc1f2b"></rect>
  <rect x="0" y="17.076" width="64" height="2.846" fill="#dc1f2b"></rect>
  <rect x="0" y="22.768" width="64" height="2.846" fill="#dc1f2b"></rect>
  <rect x="0" y="28.46" width="64" height="2.846" fill="#dc1f2b"></rect>
  <rect x="0" y="34.152" width="64" height="2.846" fill="#dc1f2b"></rect>
  <rect x="0" width="28.3" height="20" fill="#ffffff"></rect>
  <path d="M0,0V20H28.29V0Zm3.1,18.75-.68-.49-.67.49L2,18l-.68-.49h.84l.09-.29.16-.5.16.5.1.29h.83L2.85,18ZM2.85,14l.1.32.16.47-.66-.47,0,0,0,0-.65.47.15-.47L2,14l-.68-.49h.84l.25-.79.26.79h.83Zm0-3.92.26.79-.68-.49-.67.49L2,10.07l-.68-.49h.84l.25-.79.26.79h.83Zm.56-4.35-.56.41.26.79-.68-.48-.67.48L2,6.13l-.57-.41-.11-.08h.84l.25-.79.26.79h.83Zm-.56-3.6.24.74,0,.05L3,2.86l-.61-.44-.61.44-.06.05V2.86L2,2.12l-.68-.49h.84l.25-.8.26.8h.83Zm2.6,14.62-.67-.49-.68.49L4.36,16l-.67-.49h.83l.26-.8.25.8h.84L5.19,16ZM5.19,12l.26.79-.67-.48-.68.48L4.36,12l-.67-.49h.83v0l.25-.75.24.75v0h.84Zm0-3.92.17.52.09.27-.37-.27-.3-.22-.31.22-.37.27.09-.27.17-.52-.67-.49h.83l.26-.79L5,7.57h.84Zm0-3.94.26.8-.67-.49-.68.49.26-.8-.67-.49h.83l.25-.77v0L5,3.63h.84Zm2.6,14.63-.67-.49-.67.49L6.7,18,6,17.46h.83l.1-.29.16-.5.16.5.1.29h.83L7.54,18ZM7.54,14l.1.32.15.47-.65-.47,0,0,0,0-.65.47.15-.47L6.7,14,6,13.5h.83l.26-.79.26.79h.83Zm0-3.92.25.79-.67-.49-.67.49.25-.79L6,9.58h.83l.26-.79.26.79h.83ZM8.1,5.72l-.56.41.25.79-.67-.48-.67.48.25-.79-.56-.41L6,5.64h.83l.26-.79.26.79h.83Zm-.56-3.6.24.74v.05l-.06-.05-.61-.44-.61.44-.06.05V2.86l.24-.74L6,1.63h.83l.26-.8.26.8h.83Zm2.6,14.62-.68-.49-.67.49L9.05,16l-.68-.49h.84l.25-.8.26.8h.83L9.88,16ZM9.88,12l.26.79-.68-.48-.67.48L9.05,12l-.68-.49h.84v0l.24-.75.24.75,0,0h.83Zm0-3.92.17.52.09.27-.37-.27-.31-.22-.3.22-.37.27.09-.27.17-.52-.68-.49h.84l.25-.79.26.79h.83Zm0-3.94.26.8-.68-.49-.67.49.26-.8-.68-.49h.84l.25-.77v0l.25.77h.83Zm2.6,14.63-.67-.49-.68.49.26-.8-.67-.49h.83l.1-.29.16-.5.16.5.09.29h.84l-.68.49ZM12.22,14l.11.32.15.47-.65-.47,0,0,0,0-.66.47.16-.47.1-.32-.67-.49h.83l.26-.79.25.79h.84Zm0-3.92.26.79-.67-.49-.68.49.26-.79-.67-.49h.83l.26-.79.25.79h.84Zm.57-4.35-.57.41.26.79-.67-.48-.68.48.26-.79-.56-.41-.11-.08h.83l.26-.79.25.79h.84Zm-.57-3.6.25.74v.05l-.06-.05-.61-.44-.61.44-.07.05,0-.05.24-.74-.67-.49h.83l.26-.8.25.8h.84Zm2.6,14.62-.67-.49-.67.49.25-.79-.67-.49h.83l.26-.8.26.8h.83l-.67.49ZM14.57,12l.25.79-.67-.48-.67.48.25-.79-.67-.49h.83l0,0,.24-.75.24.75,0,0h.83Zm0-3.92.17.52.08.27-.36-.27-.31-.22-.31.22-.36.27.08-.27.17-.52-.67-.49h.83l.26-.79.26.79h.83Zm0-3.94.25.8-.67-.49-.67.49.25-.8-.67-.49h.83l.25-.77v0l.25.77h.83Zm2.6,14.63-.68-.49-.67.49.26-.8-.68-.49h.84l.09-.29.16-.5.17.5.09.29h.83l-.67.49ZM16.91,14l.1.32.16.47-.66-.47,0,0v0l-.66.47.15-.47.11-.32-.68-.49h.84l.25-.79.26.79h.83Zm0-3.92.26.79-.68-.49-.67.49.26-.79-.68-.49h.84l.25-.79.26.79h.83Zm.56-4.35-.56.41.26.79-.68-.48-.67.48.26-.79-.57-.41-.11-.08h.84l.25-.79.26.79h.83Zm-.56-3.6.24.74,0,.05-.07-.05-.61-.44-.61.44-.06.05,0-.05.24-.74-.68-.49h.84l.25-.8.26.8h.83Zm2.6,14.62-.67-.49-.68.49.26-.79-.67-.49h.83l.26-.8.25.8h.84l-.68.49ZM19.25,12l.26.79-.67-.48-.68.48.26-.79-.67-.49h.83l0,0,.24-.75.24.75v0h.84Zm0-3.92.17.52.09.27-.37-.27-.3-.22-.31.22-.37.27.09-.27.17-.52-.67-.49h.83l.26-.79.25.79h.84Zm0-3.94.26.8-.67-.49-.68.49.26-.8-.67-.49h.83l.25-.77v0l.25.77h.84Zm2.6,14.63-.67-.49-.67.49.25-.8-.67-.49h.83l.1-.29.16-.5.16.5.1.29h.83L21.6,18ZM21.6,14l.1.32.15.47-.65-.47,0,0,0,0-.65.47.15-.47.1-.32-.67-.49h.83l.26-.79.26.79h.83Zm0-3.92.25.79-.67-.49-.67.49.25-.79-.67-.49h.83l.26-.79.26.79h.83Zm.56-4.35-.56.41.25.79-.67-.48-.67.48.25-.79-.56-.41-.11-.08h.83l.26-.79.26.79h.83Zm-.56-3.6.24.74v.05l-.06-.05-.61-.44-.61.44-.06.05V2.86l.24-.74-.67-.49h.83l.26-.8.26.8h.83Zm2.6,14.62-.68-.49-.67.49.26-.79-.68-.49h.84l.25-.8.26.8h.83l-.67.49ZM23.94,12l.26.79-.68-.48-.67.48.26-.79-.68-.49h.84v0l.24-.75.25.75v0h.83Zm0-3.92.17.52.09.27-.37-.27-.31-.22-.3.22-.37.27.09-.27.17-.52-.68-.49h.84l.25-.79.26.79h.83Zm0-3.94.26.8-.68-.49-.67.49.26-.8-.68-.49h.84l.25-.77v0l.25.77h.83Zm2.6,14.63-.67-.49-.68.49.26-.8-.67-.49h.83l.1-.29.16-.5.16.5.09.29H27l-.68.49ZM26.28,14l.11.32.15.47-.65-.47,0,0,0,0-.66.47.16-.47.1-.32-.67-.49h.83l.26-.79.25.79H27Zm0-3.92.26.79-.67-.49-.68.49.26-.79-.67-.49h.83l.26-.79.25.79H27Zm.57-4.35-.57.41.26.79-.67-.48-.68.48.26-.79-.56-.41-.11-.08h.83l.26-.79.25.79H27Zm-.57-3.6.25.74v.05l-.06-.05-.61-.44-.61.44-.07.05,0-.05.24-.74-.67-.49h.83l.26-.8.25.8H27Z" fill="#1b304f"></path>
</svg>